<?xml version="1.0" encoding="UTF-8"?>
<svg version="1.1" xmlns="http://www.w3.org/2000/svg" width="146" height="131">
<path d="M0 0 C2.875 2.375 2.875 2.375 5 5 C5.99 5.99 5.99 5.99 7 7 C7.515625 6.505 8.03125 6.01 8.5625 5.5 C11.99136114 3.38993161 14.04220351 3.37508477 18 4 C22.61828462 7.97387282 24.09244796 12.46319127 25.8125 18.21875 C28.69184007 24.96246753 33.95632306 28.69613712 39.75 32.8125 C53.43268123 42.84770687 64.22332215 54.37487837 68.58203125 71.25390625 C70.58110322 84.38799595 69.80336832 97.82895877 61.75 108.8125 C49.63562919 123.00142479 34.05316027 128.44122121 16 131 C13.18742257 131.12622995 10.39912364 131.2101436 7.5859375 131.23828125 C6.78242355 131.24816574 5.97890961 131.25805023 5.15104675 131.26823425 C-47.09827946 131.77871346 -47.09827946 131.77871346 -66.875 112.63671875 C-76.19695028 101.06996059 -78.11375059 88.43209214 -77 74 C-73.5640273 54.64678028 -60.73800883 41.70087936 -45.5 30.625 C-44.81752197 30.14933594 -44.13504395 29.67367188 -43.43188477 29.18359375 C-35.86225174 23.80643372 -33.24757288 17.44876669 -30.24609375 8.828125 C-29 6 -29 6 -26 4 C-22.18453778 3.6531398 -19.86721204 3.46633105 -16.5625 5.5 C-16.046875 5.995 -15.53125 6.49 -15 7 C-14.21625 6.030625 -13.4325 5.06125 -12.625 4.0625 C-9.14228112 -0.24507335 -5.47924928 -0.96754498 0 0 Z " fill="#F2E9D8" transform="translate(77,0)"/>
<path d="M0 0 C2.875 2.375 2.875 2.375 5 5 C5.99 5.99 5.99 5.99 7 7 C7.515625 6.505 8.03125 6.01 8.5625 5.5 C11.99136114 3.38993161 14.04220351 3.37508477 18 4 C22.61828462 7.97387282 24.09244796 12.46319127 25.8125 18.21875 C28.69184007 24.96246753 33.95632306 28.69613712 39.75 32.8125 C53.43268123 42.84770687 64.22332215 54.37487837 68.58203125 71.25390625 C70.58110322 84.38799595 69.80336832 97.82895877 61.75 108.8125 C49.63562919 123.00142479 34.05316027 128.44122121 16 131 C13.18742257 131.12622995 10.39912364 131.2101436 7.5859375 131.23828125 C6.78242355 131.24816574 5.97890961 131.25805023 5.15104675 131.26823425 C-47.09827946 131.77871346 -47.09827946 131.77871346 -66.875 112.63671875 C-76.19695028 101.06996059 -78.11375059 88.43209214 -77 74 C-73.5640273 54.64678028 -60.73800883 41.70087936 -45.5 30.625 C-44.81752197 30.14933594 -44.13504395 29.67367188 -43.43188477 29.18359375 C-35.86225174 23.80643372 -33.24757288 17.44876669 -30.24609375 8.828125 C-29 6 -29 6 -26 4 C-22.18453778 3.6531398 -19.86721204 3.46633105 -16.5625 5.5 C-16.046875 5.995 -15.53125 6.49 -15 7 C-14.21625 6.030625 -13.4325 5.06125 -12.625 4.0625 C-9.14228112 -0.24507335 -5.47924928 -0.96754498 0 0 Z M-6 6 C-8.31663844 9.93828536 -10.43358249 13.69235185 -12 18 C-13.8125 17.8125 -13.8125 17.8125 -16 17 C-17.01866229 15.34467377 -18.01810813 13.67739862 -19 12 C-21.06700655 10.67206394 -21.06700655 10.67206394 -23 10 C-25.10683183 13.16024774 -26.4799582 16.25966755 -27.75 19.8125 C-31.27539307 28.72501058 -37.47668872 33.54313247 -45.15625 38.93359375 C-56.59797822 47.2477067 -68.52896455 59.39343492 -71 74 C-71.93824009 86.79697955 -70.47343242 97.98351365 -61.90625 108.0390625 C-48.93464435 121.38280438 -30.47995967 125.00229615 -12.5390625 125.30078125 C-10.31554341 125.31824054 -8.09271758 125.32221661 -5.86914062 125.31567383 C-3.63361803 125.31251219 -1.39942327 125.33609334 0.8359375 125.36132812 C13.56910871 125.41864775 26.67424613 124.31680203 38.375 118.875 C39.03218018 118.5756958 39.68936035 118.2763916 40.36645508 117.96801758 C50.52265586 113.08501298 56.70852938 106.35317287 61 96 C61.36351562 95.39671875 61.72703125 94.7934375 62.1015625 94.171875 C65.51237697 85.92660176 63.1566772 74.05048725 60.3203125 66.02734375 C54.5972948 52.90503984 45.20445392 44.45147441 33.87109375 36.12109375 C27.07394107 31.09952381 22.12283335 26.98057412 19 19 C18.55333984 17.86884766 18.55333984 17.86884766 18.09765625 16.71484375 C17.37234545 14.81967683 16.68250051 12.91100143 16 11 C14.68 11 13.36 11 12 11 C9.9492907 13.22648438 8.35358597 15.29282805 7 18 C5.12109375 17.8125 5.12109375 17.8125 3 17 C1.7767652 14.47461202 1.04149934 11.93123505 0.22265625 9.25 C-0.81120478 6.72307369 -0.81120478 6.72307369 -3.62890625 6.1875 C-4.41136719 6.125625 -5.19382812 6.06375 -6 6 Z " fill="#572D24" transform="translate(77,0)"/>
<path d="M0 0 C0.99 0.33 1.98 0.66 3 1 C3.99 0.67 4.98 0.34 6 0 C6.99 0.66 7.98 1.32 9 2 C7.60587891 3.16015625 7.60587891 3.16015625 6.18359375 4.34375 C-5.11126922 13.8174518 -17.50505708 24.48927055 -20 40 C-20.9333454 52.73021921 -19.5021743 64.02313652 -10.96875 74.0390625 C4.81325366 89.75843916 29.6063303 90.7919597 50.5625 91.5625 C51.66658203 91.60568359 52.77066406 91.64886719 53.90820312 91.69335938 C56.60537185 91.79844387 59.30261703 91.90059413 62 92 C61.505 93.485 61.505 93.485 61 95 C61.99 95 62.98 95 64 95 C64 95.66 64 96.32 64 97 C6.86469256 98.17786076 6.86469256 98.17786076 -14.5625 80.875 C-22.35948079 73.32826015 -27.02792369 62.70734398 -27.29272461 51.90869141 C-27.42940376 35.69280703 -22.90768484 21.8759806 -11.41992188 10.03930664 C-3.39600681 2.04342166 -3.39600681 2.04342166 0 0 Z " fill="#572F25" transform="translate(27,34)"/>
<path d="M0 0 C1.64573233 -0.02768522 3.29161069 -0.04669585 4.9375 -0.0625 C5.85402344 -0.07410156 6.77054688 -0.08570312 7.71484375 -0.09765625 C10.23398528 -0.02277095 12.6011692 0.16535711 15.09375 0.46875 C20.90247185 1.15589491 26.72036859 1.34768986 32.5625 1.5625 C33.66658203 1.60568359 34.77066406 1.64886719 35.90820312 1.69335938 C38.60537185 1.79844387 41.30261703 1.90059413 44 2 C43.67 2.99 43.34 3.98 43 5 C43.99 5 44.98 5 46 5 C46 5.66 46 6.32 46 7 C40.95037222 7.0499887 35.90089315 7.08599384 30.85107422 7.10986328 C29.13848354 7.11982955 27.42590946 7.13340747 25.71337891 7.15087891 C-0.2274348 7.40861931 -0.2274348 7.40861931 -4.81152344 3.42626953 C-5.39981934 2.72026611 -5.39981934 2.72026611 -6 2 C-4.02 1.67 -2.04 1.34 0 1 C0 0.67 0 0.34 0 0 Z " fill="#50221A" transform="translate(45,124)"/>
<path d="M0 0 C5.94603717 1.10111799 11.00324342 3.273869 16.46484375 5.828125 C21.98660298 8.38055608 27.00434053 9.37975936 33 10 C29.77473782 12.85311655 27.2241104 13.44902908 23 14 C22.01 14.495 22.01 14.495 21 15 C13.66395518 13.15325261 5.86799767 9.82962771 0 5 C-0.8359375 2.875 -0.8359375 2.875 -1 1 C-0.67 0.67 -0.34 0.34 0 0 Z " fill="#562C23" transform="translate(17,113)"/>
<path d="M0 0 C1.65 0.33 3.3 0.66 5 1 C5 9.25 5 17.5 5 26 C3.35 26.33 1.7 26.66 0 27 C-1.74545605 25.25454395 -1.1302316 22.83875783 -1.1328125 20.46875 C-1.13410156 19.34855469 -1.13539062 18.22835937 -1.13671875 17.07421875 C-1.13285156 15.89472656 -1.12898438 14.71523438 -1.125 13.5 C-1.12886719 12.32050781 -1.13273437 11.14101563 -1.13671875 9.92578125 C-1.13542969 8.80558594 -1.13414063 7.68539062 -1.1328125 6.53125 C-1.13168457 5.49548828 -1.13055664 4.45972656 -1.12939453 3.39257812 C-1 1 -1 1 0 0 Z " fill="#60372B" transform="translate(71,31)"/>
<path d="M0 0 C1.88671875 0.08203125 1.88671875 0.08203125 4 1 C5.45703125 3.51171875 5.45703125 3.51171875 6.8125 6.6875 C9.44765346 12.34195973 11.96813529 15.37705741 17 19 C16.67 20.65 16.34 22.3 16 24 C11.72734542 23.50700139 8.82998515 21.05249012 6 18 C2.08921802 12.6374196 -0.85686994 7.72711277 -1 1 C-0.67 0.67 -0.34 0.34 0 0 Z " fill="#4D231B" transform="translate(87,30)"/>
<path d="M0 0 C1.32 0.33 2.64 0.66 4 1 C3.46345384 9.5847385 -1.15204647 15.18212854 -6.47265625 21.65234375 C-8.3107186 23.27416347 -9.56525634 23.76975261 -12 24 C-12.66 23.34 -13.32 22.68 -14 22 C-14 21.01 -14 20.02 -14 19 C-12.56040814 17.82823918 -11.11771936 16.65998309 -9.65625 15.515625 C-5.19304394 11.4313704 -2.55684273 5.38282679 0 0 Z " fill="#563026" transform="translate(56,30)"/>
<path d="M0 0 C2.14006369 6.42019108 0.95781181 13.41504378 0 20 C-0.66 20 -1.32 20 -2 20 C-2 20.66 -2 21.32 -2 22 C-2.66 22 -3.32 22 -4 22 C-5.11083501 18.66749498 -5.16759585 16.06961042 -5.1875 12.5625 C-5.20167969 11.42941406 -5.21585937 10.29632813 -5.23046875 9.12890625 C-5.00680538 6.09239167 -4.70318718 4.48405041 -3 2 C-2.01 1.34 -1.02 0.68 0 0 Z " fill="#491F16" transform="translate(5,68)"/>
<path d="M0 0 C2.02862883 2.53578604 4.05617535 5.0714959 6.0625 7.625 C7.62944607 9.5457726 9.20602511 11.29572385 11 13 C8.03 12.505 8.03 12.505 5 12 C5.33 12.99 5.66 13.98 6 15 C3 15 3 15 1.46484375 13.64453125 C-1.3695731 10.24468086 -3.69314084 7.31263524 -5 3 C-4.01 3 -3.02 3 -2 3 C-1.67 2.34 -1.34 1.68 -1 1 C-0.67 0.67 -0.34 0.34 0 0 Z " fill="#60372E" transform="translate(101,17)"/>
<path d="M0 0 C0.99 0.33 1.98 0.66 3 1 C3.99 0.67 4.98 0.34 6 0 C6.99 0.66 7.98 1.32 9 2 C7.04653795 3.67268922 5.08770186 5.33821581 3.125 7 C2.29162109 7.71542969 2.29162109 7.71542969 1.44140625 8.4453125 C-2.7734375 12 -2.7734375 12 -5 12 C-5.875 9.9375 -5.875 9.9375 -6 7 C-4.26080867 4.40994275 -2.19602066 2.20875121 0 0 Z " fill="#552E24" transform="translate(27,34)"/>
<path d="M0 0 C1 3 1 3 0 6 C-0.66 6 -1.32 6 -2 6 C-1.938125 7.093125 -1.87625 8.18625 -1.8125 9.3125 C-2 13 -2 13 -3.1875 15 C-5 16 -5 16 -7.6875 15.6875 C-8.450625 15.460625 -9.21375 15.23375 -10 15 C-9.34215037 11.70319035 -8.10579427 9.15882078 -6.4375 6.25 C-5.75494141 5.05117187 -5.75494141 5.05117187 -5.05859375 3.828125 C-4.70925781 3.22484375 -4.35992187 2.6215625 -4 2 C-2.68 2 -1.36 2 0 2 C0 1.34 0 0.68 0 0 Z " fill="#542A21" transform="translate(143,92)"/>
<path d="M0 0 C1.32 0.33 2.64 0.66 4 1 C3.5317879 5.77576339 2.75668002 9.04476345 0 13 C-2.475 12.01 -2.475 12.01 -5 11 C-3.55049545 7.2089881 -1.84827434 3.6125362 0 0 Z " fill="#5D342A" transform="translate(56,30)"/>
<path d="M0 0 C1.94140625 0.203125 1.94140625 0.203125 4 1 C5.69335305 3.45679697 6.53587421 6.06053664 7 9 C5.6875 12 5.6875 12 4 14 C0.60624225 9.68067195 -1.4574349 6.64169716 -1 1 C-0.67 0.67 -0.34 0.34 0 0 Z " fill="#5D3328" transform="translate(87,30)"/>
<path d="M0 0 C-0.66 0.66 -1.32 1.32 -2 2 C-2.33 2.66 -2.66 3.32 -3 4 C-5.06640625 4.4140625 -5.06640625 4.4140625 -7.5625 4.625 C-8.38878906 4.69976562 -9.21507813 4.77453125 -10.06640625 4.8515625 C-11.02353516 4.92503906 -11.02353516 4.92503906 -12 5 C-12 4.34 -12 3.68 -12 3 C-23.385 2.505 -23.385 2.505 -35 2 C-35 1.67 -35 1.34 -35 1 C-34.23856689 0.97494385 -33.47713379 0.9498877 -32.69262695 0.92407227 C-29.23242624 0.80780952 -25.77247746 0.68522022 -22.3125 0.5625 C-21.11431641 0.52318359 -19.91613281 0.48386719 -18.68164062 0.44335938 C-17.52470703 0.40146484 -16.36777344 0.35957031 -15.17578125 0.31640625 C-14.11270752 0.27974854 -13.04963379 0.24309082 -11.9543457 0.20532227 C-1.55272155 -0.51757385 -1.55272155 -0.51757385 0 0 Z " fill="#6E4237" transform="translate(100,124)"/>
<path d="M0 0 C0.66 0.33 1.32 0.66 2 1 C1.484375 1.391875 0.96875 1.78375 0.4375 2.1875 C-0.036875 2.785625 -0.51125 3.38375 -1 4 C-0.70700977 5.67422986 -0.37309899 7.34178227 0 9 C-0.99 10.485 -0.99 10.485 -2 12 C-2.66 12 -3.32 12 -4 12 C-4 11.01 -4 10.02 -4 9 C-4.763125 9.825 -5.52625 10.65 -6.3125 11.5 C-9 14 -9 14 -12 14 C-10.41332422 10.09714233 -7.86649519 7.66479018 -4.875 4.75 C-3.96492188 3.85796875 -3.05484375 2.9659375 -2.1171875 2.046875 C-1.41851562 1.37140625 -0.71984375 0.6959375 0 0 Z " fill="#5F392F" transform="translate(23,37)"/>
<path d="M0 0 C0.66 0 1.32 0 2 0 C2 0.99 2 1.98 2 3 C2.99 3 3.98 3 5 3 C5 2.34 5 1.68 5 1 C5.66 1 6.32 1 7 1 C9.08387097 5.41290323 9.08387097 5.41290323 8.6875 8.1875 C8 10 8 10 7 12 C1.33064516 6.62903226 1.33064516 6.62903226 0 3 C0 2.01 0 1.02 0 0 Z " fill="#4E2920" transform="translate(3,98)"/>
<path d="M0 0 C1.134375 0.020625 2.26875 0.04125 3.4375 0.0625 C2.1175 0.3925 0.7975 0.7225 -0.5625 1.0625 C-0.5625 1.7225 -0.5625 2.3825 -0.5625 3.0625 C2.9025 2.5675 2.9025 2.5675 6.4375 2.0625 C6.4375 3.0525 6.4375 4.0425 6.4375 5.0625 C7.4275 5.3925 8.4175 5.7225 9.4375 6.0625 C9.4375 6.7225 9.4375 7.3825 9.4375 8.0625 C6.4375 9.0625 6.4375 9.0625 3.4375 8.0625 C3.1075 7.4025 2.7775 6.7425 2.4375 6.0625 C-0.59184491 5.40477572 -0.59184491 5.40477572 -3.5625 5.0625 C-4.125 3.125 -4.125 3.125 -4.5625 1.0625 C-3.5625 0.0625 -3.5625 0.0625 0 0 Z " fill="#51251D" transform="translate(72.5625,0.9375)"/>
<path d="M0 0 C1.65 0 3.3 0 5 0 C5 0.99 5 1.98 5 3 C6.65 3.33 8.3 3.66 10 4 C10 4.33 10 4.66 10 5 C7.89646505 5.0810206 5.79204048 5.13919907 3.6875 5.1875 C2.51574219 5.22230469 1.34398437 5.25710937 0.13671875 5.29296875 C-3 5 -3 5 -4.91796875 3.48828125 C-5.27503906 2.99714844 -5.63210937 2.50601563 -6 2 C-4.02 1.67 -2.04 1.34 0 1 C0 0.67 0 0.34 0 0 Z " fill="#451E16" transform="translate(45,124)"/>
<path d="M0 0 C1 3 1 3 0 6 C-0.66 6 -1.32 6 -2 6 C-2 8.31 -2 10.62 -2 13 C-2.66 13 -3.32 13 -4 13 C-4.144375 12.401875 -4.28875 11.80375 -4.4375 11.1875 C-4.8872439 9.43849596 -5.42892341 7.71322977 -6 6 C-4.75 3.8125 -4.75 3.8125 -3 2 C-2.01 2 -1.02 2 0 2 C0 1.34 0 0.68 0 0 Z " fill="#4E211A" transform="translate(143,92)"/>
<path d="M0 0 C0.86625 0.556875 0.86625 0.556875 1.75 1.125 C1.42 2.775 1.09 4.425 0.75 6.125 C-2.21175123 5.51222388 -3.63058783 4.87127478 -6.25 3.125 C-6.25 2.465 -6.25 1.805 -6.25 1.125 C-2.80384615 -1.09038462 -2.80384615 -1.09038462 0 0 Z " fill="#643F36" transform="translate(102.25,47.875)"/>
<path d="M0 0 C7.21835174 -0.61172472 7.21835174 -0.61172472 10.875 2.25 C12.6001056 4.4824896 13.94127503 6.40131144 15 9 C14.34 9 13.68 9 13 9 C12.4225 8.175 11.845 7.35 11.25 6.5 C9.19396698 3.64917869 9.19396698 3.64917869 5.75 3.6875 C4.38875 3.8421875 4.38875 3.8421875 3 4 C3 3.34 3 2.68 3 2 C2.01 1.34 1.02 0.68 0 0 Z " fill="#634137" transform="translate(69,0)"/>
<path d="M0 0 C0.66 0.33 1.32 0.66 2 1 C2.99 1.33 3.98 1.66 5 2 C5.99 2.33 6.98 2.66 8 3 C4.16674383 5.70582788 1.67461851 6.32613618 -3 6 C-2 4 -1 2 0 0 Z " fill="#4D2720" transform="translate(112,120)"/>
<path d="M0 0 C0.66 0.66 1.32 1.32 2 2 C2.66 1.67 3.32 1.34 4 1 C5.23076923 6.41538462 5.23076923 6.41538462 4.0625 9.375 C3.711875 9.91125 3.36125 10.4475 3 11 C2.67 9.35 2.34 7.7 2 6 C1.01 6.33 0.02 6.66 -1 7 C-1.33 7.99 -1.66 8.98 -2 10 C-1.54177532 6.53058454 -1.10868317 3.32604951 0 0 Z " fill="#5A3028" transform="translate(3,63)"/>
<path d="M0 0 C0.66 0 1.32 0 2 0 C2.8125 1.6875 2.8125 1.6875 3 4 C0.5625 6.75 0.5625 6.75 -2 9 C-2 8.34 -2 7.68 -2 7 C-2.99 6.67 -3.98 6.34 -5 6 C-3.38405168 3.95880212 -1.7143618 1.95927063 0 0 Z " fill="#5E2E24" transform="translate(17,46)"/>
<path d="M0 0 C0 0.99 0 1.98 0 3 C-1.96875 4.60546875 -1.96875 4.60546875 -4.5 6.1875 C-5.3353125 6.71730469 -6.170625 7.24710938 -7.03125 7.79296875 C-7.6809375 8.19128906 -8.330625 8.58960938 -9 9 C-9.66 8.67 -10.32 8.34 -11 8 C-3.75 0.75 -3.75 0.75 0 0 Z " fill="#5D3A30" transform="translate(39,27)"/>
<path d="M0 0 C3.625 0.1875 3.625 0.1875 6.625 2.1875 C4.625 4.1875 4.625 4.1875 1.6875 4.5 C-1.375 4.1875 -1.375 4.1875 -3.25 2.6875 C-3.62125 2.1925 -3.9925 1.6975 -4.375 1.1875 C-3.375 0.1875 -3.375 0.1875 0 0 Z " fill="#55261D" transform="translate(35.375,120.8125)"/>
<path d="M0 0 C0.33 0.66 0.66 1.32 1 2 C-4.445 3.485 -4.445 3.485 -10 5 C-9.67 3.68 -9.34 2.36 -9 1 C-6.04335481 -0.4783226 -3.25770263 -0.06032783 0 0 Z " fill="#644239" transform="translate(95,4)"/>
<path d="M0 0 C2.96783129 1.45668783 5.86415313 3.01232086 8.75 4.625 C9.94882812 5.29402344 9.94882812 5.29402344 11.171875 5.9765625 C11.77515625 6.31429687 12.3784375 6.65203125 13 7 C11.296875 7.67578125 11.296875 7.67578125 9 8 C6.640625 6.85546875 6.640625 6.85546875 4.25 5.1875 C3.45078125 4.64480469 2.6515625 4.10210937 1.828125 3.54296875 C1.22484375 3.03378906 0.6215625 2.52460937 0 2 C0 1.34 0 0.68 0 0 Z " fill="#46271F" transform="translate(16,115)"/>
<path d="M0 0 C2.31 0.33 4.62 0.66 7 1 C6.34 2.65 5.68 4.3 5 6 C3.68 5.67 2.36 5.34 1 5 C0.67 3.35 0.34 1.7 0 0 Z " fill="#55281E" transform="translate(106,29)"/>
<path d="M0 0 C-0.55728913 3.34373475 -1.35173889 6.03312999 -3 9 C-3.66 9 -4.32 9 -5 9 C-5.75 6.75 -5.75 6.75 -6 4 C-2.86486486 0 -2.86486486 0 0 0 Z " fill="#4E231A" transform="translate(27,37)"/>
<path d="M0 0 C1.72265625 1.515625 1.72265625 1.515625 3 3 C2.31292969 2.98839844 1.62585937 2.97679687 0.91796875 2.96484375 C0.01691406 2.95582031 -0.88414063 2.94679688 -1.8125 2.9375 C-2.70582031 2.92589844 -3.59914063 2.91429687 -4.51953125 2.90234375 C-7.13413791 2.88990033 -7.13413791 2.88990033 -10 4 C-9.67 3.01 -9.34 2.02 -9 1 C-5.95016004 -0.52491998 -3.3576631 -0.23562548 0 0 Z " fill="#725448" transform="translate(58,4)"/>
<path d="M0 0 C4.95 0 9.9 0 15 0 C15 0.33 15 0.66 15 1 C10.71 1.66 6.42 2.32 2 3 C2 2.34 2 1.68 2 1 C1.34 0.67 0.68 0.34 0 0 Z " fill="#553129" transform="translate(89,128)"/>
<path d="M0 0 C0.33 0.99 0.66 1.98 1 3 C-1.25 6.1875 -1.25 6.1875 -4 9 C-4.99 9 -5.98 9 -7 9 C-5.44499019 5.18315774 -2.96404505 2.80804268 0 0 Z " fill="#604339" transform="translate(18,42)"/>
<path d="M0 0 C0.99 1.32 1.98 2.64 3 4 C2.67 4.66 2.34 5.32 2 6 C1.34 5.67 0.68 5.34 0 5 C0.33 5.99 0.66 6.98 1 8 C-0.32 8 -1.64 8 -3 8 C-3.33 7.01 -3.66 6.02 -4 5 C-3.34 5 -2.68 5 -2 5 C-1.34 3.35 -0.68 1.7 0 0 Z " fill="#613A30" transform="translate(139,57)"/>
<path d="M0 0 C0.99 0.99 1.98 1.98 3 3 C2.34 4.65 1.68 6.3 1 8 C1.66 8.33 2.32 8.66 3 9 C2.01 9 1.02 9 0 9 C-1.125 6.75 -1.125 6.75 -2 4 C-1.125 1.6875 -1.125 1.6875 0 0 Z " fill="#522B23" transform="translate(93,39)"/>
<path d="M0 0 C1.10844919 3.32534757 0.84454356 5.62182575 0 9 C-0.99 9.33 -1.98 9.66 -3 10 C-3 10.66 -3 11.32 -3 12 C-3.66 11.67 -4.32 11.34 -5 11 C-4.72285156 10.45730469 -4.44570313 9.91460937 -4.16015625 9.35546875 C-3.79792969 8.64003906 -3.43570313 7.92460937 -3.0625 7.1875 C-2.52302734 6.12595703 -2.52302734 6.12595703 -1.97265625 5.04296875 C-0.89269484 2.88189715 -0.89269484 2.88189715 0 0 Z " fill="#684A3F" transform="translate(45,13)"/>
<path d="M0 0 C2 1 2 1 3 3 C2.67 3.66 2.34 4.32 2 5 C2.66 5.33 3.32 5.66 4 6 C3.34 6.66 2.68 7.32 2 8 C1.01 8 0.02 8 -1 8 C-1 7.01 -1 6.02 -1 5 C-0.34 5 0.32 5 1 5 C1 4.34 1 3.68 1 3 C0.01 2.67 -0.98 2.34 -2 2 C-1.34 1.34 -0.68 0.68 0 0 Z " fill="#6B4339" transform="translate(67,1)"/>
<path d="M0 0 C0.33 0.99 0.66 1.98 1 3 C1.66 3 2.32 3 3 3 C3 5.97 3 8.94 3 12 C0.97649676 8.96474514 0.67875982 7.80573798 0.375 4.3125 C0.30023437 3.50425781 0.22546875 2.69601563 0.1484375 1.86328125 C0.09945313 1.24839844 0.05046875 0.63351563 0 0 Z " fill="#573C31" transform="translate(0,87)"/>
<path d="M0 0 C1.41687119 4.25061356 0.19320039 6.71851625 -1 11 C-1.33 11 -1.66 11 -2 11 C-2.05399736 9.54207116 -2.09279177 8.08357288 -2.125 6.625 C-2.15980469 5.40683594 -2.15980469 5.40683594 -2.1953125 4.1640625 C-2 2 -2 2 0 0 Z " fill="#60261D" transform="translate(5,68)"/>
<path d="M0 0 C1.32 0.66 2.64 1.32 4 2 C3.67 2.66 3.34 3.32 3 4 C0.4375 4.625 0.4375 4.625 -2 5 C-1.125 1.125 -1.125 1.125 0 0 Z " fill="#E1D4C3" transform="translate(54,10)"/>
<path d="M0 0 C0.99 0.33 1.98 0.66 3 1 C3.33 3.31 3.66 5.62 4 8 C3.34 6.68 2.68 5.36 2 4 C0.68 4 -0.64 4 -2 4 C-1.33333333 2.66666667 -0.66666667 1.33333333 0 0 Z " fill="#4E2119" transform="translate(139,62)"/>
<path d="M0 0 C0.33 0.66 0.66 1.32 1 2 C0.01 3.32 -0.98 4.64 -2 6 C-3.32 5.67 -4.64 5.34 -6 5 C-4.02 3.35 -2.04 1.7 0 0 Z " fill="#E4D8C6" transform="translate(29,41)"/>
<path d="M0 0 C1.32 0.33 2.64 0.66 4 1 C4.33 2.32 4.66 3.64 5 5 C4.01 5.33 3.02 5.66 2 6 C1.34 4.02 0.68 2.04 0 0 Z " fill="#694339" transform="translate(87,30)"/>
<path d="M0 0 C0.66 0.33 1.32 0.66 2 1 C0.38405168 3.04119788 -1.2856382 5.04072937 -3 7 C-3.66 7 -4.32 7 -5 7 C-3.70700306 4.11562221 -2.34058637 2.12780579 0 0 Z " fill="#4B241A" transform="translate(49,43)"/>
</svg>
