<?xml version="1.0" encoding="UTF-8"?>
<!DOCTYPE svg PUBLIC "-//W3C//DTD SVG 1.1//EN" "http://www.w3.org/Graphics/SVG/1.1/DTD/svg11.dtd">
<svg xmlns="http://www.w3.org/2000/svg" version="1.1" width="149px" height="150px" style="shape-rendering:geometricPrecision; text-rendering:geometricPrecision; image-rendering:optimizeQuality; fill-rule:evenodd; clip-rule:evenodd" xmlns:xlink="http://www.w3.org/1999/xlink">
<g><path style="opacity:0.951" fill="#543228" d="M 59.5,-0.5 C 69.1667,-0.5 78.8333,-0.5 88.5,-0.5C 99.9515,1.31834 110.618,5.31834 120.5,11.5C 109.394,7.44011 98.0611,3.94011 86.5,1C 78.8333,0.333333 71.1667,0.333333 63.5,1C 61.6183,1.19808 59.9516,1.69808 58.5,2.5C 48.6524,4.30017 39.3191,7.46684 30.5,12C 29.2068,12.49 27.8734,12.6567 26.5,12.5C 30.4434,9.52169 34.7768,7.02169 39.5,5C 46.2075,2.83435 52.8742,1.00101 59.5,-0.5 Z"/></g>
<g><path style="opacity:1" fill="#5b2517" d="M 58.5,2.5 C 73.7451,2.40894 88.7451,4.24227 103.5,8C 104.252,8.67076 104.586,9.5041 104.5,10.5C 83.4752,3.69238 62.4752,3.85904 41.5,11C 36.2697,13.1057 31.603,15.939 27.5,19.5C 20.7157,23.3901 16.0491,29.0568 13.5,36.5C 12.0762,38.5145 11.4095,40.8478 11.5,43.5C 11.1667,43.5 10.8333,43.5 10.5,43.5C 8.65649,41.7211 7.98983,39.3878 8.5,36.5C 10.3223,32.8553 12.1557,29.1887 14,25.5C 19.0435,21.9576 23.2101,17.6242 26.5,12.5C 27.8734,12.6567 29.2068,12.49 30.5,12C 39.3191,7.46684 48.6524,4.30017 58.5,2.5 Z"/></g>
<g><path style="opacity:1" fill="#d1924e" d="M 104.5,10.5 C 108.779,11.9728 112.779,13.9728 116.5,16.5C 118.618,20.3307 120.118,24.3307 121,28.5C 118.184,29.1305 115.518,28.4638 113,26.5C 112.773,29.0595 111.44,30.7262 109,31.5C 105.636,31.3235 102.303,30.9902 99,30.5C 97.0088,31.9918 94.8422,32.9918 92.5,33.5C 92.5,33.8333 92.5,34.1667 92.5,34.5C 91.1991,35.8845 91.1991,37.3845 92.5,39C 91.0477,40.5173 89.5477,40.684 88,39.5C 87.0546,39.9054 86.3879,40.572 86,41.5C 85.2588,40.3595 84.4255,40.3595 83.5,41.5C 82.6143,40.675 82.281,39.675 82.5,38.5C 79.3548,37.2237 76.1881,36.2237 73,35.5C 70.888,37.9223 68.888,37.9223 67,35.5C 65.9148,36.2931 64.7481,36.9598 63.5,37.5C 63.1667,36.8333 62.8333,36.1667 62.5,35.5C 61.1249,38.5471 58.7916,39.8804 55.5,39.5C 55.5,38.5 55.5,37.5 55.5,36.5C 55.5,35.5 55.5,34.5 55.5,33.5C 53.3874,32.1142 51.3874,32.4476 49.5,34.5C 47.8685,33.7026 46.3685,32.7026 45,31.5C 42.6985,32.3035 40.5319,31.8035 38.5,30C 39.1667,29.6667 39.8333,29.3333 40.5,29C 37.5628,28.8999 34.8961,28.0666 32.5,26.5C 31.1667,26.8333 29.8333,27.1667 28.5,27.5C 27.8659,25.4332 26.8659,23.5998 25.5,22C 26.3805,21.2917 27.0472,20.4584 27.5,19.5C 31.603,15.939 36.2697,13.1057 41.5,11C 62.4752,3.85904 83.4752,3.69238 104.5,10.5 Z"/></g>
<g><path style="opacity:1" fill="#f7d99e" d="M 61.5,14.5 C 62.5,14.5 63.5,14.5 64.5,14.5C 64.5,16.1667 64.5,17.8333 64.5,19.5C 63.1667,19.5 61.8333,19.5 60.5,19.5C 60.366,17.7085 60.6993,16.0418 61.5,14.5 Z"/></g>
<g><path style="opacity:1" fill="#f3d395" d="M 83.5,14.5 C 86.9103,14.3838 88.2436,16.0504 87.5,19.5C 83.065,20.0776 81.7317,18.4109 83.5,14.5 Z"/></g>
<g><path style="opacity:1" fill="#f7d69c" d="M 41.5,20.5 C 45.5,19.8333 47.1667,21.5 46.5,25.5C 42.8493,25.8383 41.1826,24.1716 41.5,20.5 Z"/></g>
<g><path style="opacity:1" fill="#e0b676" d="M 103.5,19.5 C 104.873,19.3433 106.207,19.51 107.5,20C 106.577,22.0408 106.244,24.2075 106.5,26.5C 104.833,26.5 103.167,26.5 101.5,26.5C 101.166,23.812 101.832,21.4786 103.5,19.5 Z"/></g>
<g><path style="opacity:1" fill="#f0c986" d="M 72.5,26.5 C 76.35,26.7007 77.35,28.5341 75.5,32C 71.5369,32.1177 70.5369,30.2843 72.5,26.5 Z"/></g>
<g><path style="opacity:1" fill="#d29555" d="M 116.5,16.5 C 127.304,22.4443 133.971,31.4443 136.5,43.5C 136.5,44.5 136.5,45.5 136.5,46.5C 94.8333,46.5 53.1667,46.5 11.5,46.5C 11.5,45.5 11.5,44.5 11.5,43.5C 11.4095,40.8478 12.0762,38.5145 13.5,36.5C 13.0371,39.4824 12.7038,42.4824 12.5,45.5C 26.1707,45.6666 39.8374,45.4999 53.5,45C 55.8907,44.7132 58.2241,44.2132 60.5,43.5C 61.086,43.7093 61.586,44.0426 62,44.5C 64.2428,43.0292 66.7428,42.0292 69.5,41.5C 69.8076,40.6919 70.3076,40.0253 71,39.5C 71.1962,41.2861 72.0295,42.6195 73.5,43.5C 79.8334,43.6543 86,43.321 92,42.5C 92.6739,43.5784 93.6739,44.2451 95,44.5C 99.1062,44.2728 103.106,44.2728 107,44.5C 109.231,44.2274 111.064,43.3941 112.5,42C 111.437,40.8118 110.103,40.3118 108.5,40.5C 108.881,38.0582 108.214,37.3915 106.5,38.5C 105.808,37.9747 105.308,37.3081 105,36.5C 103.846,38.9574 102.512,38.9574 101,36.5C 99.8873,37.305 98.7206,37.9717 97.5,38.5C 97.5,35.1667 95.8333,33.5 92.5,33.5C 94.8422,32.9918 97.0088,31.9918 99,30.5C 102.303,30.9902 105.636,31.3235 109,31.5C 111.44,30.7262 112.773,29.0595 113,26.5C 115.518,28.4638 118.184,29.1305 121,28.5C 120.118,24.3307 118.618,20.3307 116.5,16.5 Z"/></g>
<g><path style="opacity:1" fill="#d19350" d="M 27.5,19.5 C 27.0472,20.4584 26.3805,21.2917 25.5,22C 26.8659,23.5998 27.8659,25.4332 28.5,27.5C 29.8333,27.1667 31.1667,26.8333 32.5,26.5C 34.8961,28.0666 37.5628,28.8999 40.5,29C 39.8333,29.3333 39.1667,29.6667 38.5,30C 40.5319,31.8035 42.6985,32.3035 45,31.5C 46.3685,32.7026 47.8685,33.7026 49.5,34.5C 51.3874,32.4476 53.3874,32.1142 55.5,33.5C 52.1667,33.5 50.5,35.1667 50.5,38.5C 52.5138,38.6085 54.1805,37.9418 55.5,36.5C 55.5,37.5 55.5,38.5 55.5,39.5C 58.7916,39.8804 61.1249,38.5471 62.5,35.5C 62.8333,36.1667 63.1667,36.8333 63.5,37.5C 64.7481,36.9598 65.9148,36.2931 67,35.5C 68.888,37.9223 70.888,37.9223 73,35.5C 76.1881,36.2237 79.3548,37.2237 82.5,38.5C 82.281,39.675 82.6143,40.675 83.5,41.5C 84.4255,40.3595 85.2588,40.3595 86,41.5C 86.3879,40.572 87.0546,39.9054 88,39.5C 89.5477,40.684 91.0477,40.5173 92.5,39C 91.1991,37.3845 91.1991,35.8845 92.5,34.5C 92.3838,37.9103 94.0504,39.2436 97.5,38.5C 98.7206,37.9717 99.8873,37.305 101,36.5C 102.512,38.9574 103.846,38.9574 105,36.5C 105.308,37.3081 105.808,37.9747 106.5,38.5C 108.214,37.3915 108.881,38.0582 108.5,40.5C 110.103,40.3118 111.437,40.8118 112.5,42C 111.064,43.3941 109.231,44.2274 107,44.5C 103.106,44.2728 99.1062,44.2728 95,44.5C 93.6739,44.2451 92.6739,43.5784 92,42.5C 86,43.321 79.8334,43.6543 73.5,43.5C 72.0295,42.6195 71.1962,41.2861 71,39.5C 70.3076,40.0253 69.8076,40.6919 69.5,41.5C 66.7428,42.0292 64.2428,43.0292 62,44.5C 61.586,44.0426 61.086,43.7093 60.5,43.5C 58.2241,44.2132 55.8907,44.7132 53.5,45C 39.8374,45.4999 26.1707,45.6666 12.5,45.5C 12.7038,42.4824 13.0371,39.4824 13.5,36.5C 16.0491,29.0568 20.7157,23.3901 27.5,19.5 Z"/></g>
<g><path style="opacity:1" fill="#f4d49e" d="M 29.5,32.5 C 30.5,32.5 31.5,32.5 32.5,32.5C 32.8678,35.0558 32.0345,37.0558 30,38.5C 26.897,36.888 26.7304,34.888 29.5,32.5 Z"/></g>
<g><path style="opacity:1" fill="#f8daa1" d="M 55.5,33.5 C 55.5,34.5 55.5,35.5 55.5,36.5C 54.1805,37.9418 52.5138,38.6085 50.5,38.5C 50.5,35.1667 52.1667,33.5 55.5,33.5 Z"/></g>
<g><path style="opacity:1" fill="#f6db9f" d="M 92.5,33.5 C 95.8333,33.5 97.5,35.1667 97.5,38.5C 94.0504,39.2436 92.3838,37.9103 92.5,34.5C 92.5,34.1667 92.5,33.8333 92.5,33.5 Z"/></g>
<g><path style="opacity:1" fill="#f4d89f" d="M 115.5,33.5 C 118.729,33.1647 120.229,34.4981 120,37.5C 116.331,39.0093 114.831,37.6759 115.5,33.5 Z"/></g>
<g><path style="opacity:0.902" fill="#4f2f28" d="M 26.5,12.5 C 23.2101,17.6242 19.0435,21.9576 14,25.5C 12.1557,29.1887 10.3223,32.8553 8.5,36.5C 7.77842,36.9175 7.27842,37.5842 7,38.5C 6.82382,42.6877 6.32382,46.6877 5.5,50.5C 4.60032,33.6443 11.6003,20.9776 26.5,12.5 Z"/></g>
<g><path style="opacity:1" fill="#562216" d="M 120.5,11.5 C 135.387,20.2242 142.887,33.2242 143,50.5C 142.283,51.0442 141.783,51.7109 141.5,52.5C 141.228,56.2773 141.228,60.2773 141.5,64.5C 139.945,61.5658 138.278,58.5658 136.5,55.5C 136.167,54.5 135.5,53.8333 134.5,53.5C 94.3368,52.5014 54.0034,52.1681 13.5,52.5C 12.1779,52.33 11.0113,52.6634 10,53.5C 9.61906,56.0411 8.78573,58.3745 7.5,60.5C 7.52884,62.0293 8.19551,63.196 9.5,64C 9.16667,64.3333 8.83333,64.6667 8.5,65C 9.5,65.3333 10.5,65.6667 11.5,66C 9.61828,66.1981 7.95161,66.6981 6.5,67.5C 6.5,68.1667 6.5,68.8333 6.5,69.5C 5.2621,74.2667 7.2621,76.2667 12.5,75.5C 9.89342,76.8024 7.22676,76.6357 4.5,75C 3.81262,72.7683 3.47928,70.6016 3.5,68.5C 1.78256,69.6685 1.11589,71.3352 1.5,73.5C 0.861374,72.9032 0.528041,72.0698 0.5,71C 0.954302,69.0614 1.62097,67.228 2.5,65.5C 3.22987,64.2876 4.22987,63.2876 5.5,62.5C 4.5184,58.2626 4.5184,54.2626 5.5,50.5C 6.32382,46.6877 6.82382,42.6877 7,38.5C 7.27842,37.5842 7.77842,36.9175 8.5,36.5C 7.98983,39.3878 8.65649,41.7211 10.5,43.5C 10.5,44.8333 10.5,46.1667 10.5,47.5C 52.8333,47.5 95.1667,47.5 137.5,47.5C 137.768,45.901 137.434,44.5676 136.5,43.5C 133.971,31.4443 127.304,22.4443 116.5,16.5C 112.779,13.9728 108.779,11.9728 104.5,10.5C 104.586,9.5041 104.252,8.67076 103.5,8C 88.7451,4.24227 73.7451,2.40894 58.5,2.5C 59.9516,1.69808 61.6183,1.19808 63.5,1C 71.1667,0.333333 78.8333,0.333333 86.5,1C 98.0611,3.94011 109.394,7.44011 120.5,11.5 Z"/></g>
<g><path style="opacity:1" fill="#7c4221" d="M 10.5,43.5 C 10.8333,43.5 11.1667,43.5 11.5,43.5C 11.5,44.5 11.5,45.5 11.5,46.5C 53.1667,46.5 94.8333,46.5 136.5,46.5C 136.5,45.5 136.5,44.5 136.5,43.5C 137.434,44.5676 137.768,45.901 137.5,47.5C 95.1667,47.5 52.8333,47.5 10.5,47.5C 10.5,46.1667 10.5,44.8333 10.5,43.5 Z"/></g>
<g><path style="opacity:1" fill="#824230" d="M 13.5,52.5 C 54.0034,52.1681 94.3368,52.5014 134.5,53.5C 108.491,53.1669 82.4915,53.5002 56.5,54.5C 58.6782,55.9787 61.0115,57.312 63.5,58.5C 59.8614,59.4603 56.1947,59.4603 52.5,58.5C 52.5,59.5 52.5,60.5 52.5,61.5C 79.4889,62.3839 106.489,62.7172 133.5,62.5C 94.0021,63.6646 54.3355,63.8312 14.5,63C 10.9351,59.7842 10.6017,56.2842 13.5,52.5 Z"/></g>
<g><path style="opacity:1" fill="#894733" d="M 134.5,53.5 C 135.5,53.8333 136.167,54.5 136.5,55.5C 137.092,58.6305 136.092,60.9639 133.5,62.5C 106.489,62.7172 79.4889,62.3839 52.5,61.5C 52.5,60.5 52.5,59.5 52.5,58.5C 56.1947,59.4603 59.8614,59.4603 63.5,58.5C 61.0115,57.312 58.6782,55.9787 56.5,54.5C 82.4915,53.5002 108.491,53.1669 134.5,53.5 Z"/></g>
<g><path style="opacity:1" fill="#582014" d="M 13.5,52.5 C 10.6017,56.2842 10.9351,59.7842 14.5,63C 54.3355,63.8312 94.0021,63.6646 133.5,62.5C 136.092,60.9639 137.092,58.6305 136.5,55.5C 138.278,58.5658 139.945,61.5658 141.5,64.5C 145.849,66.8184 147.349,70.4851 146,75.5C 144.846,76.7433 143.512,77.7433 142,78.5C 140.415,86.821 139.915,95.1543 140.5,103.5C 140.674,105.693 140.007,107.527 138.5,109C 139.337,110.011 139.67,111.178 139.5,112.5C 136.607,112.031 134.607,113.031 133.5,115.5C 132.833,115.833 132.167,116.167 131.5,116.5C 131.863,114.089 130.863,112.589 128.5,112C 129.571,111.148 130.571,110.315 131.5,109.5C 136.151,108.826 137.651,106.159 136,101.5C 135.167,100.667 134.333,99.8333 133.5,99C 108.169,98.5 82.8355,98.3334 57.5,98.5C 60.3054,97.6805 63.3054,97.1805 66.5,97C 66.1667,96.6667 65.8333,96.3333 65.5,96C 69.8333,95.6667 74.1667,95.3333 78.5,95C 58.9957,94.8318 39.6623,94.3318 20.5,93.5C 59.5,93.5 98.5,93.5 137.5,93.5C 137.5,88.8333 137.5,84.1667 137.5,79.5C 136.167,79.5 134.833,79.5 133.5,79.5C 131.784,79.3713 130.117,79.038 128.5,78.5C 127.048,77.6981 125.382,77.1981 123.5,77C 124.167,76.3333 124.833,75.6667 125.5,75C 130.661,75.4271 135.661,75.2604 140.5,74.5C 143.167,72.8333 143.167,71.1667 140.5,69.5C 140.5,69.1667 140.5,68.8333 140.5,68.5C 96.0031,67.5013 51.3364,67.1679 6.5,67.5C 7.95161,66.6981 9.61828,66.1981 11.5,66C 10.5,65.6667 9.5,65.3333 8.5,65C 8.83333,64.6667 9.16667,64.3333 9.5,64C 8.19551,63.196 7.52884,62.0293 7.5,60.5C 8.78573,58.3745 9.61906,56.0411 10,53.5C 11.0113,52.6634 12.1779,52.33 13.5,52.5 Z"/></g>
<g><path style="opacity:0.396" fill="#522e25" d="M 141.5,52.5 C 143.691,55.5314 144.024,58.8648 142.5,62.5C 144.854,64.1878 146.854,66.1878 148.5,68.5C 148.5,71.1667 148.5,73.8333 148.5,76.5C 147.185,77.4756 145.852,78.4756 144.5,79.5C 144.029,85.644 143.029,91.644 141.5,97.5C 143.622,101.015 143.955,104.681 142.5,108.5C 144.854,110.188 146.854,112.188 148.5,114.5C 148.5,117.167 148.5,119.833 148.5,122.5C 146.871,123.625 145.371,124.959 144,126.5C 145.366,136.968 141.533,144.635 132.5,149.5C 93.5,149.5 54.5,149.5 15.5,149.5C 6.46716,144.635 2.63382,136.968 4,126.5C 2.62879,124.959 1.12879,123.625 -0.5,122.5C -0.5,119.833 -0.5,117.167 -0.5,114.5C 1.14552,112.188 3.14552,110.188 5.5,108.5C 3.90963,104.738 4.24297,101.238 6.5,98C 5.87424,97.2496 5.37424,96.4162 5,95.5C 4.82947,90.1358 4.32947,84.8025 3.5,79.5C 2.14819,78.4756 0.814858,77.4756 -0.5,76.5C -0.5,73.5 -0.5,70.5 -0.5,67.5C 0.5,66.8333 1.5,66.1667 2.5,65.5C 1.62097,67.228 0.954302,69.0614 0.5,71C 0.528041,72.0698 0.861374,72.9032 1.5,73.5C 2.45598,76.4386 4.12265,78.772 6.5,80.5C 6.71822,90.2772 7.05155,99.9438 7.5,109.5C 4.86035,111.958 2.86035,114.792 1.5,118C 1.99306,120.819 3.15973,123.319 5,125.5C 4.49593,135.699 8.6626,143.199 17.5,148C 55.5,148.667 93.5,148.667 131.5,148C 132.756,147.583 133.423,146.75 133.5,145.5C 137.145,143.855 139.812,141.188 141.5,137.5C 142.21,133.196 142.71,128.863 143,124.5C 146.888,121.522 147.388,118.189 144.5,114.5C 143.319,116.135 143.319,117.802 144.5,119.5C 144.043,120.298 143.376,120.631 142.5,120.5C 142.768,118.901 142.434,117.568 141.5,116.5C 139.052,115.527 136.385,115.194 133.5,115.5C 134.607,113.031 136.607,112.031 139.5,112.5C 139.67,111.178 139.337,110.011 138.5,109C 140.007,107.527 140.674,105.693 140.5,103.5C 139.915,95.1543 140.415,86.821 142,78.5C 143.512,77.7433 144.846,76.7433 146,75.5C 147.349,70.4851 145.849,66.8184 141.5,64.5C 141.228,60.2773 141.228,56.2773 141.5,52.5 Z"/></g>
<g><path style="opacity:1" fill="#d09251" d="M 79.5,129.5 C 81.5544,128.391 83.7211,127.391 86,126.5C 92.403,130.286 98.903,133.953 105.5,137.5C 111.015,133.575 116.348,129.408 121.5,125C 126.877,124.841 132.21,125.341 137.5,126.5C 137.665,129.85 137.498,133.183 137,136.5C 136.722,137.416 136.222,138.082 135.5,138.5C 135.587,135.402 135.087,135.068 134,137.5C 133.586,137.043 133.086,136.709 132.5,136.5C 129.891,137.23 127.224,137.73 124.5,138C 125.167,139 125.833,140 126.5,141C 124.19,141.497 121.857,141.663 119.5,141.5C 105.339,140.669 91.0059,140.169 76.5,140C 78.764,139.764 80.9307,139.264 83,138.5C 85.2912,139.311 87.1246,138.477 88.5,136C 87.8333,135.333 87.1667,134.667 86.5,134C 91.9193,131.528 91.586,129.695 85.5,128.5C 79.8777,131.387 73.8777,132.22 67.5,131C 64.1618,129.08 60.6618,127.58 57,126.5C 54.5284,127.322 52.0284,127.989 49.5,128.5C 51.4407,126.277 53.9407,124.944 57,124.5C 60.8508,126.174 64.6841,128.008 68.5,130C 72.2554,130.755 75.9221,130.589 79.5,129.5 Z"/></g>
<g><path style="opacity:1" fill="#d09254" d="M 18.5,124.5 C 20.5273,124.338 22.5273,124.505 24.5,125C 28.9308,128.106 33.7641,130.272 39,131.5C 42.5411,130.646 46.0411,129.646 49.5,128.5C 48.0603,130.388 46.3936,132.055 44.5,133.5C 45.868,134.594 47.0347,134.26 48,132.5C 51.832,133.836 53.332,136.503 52.5,140.5C 50.8008,140.66 49.1341,140.494 47.5,140C 48.91,139.632 49.91,138.799 50.5,137.5C 47.8434,136.741 45.1767,136.074 42.5,135.5C 41.1575,136.902 40.3242,136.569 40,134.5C 38.8927,137.492 37.226,138.159 35,136.5C 35.1484,137.825 34.9817,138.992 34.5,140C 30.5529,139.593 26.5529,139.927 22.5,141C 54.8316,141.5 87.1649,141.667 119.5,141.5C 121.857,141.663 124.19,141.497 126.5,141C 125.833,140 125.167,139 124.5,138C 127.224,137.73 129.891,137.23 132.5,136.5C 133.086,136.709 133.586,137.043 134,137.5C 135.087,135.068 135.587,135.402 135.5,138.5C 134.327,140.504 132.66,142.004 130.5,143C 92.0955,143.827 53.7621,143.66 15.5,142.5C 11.1236,138.402 9.62361,133.402 11,127.5C 13.4499,126.358 15.9499,125.358 18.5,124.5 Z"/></g>
<g><path style="opacity:1" fill="#592915" d="M 111.5,114.5 C 100.116,113.856 89.1158,114.523 78.5,116.5C 78.5,117.5 78.5,118.5 78.5,119.5C 80.3084,119.491 81.9751,119.991 83.5,121C 82.552,121.483 81.552,121.649 80.5,121.5C 80.1667,124.167 79.8333,126.833 79.5,129.5C 75.9221,130.589 72.2554,130.755 68.5,130C 64.6841,128.008 60.8508,126.174 57,124.5C 53.9407,124.944 51.4407,126.277 49.5,128.5C 46.0411,129.646 42.5411,130.646 39,131.5C 33.7641,130.272 28.9308,128.106 24.5,125C 22.5273,124.505 20.5273,124.338 18.5,124.5C 14.9763,122.997 11.3097,121.997 7.5,121.5C 13.9725,119.707 20.6391,119.207 27.5,120C 30.6812,122.924 34.3478,124.757 38.5,125.5C 44.4252,123.613 50.2586,121.613 56,119.5C 60.9925,120.078 65.4925,121.911 69.5,125C 73.052,125.85 76.3853,125.35 79.5,123.5C 75.529,120.51 71.1957,118.01 66.5,116C 46.8362,115.5 27.1695,115.333 7.5,115.5C 26.6451,113.837 45.9784,112.837 65.5,112.5C 80.5639,112.764 95.2305,112.431 109.5,111.5C 113.268,111.519 113.934,112.519 111.5,114.5 Z"/></g>
<g><path style="opacity:1" fill="#d1924f" d="M 119.5,141.5 C 87.1649,141.667 54.8316,141.5 22.5,141C 26.5529,139.927 30.5529,139.593 34.5,140C 34.9817,138.992 35.1484,137.825 35,136.5C 37.226,138.159 38.8927,137.492 40,134.5C 40.3242,136.569 41.1575,136.902 42.5,135.5C 45.1767,136.074 47.8434,136.741 50.5,137.5C 49.91,138.799 48.91,139.632 47.5,140C 49.1341,140.494 50.8008,140.66 52.5,140.5C 53.332,136.503 51.832,133.836 48,132.5C 47.0347,134.26 45.868,134.594 44.5,133.5C 46.3936,132.055 48.0603,130.388 49.5,128.5C 52.0284,127.989 54.5284,127.322 57,126.5C 60.6618,127.58 64.1618,129.08 67.5,131C 73.8777,132.22 79.8777,131.387 85.5,128.5C 91.586,129.695 91.9193,131.528 86.5,134C 87.1667,134.667 87.8333,135.333 88.5,136C 87.1246,138.477 85.2912,139.311 83,138.5C 80.9307,139.264 78.764,139.764 76.5,140C 91.0059,140.169 105.339,140.669 119.5,141.5 Z"/></g>
<g><path style="opacity:1" fill="#f5c64e" d="M 79.5,116.5 C 94.1667,115.167 108.833,115.167 123.5,116.5C 117.728,121.89 111.394,126.557 104.5,130.5C 96.015,126.091 87.6817,121.425 79.5,116.5 Z"/></g>
<g><path style="opacity:1" fill="#85a94b" d="M 7.5,115.5 C 27.1695,115.333 46.8362,115.5 66.5,116C 71.1957,118.01 75.529,120.51 79.5,123.5C 76.3853,125.35 73.052,125.85 69.5,125C 65.4925,121.911 60.9925,120.078 56,119.5C 50.2586,121.613 44.4252,123.613 38.5,125.5C 34.3478,124.757 30.6812,122.924 27.5,120C 20.6391,119.207 13.9725,119.707 7.5,121.5C 4.83333,119.5 4.83333,117.5 7.5,115.5 Z"/></g>
<g><path style="opacity:1" fill="#8a5b26" d="M 111.5,114.5 C 115.884,114.174 120.217,114.508 124.5,115.5C 124.376,116.107 124.043,116.44 123.5,116.5C 108.833,115.167 94.1667,115.167 79.5,116.5C 79.1667,116.5 78.8333,116.5 78.5,116.5C 89.1158,114.523 100.116,113.856 111.5,114.5 Z"/></g>
<g><path style="opacity:1" fill="#5b2314" d="M 53.5,109.5 C 79.5,109.5 105.5,109.5 131.5,109.5C 130.571,110.315 129.571,111.148 128.5,112C 130.863,112.589 131.863,114.089 131.5,116.5C 128.662,118.536 128.995,120.036 132.5,121C 135.888,121.659 139.221,121.492 142.5,120.5C 143.376,120.631 144.043,120.298 144.5,119.5C 143.319,117.802 143.319,116.135 144.5,114.5C 147.388,118.189 146.888,121.522 143,124.5C 142.71,128.863 142.21,133.196 141.5,137.5C 139.812,141.188 137.145,143.855 133.5,145.5C 93.8493,145.186 54.516,144.186 15.5,142.5C 53.7621,143.66 92.0955,143.827 130.5,143C 132.66,142.004 134.327,140.504 135.5,138.5C 136.222,138.082 136.722,137.416 137,136.5C 137.498,133.183 137.665,129.85 137.5,126.5C 132.21,125.341 126.877,124.841 121.5,125C 116.348,129.408 111.015,133.575 105.5,137.5C 98.903,133.953 92.403,130.286 86,126.5C 83.7211,127.391 81.5544,128.391 79.5,129.5C 79.8333,126.833 80.1667,124.167 80.5,121.5C 81.552,121.649 82.552,121.483 83.5,121C 81.9751,119.991 80.3084,119.491 78.5,119.5C 78.5,118.5 78.5,117.5 78.5,116.5C 78.8333,116.5 79.1667,116.5 79.5,116.5C 87.6817,121.425 96.015,126.091 104.5,130.5C 111.394,126.557 117.728,121.89 123.5,116.5C 124.043,116.44 124.376,116.107 124.5,115.5C 120.217,114.508 115.884,114.174 111.5,114.5C 113.934,112.519 113.268,111.519 109.5,111.5C 95.2305,112.431 80.5639,112.764 65.5,112.5C 63.4588,112.146 61.6255,112.146 60,112.5C 57.9546,111.074 55.7879,110.074 53.5,109.5 Z"/></g>
<g><path style="opacity:1" fill="#8a924a" d="M 133.5,115.5 C 136.385,115.194 139.052,115.527 141.5,116.5C 142.434,117.568 142.768,118.901 142.5,120.5C 139.221,121.492 135.888,121.659 132.5,121C 128.995,120.036 128.662,118.536 131.5,116.5C 132.167,116.167 132.833,115.833 133.5,115.5 Z"/></g>
<g><path style="opacity:1" fill="#88b047" d="M 141.5,116.5 C 141.5,117.5 141.5,118.5 141.5,119.5C 138.428,119.817 135.428,119.484 132.5,118.5C 132.709,117.914 133.043,117.414 133.5,117C 136.146,116.503 138.813,116.336 141.5,116.5 Z"/></g>
<g><path style="opacity:1" fill="#551f15" d="M 6.5,80.5 C 7.16626,84.0208 7.83292,87.6875 8.5,91.5C 9.18346,91.8627 9.85013,92.1961 10.5,92.5C 13.6248,93.4794 16.9581,93.8128 20.5,93.5C 39.6623,94.3318 58.9957,94.8318 78.5,95C 74.1667,95.3333 69.8333,95.6667 65.5,96C 65.8333,96.3333 66.1667,96.6667 66.5,97C 63.3054,97.1805 60.3054,97.6805 57.5,98.5C 42.8295,98.3334 28.1629,98.5001 13.5,99C 10.8333,102.333 10.8333,105.667 13.5,109C 26.8292,109.5 40.1625,109.667 53.5,109.5C 55.7879,110.074 57.9546,111.074 60,112.5C 61.6255,112.146 63.4588,112.146 65.5,112.5C 45.9784,112.837 26.6451,113.837 7.5,115.5C 4.83333,117.5 4.83333,119.5 7.5,121.5C 11.3097,121.997 14.9763,122.997 18.5,124.5C 15.9499,125.358 13.4499,126.358 11,127.5C 9.62361,133.402 11.1236,138.402 15.5,142.5C 54.516,144.186 93.8493,145.186 133.5,145.5C 133.423,146.75 132.756,147.583 131.5,148C 93.5,148.667 55.5,148.667 17.5,148C 8.6626,143.199 4.49593,135.699 5,125.5C 3.15973,123.319 1.99306,120.819 1.5,118C 2.86035,114.792 4.86035,111.958 7.5,109.5C 7.05155,99.9438 6.71822,90.2772 6.5,80.5 Z"/></g>
<g><path style="opacity:1" fill="#874430" d="M 57.5,98.5 C 82.8355,98.3334 108.169,98.5 133.5,99C 134.333,99.8333 135.167,100.667 136,101.5C 137.651,106.159 136.151,108.826 131.5,109.5C 105.5,109.5 79.5,109.5 53.5,109.5C 40.1625,109.667 26.8292,109.5 13.5,109C 10.8333,105.667 10.8333,102.333 13.5,99C 28.1629,98.5001 42.8295,98.3334 57.5,98.5 Z"/></g>
<g><path style="opacity:1" fill="#ad6c41" d="M 133.5,79.5 C 134.833,79.5 136.167,79.5 137.5,79.5C 137.5,84.1667 137.5,88.8333 137.5,93.5C 98.5,93.5 59.5,93.5 20.5,93.5C 16.9581,93.8128 13.6248,93.4794 10.5,92.5C 10.1832,88.2984 10.5166,84.2984 11.5,80.5C 11.5,84.5 11.5,88.5 11.5,92.5C 53.1667,92.5 94.8333,92.5 136.5,92.5C 136.5,88.5 136.5,84.5 136.5,80.5C 135.209,80.7373 134.209,80.404 133.5,79.5 Z"/></g>
<g><path style="opacity:1" fill="#5e2715" d="M 12.5,75.5 C 20.8717,71.927 28.5384,73.0937 35.5,79C 36.6667,79.1667 37.8333,79.3333 39,79.5C 42.7981,78.847 46.2981,77.5137 49.5,75.5C 52.8298,74.3342 56.1631,74.3342 59.5,75.5C 57.9223,76.2978 56.2556,76.7978 54.5,77C 56.0581,77.21 57.3915,77.71 58.5,78.5C 52.1975,80.8876 45.6975,82.8876 39,84.5C 34.0075,83.9219 29.5075,82.0886 25.5,79C 20.6818,78.2206 16.0151,78.7206 11.5,80.5C 10.5166,84.2984 10.1832,88.2984 10.5,92.5C 9.85013,92.1961 9.18346,91.8627 8.5,91.5C 7.83292,87.6875 7.16626,84.0208 6.5,80.5C 4.12265,78.772 2.45598,76.4386 1.5,73.5C 1.11589,71.3352 1.78256,69.6685 3.5,68.5C 3.47928,70.6016 3.81262,72.7683 4.5,75C 7.22676,76.6357 9.89342,76.8024 12.5,75.5 Z"/></g>
<g><path style="opacity:1" fill="#602916" d="M 140.5,74.5 C 135.661,75.2604 130.661,75.4271 125.5,75C 124.833,75.6667 124.167,76.3333 123.5,77C 125.382,77.1981 127.048,77.6981 128.5,78.5C 126.143,78.3367 123.81,78.5034 121.5,79C 112.289,86.4719 103.289,86.3052 94.5,78.5C 95.7383,78.19 95.7383,77.69 94.5,77C 92.7444,76.7978 91.0777,76.2978 89.5,75.5C 90.3333,75.1667 91.1667,74.8333 92,74.5C 95.2849,75.2065 98.4516,76.2065 101.5,77.5C 104.594,79.3471 107.928,79.8471 111.5,79C 114.167,77.3333 116.833,75.6667 119.5,74C 126.509,73.5774 133.509,73.7441 140.5,74.5 Z"/></g>
<g><path style="opacity:1" fill="#d29150" d="M 58.5,78.5 C 68.0732,86.2597 77.7399,86.4264 87.5,79C 89.8098,78.5034 92.1432,78.3367 94.5,78.5C 103.289,86.3052 112.289,86.4719 121.5,79C 123.81,78.5034 126.143,78.3367 128.5,78.5C 130.117,79.038 131.784,79.3713 133.5,79.5C 134.209,80.404 135.209,80.7373 136.5,80.5C 136.5,84.5 136.5,88.5 136.5,92.5C 94.8333,92.5 53.1667,92.5 11.5,92.5C 11.5,88.5 11.5,84.5 11.5,80.5C 16.0151,78.7206 20.6818,78.2206 25.5,79C 29.5075,82.0886 34.0075,83.9219 39,84.5C 45.6975,82.8876 52.1975,80.8876 58.5,78.5 Z"/></g>
<g><path style="opacity:1" fill="#4c2012" d="M 52.5,73.5 C 55.5184,73.3354 58.5184,73.502 61.5,74C 65.4321,76.1351 69.4321,77.9685 73.5,79.5C 77.868,78.4829 81.868,76.6495 85.5,74C 90.6835,73.092 95.6835,73.592 100.5,75.5C 100.833,76.1667 101.167,76.8333 101.5,77.5C 98.4516,76.2065 95.2849,75.2065 92,74.5C 91.1667,74.8333 90.3333,75.1667 89.5,75.5C 91.0777,76.2978 92.7444,76.7978 94.5,77C 95.7383,77.69 95.7383,78.19 94.5,78.5C 92.1432,78.3367 89.8098,78.5034 87.5,79C 77.7399,86.4264 68.0732,86.2597 58.5,78.5C 57.3915,77.71 56.0581,77.21 54.5,77C 56.2556,76.7978 57.9223,76.2978 59.5,75.5C 56.1631,74.3342 52.8298,74.3342 49.5,75.5C 49.9731,74.0937 50.9731,73.427 52.5,73.5 Z"/></g>
<g><path style="opacity:1" fill="#89ac4a" d="M 140.5,69.5 C 143.167,71.1667 143.167,72.8333 140.5,74.5C 133.509,73.7441 126.509,73.5774 119.5,74C 116.833,75.6667 114.167,77.3333 111.5,79C 107.928,79.8471 104.594,79.3471 101.5,77.5C 101.167,76.8333 100.833,76.1667 100.5,75.5C 100.586,74.5041 100.252,73.6708 99.5,73C 95.2054,72.0881 90.8721,71.4215 86.5,71C 87.8333,70.6667 89.1667,70.3333 90.5,70C 107.163,69.5001 123.83,69.3334 140.5,69.5 Z"/></g>
<g><path style="opacity:1" fill="#7e9544" d="M 7.5,69.5 C 51.6635,68.5013 95.9969,68.1679 140.5,68.5C 140.5,68.8333 140.5,69.1667 140.5,69.5C 123.83,69.3334 107.163,69.5001 90.5,70C 89.1667,70.3333 87.8333,70.6667 86.5,71C 90.8721,71.4215 95.2054,72.0881 99.5,73C 100.252,73.6708 100.586,74.5041 100.5,75.5C 95.6835,73.592 90.6835,73.092 85.5,74C 81.868,76.6495 77.868,78.4829 73.5,79.5C 69.4321,77.9685 65.4321,76.1351 61.5,74C 58.5184,73.502 55.5184,73.3354 52.5,73.5C 61.1556,71.0665 70.1556,69.8999 79.5,70C 55.5023,69.5 31.5023,69.3334 7.5,69.5 Z"/></g>
<g><path style="opacity:1" fill="#8bac4a" d="M 6.5,69.5 C 6.83333,69.5 7.16667,69.5 7.5,69.5C 31.5023,69.3334 55.5023,69.5 79.5,70C 70.1556,69.8999 61.1556,71.0665 52.5,73.5C 50.9731,73.427 49.9731,74.0937 49.5,75.5C 46.2981,77.5137 42.7981,78.847 39,79.5C 37.8333,79.3333 36.6667,79.1667 35.5,79C 28.5384,73.0937 20.8717,71.927 12.5,75.5C 7.2621,76.2667 5.2621,74.2667 6.5,69.5 Z"/></g>
<g><path style="opacity:1" fill="#482a0b" d="M 6.5,67.5 C 51.3364,67.1679 96.0031,67.5013 140.5,68.5C 95.9969,68.1679 51.6635,68.5013 7.5,69.5C 7.16667,69.5 6.83333,69.5 6.5,69.5C 6.5,68.8333 6.5,68.1667 6.5,67.5 Z"/></g>
</svg>
