<?xml version="1.0" encoding="UTF-8"?>
<svg version="1.1" xmlns="http://www.w3.org/2000/svg" width="137" height="93">
<path d="M0 0 C1.09232469 0.00276538 1.09232469 0.00276538 2.20671654 0.00558662 C3.46034241 0.00146263 3.46034241 0.00146263 4.73929405 -0.00274467 C6.1170929 0.00804115 6.1170929 0.00804115 7.52272606 0.01904488 C8.4886216 0.01875282 9.45451714 0.01846077 10.44968224 0.01815987 C13.65299421 0.01955694 16.85607565 0.03513591 20.05934715 0.05078316 C22.27609187 0.05451194 24.49283824 0.05735955 26.70958519 0.0593586 C32.55235382 0.06700562 38.39502347 0.08666329 44.23775291 0.10876656 C50.19649987 0.12920198 56.15526278 0.13835538 62.11403465 0.14843941 C73.81199487 0.16990817 85.50988154 0.20405699 97.20778465 0.24609566 C98.53007655 2.89067945 98.30455659 4.92370867 98.27028465 7.87109566 C98.26126122 8.87398628 98.25223778 9.87687691 98.2429409 10.91015816 C98.23133934 11.68101753 98.21973778 12.45187691 98.20778465 13.24609566 C98.77626122 13.22289253 99.34473778 13.19968941 99.9304409 13.17578316 C106.52454953 13.02166376 111.89091842 13.23142937 117.08278465 17.74609566 C121.03016453 22.39007198 120.66725291 26.47479704 120.60622215 32.43750191 C119.51534247 42.86502833 113.144744 50.81244482 105.20778465 57.24609566 C100.90652984 60.26281283 96.93581385 62.8690711 91.77028465 63.99609566 C89.07171446 64.96720548 89.07171446 64.96720548 88.35622215 67.23047066 C87.89665237 68.85664064 87.4877483 70.49836225 87.1413784 72.15234566 C85.75702132 76.73983859 83.35075157 80.96016183 81.20778465 85.24609566 C90.77778465 85.57609566 100.34778465 85.90609566 110.20778465 86.24609566 C110.86778465 87.89609566 111.52778465 89.54609566 112.20778465 91.24609566 C110.20778465 93.24609566 110.20778465 93.24609566 107.99669361 93.49498463 C107.07066869 93.49443986 106.14464376 93.49389509 105.19055748 93.49333382 C104.1290699 93.49752831 103.06758232 93.50172279 101.97392845 93.50604439 C100.80449699 93.50042488 99.63506554 93.49480537 98.43019676 93.48901558 C96.58874329 93.4918631 96.58874329 93.4918631 94.71008873 93.49476814 C91.33825585 93.49784415 87.96666677 93.49195288 84.5948627 93.4818151 C81.07192234 93.47304723 77.54898626 93.47479179 74.02603722 93.47517586 C68.1102788 93.47423874 62.19457162 93.46554782 56.27882957 93.4519062 C49.43053776 93.43617293 42.58230205 93.43090832 35.73399347 93.43164176 C29.1558936 93.43225121 22.57781208 93.4271538 15.99971771 93.41884995 C13.19550051 93.41531124 10.3912898 93.41348586 7.58707047 93.41295624 C3.67668597 93.41176909 -0.23365142 93.40207276 -4.14402199 93.39135933 C-5.31547768 93.39181252 -6.48693336 93.3922657 -7.69388771 93.39273262 C-8.75255547 93.38846764 -9.81122322 93.38420265 -10.90197182 93.37980843 C-11.82761971 93.37813258 -12.75326761 93.37645674 -13.70696545 93.37473011 C-15.79221535 93.24609566 -15.79221535 93.24609566 -16.79221535 92.24609566 C-16.83285367 90.57992451 -16.83493635 88.91221471 -16.79221535 87.24609566 C-14.00101444 85.8504952 -11.59015843 86.02801278 -8.47190285 85.92968941 C-7.21506691 85.88779488 -5.95823097 85.84590034 -4.6633091 85.80273628 C-3.34459816 85.76341988 -2.02588722 85.72410347 -0.66721535 85.68359566 C0.67264216 85.64040054 2.01248622 85.59678593 3.3523159 85.55273628 C6.6373628 85.44638584 9.92248746 85.34435758 13.20778465 85.24609566 C12.76047997 84.36050972 12.31317528 83.47492378 11.8523159 82.56250191 C-0.23619512 58.03999799 -5.04034172 29.51072288 -3.79221535 2.24609566 C-1.79221535 0.24609566 -1.79221535 0.24609566 0 0 Z M97.20778465 21.24609566 C96.5604278 25.5792028 95.91517358 29.91262058 95.27028465 34.24609566 C95.08788231 35.46683784 94.90547997 36.68758003 94.71755028 37.94531441 C93.8117638 44.03878707 92.93424584 50.12852773 92.20778465 56.24609566 C101.02755839 52.62772695 107.98466664 45.7488913 112.20778465 37.24609566 C113.17625767 34.34067661 113.40361277 32.27972112 113.45778465 29.24609566 C113.4835659 28.37984566 113.50934715 27.51359566 113.53590965 26.62109566 C113.38602033 24.25169789 113.38602033 24.25169789 112.10524559 22.60937691 C109.27694858 20.57731173 106.94983758 20.95672775 103.52028465 21.05859566 C102.34079247 21.08566597 101.16130028 21.11273628 99.9460659 21.14062691 C98.59061668 21.19283394 98.59061668 21.19283394 97.20778465 21.24609566 Z " fill="#EAE0D2" transform="translate(16.79221534729004,-0.2460956573486328)"/>
<path d="M0 0 C23.76 0 47.52 0 72 0 C70.29022987 18.80747138 66.44588372 34.10823257 58 51 C43.48 51 28.96 51 14 51 C8.4035789 39.00766906 4.01279034 29.56305555 1.8125 16.875 C1.63525391 15.91207031 1.45800781 14.94914062 1.27539062 13.95703125 C0.41418773 9.12232467 0 4.97937457 0 0 Z " fill="#501F15" transform="translate(28,29)"/>
<path d="M0 0 C1.09232469 0.00276538 1.09232469 0.00276538 2.20671654 0.00558662 C3.46034241 0.00146263 3.46034241 0.00146263 4.73929405 -0.00274467 C6.1170929 0.00804115 6.1170929 0.00804115 7.52272606 0.01904488 C8.4886216 0.01875282 9.45451714 0.01846077 10.44968224 0.01815987 C13.65299421 0.01955694 16.85607565 0.03513591 20.05934715 0.05078316 C22.27609187 0.05451194 24.49283824 0.05735955 26.70958519 0.0593586 C32.55235382 0.06700562 38.39502347 0.08666329 44.23775291 0.10876656 C50.19649987 0.12920198 56.15526278 0.13835538 62.11403465 0.14843941 C73.81199487 0.16990817 85.50988154 0.20405699 97.20778465 0.24609566 C98.53007655 2.89067945 98.30455659 4.92370867 98.27028465 7.87109566 C98.26126122 8.87398628 98.25223778 9.87687691 98.2429409 10.91015816 C98.23133934 11.68101753 98.21973778 12.45187691 98.20778465 13.24609566 C98.77626122 13.22289253 99.34473778 13.19968941 99.9304409 13.17578316 C106.52454953 13.02166376 111.89091842 13.23142937 117.08278465 17.74609566 C121.03016453 22.39007198 120.66725291 26.47479704 120.60622215 32.43750191 C119.51534247 42.86502833 113.144744 50.81244482 105.20778465 57.24609566 C100.90652984 60.26281283 96.93581385 62.8690711 91.77028465 63.99609566 C89.07171446 64.96720548 89.07171446 64.96720548 88.35622215 67.23047066 C87.89665237 68.85664064 87.4877483 70.49836225 87.1413784 72.15234566 C85.75702132 76.73983859 83.35075157 80.96016183 81.20778465 85.24609566 C90.77778465 85.57609566 100.34778465 85.90609566 110.20778465 86.24609566 C110.86778465 87.89609566 111.52778465 89.54609566 112.20778465 91.24609566 C110.20778465 93.24609566 110.20778465 93.24609566 107.99669361 93.49498463 C107.07066869 93.49443986 106.14464376 93.49389509 105.19055748 93.49333382 C104.1290699 93.49752831 103.06758232 93.50172279 101.97392845 93.50604439 C100.80449699 93.50042488 99.63506554 93.49480537 98.43019676 93.48901558 C96.58874329 93.4918631 96.58874329 93.4918631 94.71008873 93.49476814 C91.33825585 93.49784415 87.96666677 93.49195288 84.5948627 93.4818151 C81.07192234 93.47304723 77.54898626 93.47479179 74.02603722 93.47517586 C68.1102788 93.47423874 62.19457162 93.46554782 56.27882957 93.4519062 C49.43053776 93.43617293 42.58230205 93.43090832 35.73399347 93.43164176 C29.1558936 93.43225121 22.57781208 93.4271538 15.99971771 93.41884995 C13.19550051 93.41531124 10.3912898 93.41348586 7.58707047 93.41295624 C3.67668597 93.41176909 -0.23365142 93.40207276 -4.14402199 93.39135933 C-5.31547768 93.39181252 -6.48693336 93.3922657 -7.69388771 93.39273262 C-8.75255547 93.38846764 -9.81122322 93.38420265 -10.90197182 93.37980843 C-11.82761971 93.37813258 -12.75326761 93.37645674 -13.70696545 93.37473011 C-15.79221535 93.24609566 -15.79221535 93.24609566 -16.79221535 92.24609566 C-16.83285367 90.57992451 -16.83493635 88.91221471 -16.79221535 87.24609566 C-14.00101444 85.8504952 -11.59015843 86.02801278 -8.47190285 85.92968941 C-7.21506691 85.88779488 -5.95823097 85.84590034 -4.6633091 85.80273628 C-3.34459816 85.76341988 -2.02588722 85.72410347 -0.66721535 85.68359566 C0.67264216 85.64040054 2.01248622 85.59678593 3.3523159 85.55273628 C6.6373628 85.44638584 9.92248746 85.34435758 13.20778465 85.24609566 C12.76047997 84.36050972 12.31317528 83.47492378 11.8523159 82.56250191 C-0.23619512 58.03999799 -5.04034172 29.51072288 -3.79221535 2.24609566 C-1.79221535 0.24609566 -1.79221535 0.24609566 0 0 Z M3.20778465 6.24609566 C3.20778465 15.04711957 3.41625595 23.32456529 4.45778465 31.99609566 C4.59273338 33.12571724 4.72768211 34.25533882 4.8667202 35.41919136 C7.01942885 52.52743176 10.43757871 74.47588971 23.20778465 87.24609566 C24.67866756 87.38071332 26.15582627 87.4477116 27.6323452 87.48657417 C29.04467682 87.52519318 29.04467682 87.52519318 30.48554039 87.56459236 C34.81071155 87.64863377 39.13570383 87.71465543 43.46144676 87.76098824 C45.74200306 87.79260633 48.02239551 87.8403373 50.30226707 87.90454292 C53.58780909 87.99585434 56.87038355 88.03461475 60.1570034 88.06250191 C61.17284004 88.10065514 62.18867668 88.13880836 63.23529625 88.17811775 C68.65330468 88.20950125 68.65330468 88.20950125 73.16396141 85.53515816 C76.32605436 81.41486242 78.46878583 76.96749259 80.33278465 72.12109566 C80.57867332 71.48220406 80.824562 70.84331245 81.07790184 70.1850605 C83.53365972 63.65723874 85.46709947 56.99758818 87.20778465 50.24609566 C87.51329247 49.1188105 87.51329247 49.1188105 87.82497215 47.96875191 C91.25375927 34.22722815 91.20778465 20.35730737 91.20778465 6.24609566 C62.16778465 6.24609566 33.12778465 6.24609566 3.20778465 6.24609566 Z M97.20778465 21.24609566 C96.5604278 25.5792028 95.91517358 29.91262058 95.27028465 34.24609566 C95.08788231 35.46683784 94.90547997 36.68758003 94.71755028 37.94531441 C93.8117638 44.03878707 92.93424584 50.12852773 92.20778465 56.24609566 C101.02755839 52.62772695 107.98466664 45.7488913 112.20778465 37.24609566 C113.17625767 34.34067661 113.40361277 32.27972112 113.45778465 29.24609566 C113.4835659 28.37984566 113.50934715 27.51359566 113.53590965 26.62109566 C113.38602033 24.25169789 113.38602033 24.25169789 112.10524559 22.60937691 C109.27694858 20.57731173 106.94983758 20.95672775 103.52028465 21.05859566 C102.34079247 21.08566597 101.16130028 21.11273628 99.9460659 21.14062691 C98.59061668 21.19283394 98.59061668 21.19283394 97.20778465 21.24609566 Z " fill="#592F28" transform="translate(16.79221534729004,-0.2460956573486328)"/>
<path d="M0 0 C29.04 0 58.08 0 88 0 C88 18 88 18 86 25 C84.35 25.99 82.7 26.98 81 28 C81 22.72 81 17.44 81 12 C56.58 12 32.16 12 7 12 C7.59536987 23.42728549 7.59536987 23.42728549 9.58984375 33.92578125 C10.32022448 37.61942094 10.11909271 41.24857964 10 45 C9.34 45 8.68 45 8 45 C7.67 46.32 7.34 47.64 7 49 C6.34 49 5.68 49 5 49 C4.34568277 45.25143067 3.70317193 41.50092353 3.0625 37.75 C2.88009766 36.70585938 2.69769531 35.66171875 2.50976562 34.5859375 C0.53257251 22.93847258 0 11.8905353 0 0 Z " fill="#F1E8D5" transform="translate(20,6)"/>
<path d="M0 0 C24.42 0 48.84 0 74 0 C74 4.29 74 8.58 74 13 C73.505 12.01 73.505 12.01 73 11 C49.24 11 25.48 11 1 11 C0.67 12.32 0.34 13.64 0 15 C0 10.05 0 5.1 0 0 Z " fill="#CC9152" transform="translate(27,18)"/>
<path d="M0 0 C32.67 0 65.34 0 99 0 C99 4.29 99 8.58 99 13 C100.36125 12.979375 101.7225 12.95875 103.125 12.9375 C110.48865379 12.97228892 110.48865379 12.97228892 114 14 C115.375 16.0625 115.375 16.0625 116 18 C112.43954823 19.18681726 109.56191663 19.09689832 105.8125 19.0625 C104.54019531 19.05347656 103.26789063 19.04445313 101.95703125 19.03515625 C100.49330078 19.01775391 100.49330078 19.01775391 99 19 C98.97421875 20.19753906 98.9484375 21.39507813 98.921875 22.62890625 C98.58555117 33.32400414 97.28008822 42.79358596 94 53 C92.87607768 49.62823304 93.28042207 48.39034355 94 45 C94.00396357 43.44314402 93.95015036 41.88525217 93.84375 40.33203125 C93.79089844 39.43677734 93.73804687 38.54152344 93.68359375 37.61914062 C93.56450537 35.79860875 93.44229805 33.97827719 93.31640625 32.15820312 C92.77982643 22.89892933 93.47256516 14.49382715 94 5 C64.63 5 35.26 5 5 5 C4.67 5.66 4.34 6.32 4 7 C3.34 6.67 2.68 6.34 2 6 C2 11.61 2 17.22 2 23 C1.67 23 1.34 23 1 23 C0.67 15.41 0.34 7.82 0 0 Z " fill="#4C1F18" transform="translate(14,1)"/>
<path d="M0 0 C32.67 0 65.34 0 99 0 C100.32229189 2.64458379 100.09677194 4.67761301 100.0625 7.625 C100.05347656 8.62789062 100.04445313 9.63078125 100.03515625 10.6640625 C100.02355469 11.43492188 100.01195313 12.20578125 100 13 C100.56847656 12.97679687 101.13695313 12.95359375 101.72265625 12.9296875 C108.31676488 12.7755681 113.68313376 12.98533371 118.875 17.5 C122.86869639 22.19846634 122.31935914 26.34242577 122.30078125 32.35546875 C121.90219794 37.1850561 120.45156694 40.86298079 118 45 C116.68 44.34 115.36 43.68 114 43 C114 42.34 114 41.68 114 41 C112.515 41.495 112.515 41.495 111 42 C111.4640625 40.8553125 111.4640625 40.8553125 111.9375 39.6875 C113.43135818 35.90891755 114.15768212 32.98676817 114.1875 28.9375 C114.20167969 28.05964844 114.21585937 27.18179687 114.23046875 26.27734375 C114.22229436 23.80074945 114.22229436 23.80074945 112 22 C108.87803664 21.53513282 108.87803664 21.53513282 105.375 21.375 C103.27125 21.25125 101.1675 21.1275 99 21 C98.67 25.95 98.34 30.9 98 36 C97.67 36 97.34 36 97 36 C96.97258088 34.4584364 96.95341752 32.91672526 96.9375 31.375 C96.92589844 30.51648438 96.91429688 29.65796875 96.90234375 28.7734375 C97.00784029 25.77733588 97.45167532 22.94454671 98 20 C98.98742187 19.93941406 99.97484375 19.87882812 100.9921875 19.81640625 C102.27351563 19.73261719 103.55484375 19.64882813 104.875 19.5625 C106.15117188 19.48128906 107.42734375 19.40007813 108.7421875 19.31640625 C111.88300152 19.20793973 111.88300152 19.20793973 114 18 C113.505 16.515 113.505 16.515 113 15 C108.05 14.67 103.1 14.34 98 14 C98 9.71 98 5.42 98 1 C65.66 1 33.32 1 0 1 C0 0.67 0 0.34 0 0 Z " fill="#5F3E35" transform="translate(15,0)"/>
<path d="M0 0 C10.56 0 21.12 0 32 0 C31.67 0.66 31.34 1.32 31 2 C77.53 2.495 77.53 2.495 125 3 C125 2.34 125 1.68 125 1 C122.69 1 120.38 1 118 1 C118 0.67 118 0.34 118 0 C120.64 0 123.28 0 126 0 C126 1.65 126 3.3 126 5 C84.42 5 42.84 5 0 5 C0 3.35 0 1.7 0 0 Z " fill="#512C24" transform="translate(1,88)"/>
<path d="M0 0 C0.33 0 0.66 0 1 0 C1.33 2.64 1.66 5.28 2 8 C2.33 7.01 2.66 6.02 3 5 C5.0625 4.3125 5.0625 4.3125 7 4 C7.56675376 10.36585925 8.07890994 16.73478641 8.25 23.125 C8.28867187 24.42824219 8.28867187 24.42824219 8.328125 25.7578125 C8 28 8 28 6.52734375 29.44921875 C4.31545846 31.69504601 4.494276 33.59730794 4.3125 36.6875 C4.24675781 37.68136719 4.18101563 38.67523438 4.11328125 39.69921875 C4.07589844 40.45847656 4.03851562 41.21773437 4 42 C3.67 42 3.34 42 3 42 C0.8296526 28.05077688 0.39689673 14.09467398 0 0 Z " fill="#5F3930" transform="translate(13,2)"/>
<path d="M0 0 C0 0.66 0 1.32 0 2 C0.99 1.67 1.98 1.34 3 1 C2.56487605 6.01842953 1.36713351 8.27659364 -2.25 11.75 C-3.01828125 12.50796875 -3.7865625 13.2659375 -4.578125 14.046875 C-6.99709146 15.9976544 -9.06856492 17.02285497 -12 18 C-12.66 16.68 -13.32 15.36 -14 14 C-3.57816377 0 -3.57816377 0 0 0 Z " fill="#4E2720" transform="translate(129,41)"/>
<path d="M0 0 C0.66 0.66 1.32 1.32 2 2 C3.32 1.34 4.64 0.68 6 0 C6.24991456 6.65050424 5.73955334 12.56986533 4 19 C2.68 17.68 1.36 16.36 0 15 C-0.99 16.32 -1.98 17.64 -3 19 C-2.48446121 12.50149789 -1.53332291 6.33773468 0 0 Z " fill="#E4D9CB" transform="translate(100,31)"/>
<path d="M0 0 C0.99 0.33 1.98 0.66 3 1 C3.62131726 5.27155615 4.10848147 9.49618488 4.25 13.8125 C4.27578125 14.54082031 4.3015625 15.26914062 4.328125 16.01953125 C3.91180652 18.53231063 2.92077968 19.39766537 1 21 C-1.28179772 16.43640456 -2.15868493 13.70976518 -2.1875 8.5 C-2.20876953 6.75203125 -2.20876953 6.75203125 -2.23046875 4.96875 C-2 2 -2 2 0 0 Z " fill="#522621" transform="translate(19,30)"/>
<path d="M0 0 C10.56 0 21.12 0 32 0 C31.01 1.485 31.01 1.485 30 3 C27.01904297 3.43237305 27.01904297 3.43237305 23.2421875 3.51171875 C22.24761032 3.53864555 22.24761032 3.53864555 21.23294067 3.56611633 C19.11369197 3.62032924 16.99466975 3.65414771 14.875 3.6875 C13.43877048 3.72066367 12.0025709 3.75515245 10.56640625 3.79101562 C7.04448871 3.87605964 3.52249241 3.94281873 0 4 C0 2.68 0 1.36 0 0 Z " fill="#4D1F19" transform="translate(1,88)"/>
<path d="M0 0 C4.62 0 9.24 0 14 0 C14.66 1.32 15.32 2.64 16 4 C11.48349495 5.50550168 6.88863887 5.33770044 2.15234375 5.5234375 C1.11207031 5.68070313 0.07179688 5.83796875 -1 6 C-1.66 6.99 -2.32 7.98 -3 9 C-2.67 7.02 -2.34 5.04 -2 3 C-0.68 3 0.64 3 2 3 C2 2.34 2 1.68 2 1 C1.34 0.67 0.68 0.34 0 0 Z " fill="#4A1F16" transform="translate(114,15)"/>
<path d="M0 0 C0.99 0 1.98 0 3 0 C3 2.97 3 5.94 3 9 C3.66 9.33 4.32 9.66 5 10 C4.67 10.66 4.34 11.32 4 12 C4.66 12.33 5.32 12.66 6 13 C5.67 13.66 5.34 14.32 5 15 C5.66 14.67 6.32 14.34 7 14 C7.65213292 11.97536745 7.65213292 11.97536745 8 10 C8.66 10 9.32 10 10 10 C10.33 11.98 10.66 13.96 11 16 C10.01 16 9.02 16 8 16 C7.67 17.32 7.34 18.64 7 20 C7.66 20 8.32 20 9 20 C9.99 22.31 10.98 24.62 12 27 C11.34 27.66 10.68 28.32 10 29 C0 8.63333333 0 8.63333333 0 0 Z " fill="#5F4039" transform="translate(19,54)"/>
<path d="M0 0 C0.66 0 1.32 0 2 0 C2.495 1.98 2.495 1.98 3 4 C-7.56 4 -18.12 4 -29 4 C-29.33 5.32 -29.66 6.64 -30 8 C-30 6.35 -30 4.7 -30 3 C-27.20879909 1.60439955 -24.79794308 1.78191712 -21.6796875 1.68359375 C-19.79443359 1.62075195 -19.79443359 1.62075195 -17.87109375 1.55664062 C-16.55238281 1.51732422 -15.23367187 1.47800781 -13.875 1.4375 C-12.53514249 1.39430488 -11.19529844 1.35069027 -9.85546875 1.30664062 C-6.57042185 1.20029019 -3.28529719 1.09826192 0 1 C0 0.67 0 0.34 0 0 Z " fill="#6A4A42" transform="translate(30,84)"/>
<path d="M0 0 C1.49498076 0.01062153 2.98991536 0.03725089 4.484375 0.078125 C5.22300781 0.08328125 5.96164063 0.0884375 6.72265625 0.09375 C11.309564 0.15846828 15.70861665 0.58580485 20.234375 1.328125 C20.234375 1.988125 20.234375 2.648125 20.234375 3.328125 C11.324375 3.328125 2.414375 3.328125 -6.765625 3.328125 C-3.765625 0.328125 -3.765625 0.328125 0 0 Z " fill="#53231C" transform="translate(105.765625,87.671875)"/>
<path d="M0 0 C0.33 0 0.66 0 1 0 C1.33 1.65 1.66 3.3 2 5 C2.66 3.68 3.32 2.36 4 1 C4.33 1 4.66 1 5 1 C5.65865846 4.35850603 6.14128288 7.57258194 6 11 C3.625 14.125 3.625 14.125 1 16 C0.67 16 0.34 16 0 16 C0 10.72 0 5.44 0 0 Z " fill="#F0E6D3" transform="translate(101,18)"/>
<path d="M0 0 C0.66 0 1.32 0 2 0 C1.9278125 1.09699219 1.855625 2.19398437 1.78125 3.32421875 C1.68741634 4.77864044 1.593671 6.23306783 1.5 7.6875 C1.42845703 8.7693457 1.42845703 8.7693457 1.35546875 9.87304688 C1.11796481 13.58828714 0.94125363 17.27694874 1 21 C-1.28179772 16.43640456 -2.15868493 13.70976518 -2.1875 8.5 C-2.20876953 6.75203125 -2.20876953 6.75203125 -2.23046875 4.96875 C-2 2 -2 2 0 0 Z " fill="#421914" transform="translate(19,30)"/>
<path d="M0 0 C0.33 0 0.66 0 1 0 C1.58621957 10.56823621 0.14938822 18.96132505 -3 29 C-4.16962086 25.49113742 -3.80714194 23.65042723 -3.22265625 20.01953125 C-3.03896484 18.85615234 -2.85527344 17.69277344 -2.66601562 16.49414062 C-2.46685547 15.27919922 -2.26769531 14.06425781 -2.0625 12.8125 C-1.86720703 11.58595703 -1.67191406 10.35941406 -1.47070312 9.09570312 C-0.98684203 6.06272014 -0.49635476 3.03095917 0 0 Z " fill="#451F18" transform="translate(111,25)"/>
<path d="M0 0 C2 3 2 3 1.75 5 C1 7 1 7 -1 10 C-1.68177416 11.32567199 -2.35191436 12.65753688 -3 14 C-3.92053993 9.30524633 -4.31904262 6.27192062 -2 2 C-1.34 1.34 -0.68 0.68 0 0 Z " fill="#E2D8C7" transform="translate(30,48)"/>
<path d="M0 0 C0.33 0.66 0.66 1.32 1 2 C-1.10515339 5.72450216 -2.24267224 7.6795921 -6.25 9.375 C-7.61125 9.684375 -7.61125 9.684375 -9 10 C-8.06862408 8.70391053 -7.1296434 7.41328368 -6.1875 6.125 C-5.66542969 5.40570313 -5.14335938 4.68640625 -4.60546875 3.9453125 C-3 2 -3 2 0 0 Z " fill="#512F27" transform="translate(127,41)"/>
<path d="M0 0 C0.33 0 0.66 0 1 0 C1.90375653 6.32629569 1.90375653 11.67370431 1 18 C0.67 18 0.34 18 0 18 C-0.19620767 15.93831015 -0.38160753 13.87559002 -0.5625 11.8125 C-0.66691406 10.66394531 -0.77132813 9.51539063 -0.87890625 8.33203125 C-0.98859985 5.31368801 -0.74002389 2.91076064 0 0 Z " fill="#64473F" transform="translate(16,26)"/>
<path d="M0 0 C0 0.99 0 1.98 0 3 C-0.66 3 -1.32 3 -2 3 C-2 3.66 -2 4.32 -2 5 C-2.66 5 -3.32 5 -4 5 C-4 4.34 -4 3.68 -4 3 C-4.66 3 -5.32 3 -6 3 C-6 2.01 -6 1.02 -6 0 C-3 -1 -3 -1 0 0 Z " fill="#451B18" transform="translate(36,81)"/>
<path d="M0 0 C0.66 0 1.32 0 2 0 C2.33 1.65 2.66 3.3 3 5 C1.68 5.33 0.36 5.66 -1 6 C-1.625 4.125 -1.625 4.125 -2 2 C-1.34 1.34 -0.68 0.68 0 0 Z " fill="#F5F3E5" transform="translate(92,70)"/>
<path d="M0 0 C2.475 0.495 2.475 0.495 5 1 C5 2.65 5 4.3 5 6 C3.68 5.67 2.36 5.34 1 5 C0.67 3.35 0.34 1.7 0 0 Z " fill="#4C1F17" transform="translate(106,57)"/>
<path d="M0 0 C0.66 1.32 1.32 2.64 2 4 C3.32 3.67 4.64 3.34 6 3 C5.34 4.32 4.68 5.64 4 7 C1.525 6.01 1.525 6.01 -1 5 C-0.67 3.35 -0.34 1.7 0 0 Z " fill="#E6DDCE" transform="translate(89,72)"/>
<path d="M0 0 C0.33 0.66 0.66 1.32 1 2 C0.0625 4.625 0.0625 4.625 -1 7 C-1.66 7 -2.32 7 -3 7 C-3.33 5.35 -3.66 3.7 -4 2 C-2.68 1.34 -1.36 0.68 0 0 Z " fill="#4D221B" transform="translate(27,62)"/>
<path d="" fill="#D6CBB5" transform="translate(0,0)"/>
</svg>
