<?xml version="1.0" encoding="UTF-8"?>
<svg version="1.1" xmlns="http://www.w3.org/2000/svg" width="152" height="132">
<path d="M0 0 C1.06734375 0.37382813 2.1346875 0.74765625 3.234375 1.1328125 C18.84647567 7.11613027 29.76015028 16.20843128 36.90625 31.43359375 C38.68417923 35.60537769 39.11105962 38.67145543 39.0625 43.1875 C39.05347656 44.27417969 39.04445312 45.36085937 39.03515625 46.48046875 C39.01775391 47.72763672 39.01775391 47.72763672 39 49 C37.68 49.33 36.36 49.66 35 50 C35 51.98 35 53.96 35 56 C35.928125 56.2475 36.85625 56.495 37.8125 56.75 C41.24689474 58.09682147 42.37001248 58.74002497 44 62 C44.43594462 65.48755699 44.39575693 67.31641985 42.625 70.375 C41.820625 71.179375 41.820625 71.179375 41 72 C40.34 72 39.68 72 39 72 C39.41792699 77.32856909 40.39615184 80.05829108 44 84 C45.85286586 87.70573171 45.46377118 91.95591531 45 96 C43.9461074 98.54732334 42.87312517 99.90650716 41 102 C40.34 102 39.68 102 39 102 C39.04640625 103.00160156 39.0928125 104.00320312 39.140625 105.03515625 C39.58592761 118.56929625 39.58592761 118.56929625 35 124 C29.53002342 128.83816838 24.4871108 128.57018278 17.3984375 128.51757812 C16.23677063 128.5245874 15.07510376 128.53159668 13.87823486 128.53881836 C10.0435791 128.55640359 6.20966309 128.54477278 2.375 128.53125 C-0.29248978 128.53394474 -2.95995722 128.53782105 -5.62744141 128.54284668 C-11.21590163 128.55011457 -16.80415009 128.54055816 -22.39257812 128.52148438 C-28.84452346 128.499717 -35.29596311 128.506769 -41.74789619 128.52879 C-47.29715349 128.5469687 -52.84625896 128.54949035 -58.39553642 128.53903532 C-61.7056228 128.53281381 -65.01542072 128.53350842 -68.32550049 128.54518127 C-72.01682704 128.55534188 -75.7071832 128.53985045 -79.3984375 128.51757812 C-81.03507355 128.52972351 -81.03507355 128.52972351 -82.70477295 128.54211426 C-88.77924019 128.47422822 -92.40847961 128.11221384 -97 124 C-101.43987206 117.88017635 -102.23490867 112.15005311 -101.8125 104.6875 C-101.74145591 101.84656845 -101.74145591 101.84656845 -103.9375 99.75 C-104.9584375 98.88375 -104.9584375 98.88375 -106 98 C-107.85143856 94.29712287 -107.4703092 90.04094612 -107 86 C-105.78858572 83.2412793 -104.14122175 81.14122175 -102 79 C-101.63239269 76.67182036 -101.29758419 74.3381615 -101 72 C-101.639375 71.71125 -102.27875 71.4225 -102.9375 71.125 C-105 70 -105 70 -106 68 C-106.57748969 61.76311137 -106.57748969 61.76311137 -104.25 58.6875 C-102.21711228 57.16283421 -100.33085643 55.99893847 -98 55 C-98 53.35 -98 51.7 -98 50 C-98.99 49.67 -99.98 49.34 -101 49 C-101.7836956 36.52617832 -99.26040771 27.737402 -91.05078125 18.20703125 C-69.11655377 -5.39837547 -29.44075725 -10.67401862 0 0 Z " fill="#5A2015" transform="translate(107,4)"/>
<path d="M0 0 C1.06734375 0.37382813 2.1346875 0.74765625 3.234375 1.1328125 C15.13704206 5.69449455 27.46383618 12.7632193 33.29296875 24.6328125 C34 27 34 27 33.25 29.75 C32 32 32 32 30 33 C29.50693359 32.05640625 29.50693359 32.05640625 29.00390625 31.09375 C20.67740073 16.11055308 7.08637894 9.51679785 -8.8671875 4.7265625 C-16.23792251 3.01714017 -23.40662943 2.8440724 -30.9375 2.875 C-31.87529297 2.87113281 -32.81308594 2.86726562 -33.77929688 2.86328125 C-53.46776488 2.89064535 -71.12953544 8.59013553 -85.6171875 22.35546875 C-91.17984182 28.52910313 -93.66659176 36.14608933 -96 44 C-96.66 43.34 -97.32 42.68 -98 42 C-98.33498301 44.33165034 -98.33498301 44.33165034 -98 47 C-96.2287382 49.35522225 -96.2287382 49.35522225 -94 51 C-93.34 51 -92.68 51 -92 51 C-91.67 53.31 -91.34 55.62 -91 58 C-89.906875 57.98839844 -88.81375 57.97679687 -87.6875 57.96484375 C-78.18031886 57.89601914 -68.6889892 58.03202012 -59.1875 58.375 C-57.65899414 58.4212854 -57.65899414 58.4212854 -56.09960938 58.46850586 C-51.05347646 58.67063693 -46.72632966 59.02601512 -42 61 C-42 61.33 -42 61.66 -42 62 C-70.215 62.495 -70.215 62.495 -99 63 C-99 63.99 -99 64.98 -99 66 C-54.12 66.33 -9.24 66.66 37 67 C37 67.33 37 67.66 37 68 C1.69 68.33 -33.62 68.66 -70 69 C-70 69.66 -70 70.32 -70 71 C-42.94 71 -15.88 71 12 71 C12 71.33 12 71.66 12 72 C-23.31 72 -58.62 72 -95 72 C-95 73.65 -95 75.3 -95 77 C-94.25736404 76.97557327 -93.51472809 76.95114655 -92.74958801 76.92597961 C-85.64865682 76.70284474 -78.54899715 76.53676252 -71.44551563 76.43006611 C-67.79569816 76.3733566 -64.14884385 76.29687547 -60.50073242 76.17016602 C-41.7075819 75.53408447 -26.91032821 76.70518707 -11 88 C-14.76624671 89.25541557 -16.37188934 88.37061958 -20 87 C-20.495 88.485 -20.495 88.485 -21 90 C-21.69145615 89.57489639 -22.38291229 89.14979279 -23.09532166 88.71180725 C-31.53114073 83.9612749 -38.52723316 83.14622063 -48.06640625 83.30859375 C-49.47696044 83.31218063 -50.8875219 83.31352621 -52.29808044 83.3127594 C-55.22726494 83.31740981 -58.15532624 83.34194939 -61.08422852 83.38256836 C-64.83700571 83.43396221 -68.58857235 83.44499709 -72.3416605 83.44273281 C-75.24221836 83.44354756 -78.14251203 83.45997795 -81.0429821 83.48173714 C-82.42765245 83.49126729 -83.81235255 83.49719238 -85.19705391 83.49941826 C-87.12309724 83.50591678 -89.04902775 83.53454031 -90.97485352 83.56420898 C-92.06895035 83.57564438 -93.16304718 83.58707977 -94.29029846 83.59886169 C-97.0015523 83.79111981 -97.0015523 83.79111981 -98.84922791 85.31239319 C-100.81752839 88.19890505 -100.41351441 90.63281121 -100 94 C-97.97195262 96.629376 -96.78049216 97.84529309 -93.48872375 98.49777794 C-92.5389415 98.4966884 -91.58915924 98.49559887 -90.6105957 98.49447632 C-89.51703766 98.5028653 -88.42347961 98.51125427 -87.29678345 98.51989746 C-86.10185272 98.50865845 -84.906922 98.49741943 -83.67578125 98.48583984 C-82.41365814 98.48963654 -81.15153503 98.49343323 -79.85116577 98.49734497 C-76.39237362 98.50703336 -72.93409818 98.49174188 -69.4753685 98.47143888 C-65.85508571 98.45386131 -62.23481872 98.4573931 -58.61450195 98.4581604 C-52.53490563 98.45628772 -46.45550905 98.43892872 -40.37597656 98.41162109 C-33.34816491 98.38017058 -26.32057199 98.36962493 -19.29269505 98.3710922 C-11.80952294 98.37244351 -4.3264351 98.35855853 3.15671158 98.34019899 C5.3124346 98.33593763 7.468144 98.33451681 9.62387085 98.33372116 C13.6412792 98.33133762 17.65842915 98.31190834 21.67578125 98.29052734 C23.46817734 98.2918869 23.46817734 98.2918869 25.29678345 98.29327393 C26.39034149 98.28474396 27.48389954 98.27621399 28.6105957 98.26742554 C29.56037796 98.26407385 30.51016022 98.26072216 31.48872375 98.25726891 C34.13974046 97.98568422 35.77781573 97.45718772 38 96 C38.66339065 93.88050499 38.66339065 93.88050499 38.6875 91.5 C38.93589744 87.12820513 38.93589744 87.12820513 40 85 C40.66 85 41.32 85 42 85 C43.24390037 87.48780074 43.4387463 89.61077069 43.75 92.375 C43.86859375 93.33148438 43.9871875 94.28796875 44.109375 95.2734375 C43.9794574 98.51209765 43.26350535 99.72571606 41 102 C40.34 102 39.68 102 39 102 C39.04640625 103.00160156 39.0928125 104.00320312 39.140625 105.03515625 C39.58592761 118.56929625 39.58592761 118.56929625 35 124 C29.53002342 128.83816838 24.4871108 128.57018278 17.3984375 128.51757812 C16.23677063 128.5245874 15.07510376 128.53159668 13.87823486 128.53881836 C10.0435791 128.55640359 6.20966309 128.54477278 2.375 128.53125 C-0.29248978 128.53394474 -2.95995722 128.53782105 -5.62744141 128.54284668 C-11.21590163 128.55011457 -16.80415009 128.54055816 -22.39257812 128.52148438 C-28.84452346 128.499717 -35.29596311 128.506769 -41.74789619 128.52879 C-47.29715349 128.5469687 -52.84625896 128.54949035 -58.39553642 128.53903532 C-61.7056228 128.53281381 -65.01542072 128.53350842 -68.32550049 128.54518127 C-72.01682704 128.55534188 -75.7071832 128.53985045 -79.3984375 128.51757812 C-81.03507355 128.52972351 -81.03507355 128.52972351 -82.70477295 128.54211426 C-88.77924019 128.47422822 -92.40847961 128.11221384 -97 124 C-101.43987206 117.88017635 -102.23490867 112.15005311 -101.8125 104.6875 C-101.74145591 101.84656845 -101.74145591 101.84656845 -103.9375 99.75 C-104.9584375 98.88375 -104.9584375 98.88375 -106 98 C-107.85143856 94.29712287 -107.4703092 90.04094612 -107 86 C-105.78858572 83.2412793 -104.14122175 81.14122175 -102 79 C-101.63239269 76.67182036 -101.29758419 74.3381615 -101 72 C-101.639375 71.71125 -102.27875 71.4225 -102.9375 71.125 C-105 70 -105 70 -106 68 C-106.57748969 61.76311137 -106.57748969 61.76311137 -104.25 58.6875 C-102.21711228 57.16283421 -100.33085643 55.99893847 -98 55 C-98 53.35 -98 51.7 -98 50 C-98.99 49.67 -99.98 49.34 -101 49 C-101.7836956 36.52617832 -99.26040771 27.737402 -91.05078125 18.20703125 C-69.11655377 -5.39837547 -29.44075725 -10.67401862 0 0 Z " fill="#5A2716" transform="translate(107,4)"/>
<path d="M0 0 C1.19882813 0.34160156 2.39765625 0.68320313 3.6328125 1.03515625 C17.46307279 5.20500569 31.069209 12.16117857 38.18481445 25.33398438 C40.92987492 30.74569538 42 33.76741531 42 40 C-0.24 40 -42.48 40 -86 40 C-84.8350218 29.51519616 -81.88953557 21.82061594 -74.03125 14.6171875 C-54.00631346 -1.32574275 -24.8134815 -7.10534411 0 0 Z " fill="#D2934F" transform="translate(98,8)"/>
<path d="M0 0 C42.24 0 84.48 0 128 0 C128 11.41176471 128 11.41176471 124 16 C121.59336041 17.2033198 120.07784279 17.13360768 117.389328 17.14717102 C116.4177626 17.15432632 115.4461972 17.16148163 114.44519043 17.16885376 C113.37555054 17.17154266 112.30591064 17.17423157 111.20385742 17.17700195 C109.51834526 17.18685875 109.51834526 17.18685875 107.79878235 17.19691467 C104.0676772 17.21668035 100.33661234 17.22831698 96.60546875 17.23828125 C95.33376642 17.24235678 94.06206409 17.2464323 92.75182533 17.25063133 C86.71674245 17.26935102 80.6816841 17.28391425 74.64657992 17.2922433 C67.68091421 17.30201539 60.7155663 17.32833357 53.75001258 17.36874419 C47.71653155 17.40254568 41.6832048 17.41438851 35.64962196 17.41844749 C33.08314164 17.42332788 30.51666507 17.43498281 27.95024681 17.45348549 C24.36134724 17.47775328 20.77328214 17.47693414 17.18432617 17.4699707 C16.12075897 17.48278076 15.05719177 17.49559082 13.96139526 17.50878906 C9.49365995 17.4771336 6.77230649 17.45352506 2.86347961 15.15812683 C-1.3464666 10.28251789 0 7.13239779 0 0 Z " fill="#D29251" transform="translate(12,109)"/>
<path d="M0 0 C1.22938293 -0.02551941 2.45876587 -0.05103882 3.72540283 -0.07733154 C5.06790535 -0.08345387 6.41041637 -0.08790563 7.75292969 -0.09082031 C9.14378391 -0.10369446 10.53463285 -0.1171525 11.92547607 -0.13116455 C14.84757987 -0.15512095 17.7692112 -0.16252708 20.69140625 -0.16015625 C23.65985706 -0.15983321 26.62581236 -0.18724397 29.59375 -0.2421875 C60.69629948 -0.81039053 60.69629948 -0.81039053 73.92480469 8.58105469 C75.62819042 9.61012249 77.33535298 10.63303066 79.04980469 11.64355469 C79.67113281 12.04703125 80.29246094 12.45050781 80.93261719 12.86621094 C83.9963243 13.96554114 85.79512787 13.47097474 88.92480469 12.58105469 C91.77428975 11.11273434 94.43508919 9.40286773 97.11230469 7.64355469 C97.82322266 7.18787109 98.53414063 6.7321875 99.26660156 6.26269531 C102.1715438 4.39620843 105.05179958 2.49639143 107.92480469 0.58105469 C110.88909084 0.13470513 113.86785808 0.21078899 116.86230469 0.20605469 C117.67376953 0.1815625 118.48523438 0.15707031 119.32128906 0.13183594 C123.17604931 0.11286255 125.25535346 0.10272766 128.45605469 2.38964844 C130.6426449 5.65208755 130.5306762 7.74386846 129.92480469 11.58105469 C128.16601562 14.26327515 128.16601562 14.26327515 124.92480469 16.58105469 C120.7902129 17.33787018 116.69635364 17.2637002 112.50292969 17.22802734 C110.61193542 17.24116974 110.61193542 17.24116974 108.68273926 17.25457764 C105.23215104 17.27733613 101.78231181 17.26854981 98.33171082 17.25268221 C94.71721407 17.24000491 91.10278057 17.25176838 87.48828125 17.25961304 C81.41882843 17.26870435 75.34968002 17.2567356 69.28027344 17.23291016 C62.26760081 17.20569946 55.25565505 17.21451402 48.24300003 17.24204218 C42.21733004 17.26474733 36.19187861 17.2679266 30.16617966 17.25484884 C26.56936482 17.24706188 22.97289141 17.24599142 19.37609863 17.26253128 C15.36585592 17.27968494 11.35686208 17.25589808 7.34667969 17.22802734 C6.15691528 17.2381485 4.96715088 17.24826965 3.74133301 17.25869751 C-4.27205872 17.15537509 -4.27205872 17.15537509 -8.31640625 14.26327515 C-10.6310045 10.73342446 -10.75305272 8.72351663 -10.07519531 4.58105469 C-7.06083647 0.61425491 -4.88714886 0.0690077 0 0 Z " fill="#8B4432" transform="translate(16.0751953125,86.4189453125)"/>
<path d="M0 0 C41.58 0 83.16 0 126 0 C126 1.32 126 2.64 126 4 C124.63294922 3.88205078 124.63294922 3.88205078 123.23828125 3.76171875 C112.033568 3.54988835 105.26820488 7.13700487 96.18481445 13.60229492 C95.33749756 14.19115479 94.49018066 14.78001465 93.6171875 15.38671875 C92.87065918 15.93545654 92.12413086 16.48419434 91.35498047 17.04956055 C89 18 89 18 86.26489258 17.51025391 C83.61614107 16.28501074 81.38948739 15.01648305 78.95629883 13.44018555 C63.70308981 3.72421859 49.25708242 3.46522277 31.81719971 3.78112793 C28.21606856 3.83417529 24.61510815 3.8231478 21.01367188 3.81835938 C14.00807325 3.81806407 7.0047508 3.88584278 0 4 C0 2.68 0 1.36 0 0 Z " fill="#F3C452" transform="translate(13,77)"/>
<path d="M0 0 C1.50298346 0.00138269 1.50298346 0.00138269 3.03633022 0.00279331 C4.18202984 0.00141865 5.32772945 0.00004398 6.50814724 -0.00137234 C8.41030499 0.00402058 8.41030499 0.00402058 10.35089016 0.00952244 C11.69092208 0.00980431 13.03095415 0.00964657 14.37098598 0.00907993 C18.01958415 0.00879196 21.66814971 0.01468863 25.31674027 0.02165389 C29.12576493 0.02788749 32.93479026 0.02849123 36.74381924 0.0296793 C43.96156731 0.0327926 51.17930031 0.04100597 58.39704174 0.05102879 C66.61214234 0.06218997 74.82724364 0.06770039 83.04234993 0.07272422 C99.94590528 0.08318858 116.84944593 0.10078799 133.75298977 0.12304783 C134.31548977 2.06054783 134.31548977 2.06054783 134.75298977 4.12304783 C133.75298977 5.12304783 133.75298977 5.12304783 131.50597954 5.24609566 C130.00299608 5.24471297 130.00299608 5.24471297 128.46964931 5.24330235 C127.3239497 5.24467701 126.17825008 5.24605167 124.9978323 5.24746799 C123.09567455 5.24207508 123.09567455 5.24207508 121.15508938 5.23657322 C119.81505746 5.23629135 118.47502538 5.23644908 117.13499355 5.23701572 C113.48639539 5.2373037 109.83782982 5.23140703 106.18923926 5.22444177 C102.3802146 5.21820817 98.57118927 5.21760443 94.7621603 5.21641636 C87.54441223 5.21330306 80.32667922 5.20508969 73.1089378 5.19506687 C64.8938372 5.18390569 56.67873589 5.17839527 48.4636296 5.17337143 C31.56007426 5.16290708 14.65653361 5.14530766 -2.24701023 5.12304783 C-2.80951023 3.18554783 -2.80951023 3.18554783 -3.24701023 1.12304783 C-2.24701023 0.12304783 -2.24701023 0.12304783 0 0 Z " fill="#86944D" transform="translate(10.247010231018066,65.87695217132568)"/>
<path d="M0 0 C0.556875 0.268125 1.11375 0.53625 1.6875 0.8125 C0.6975 1.1425 -0.2925 1.4725 -1.3125 1.8125 C-1.26609375 2.81410156 -1.2196875 3.81570312 -1.171875 4.84765625 C-0.72657239 18.38179625 -0.72657239 18.38179625 -5.3125 23.8125 C-10.77439162 28.64145207 -15.74946401 28.36066922 -22.82568359 28.26660156 C-23.97748108 28.26718567 -25.12927856 28.26776978 -26.315979 28.26837158 C-30.11460742 28.26558984 -33.91244653 28.23449167 -37.7109375 28.203125 C-40.34794689 28.19566298 -42.98496184 28.18996987 -45.62197876 28.18597412 C-51.84804145 28.17356163 -58.07382185 28.14076381 -64.29976046 28.10057616 C-71.39041397 28.05580434 -78.48108124 28.03385788 -85.571841 28.01379442 C-100.15220602 27.97202936 -114.73234906 27.90171119 -129.3125 27.8125 C-129.3125 27.1525 -129.3125 26.4925 -129.3125 25.8125 C-126.12644041 23.68846028 -125.31650777 23.55836465 -121.66181946 23.5340271 C-120.70689606 23.52286362 -119.75197266 23.51170013 -118.76811218 23.50019836 C-117.72226456 23.49803818 -116.67641693 23.49587799 -115.59887695 23.49365234 C-114.4962854 23.48360672 -113.39369385 23.4735611 -112.25769043 23.46321106 C-108.60539278 23.43226705 -104.9531688 23.41531262 -101.30078125 23.3984375 C-98.77157451 23.3797349 -96.24237408 23.36016218 -93.71318054 23.3397522 C-87.73154822 23.29358797 -81.74992316 23.25621424 -75.76820964 23.22307932 C-68.9580536 23.1848663 -62.14799329 23.13545403 -55.33791792 23.08509517 C-41.32951627 22.98175764 -27.32105296 22.89250319 -13.3125 22.8125 C-13.3125 22.1525 -13.3125 21.4925 -13.3125 20.8125 C-12.00049596 19.45817325 -10.66618596 18.12516518 -9.3125 16.8125 C-8.10926206 14.40602412 -8.17507282 12.68164533 -8.0625 10 C-7.7068677 6.10497952 -7.38826059 4.91692677 -5 1.625 C-2.3125 -0.1875 -2.3125 -0.1875 0 0 Z " fill="#4A1D13" transform="translate(147.3125,104.1875)"/>
<path d="M0 0 C30.03 0 60.06 0 91 0 C90.67 0.66 90.34 1.32 90 2 C95.28 2.33 100.56 2.66 106 3 C106.33 5.64 106.66 8.28 107 11 C100.73 11 94.46 11 88 11 C88 10.34 88 9.68 88 9 C93.28 9 98.56 9 104 9 C104 7.68 104 6.36 104 5 C62.42 5 20.84 5 -22 5 C-22.33 6.32 -22.66 7.64 -23 9 C-23 7.35 -23 5.7 -23 4 C-10.625 3.505 -10.625 3.505 2 3 C2 2.34 2 1.68 2 1 C1.34 0.67 0.68 0.34 0 0 Z " fill="#67391C" transform="translate(35,72)"/>
<path d="M0 0 C18.81 0 37.62 0 57 0 C57 1.98 57 3.96 57 6 C56 7 56 7 53.75376892 7.12025452 C52.76115555 7.11803391 51.76854218 7.11581329 50.74584961 7.11352539 C49.62476303 7.11344986 48.50367645 7.11337433 47.34861755 7.11329651 C45.51896202 7.10555458 45.51896202 7.10555458 43.65234375 7.09765625 C42.41078018 7.0962413 41.16921661 7.09482635 39.89002991 7.09336853 C36.58394509 7.08870591 33.27792854 7.07971497 29.97186279 7.06866455 C26.6003885 7.05844827 23.22890717 7.05387045 19.85742188 7.04882812 C13.23826225 7.03777395 6.61913507 7.02101736 0 7 C0 4.69 0 2.38 0 0 Z " fill="#D74140" transform="translate(16,54)"/>
<path d="M0 0 C0.99261337 0.00222061 1.98522675 0.00444122 3.00791931 0.00672913 C4.12900589 0.00680466 5.25009247 0.00688019 6.40515137 0.00695801 C8.2348069 0.01469994 8.2348069 0.01469994 10.10142517 0.02259827 C11.96377052 0.02472069 11.96377052 0.02472069 13.86373901 0.02688599 C17.16982383 0.03154861 20.47584039 0.04053955 23.78190613 0.05158997 C27.15338042 0.06180625 30.52486175 0.06638407 33.89634705 0.07142639 C40.51550667 0.08248056 47.13463385 0.09923715 53.75376892 0.12025452 C53.79631248 2.11980198 53.79457675 4.12067088 53.75376892 6.12025452 C52.06081547 7.81320796 49.92480409 7.2477518 47.60728455 7.24964905 C46.50944641 7.25280121 45.41160828 7.25595337 44.28050232 7.25920105 C43.0857428 7.25717682 41.89098328 7.25515259 40.66001892 7.25306702 C39.44302307 7.25402374 38.22602722 7.25498047 36.97215271 7.25596619 C34.39300993 7.25664824 31.81386545 7.25479223 29.23472595 7.25062561 C25.27098257 7.24527774 21.3073525 7.25056981 17.34361267 7.25697327 C14.8449145 7.25631249 12.3462164 7.25503134 9.84751892 7.25306702 C8.05537964 7.25610336 8.05537964 7.25610336 6.22703552 7.25920105 C5.12919739 7.25604889 4.03135925 7.25289673 2.9002533 7.24964905 C1.44250488 7.24845566 1.44250488 7.24845566 -0.04469299 7.24723816 C-2.24623108 7.12025452 -2.24623108 7.12025452 -3.24623108 6.12025452 C-3.37123108 3.62025452 -3.37123108 3.62025452 -3.24623108 1.12025452 C-2.24623108 0.12025452 -2.24623108 0.12025452 0 0 Z " fill="#D54441" transform="translate(82.24623107910156,53.87974548339844)"/>
<path d="M0 0 C41.58 0 83.16 0 126 0 C126 1.32 126 2.64 126 4 C121.05 4 116.1 4 111 4 C111 3.67 111 3.34 111 3 C115.62 3 120.24 3 125 3 C125 2.34 125 1.68 125 1 C103.55 1 82.1 1 60 1 C60 1.66 60 2.32 60 3 C61.32 3 62.64 3 64 3 C64 3.66 64 4.32 64 5 C32.32 4.505 32.32 4.505 0 4 C0 2.68 0 1.36 0 0 Z " fill="#F6CA65" transform="translate(13,77)"/>
<path d="M0 0 C0.99 0.33 1.98 0.66 3 1 C3 1.66 3 2.32 3 3 C45.24 3 87.48 3 131 3 C131 3.33 131 3.66 131 4 C96.35 4.33 61.7 4.66 26 5 C26 5.66 26 6.32 26 7 C44.315 7.495 44.315 7.495 63 8 C63 8.33 63 8.66 63 9 C44.52 9 26.04 9 7 9 C7 10.98 7 12.96 7 15 C6.67 15 6.34 15 6 15 C6 13.35 6 11.7 6 10 C5.01 10.33 4.02 10.66 3 11 C2.67 10.01 2.34 9.02 2 8 C1.01 7.34 0.02 6.68 -1 6 C-1.25 3.4375 -1.25 3.4375 -1 1 C-0.67 0.67 -0.34 0.34 0 0 Z " fill="#7A3822" transform="translate(9,45)"/>
<path d="M0 0 C8.31414441 0.41570722 16.87920924 2.43513379 23.31640625 8.00390625 C25.29569927 10.35058545 25.52831646 12.01267091 26 15 C26.66 15.66 27.32 16.32 28 17 C23.38563824 16.16206864 19.41985074 13.759277 15.30859375 11.61523438 C12.43234752 10.13967638 9.71447421 8.91262779 6.6171875 7.96484375 C5.75351563 7.64644531 4.88984375 7.32804688 4 7 C3.67 6.01 3.34 5.02 3 4 C3.33 3.34 3.66 2.68 4 2 C2.68 1.34 1.36 0.68 0 0 Z " fill="#4C2217" transform="translate(98,3)"/>
<path d="M0 0 C-3.63 0.33 -7.26 0.66 -11 1 C-11.33 2.32 -11.66 3.64 -12 5 C-21.405 5.99 -21.405 5.99 -31 7 C-31.66 5.68 -32.32 4.36 -33 3 C-24.16580233 -1.31894108 -8.7290939 -5.81939593 0 0 Z " fill="#54251A" transform="translate(77,2)"/>
<path d="M0 0 C0.93619813 3.15506142 1.1057123 5.96586502 1.0625 9.25 C1.05347656 10.14203125 1.04445313 11.0340625 1.03515625 11.953125 C1.02355469 12.62859375 1.01195312 13.3040625 1 14 C2.32 13.67 3.64 13.34 5 13 C5.680625 14.175625 5.680625 14.175625 6.375 15.375 C7.88428742 18.03698031 7.88428742 18.03698031 10 20 C11 21 12 22 13 23 C12.01 23.33 11.02 23.66 10 24 C10 24.66 10 25.32 10 26 C5.70383316 25.00089143 2.76308925 23.61952675 0.046875 20.0390625 C-2.20207937 15.65863644 -2.87994222 10.88234953 -3 6 C-1.625 2.25 -1.625 2.25 0 0 Z " fill="#672C1C" transform="translate(8,106)"/>
<path d="M0 0 C0.51046875 0.39960937 1.0209375 0.79921875 1.546875 1.2109375 C1.546875 1.8709375 1.546875 2.5309375 1.546875 3.2109375 C2.206875 2.8809375 2.866875 2.5509375 3.546875 2.2109375 C5.54647512 2.1709455 7.54734742 2.16746951 9.546875 2.2109375 C9.546875 2.5409375 9.546875 2.8709375 9.546875 3.2109375 C8.68964844 3.46488281 7.83242188 3.71882812 6.94921875 3.98046875 C-0.46824608 6.16559243 -0.46824608 6.16559243 -7.640625 9.0234375 C-8.56875 9.4153125 -9.496875 9.8071875 -10.453125 10.2109375 C-11.113125 9.8809375 -11.773125 9.5509375 -12.453125 9.2109375 C-12.453125 8.5509375 -12.453125 7.8909375 -12.453125 7.2109375 C-13.773125 6.8809375 -15.093125 6.5509375 -16.453125 6.2109375 C-14.21212931 4.98258425 -11.9629872 3.77864255 -9.703125 2.5859375 C-8.75179687 2.06 -8.75179687 2.06 -7.78125 1.5234375 C-3.00217062 -0.96566635 -3.00217062 -0.96566635 0 0 Z M-12.453125 5.2109375 C-11.453125 7.2109375 -11.453125 7.2109375 -11.453125 7.2109375 Z " fill="#642E20" transform="translate(44.453125,5.7890625)"/>
<path d="M0 0 C0.556875 0.268125 1.11375 0.53625 1.6875 0.8125 C0.6975 1.1425 -0.2925 1.4725 -1.3125 1.8125 C-1.26609375 2.81410156 -1.2196875 3.81570312 -1.171875 4.84765625 C-0.73794274 18.19232966 -0.73794274 18.19232966 -5.3125 23.8125 C-6.3025 24.4725 -7.2925 25.1325 -8.3125 25.8125 C-7.69972388 22.85074877 -7.05877478 21.43191217 -5.3125 18.8125 C-4.97906449 16.27042029 -4.97906449 16.27042029 -5.3125 13.8125 C-5.9725 13.1525 -6.6325 12.4925 -7.3125 11.8125 C-7.90429963 7.33173134 -7.81023008 5.4761401 -5.0625 1.8125 C-2.3125 -0.1875 -2.3125 -0.1875 0 0 Z " fill="#58291D" transform="translate(147.3125,104.1875)"/>
<path d="M0 0 C5.61 0 11.22 0 17 0 C17 1.65 17 3.3 17 5 C9.41 5 1.82 5 -6 5 C-2 2 -2 2 0 2 C0 1.34 0 0.68 0 0 Z " fill="#E04944" transform="translate(119,55)"/>
<path d="M0 0 C2.0625 0.4375 2.0625 0.4375 4 1 C3.58846263 5.97093824 3.20399168 10.44508386 1 15 C0.34 14.34 -0.32 13.68 -1 13 C-1 15.31 -1 17.62 -1 20 C-1.99 19.67 -2.98 19.34 -4 19 C-4.33216812 12.19670485 -4.28758339 7.04915344 -1 1 C-0.67 0.67 -0.34 0.34 0 0 Z " fill="#4B2118" transform="translate(10,33)"/>
<path d="M0 0 C1.66611905 -0.042721 3.33382885 -0.04063832 5 0 C6 1 6 1 6.09765625 3.06640625 C6.08605469 3.89011719 6.07445312 4.71382812 6.0625 5.5625 C6.05347656 6.38878906 6.04445313 7.21507812 6.03515625 8.06640625 C6.02355469 8.70449219 6.01195312 9.34257813 6 10 C4.865625 10.391875 3.73125 10.78375 2.5625 11.1875 C-1.20339051 12.58610882 -1.20339051 12.58610882 -1.9375 15.6875 C-1.958125 16.450625 -1.97875 17.21375 -2 18 C-1.34 18 -0.68 18 0 18 C1 21 1 21 0 24 C-3.875 22.25 -3.875 22.25 -5 20 C-5.57748969 13.76311137 -5.57748969 13.76311137 -3.25 10.6875 C-1.21711228 9.16283421 0.66914357 7.99893847 3 7 C3 5.35 3 3.7 3 2 C2.01 1.67 1.02 1.34 0 1 C0 0.67 0 0.34 0 0 Z " fill="#502E23" transform="translate(6,52)"/>
<path d="M0 0 C0.66 0 1.32 0 2 0 C5.14195245 5.89116084 5.84985794 11.344619 5 18 C4.34 18.66 3.68 19.32 3 20 C3 19.01 3 18.02 3 17 C2.34 17 1.68 17 1 17 C0.46605821 15.5882217 -0.05165104 14.17029756 -0.5625 12.75 C-0.85253906 11.96109375 -1.14257812 11.1721875 -1.44140625 10.359375 C-2.05437993 7.77031134 -1.84270559 6.48598148 -1 4 C-0.814375 3.2575 -0.62875 2.515 -0.4375 1.75 C-0.293125 1.1725 -0.14875 0.595 0 0 Z " fill="#481F16" transform="translate(140,31)"/>
<path d="M0 0 C1.93166016 0.01740234 1.93166016 0.01740234 3.90234375 0.03515625 C5.19269531 0.04417969 6.48304687 0.05320313 7.8125 0.0625 C8.81152344 0.07410156 9.81054688 0.08570313 10.83984375 0.09765625 C10.83984375 0.75765625 10.83984375 1.41765625 10.83984375 2.09765625 C15.78984375 2.09765625 20.73984375 2.09765625 25.83984375 2.09765625 C25.83984375 2.42765625 25.83984375 2.75765625 25.83984375 3.09765625 C10.65984375 3.09765625 -4.52015625 3.09765625 -20.16015625 3.09765625 C-20.16015625 2.76765625 -20.16015625 2.43765625 -20.16015625 2.09765625 C-19.01675781 2.03707031 -17.87335938 1.97648437 -16.6953125 1.9140625 C-15.2044132 1.82967197 -13.7135285 1.74502323 -12.22265625 1.66015625 C-11.46791016 1.62083984 -10.71316406 1.58152344 -9.93554688 1.54101562 C-6.24281162 1.32574406 -3.46757654 0.10715626 0 0 Z " fill="#4B2612" transform="translate(86.16015625,62.90234375)"/>
<path d="M0 0 C1.9375 0.375 1.9375 0.375 4 1 C5.40457737 3.80915474 5.24895157 5.88810534 5 9 C3.625 11.375 3.625 11.375 2 13 C1.34 13 0.68 13 0 13 C0.48484276 17.64586892 0.48484276 17.64586892 2 22 C1.01 22 0.02 22 -1 22 C-1.33 18.7 -1.66 15.4 -2 12 C-1.01 11.34 -0.02 10.68 1 10 C1.33 9.01 1.66 8.02 2 7 C1.34 7 0.68 7 0 7 C-1.125 2.25 -1.125 2.25 0 0 Z " fill="#4C2B22" transform="translate(146,63)"/>
<path d="M0 0 C0 0.66 0 1.32 0 2 C0.66 2.33 1.32 2.66 2 3 C0.7391988 4.03319813 -0.53403258 5.05124379 -1.8125 6.0625 C-2.87404297 6.91521484 -2.87404297 6.91521484 -3.95703125 7.78515625 C-4.63121094 8.18605469 -5.30539063 8.58695313 -6 9 C-6.99 8.67 -7.98 8.34 -9 8 C-8.6875 5.125 -8.6875 5.125 -8 2 C-4.77208445 -0.1519437 -3.71599191 -0.20086443 0 0 Z " fill="#4C1E14" transform="translate(32,13)"/>
<path d="M0 0 C7.20027573 4.25016276 15.24961946 9.74885839 18 18 C17.34 18.33 16.68 18.66 16 19 C15.56429687 18.39671875 15.12859375 17.7934375 14.6796875 17.171875 C11.18250827 12.47869075 8.22347565 8.73045318 3 6 C2.01 6 1.02 6 0 6 C0 4.02 0 2.04 0 0 Z " fill="#57362D" transform="translate(122,11)"/>
<path d="M0 0 C0.33 0 0.66 0 1 0 C1.33 1.65 1.66 3.3 2 5 C5.96 5.33 9.92 5.66 14 6 C14 6.33 14 6.66 14 7 C12.97519531 7.02578125 11.95039063 7.0515625 10.89453125 7.078125 C9.53381301 7.13443058 8.17313757 7.19177737 6.8125 7.25 C6.13896484 7.26417969 5.46542969 7.27835937 4.77148438 7.29296875 C-0.05693569 7.52850144 -2.54712426 8.64769346 -6 12 C-5.34 8.37 -4.68 4.74 -4 1 C-2.68 1.33 -1.36 1.66 0 2 C0 1.34 0 0.68 0 0 Z " fill="#49190F" transform="translate(11,76)"/>
<path d="M0 0 C0.66 0.33 1.32 0.66 2 1 C2.3125 3.3125 2.3125 3.3125 2 6 C-0.3125 7.625 -0.3125 7.625 -3 9 C-3.556875 9.556875 -4.11375 10.11375 -4.6875 10.6875 C-5.3371875 11.3371875 -5.3371875 11.3371875 -6 12 C-6.66 12 -7.32 12 -8 12 C-8.33 12.66 -8.66 13.32 -9 14 C-9 9.0291691 -7.8345788 8.26983318 -4.5 4.75 C-3.6646875 3.85796875 -2.829375 2.9659375 -1.96875 2.046875 C-1.3190625 1.37140625 -0.669375 0.6959375 0 0 Z " fill="#51271F" transform="translate(22,16)"/>
<path d="M0 0 C3.3 0.33 6.6 0.66 10 1 C9 4 9 4 7 5 C5.3303193 5.01614884 3.65971714 4.96515778 1.9921875 4.87890625 C1.00605469 4.83056641 0.01992187 4.78222656 -0.99609375 4.73242188 C-2.54490234 4.64831055 -2.54490234 4.64831055 -4.125 4.5625 C-5.16527344 4.51029297 -6.20554687 4.45808594 -7.27734375 4.40429688 C-9.85185116 4.27439054 -12.42599296 4.13941748 -15 4 C-15 3.67 -15 3.34 -15 3 C-10.05 2.67 -5.1 2.34 0 2 C0 1.34 0 0.68 0 0 Z " fill="#6F341E" transform="translate(86,2)"/>
<path d="M0 0 C2.64 0.33 5.28 0.66 8 1 C7.67 1.66 7.34 2.32 7 3 C7.66 3.33 8.32 3.66 9 4 C9 5.32 9 6.64 9 8 C2.25 7.25 2.25 7.25 0 5 C0.99 4.01 1.98 3.02 3 2 C2.01 2 1.02 2 0 2 C0 1.34 0 0.68 0 0 Z " fill="#5E2E1F" transform="translate(93,1)"/>
<path d="M0 0 C0.99 0 1.98 0 3 0 C2.67515625 0.56847656 2.3503125 1.13695313 2.015625 1.72265625 C-0.02848997 6.30619097 0.47109978 11.38024307 2 16.0625 C2.33 16.701875 2.66 17.34125 3 18 C-0.875 16.25 -0.875 16.25 -2 14 C-2.12148305 12.37834248 -2.17543652 10.75115673 -2.1875 9.125 C-2.20167969 8.26132813 -2.21585937 7.39765625 -2.23046875 6.5078125 C-1.98859252 3.8758712 -1.32983541 2.26019456 0 0 Z " fill="#3F2219" transform="translate(2,86)"/>
<path d="M0 0 C1.66611905 -0.042721 3.33382885 -0.04063832 5 0 C6 1 6 1 6.1328125 3.03125 C6.13023438 3.8459375 6.12765625 4.660625 6.125 5.5 C6.12757812 6.3146875 6.13015625 7.129375 6.1328125 7.96875 C6 10 6 10 5 11 C3.33382885 11.04063832 1.66611905 11.042721 0 11 C0.495 10.443125 0.99 9.88625 1.5 9.3125 C3.24754367 6.61837017 3.26218749 5.14624993 3 2 C2.01 1.67 1.02 1.34 0 1 C0 0.67 0 0.34 0 0 Z " fill="#5C372F" transform="translate(6,52)"/>
<path d="M0 0 C0.33 0 0.66 0 1 0 C1 3.96 1 7.92 1 12 C-0.32 12.33 -1.64 12.66 -3 13 C-3 14.98 -3 16.96 -3 19 C-1.35 19.33 0.3 19.66 2 20 C-1.75 21.125 -1.75 21.125 -4 20 C-4.28682696 14.35906978 -4.07963951 11.80423763 -1 7 C-0.28076792 3.30476048 -0.28076792 3.30476048 0 0 Z " fill="#58382F" transform="translate(145,41)"/>
<path d="M0 0 C1.13480527 3.60993172 1.10015767 6.9842327 1.0625 10.75 C1.05347656 11.92046875 1.04445313 13.0909375 1.03515625 14.296875 C1.02355469 15.18890625 1.01195312 16.0809375 1 17 C0.34 17 -0.32 17 -1 17 C-2.49565927 11.89716248 -3.46711954 8.25717835 -2 3 C-1.34 2.01 -0.68 1.02 0 0 Z " fill="#4D2E23" transform="translate(8,106)"/>
<path d="M0 0 C0.99 0.33 1.98 0.66 3 1 C3.125 6.75 3.125 6.75 2 9 C-0.64860427 9.59355614 -3.29197322 9.74209269 -6 10 C-5.38125 9.278125 -4.7625 8.55625 -4.125 7.8125 C-2.16333647 5.21618062 -1.04684 3.05328334 0 0 Z " fill="#5D2617" transform="translate(140,116)"/>
<path d="M0 0 C4.02059277 0.56232067 6.20988015 2.59345289 9.1875 5.25 C10.06792969 6.01828125 10.94835937 6.7865625 11.85546875 7.578125 C14.14502875 10.16378475 14.69351701 11.61065865 15 15 C14.01 15 13.02 15 12 15 C12 13.35 12 11.7 12 10 C11.34 10 10.68 10 10 10 C9.38125 9.21625 8.7625 8.4325 8.125 7.625 C6.11147826 5.13770844 4.91357141 4.14461734 2 3 C2 2.34 2 1.68 2 1 C1.34 0.67 0.68 0.34 0 0 Z " fill="#CC965D" transform="translate(119,18)"/>
<path d="M0 0 C3 1 3 1 5 4 C4.87639257 9.56233457 2.62570031 12.09539967 -1 16 C-1.33 15.01 -1.66 14.02 -2 13 C-1.525625 12.38125 -1.05125 11.7625 -0.5625 11.125 C1.374259 8.49100776 1.32057628 7.20576281 1 4 C0.70955086 2.65667272 0.39044206 1.31774196 0 0 Z " fill="#58342C" transform="translate(141,114)"/>
<path d="M0 0 C0 0.99 0 1.98 0 3 C-1.91635217 3.05423638 -3.83314925 3.09289963 -5.75 3.125 C-7.35101563 3.15980469 -7.35101563 3.15980469 -8.984375 3.1953125 C-11.92470106 3.00487687 -13.52361878 2.52670104 -16 1 C-10.62915894 0.31798844 -5.41499441 -0.11521265 0 0 Z " fill="#8BA053" transform="translate(145,67)"/>
<path d="M0 0 C-5.03996638 3.35997759 -9.99709677 4.29282455 -16 4 C-15 2 -15 2 -12.5 0.875 C-8.2443204 -0.1889199 -4.35855223 -0.17434209 0 0 Z " fill="#442119" transform="translate(60,2)"/>
<path d="M0 0 C3.95726496 3.95726496 3.95726496 3.95726496 4.09765625 7.3828125 C4.08605469 8.28773437 4.07445312 9.19265625 4.0625 10.125 C4.05347656 11.03507812 4.04445312 11.94515625 4.03515625 12.8828125 C4.02355469 13.58148438 4.01195312 14.28015625 4 15 C3.34 15 2.68 15 2 15 C1.34 10.05 0.68 5.1 0 0 Z " fill="#42231A" transform="translate(148,85)"/>
<path d="M0 0 C-1.2065625 0.8971875 -1.2065625 0.8971875 -2.4375 1.8125 C-5.22327984 3.80947276 -5.22327984 3.80947276 -6 7 C-6.66 7 -7.32 7 -8 7 C-8 6.34 -8 5.68 -8 5 C-9.32 4.67 -10.64 4.34 -12 4 C-10.56988027 3.13353333 -9.13059381 2.28218171 -7.6875 1.4375 C-6.48673828 0.72400391 -6.48673828 0.72400391 -5.26171875 -0.00390625 C-3 -1 -3 -1 0 0 Z M-8 3 C-7 5 -7 5 -7 5 Z " fill="#573228" transform="translate(40,8)"/>
<path d="M0 0 C-3.16240582 2.10827055 -4.50657469 2.33817465 -8.1875 2.625 C-9.53908203 2.73714844 -9.53908203 2.73714844 -10.91796875 2.8515625 C-11.94857422 2.92503906 -11.94857422 2.92503906 -13 3 C-13.33 2.01 -13.66 1.02 -14 0 C-9.20699867 -1.39151652 -4.84864218 -0.68662689 0 0 Z " fill="#531D14" transform="translate(59,6)"/>
<path d="M0 0 C0.598125 0.165 1.19625 0.33 1.8125 0.5 C4.11344336 1.1114124 4.11344336 1.1114124 7 1 C6.67 2.98 6.34 4.96 6 7 C1.125 2.25 1.125 2.25 0 0 Z " fill="#5E362E" transform="translate(7,123)"/>
<path d="M0 0 C0.78375 0.04125 1.5675 0.0825 2.375 0.125 C2.045 0.785 1.715 1.445 1.375 2.125 C0.385 2.455 -0.605 2.785 -1.625 3.125 C-2.84369929 5.62947516 -2.84369929 5.62947516 -3.625 8.125 C-4.285 7.795 -4.945 7.465 -5.625 7.125 C-4.53409091 0.21590909 -4.53409091 0.21590909 0 0 Z " fill="#59251A" transform="translate(8.625,62.875)"/>
<path d="M0 0 C0.99 0 1.98 0 3 0 C3 1.65 3 3.3 3 5 C1.35 5.33 -0.3 5.66 -2 6 C-1.125 1.125 -1.125 1.125 0 0 Z " fill="#EFCC91" transform="translate(31,33)"/>
<path d="M0 0 C0.33 0.66 0.66 1.32 1 2 C2.32 2.33 3.64 2.66 5 3 C1.04 4.98 1.04 4.98 -3 7 C-2.25 2.25 -2.25 2.25 0 0 Z " fill="#5F2517" transform="translate(37,9)"/>
<path d="M0 0 C2.475 0.495 2.475 0.495 5 1 C5 2.65 5 4.3 5 6 C3.68 5.67 2.36 5.34 1 5 C0.67 3.35 0.34 1.7 0 0 Z " fill="#EBC787" transform="translate(43,21)"/>
<path d="M0 0 C2.53910197 0.38520564 3.72751123 0.70097943 5.484375 2.62890625 C5.90203125 3.26699219 6.3196875 3.90507812 6.75 4.5625 C7.17796875 5.20316406 7.6059375 5.84382813 8.046875 6.50390625 C8.36140625 6.99761719 8.6759375 7.49132812 9 8 C8.34 8.66 7.68 9.32 7 10 C5.83043409 8.52312468 4.66441854 7.04343707 3.5 5.5625 C2.8503125 4.73878906 2.200625 3.91507813 1.53125 3.06640625 C0 1 0 1 0 0 Z " fill="#4D3025" transform="translate(131,20)"/>
<path d="M0 0 C-0.99 0.33 -1.98 0.66 -3 1 C-3 1.66 -3 2.32 -3 3 C-5.475 2.01 -5.475 2.01 -8 1 C-8 0.34 -8 -0.32 -8 -1 C-4.59745511 -2.2151946 -3.06748874 -1.86240388 0 0 Z " fill="#532C24" transform="translate(21,129)"/>
<path d="M0 0 C1.32 0.33 2.64 0.66 4 1 C4.33 2.32 4.66 3.64 5 5 C3.35 4.67 1.7 4.34 0 4 C0 2.68 0 1.36 0 0 Z " fill="#F2D28E" transform="translate(95,34)"/>
<path d="M0 0 C0.99 0 1.98 0 3 0 C2.67 1.65 2.34 3.3 2 5 C0.68 5 -0.64 5 -2 5 C-1.125 1.125 -1.125 1.125 0 0 Z " fill="#F0CB89" transform="translate(54,34)"/>
<path d="M0 0 C1.98 0.495 1.98 0.495 4 1 C3.34 3.31 2.68 5.62 2 8 C0.4375 6.25 0.4375 6.25 -1 4 C-0.6875 1.75 -0.6875 1.75 0 0 Z " fill="#52251C" transform="translate(137,28)"/>
<path d="M0 0 C1.32 0.33 2.64 0.66 4 1 C3.67 2.65 3.34 4.3 3 6 C2.01 5.67 1.02 5.34 0 5 C0 3.35 0 1.7 0 0 Z " fill="#F5D796" transform="translate(74,27)"/>
<path d="M0 0 C1.65 0 3.3 0 5 0 C4.67 1.32 4.34 2.64 4 4 C2.68 4 1.36 4 0 4 C0 2.68 0 1.36 0 0 Z " fill="#EECD8E" transform="translate(62,16)"/>
<path d="M0 0 C1.32 0.33 2.64 0.66 4 1 C3.67 2.65 3.34 4.3 3 6 C2.01 5.67 1.02 5.34 0 5 C0 3.35 0 1.7 0 0 Z " fill="#EFCD89" transform="translate(85,15)"/>
<path d="M0 0 C0.99 0 1.98 0 3 0 C3.33 1.98 3.66 3.96 4 6 C2.68 5.67 1.36 5.34 0 5 C0 3.35 0 1.7 0 0 Z " fill="#F3D493" transform="translate(118,33)"/>
<path d="M0 0 C-1.29299694 2.88437779 -2.65941363 4.87219421 -5 7 C-5.99 6.67 -6.98 6.34 -8 6 C-7.0479279 4.99403703 -6.08812654 3.99538437 -5.125 3 C-4.59132813 2.443125 -4.05765625 1.88625 -3.5078125 1.3125 C-2 0 -2 0 0 0 Z " fill="#CB9157" transform="translate(26,23)"/>
<path d="M0 0 C0.99 0 1.98 0 3 0 C2.67 1.65 2.34 3.3 2 5 C1.01 5.33 0.02 5.66 -1 6 C-1.042721 4.33388095 -1.04063832 2.66617115 -1 1 C-0.67 0.67 -0.34 0.34 0 0 Z " fill="#F0CD86" transform="translate(105,21)"/>
<path d="M0 0 C0.66 0.33 1.32 0.66 2 1 C1 4 1 4 -1.4375 5.75 C-2.7059375 6.36875 -2.7059375 6.36875 -4 7 C-4.66 6.67 -5.32 6.34 -6 6 C-4.02 4.02 -2.04 2.04 0 0 Z " fill="#513227" transform="translate(22,16)"/>
<path d="M0 0 C-5.625 3 -5.625 3 -9 3 C-9 2.34 -9 1.68 -9 1 C-5.57367167 -0.61798838 -3.61944899 -1.34053666 0 0 Z " fill="#D1965D" transform="translate(48,12)"/>
</svg>
