<?xml version="1.0" encoding="UTF-8"?>
<svg version="1.1" xmlns="http://www.w3.org/2000/svg" width="157" height="121">
<path d="M0 0 C0.97912354 -0.0309375 1.95824707 -0.061875 2.96704102 -0.09375 C9.55098685 -0.09375 14.15546955 1.10066903 19.1875 5.5 C19.6825 6.49 19.6825 6.49 20.1875 7.5 C22.7921681 8.15940965 25.36840405 8.7235685 28 9.25 C37.98640225 11.44229051 47.52832316 14.38522199 54.1015625 22.69140625 C55.1875 24.5 55.1875 24.5 56.046875 26.98828125 C57.45929979 30.09851804 59.03378718 31.17215848 61.8125 33.125 C68.01322815 37.84979286 73.68334788 43.98754363 76.1875 51.5 C76.21678628 53.65881714 76.12293801 55.79651855 76.02734375 57.953125 C76.10007903 60.65540578 76.10007903 60.65540578 77.1640625 63.73828125 C79.22455372 71.31176617 79.76347687 80.87253006 77.20703125 88.37890625 C75.05474994 91.97487164 73.09488742 93.89412297 69.1875 95.5 C65.06025844 96.11908623 62.66498432 96.4351867 59.1015625 94.1796875 C55.76445762 91.32844464 52.98582839 88.28181942 50.3125 84.8125 C45.87415754 79.40137015 38.88894886 77.58499648 32.1875 76.5 C30.75059271 76.45872439 29.31188544 76.45797044 27.875 76.5 C24.78546533 76.56158541 22.03100868 76.330653 19 75.75 C14.90234478 75.4813013 14.15486514 75.95938507 11.0625 78.37109375 C4.95306993 82.04947977 -2.71050682 82.89108389 -9.625 81.8125 C-13.45036145 81.28381292 -13.45036145 81.28381292 -16.95703125 82.65234375 C-18.28204351 83.72123924 -19.57956162 84.82509814 -20.84765625 85.9609375 C-23.02796887 87.66877681 -24.70810357 88.20040563 -27.375 88.875 C-32.851531 90.46404526 -35.54453092 94.00877473 -38.8125 98.5 C-39.39 99.263125 -39.9675 100.02625 -40.5625 100.8125 C-42.22731818 104.3918591 -43.07672152 108.08758639 -44.0625 111.90234375 C-45.38275654 116.47510727 -46.86789733 118.87026489 -50.8125 121.5 C-55.64925921 122.21594026 -59.68942217 122.02975369 -64.125 119.9375 C-72.14269813 112.66563425 -74.54594559 104.09932649 -76.28515625 93.6640625 C-76.74884953 91.22504252 -76.74884953 91.22504252 -78.8125 88.5 C-79.95386927 78.53292651 -78.70121894 68.53972532 -73.1953125 59.98828125 C-71.62188015 57.15699196 -71.5140679 55.45748221 -71.5 52.25 C-70.77246286 42.00957151 -63.23690818 34.972882 -55.8125 28.5 C-48.99431818 23.5 -48.99431818 23.5 -45.8125 23.5 C-45.9671875 22.200625 -45.9671875 22.200625 -46.125 20.875 C-45.72521442 16.55731576 -43.8645862 14.3832919 -40.8125 11.5 C-38.42635695 9.84055064 -35.93477622 8.55835649 -33.3125 7.3125 C-32.60037354 6.97154297 -31.88824707 6.63058594 -31.15454102 6.27929688 C-20.86467925 1.51719905 -11.26832652 0.22733798 0 0 Z " fill="#582518" transform="translate(78.8125,-0.5)"/>
<path d="M0 0 C1.01199463 -0.00999023 2.02398926 -0.01998047 3.06665039 -0.03027344 C4.02563232 -0.01899414 4.98461426 -0.00771484 5.97265625 0.00390625 C6.8325415 0.01365479 7.69242676 0.02340332 8.57836914 0.03344727 C11.56015967 0.54414408 12.889154 1.19670965 14.9375 3.4375 C15.34570312 6.24047852 15.34570312 6.24047852 15.21875 9.75390625 C15.20162964 10.40291397 15.18450928 11.05192169 15.16687012 11.72059631 C15.12731282 13.16824835 15.0790036 14.6156792 15.0234375 16.06280518 C14.93250557 18.5755102 14.87654369 21.08720136 14.828125 23.60107422 C14.71910424 29.1929725 14.57965166 34.78386055 14.4375 40.375 C14.38915447 42.33007397 14.34097628 44.28515208 14.29296875 46.24023438 C14.17640402 50.97270615 14.05759018 55.70511643 13.9375 60.4375 C14.5975 60.4375 15.2575 60.4375 15.9375 60.4375 C17.00950476 54.91161888 17.34381206 49.39578835 17.69140625 43.7890625 C17.75657944 42.77653412 17.82175262 41.76400574 17.88890076 40.72079468 C18.09545773 37.50153816 18.29778742 34.28203204 18.5 31.0625 C18.63969469 28.87368008 18.77966556 26.68487776 18.91992188 24.49609375 C19.26231417 19.143429 19.60124042 13.79055332 19.9375 8.4375 C21.53005744 8.57983721 23.12218244 8.72701791 24.71411133 8.8762207 C25.60076981 8.95765823 26.48742828 9.03909576 27.4009552 9.1230011 C35.26562929 10.09811944 42.79063782 13.73358538 48.9609375 18.6171875 C50.57287177 21.62183299 49.57583271 24.16863398 48.9375 27.4375 C48.04058386 29.75544095 47.05418762 32.04011915 45.99609375 34.2890625 C45.5653933 35.22194595 45.5653933 35.22194595 45.12599182 36.17367554 C43.90991021 38.8071372 42.67265508 41.43047672 41.43676758 44.0546875 C40.5321629 45.98349431 39.63890157 47.91727384 38.74609375 49.8515625 C38.20782959 50.9957666 37.66956543 52.1399707 37.11499023 53.31884766 C35.98463278 56.31266606 35.67218218 58.28099285 35.9375 61.4375 C36.9275 61.4375 37.9175 61.4375 38.9375 61.4375 C39.32607178 60.53918457 39.71464355 59.64086914 40.11499023 58.71533203 C41.55501444 55.38663542 42.99577838 52.05825943 44.43676758 48.72998047 C45.06066795 47.28866184 45.68436691 45.84725601 46.30786133 44.40576172 C47.2034106 42.3353829 48.09968061 40.26531741 48.99609375 38.1953125 C49.2752916 37.54942169 49.55448944 36.90353088 49.84214783 36.23806763 C51.82362829 31.66524341 51.82362829 31.66524341 52.9375 29.4375 C59.39254167 30.36391802 64.62191991 36.53009671 68.51171875 41.4140625 C70.13310857 43.99690804 70.98197755 45.86289049 70.74438477 48.93237305 C69.7864247 51.90654196 68.78313344 52.8649196 66.33984375 54.76953125 C65.62119141 55.33994141 64.90253906 55.91035156 64.16210938 56.49804688 C63.40736328 57.07619141 62.65261719 57.65433594 61.875 58.25 C61.11638672 58.84748047 60.35777344 59.44496094 59.57617188 60.06054688 C57.70533906 61.53132739 55.82597539 62.98948904 53.9375 64.4375 C54.2675 65.7575 54.5975 67.0775 54.9375 68.4375 C60.18319384 65.07487574 65.05278387 61.30185321 69.9375 57.4375 C70.5975 57.7675 71.2575 58.0975 71.9375 58.4375 C73.09972631 62.43173344 73.0713486 66.36328118 73.0625 70.5 C73.06636719 72.31177734 73.06636719 72.31177734 73.0703125 74.16015625 C72.96313681 76.80487407 72.72450137 78.93283692 71.9375 81.4375 C73.2575 80.7775 74.5775 80.1175 75.9375 79.4375 C75.9375 80.4275 75.9375 81.4175 75.9375 82.4375 C75.2775 82.4375 74.6175 82.4375 73.9375 82.4375 C73.9375 84.0875 73.9375 85.7375 73.9375 87.4375 C70.86290642 89.48722905 67.76632673 90.04108471 64.0859375 89.9453125 C58.37141574 88.59460736 54.49178044 83.20035832 51.0625 78.75 C46.62415754 73.33887015 39.63894886 71.52249648 32.9375 70.4375 C31.50059271 70.39622439 30.06188544 70.39547044 28.625 70.4375 C25.53546533 70.49908541 22.78100868 70.268153 19.75 69.6875 C15.02071353 69.37738285 13.66494555 70.68243155 9.9375 73.4375 C6.5625 74.1875 6.5625 74.1875 3.9375 74.4375 C4.2675 73.7775 4.5975 73.1175 4.9375 72.4375 C0.92776665 71.10092222 -2.94572081 71.16288612 -7.15234375 71.01171875 C-10.75013563 70.30181888 -11.68017097 69.16882322 -14.0625 66.4375 C-15.3359375 64.22119141 -15.3359375 64.22119141 -16.4375 61.7890625 C-16.85974854 60.87608398 -17.28199707 59.96310547 -17.71704102 59.02246094 C-18.16104248 58.04567383 -18.60504395 57.06888672 -19.0625 56.0625 C-22.99307347 47.61949588 -27.14124519 39.35082827 -31.625 31.1875 C-32.13740234 30.25373535 -32.64980469 29.3199707 -33.17773438 28.35791016 C-35.05192226 24.96961557 -36.91346036 21.66105946 -39.0625 18.4375 C-39.5625 16.0625 -39.5625 16.0625 -39.0625 13.4375 C-34.98466715 9.25772133 -30.42048709 6.6789246 -25.0625 4.4375 C-24.2065625 4.06238281 -23.350625 3.68726563 -22.46875 3.30078125 C-14.95487278 0.48307729 -7.97497937 0.04720025 0 0 Z " fill="#56271B" transform="translate(78.0625,5.5625)"/>
<path d="M0 0 C1.01199463 -0.00999023 2.02398926 -0.01998047 3.06665039 -0.03027344 C4.02563232 -0.01899414 4.98461426 -0.00771484 5.97265625 0.00390625 C6.8325415 0.01365479 7.69242676 0.02340332 8.57836914 0.03344727 C11.57527293 0.54673256 12.89132515 1.16950013 14.9375 3.4375 C15.34350586 6.46020508 15.34350586 6.46020508 15.21484375 10.14453125 C15.19751694 10.80620804 15.18019012 11.46788483 15.16233826 12.14961243 C15.1236753 13.54599405 15.07610538 14.94215392 15.02020264 16.33795166 C14.88994546 19.64475359 14.83082684 22.95330176 14.75390625 26.26171875 C14.67179091 28.88289266 14.58715025 31.50398866 14.5 34.125 C14.46068359 35.43533203 14.42136719 36.74566406 14.38085938 38.09570312 C13.63782052 61.01559393 13.63782052 61.01559393 10.9375 65.4375 C4.17684575 70.55537845 -4.01519834 69.84959511 -12.0625 69.4375 C-16.8211916 60.53698422 -21.5108969 51.61852105 -25.953125 42.55541992 C-27.79411486 38.84272647 -29.73252471 35.20988089 -31.78515625 31.609375 C-32.24607666 30.79976318 -32.70699707 29.99015137 -33.18188477 29.15600586 C-34.08274987 27.58606323 -34.99299892 26.02145738 -35.91381836 24.46313477 C-39.89852782 17.52806468 -39.89852782 17.52806468 -39.0625 13.4375 C-34.98466715 9.25772133 -30.42048709 6.6789246 -25.0625 4.4375 C-24.2065625 4.06238281 -23.350625 3.68726563 -22.46875 3.30078125 C-14.95487278 0.48307729 -7.97497937 0.04720025 0 0 Z " fill="#D29350" transform="translate(78.0625,5.5625)"/>
<path d="M0 0 C4.14208244 0.35450255 6.33221948 2.86561328 9.25 5.625 C10.22732684 6.53833617 11.20519492 7.45109352 12.18359375 8.36328125 C13.11300781 9.23339844 14.04242187 10.10351562 15 11 C17.06361643 12.84490836 19.1438675 14.6667851 21.23828125 16.4765625 C22.35049297 17.43834203 23.45347485 18.41099746 24.54296875 19.3984375 C28.39436042 22.80583495 32.37459377 24.84679365 37 27 C36.10698344 28.06486855 35.2104053 29.12675041 34.3125 30.1875 C33.81363281 30.77917969 33.31476562 31.37085937 32.80078125 31.98046875 C31 34 31 34 28.42578125 36.30078125 C25.56186996 39.48751668 24.86542513 41.85984449 23.875 46 C22.41226095 52.00629131 21.30139691 56.46573539 16 60 C11.16324079 60.71594026 7.12307783 60.52975369 2.6875 58.4375 C-0.51015092 55.53730498 -2.63988009 52.60959515 -5 49 C-4.34 48.34 -3.68 47.68 -3 47 C-3.33 46.278125 -3.66 45.55625 -4 44.8125 C-5.00603529 41.98302573 -5.16977402 39.97104534 -5 37 C-3 38 -3 38 -2 39 C-2 37.02 -2 35.04 -2 33 C0.64 33 3.28 33 6 33 C6 32.01 6 31.02 6 30 C4.68 30 3.36 30 2 30 C2 29.34 2 28.68 2 28 C0.865625 27.690625 -0.26875 27.38125 -1.4375 27.0625 C-5 26 -5 26 -6 25 C-7.07024092 15.99468714 -5.13172697 8.97897438 -1 1 C-0.67 0.67 -0.34 0.34 0 0 Z " fill="#5E2718" transform="translate(12,61)"/>
<path d="M0 0 C4.01074994 1.33691665 4.33458726 2.93123357 6.29296875 6.625 C6.60056122 7.19968018 6.90815369 7.77436035 7.22506714 8.36645508 C8.22309635 10.23892731 9.20613175 12.11874863 10.1875 14 C10.8630132 15.28265041 11.5387134 16.56520236 12.21459961 17.84765625 C14.16183088 21.55555877 16.08333988 25.2762032 18 29 C18.49983398 29.96550781 18.99966797 30.93101563 19.51464844 31.92578125 C20.71971473 34.27356746 21.89893997 36.63142996 23.0625 39 C23.40240967 39.66773438 23.74231934 40.33546875 24.0925293 41.0234375 C26.17004872 45.39400819 26.17004872 45.39400819 25.35546875 48.296875 C22.58920471 51.77264191 19.41798318 53.66091707 15.125 54.6875 C10.23062543 53.61073759 7.531651 50.41833599 4 47 C2.40198352 45.53492999 0.79754183 44.07684438 -0.8125 42.625 C-1.64523438 41.8721875 -2.47796875 41.119375 -3.3359375 40.34375 C-7.02107424 37.10169422 -10.82545483 34.01783627 -14.65234375 30.9453125 C-19.90818795 26.5902203 -19.90818795 26.5902203 -20.4375 23.1875 C-19.88076263 19.13127056 -18.50566177 17.23098491 -16 14 C-15.5875 13.443125 -15.175 12.88625 -14.75 12.3125 C-10.74582741 7.21628034 -5.75511333 3.01128133 0 0 Z " fill="#D19250" transform="translate(34,28)"/>
<path d="M0 0 C10.66729466 0.42278912 20.57763447 3.49509458 29.0234375 10.1796875 C30.6332075 13.18029879 29.63240869 15.73443729 29 19 C28.1366958 21.30454354 27.185778 23.5775868 26.1640625 25.81640625 C25.88404388 26.43595688 25.60402527 27.05550751 25.31552124 27.6938324 C24.42702094 29.65397752 23.52615439 31.60814559 22.625 33.5625 C22.02784805 34.87659089 21.43148707 36.19104151 20.8359375 37.50585938 C13.62037205 53.37962795 13.62037205 53.37962795 11 56 C5.84926758 56.33775295 2.77095123 55.9842428 -2 54 C-1.88045138 48.39889752 -1.75614011 42.79792681 -1.62768555 37.19702148 C-1.58475512 35.29731004 -1.54305705 33.39757028 -1.50268555 31.49780273 C-1.27803846 20.96712385 -0.99666699 10.4912958 0 0 Z " fill="#D19351" transform="translate(98,14)"/>
<path d="M0 0 C6.54988971 1.36917621 11.5018774 6.86339941 15.57421875 11.9765625 C17.09076614 14.39239589 17.98334998 16.42508461 18.06640625 19.29296875 C16.36064808 23.62297027 12.87625683 25.78854121 9.25 28.5625 C8.53328125 29.12646484 7.8165625 29.69042969 7.078125 30.27148438 C5.68644389 31.36513084 4.28947084 32.45208436 2.88671875 33.53149414 C1.27505771 34.78591199 -0.29674919 36.09125342 -1.859375 37.40625 C-4 39 -4 39 -6.5 38.9375 C-9.23846782 37.91057457 -11.55885242 36.60418269 -14 35 C-13.41371981 30.24003864 -12.0438496 26.42631077 -10.05859375 22.0703125 C-9.77146011 21.43511688 -9.48432648 20.79992126 -9.18849182 20.14547729 C-8.27810921 18.13556819 -7.35799811 16.13029344 -6.4375 14.125 C-5.81510477 12.75550375 -5.19335334 11.38571472 -4.57226562 10.015625 C-3.05560774 6.67366492 -1.53019751 3.33578616 0 0 Z " fill="#CF9150" transform="translate(131,35)"/>
<path d="M0 0 C4.14208244 0.35450255 6.33221948 2.86561328 9.25 5.625 C10.22862345 6.53964406 11.20779346 7.45370367 12.1875 8.3671875 C13.115625 9.23601562 14.04375 10.10484375 15 11 C19.93688792 15.40548679 24.9689879 19.70267717 30 24 C26.95814732 30.109375 26.95814732 30.109375 25 32 C18.82523483 32.54121448 13.22045692 31.09898243 7.25 29.625 C5.83267578 29.29242188 5.83267578 29.29242188 4.38671875 28.953125 C-2.60723877 27.26184082 -2.60723877 27.26184082 -6 25 C-7.70295936 16.28652459 -4.97048283 8.66758815 -1 1 C-0.67 0.67 -0.34 0.34 0 0 Z " fill="#D1924F" transform="translate(12,61)"/>
<path d="M0 0 C0.66 0.33 1.32 0.66 2 1 C3.13528961 4.95895865 3.19699291 8.90078484 3.25 13 C3.27578125 14.19625 3.3015625 15.3925 3.328125 16.625 C2.9466778 20.54845687 1.80595907 23.19404093 -1 26 C-3.92411923 26.11696477 -5.3702719 26.13073121 -8 25 C-10.09517542 22.80825337 -11.79606813 20.52376417 -13.51953125 18.03125 C-14.84481558 15.88617387 -14.84481558 15.88617387 -17 15 C-15.71435822 11.14307466 -14.05593068 10.36516028 -10.75 8.0625 C-7.06684675 5.47931549 -3.48678489 2.84414753 0 0 Z " fill="#D09253" transform="translate(148,63)"/>
<path d="M0 0 C7.30696249 0.45965708 13.99757448 1.88329723 21 4 C20.06898067 10.15568076 19.20578207 15.60845743 16 21 C12.8125 21.375 12.8125 21.375 9 21 C3.74023278 16.22951345 0.24901233 9.54842571 -0.25 2.4375 C-0.1675 1.633125 -0.085 0.82875 0 0 Z " fill="#D19352" transform="translate(10,94)"/>
<path d="M0 0 C0.33 0 0.66 0 1 0 C1.33 1.65 1.66 3.3 2 5 C2.66 4.67 3.32 4.34 4 4 C4.13573898 13.26845834 3.78759139 22.4510589 3.20043945 31.6953125 C3.06136456 33.89294192 2.92969253 36.09093039 2.79882812 38.2890625 C2.4123408 44.57265256 1.95685936 50.77615814 1 57 C0.01 56.67 -0.98 56.34 -2 56 C-2.33 56.66 -2.66 57.32 -3 58 C-2.90543028 51.98982491 -2.7991267 45.98000473 -2.68261719 39.97021484 C-2.64467335 37.93185896 -2.60976485 35.89344395 -2.578125 33.85498047 C-2.39845373 22.41778093 -2.0753834 11.2792576 0 0 Z " fill="#592112" transform="translate(94,10)"/>
<path d="M0 0 C0.33 0 0.66 0 1 0 C1.02932572 3.18748029 1.04690739 6.37492528 1.0625 9.5625 C1.07087891 10.45775391 1.07925781 11.35300781 1.08789062 12.27539062 C1.10629571 17.29997943 0.86266398 22.04817291 0 27 C1.65 27.33 3.3 27.66 5 28 C5.495 29.98 5.495 29.98 6 32 C7.32 32 8.64 32 10 32 C10.33 31.34 10.66 30.68 11 30 C13.92824652 30.97608217 15.61426621 32.10786631 18 34 C15.26065717 34.91311428 13.63342444 35.13498557 10.8125 35.125 C10.0184375 35.12242188 9.224375 35.11984375 8.40625 35.1171875 C6.13633681 35.00663978 4.04187056 34.67015061 1.8125 34.25 C-2.91678647 33.93988285 -4.27255445 35.24493155 -8 38 C-11.375 38.75 -11.375 38.75 -14 39 C-13.67 38.34 -13.34 37.68 -13 37 C-16.16245541 35.9458482 -18.86948218 35.68724328 -22.1875 35.4375 C-23.27417969 35.35371094 -24.36085938 35.26992187 -25.48046875 35.18359375 C-26.72763672 35.09271484 -26.72763672 35.09271484 -28 35 C-28 34.67 -28 34.34 -28 34 C-27.23816406 33.97421875 -26.47632812 33.9484375 -25.69140625 33.921875 C-18.88318424 33.54789027 -12.82099012 32.78494873 -7 29 C-6.34 28.01 -5.68 27.02 -5 26 C-4.01 25.67 -3.02 25.34 -2 25 C-0.96912119 19.71566323 -0.68388642 14.48895352 -0.4375 9.125 C-0.39431641 8.24585938 -0.35113281 7.36671875 -0.30664062 6.4609375 C-0.20130661 4.30744203 -0.10022351 2.15373936 0 0 Z " fill="#602E1D" transform="translate(96,41)"/>
<path d="M0 0 C1.51013672 0.0009668 1.51013672 0.0009668 3.05078125 0.00195312 C4.09621094 0.01806641 5.14164063 0.03417969 6.21875 0.05078125 C7.26417969 0.04755859 8.30960938 0.04433594 9.38671875 0.04101562 C17.86810132 0.10074367 17.86810132 0.10074367 21.71875 2.36328125 C21.38875 3.35328125 21.05875 4.34328125 20.71875 5.36328125 C15.62820501 6.2425572 11.0317681 6.39493691 5.84375 6.05078125 C4.52632812 5.97214844 3.20890625 5.89351563 1.8515625 5.8125 C0.81773438 5.66425781 -0.21609375 5.51601562 -1.28125 5.36328125 C-1.61125 4.70328125 -1.94125 4.04328125 -2.28125 3.36328125 C-4.59125 3.36328125 -6.90125 3.36328125 -9.28125 3.36328125 C-6.14040252 0.58473328 -4.16725236 -0.0135443 0 0 Z " fill="#4C1D15" transform="translate(72.28125,-0.36328125)"/>
<path d="M0 0 C2.02334495 2.22362528 3.01080877 3.33526091 2.9609375 6.40234375 C0.8640053 15.4750704 0.8640053 15.4750704 -2 19 C-4.1875 20.3125 -4.1875 20.3125 -6 21 C-6 20.34 -6 19.68 -6 19 C-7.32 19 -8.64 19 -10 19 C-10 18.34 -10 17.68 -10 17 C-10.99 16.34 -11.98 15.68 -13 15 C-11.02 14.67 -9.04 14.34 -7 14 C-6.74605469 13.07316406 -6.49210937 12.14632812 -6.23046875 11.19140625 C-5.88628906 9.99386719 -5.54210937 8.79632813 -5.1875 7.5625 C-4.68283203 5.77005859 -4.68283203 5.77005859 -4.16796875 3.94140625 C-3.78253906 2.97074219 -3.39710937 2.00007813 -3 1 C-2.01 0.67 -1.02 0.34 0 0 Z " fill="#602C1F" transform="translate(33,100)"/>
<path d="M0 0 C1.22299805 0.06670898 1.22299805 0.06670898 2.47070312 0.13476562 C8.52537012 0.53774675 8.52537012 0.53774675 11.9375 2.8125 C10.04257254 3.00894384 8.14649097 3.19427288 6.25 3.375 C4.66638672 3.53162109 4.66638672 3.53162109 3.05078125 3.69140625 C-0.0625 3.8125 -0.0625 3.8125 -2.70703125 3.16015625 C-5.10979702 2.55765379 -5.10979702 2.55765379 -7.125 3.9921875 C-7.764375 4.55164063 -8.40375 5.11109375 -9.0625 5.6875 C-12.03883148 8.1226803 -14.10110247 9.56491265 -18.0625 9.8125 C-18.3925 8.8225 -18.7225 7.8325 -19.0625 6.8125 C-18.7325 6.1525 -18.4025 5.4925 -18.0625 4.8125 C-19.3825 4.4825 -20.7025 4.1525 -22.0625 3.8125 C-21.45921875 3.77511719 -20.8559375 3.73773438 -20.234375 3.69921875 C-19.43515625 3.63347656 -18.6359375 3.56773438 -17.8125 3.5 C-17.02359375 3.44199219 -16.2346875 3.38398437 -15.421875 3.32421875 C-12.98291179 2.99923159 -12.98291179 2.99923159 -11.33203125 1.2578125 C-7.71443568 -1.04599191 -4.1612488 -0.32721496 0 0 Z " fill="#4C271F" transform="translate(69.0625,78.1875)"/>
<path d="M0 0 C0.33 0.66 0.66 1.32 1 2 C1.99 2 2.98 2 4 2 C3.85860519 4.25028329 3.71171997 6.50022206 3.5625 8.75 C3.48128906 10.00296875 3.40007812 11.2559375 3.31640625 12.546875 C3 16 3 16 2.46875 18.0625 C1.80426887 20.80902198 1.90685422 23.43058797 1.9375 26.25 C1.94652344 27.32765625 1.95554688 28.4053125 1.96484375 29.515625 C1.97644531 30.33546875 1.98804688 31.1553125 2 32 C1.67 32 1.34 32 1 32 C0.80083984 30.67935547 0.80083984 30.67935547 0.59765625 29.33203125 C0.42105469 28.17058594 0.24445313 27.00914063 0.0625 25.8125 C-0.11152344 24.66394531 -0.28554687 23.51539062 -0.46484375 22.33203125 C-0.64144531 21.23246094 -0.81804687 20.13289063 -1 19 C-1.14566406 18.07574219 -1.29132813 17.15148437 -1.44140625 16.19921875 C-1.84863997 13.81051347 -1.84863997 13.81051347 -4 12 C-3.73202649 9.99019869 -3.39013716 7.9896995 -3 6 C-2.96377667 4.33372702 -2.95100158 2.66594626 -3 1 C-2.01 0.67 -1.02 0.34 0 0 Z " fill="#512117" transform="translate(151,50)"/>
<path d="M0 0 C5.28549442 3.57548152 9.846422 9.0832003 11.671875 15.28125 C11.78015625 15.8484375 11.8884375 16.415625 12 17 C8.6875 16.9375 8.6875 16.9375 5 16 C3.1875 12.625 3.1875 12.625 2 9 C1.34 8.01 0.68 7.02 0 6 C-0.125 2.8125 -0.125 2.8125 0 0 Z " fill="#51271E" transform="translate(143,35)"/>
<path d="M0 0 C0.33 0.99 0.66 1.98 1 3 C0.52949219 3.44730469 0.05898438 3.89460938 -0.42578125 4.35546875 C-3.85076649 7.68117905 -6.78871658 10.70750866 -9 15 C-9.85537909 12.43386274 -10.01396599 11.06517464 -9.4375 8.375 C-9.293125 7.59125 -9.14875 6.8075 -9 6 C-9.66 5.34 -10.32 4.68 -11 4 C-10.113125 3.71125 -9.22625 3.4225 -8.3125 3.125 C-5.49617576 2.16851252 -2.74916844 1.13201054 0 0 Z " fill="#4D251D" transform="translate(44,90)"/>
<path d="M0 0 C6.0546875 -0.1953125 6.0546875 -0.1953125 8 0 C8.66 0.66 9.32 1.32 10 2 C9.01 2 8.02 2 7 2 C7.33 2.66 7.66 3.32 8 4 C12.455 3.505 12.455 3.505 17 3 C16.34 4.32 15.68 5.64 15 7 C13.41590006 6.88512252 11.83271037 6.75765492 10.25 6.625 C9.36828125 6.55539063 8.4865625 6.48578125 7.578125 6.4140625 C4.97534682 5.99604055 3.21757058 5.41118128 1 4 C0.25 1.875 0.25 1.875 0 0 Z " fill="#512114" transform="translate(98,9)"/>
<path d="M0 0 C0.99 0.33 1.98 0.66 3 1 C2.360625 1.556875 1.72125 2.11375 1.0625 2.6875 C-1.19680987 5.22066561 -1.63149047 6.68341424 -2 10 C-2.99 9.67 -3.98 9.34 -5 9 C-5 9.66 -5 10.32 -5 11 C-5.99 11.33 -6.98 11.66 -8 12 C-8.66 11.67 -9.32 11.34 -10 11 C-8.83412722 6.0450407 -5.83856832 3.97282007 -1.97265625 1.0390625 C-0.99619141 0.52472656 -0.99619141 0.52472656 0 0 Z " fill="#532C23" transform="translate(43,8)"/>
<path d="M0 0 C0.66 0.33 1.32 0.66 2 1 C-2.46153846 7.92307692 -2.46153846 7.92307692 -5 10 C-5.66 10 -6.32 10 -7 10 C-7 10.66 -7 11.32 -7 12 C-7.99 12 -8.98 12 -10 12 C-10.33 13.65 -10.66 15.3 -11 17 C-11.99 17.33 -12.98 17.66 -14 18 C-11.93482916 10.65717034 -5.33168494 5.17011873 0 0 Z " fill="#512E26" transform="translate(23,28)"/>
<path d="M0 0 C0.66 0.33 1.32 0.66 2 1 C1.91291962 3.10494301 1.80474307 5.20902142 1.6875 7.3125 C1.62949219 8.48425781 1.57148437 9.65601562 1.51171875 10.86328125 C0.98395232 14.0983686 0.57619276 15.08684881 -2 17 C-3.35281371 14.29437257 -3.20609362 12.08106345 -3.25 9.0625 C-3.27578125 8.00160156 -3.3015625 6.94070312 -3.328125 5.84765625 C-3 3 -3 3 -1.484375 1.12109375 C-0.99453125 0.75113281 -0.5046875 0.38117188 0 0 Z " fill="#5F2A1B" transform="translate(5,71)"/>
<path d="M0 0 C0 0.99 0 1.98 0 3 C-2.40435006 4.20217503 -3.68381369 4.03897118 -6.3515625 3.87890625 C-7.20234375 3.83056641 -8.053125 3.78222656 -8.9296875 3.73242188 C-9.81914063 3.67634766 -10.70859375 3.62027344 -11.625 3.5625 C-12.5221875 3.51029297 -13.419375 3.45808594 -14.34375 3.40429688 C-16.56284012 3.2744565 -18.78149871 3.13948661 -21 3 C-21 2.67 -21 2.34 -21 2 C-19.80503906 1.92652344 -19.80503906 1.92652344 -18.5859375 1.8515625 C-12.82858879 1.44532622 -5.15726022 -1.71908674 0 0 Z " fill="#652C1B" transform="translate(89,73)"/>
<path d="M0 0 C0.66 0 1.32 0 2 0 C4 2 4 2 4.1953125 5.6953125 C4.182009 7.17200108 4.15814835 8.64862358 4.125 10.125 C4.11597656 10.87910156 4.10695313 11.63320313 4.09765625 12.41015625 C4.0740687 14.27357254 4.03819719 16.13682593 4 18 C3.67 18 3.34 18 3 18 C2.67 14.7 2.34 11.4 2 8 C1.67 10.31 1.34 12.62 1 15 C0.67 15 0.34 15 0 15 C0 10.05 0 5.1 0 0 Z " fill="#51190D" transform="translate(92,42)"/>
<path d="M0 0 C2.97 0.495 2.97 0.495 6 1 C5.67 1.99 5.34 2.98 5 4 C6.32 4 7.64 4 9 4 C9 4.66 9 5.32 9 6 C7.54176788 6.0270043 6.08339325 6.04639787 4.625 6.0625 C3.81289063 6.07410156 3.00078125 6.08570312 2.1640625 6.09765625 C0 6 0 6 -2 5 C-2 4.01 -2 3.02 -2 2 C-1.34 2 -0.68 2 0 2 C0 1.34 0 0.68 0 0 Z " fill="#411F16" transform="translate(18,115)"/>
<path d="M0 0 C3.3 0 6.6 0 10 0 C8.515 1.485 8.515 1.485 7 3 C7.66 3.66 8.32 4.32 9 5 C7.00045254 5.04254356 4.99958364 5.04080783 3 5 C2.67 4.67 2.34 4.34 2 4 C-0.32817964 3.63239269 -2.6618385 3.29758419 -5 3 C-5 2.67 -5 2.34 -5 2 C-3.35 1.67 -1.7 1.34 0 1 C0 0.67 0 0.34 0 0 Z " fill="#4F1F14" transform="translate(100,70)"/>
<path d="M0 0 C1.58560393 0.25720674 3.16845924 0.53138799 4.75 0.8125 C5.63171875 0.96332031 6.5134375 1.11414063 7.421875 1.26953125 C10.1910911 2.05414248 11.8259401 3.14595359 14 5 C13.01 5.33 12.02 5.66 11 6 C10.34 5.67 9.68 5.34 9 5 C9 4.34 9 3.68 9 3 C8.278125 3.350625 7.55625 3.70125 6.8125 4.0625 C3.6877295 5.10409017 2.11838004 4.89096572 -1 4 C-0.67 2.68 -0.34 1.36 0 0 Z " fill="#52261D" transform="translate(106,9)"/>
<path d="M0 0 C3.71599191 -0.20086443 4.77208445 -0.1519437 8 2 C11.14221967 1.68493373 11.14221967 1.68493373 14 1 C10.71195019 3.91227269 8.40114397 5.49701212 4 6 C3.67 5.01 3.34 4.02 3 3 C3.33 2.34 3.66 1.68 4 1 C2.68 0.67 1.36 0.34 0 0 Z " fill="#543025" transform="translate(47,82)"/>
<path d="M0 0 C-0.33 1.65 -0.66 3.3 -1 5 C-3.31 5 -5.62 5 -8 5 C-8.33 4.01 -8.66 3.02 -9 2 C-5.5647952 -0.29013653 -4.014669 -0.17842973 0 0 Z " fill="#481D15" transform="translate(128,74)"/>
<path d="M0 0 C2.08304538 -0.05418326 4.16649768 -0.09287551 6.25 -0.125 C7.99023438 -0.15980469 7.99023438 -0.15980469 9.765625 -0.1953125 C12.82786046 -0.0103949 14.44202751 0.39176977 17 2 C16.34 2.66 15.68 3.32 15 4 C10.44444444 3.44444444 10.44444444 3.44444444 9 2 C7.48530552 1.76807135 5.96245438 1.58784762 4.4375 1.4375 C3.61121094 1.35371094 2.78492187 1.26992187 1.93359375 1.18359375 C1.29550781 1.12300781 0.65742187 1.06242187 0 1 C0 0.67 0 0.34 0 0 Z " fill="#4D1C11" transform="translate(67,76)"/>
<path d="M0 0 C1.32 0.33 2.64 0.66 4 1 C4 1.33 4 1.66 4 2 C8.95 2.33 13.9 2.66 19 3 C19 3.33 19 3.66 19 4 C12.07 4 5.14 4 -2 4 C-1.34 2.68 -0.68 1.36 0 0 Z " fill="#662E1A" transform="translate(67,2)"/>
<path d="M0 0 C0.66 0 1.32 0 2 0 C1.07506212 3.78383679 0.60628829 5.56693694 -2.625 7.875 C-3.40875 8.24625 -4.1925 8.6175 -5 9 C-5.33 7.68 -5.66 6.36 -6 5 C-5.38125 4.731875 -4.7625 4.46375 -4.125 4.1875 C-1.7004767 3.04443152 -1.7004767 3.04443152 0 0 Z " fill="#55322A" transform="translate(32,112)"/>
<path d="M0 0 C2.9375 0.375 2.9375 0.375 6 1 C7.27351308 3.54702616 6.80191925 4.4282945 6.0625 7.125 C5.86785156 7.84945313 5.67320313 8.57390625 5.47265625 9.3203125 C5.23869141 10.15175781 5.23869141 10.15175781 5 11 C4.67 11 4.34 11 4 11 C3.71125 9.88625 3.4225 8.7725 3.125 7.625 C2.30758671 3.99708908 2.30758671 3.99708908 0 2 C0 1.34 0 0.68 0 0 Z " fill="#642E1D" transform="translate(89,4)"/>
<path d="M0 0 C1.65 1.65 3.3 3.3 5 5 C4.67 5.99 4.34 6.98 4 8 C3.01 8 2.02 8 1 8 C-2 4.66666667 -2 4.66666667 -2 2 C-1.34 2 -0.68 2 0 2 C0 1.34 0 0.68 0 0 Z " fill="#652D1E" transform="translate(132,78)"/>
<path d="M0 0 C0.33 0 0.66 0 1 0 C1 3.3 1 6.6 1 10 C1.66 10 2.32 10 3 10 C3 10.99 3 11.98 3 13 C1 14.6875 1 14.6875 -1 16 C-1.66 15.67 -2.32 15.34 -3 15 C-2.52433594 14.18789062 -2.52433594 14.18789062 -2.0390625 13.359375 C-0.81692026 10.5842851 -0.59056564 8.26791902 -0.375 5.25 C-0.30023438 4.26515625 -0.22546875 3.2803125 -0.1484375 2.265625 C-0.09945312 1.51796875 -0.05046875 0.7703125 0 0 Z " fill="#6B331D" transform="translate(151,72)"/>
<path d="M0 0 C0.24492187 0.59296875 0.48984375 1.1859375 0.7421875 1.796875 C2.20952109 4.36698726 3.72292225 5.54529966 6.125 7.25 C6.84945312 7.77078125 7.57390625 8.2915625 8.3203125 8.828125 C8.87460938 9.21484375 9.42890625 9.6015625 10 10 C8.203125 10.62890625 8.203125 10.62890625 6 11 C1.80789022 8.33962264 1.80789022 8.33962264 0 6 C-0.375 2.6875 -0.375 2.6875 0 0 Z " fill="#583A31" transform="translate(133,24)"/>
<path d="M0 0 C0.66 0.33 1.32 0.66 2 1 C0.42655961 4.14688078 -2.27851951 5.79965407 -5 8 C-5.99 7.34 -6.98 6.68 -8 6 C-5.36 4.02 -2.72 2.04 0 0 Z " fill="#C38955" transform="translate(148,63)"/>
<path d="M0 0 C2.31 0.33 4.62 0.66 7 1 C7 1.66 7 2.32 7 3 C8.32 3.33 9.64 3.66 11 4 C8.1875 4.625 8.1875 4.625 5 5 C2 3 2 3 0 0 Z " fill="#622F21" transform="translate(49,5)"/>
<path d="M0 0 C2.64 1.98 5.28 3.96 8 6 C7.34 7.32 6.68 8.64 6 10 C5.67 9.34 5.34 8.68 5 8 C5.33 7.34 5.66 6.68 6 6 C5.38125 5.7525 4.7625 5.505 4.125 5.25 C2 4 2 4 0 0 Z " fill="#CD935D" transform="translate(34,79)"/>
<path d="M0 0 C-0.66 0 -1.32 0 -2 0 C-2 0.66 -2 1.32 -2 2 C-6.455 2.495 -6.455 2.495 -11 3 C-11 2.34 -11 1.68 -11 1 C-3.375 -1.125 -3.375 -1.125 0 0 Z " fill="#4E2E25" transform="translate(65,2)"/>
<path d="M0 0 C2.97 0.495 2.97 0.495 6 1 C6 1.66 6 2.32 6 3 C7.98 3 9.96 3 12 3 C12 3.33 12 3.66 12 4 C4.61538462 4.49230769 4.61538462 4.49230769 1.5 2 C1.005 1.34 0.51 0.68 0 0 Z " fill="#52372E" transform="translate(136,91)"/>
<path d="M0 0 C0.33 0.99 0.66 1.98 1 3 C-1.8125 4.5625 -1.8125 4.5625 -5 6 C-5.99 5.67 -6.98 5.34 -8 5 C-7.236875 4.54625 -6.47375 4.0925 -5.6875 3.625 C-3.76367186 2.46175508 -1.87058776 1.2470585 0 0 Z " fill="#573B32" transform="translate(90,74)"/>
<path d="M0 0 C-3.55818936 2.26273207 -6.12547951 2.07331744 -10.25 1.625 C-11.32765625 1.51414062 -12.4053125 1.40328125 -13.515625 1.2890625 C-14.74539062 1.14597656 -14.74539062 1.14597656 -16 1 C-16 0.67 -16 0.34 -16 0 C-14.08416353 -0.1958009 -12.16727461 -0.38132214 -10.25 -0.5625 C-8.64898437 -0.71912109 -8.64898437 -0.71912109 -7.015625 -0.87890625 C-4.35858796 -0.98560074 -2.50039428 -0.81930395 0 0 Z " fill="#6F361B" transform="translate(84,75)"/>
<path d="M0 0 C3.71368887 1.23789629 4.77354181 2.85224877 7 6 C7 6.66 7 7.32 7 8 C3.64379729 6.61122646 1.92701272 5.08322035 0 2 C0 1.34 0 0.68 0 0 Z " fill="#4C2B21" transform="translate(9,111)"/>
<path d="M0 0 C2.92824652 0.97608217 4.61426621 2.10786631 7 4 C4.36 4.33 1.72 4.66 -1 5 C-1 2 -1 2 0 0 Z " fill="#5B372E" transform="translate(107,71)"/>
<path d="M0 0 C2.97 0.495 2.97 0.495 6 1 C5.67 1.99 5.34 2.98 5 4 C2.69 3.67 0.38 3.34 -2 3 C-1.34 2.67 -0.68 2.34 0 2 C0 1.34 0 0.68 0 0 Z " fill="#562014" transform="translate(18,115)"/>
<path d="M0 0 C2.6875 0.3125 2.6875 0.3125 5 1 C3.68 2.32 2.36 3.64 1 5 C-0.32 4.34 -1.64 3.68 -3 3 C-1.8125 1.4375 -1.8125 1.4375 0 0 Z " fill="#5B3128" transform="translate(44,87)"/>
<path d="M0 0 C1.98 0.66 3.96 1.32 6 2 C4.68 3.32 3.36 4.64 2 6 C2 5.01 2 4.02 2 3 C1.01 2.67 0.02 2.34 -1 2 C-0.67 1.34 -0.34 0.68 0 0 Z " fill="#682E1A" transform="translate(134,67)"/>
<path d="M0 0 C1.32 1.32 2.64 2.64 4 4 C3.34 4 2.68 4 2 4 C2.99 5.485 2.99 5.485 4 7 C3.67 7.99 3.34 8.98 3 10 C0.64551835 7.44931155 0.01672076 6.28982642 -0.1875 2.75 C-0.125625 1.8425 -0.06375 0.935 0 0 Z " fill="#734C45" transform="translate(143,35)"/>
<path d="M0 0 C0 0.66 0 1.32 0 2 C-2.64 2 -5.28 2 -8 2 C-8 1.34 -8 0.68 -8 0 C-5.13822943 -1.43088528 -3.06624227 -0.59991697 0 0 Z " fill="#4B2119" transform="translate(150,92)"/>
<path d="M0 0 C0 3 0 3 -1.875 5.1875 C-4 7 -4 7 -6 7 C-4.60667426 3.63279613 -3.0210714 2.0140476 0 0 Z " fill="#C78B55" transform="translate(45,14)"/>
<path d="M0 0 C2.89932357 2.39509338 3.50168276 4.31245243 4 8 C3.01 7.67 2.02 7.34 1 7 C0.67 4.69 0.34 2.38 0 0 Z " fill="#462119" transform="translate(6,102)"/>
<path d="M0 0 C0.99 0 1.98 0 3 0 C6 3.33333333 6 3.33333333 6 6 C3.37812506 4.95125002 2.20628639 4.35068687 0.75 1.875 C0.5025 1.25625 0.255 0.6375 0 0 Z " fill="#55342C" transform="translate(145,39)"/>
<path d="M0 0 C4.21912747 0.4794463 6.79663178 1.16625119 10 4 C9.01 4.33 8.02 4.66 7 5 C6.34 4.67 5.68 4.34 5 4 C5 3.34 5 2.68 5 2 C3.35 1.67 1.7 1.34 0 1 C0 0.67 0 0.34 0 0 Z " fill="#5C3D34" transform="translate(110,10)"/>
</svg>
