<?xml version="1.0" encoding="UTF-8"?>
<svg version="1.1" xmlns="http://www.w3.org/2000/svg" width="98" height="160">
<path d="M0 0 C2.9276434 0.864127 4.09419755 2.07092133 6.171875 4.27734375 C8.88317615 7.05504412 9.86156666 7.6980989 13.8203125 7.81640625 C16.28286267 7.54278956 18.74391238 7.25527185 21.203125 6.953125 C24.421875 6.71484375 24.421875 6.71484375 28.046875 8.08984375 C30.35165727 10.63723468 31.06406662 12.14459686 32.234375 15.27734375 C33.56970058 18.76877053 33.56970058 18.76877053 36.5625 20.82421875 C38.94991801 21.55569843 38.94991801 21.55569843 41.30078125 21.984375 C44.16837372 22.97192526 44.87706583 24.11811804 46.421875 26.71484375 C48.40131878 39.5414513 44.6972344 53.14561282 42.3359375 65.68359375 C41.9136804 67.97689588 41.49250598 70.27039759 41.07235718 72.56408691 C40.19428896 77.34275465 39.30771787 82.11973083 38.4140625 86.89550781 C37.27045374 93.00735347 36.14150292 99.12178508 35.01801491 105.23735809 C33.94130734 111.09532913 32.8577846 116.95203281 31.7734375 122.80859375 C31.56838215 123.91879379 31.3633268 125.02899384 31.15205765 126.1728363 C30.56945399 129.3197085 29.98206078 132.46564659 29.39306641 135.61132812 C29.22259293 136.53507233 29.05211945 137.45881653 28.8764801 138.41055298 C26.35889621 151.77140458 26.35889621 151.77140458 23.140625 155.01171875 C11.4166646 162.35603877 -4.1200241 162.53072144 -17.3828125 159.984375 C-22.88765808 158.30272018 -27.72740179 156.14546833 -31.578125 151.71484375 C-32.79045738 148.91726564 -33.26017365 146.08938327 -33.74609375 143.08984375 C-33.90769989 142.21913239 -34.06930603 141.34842102 -34.23580933 140.45132446 C-34.76953798 137.54291171 -35.26781023 134.62960151 -35.765625 131.71484375 C-36.13457115 129.65376318 -36.50563418 127.59306058 -36.87866211 125.53271484 C-37.6879124 121.04435351 -38.48275398 116.55370434 -39.27050781 112.06152344 C-40.53002081 104.92444395 -41.86665138 97.80287754 -43.21406364 90.68204498 C-43.98687071 86.5873745 -44.74943946 82.49078787 -45.51142979 78.39409256 C-46.13216718 75.05813765 -46.75672647 71.72301959 -47.39120483 68.38964844 C-53.51074714 36.0607221 -53.51074714 36.0607221 -51.578125 26.71484375 C-47.49378846 21.80956637 -44.6310508 20.84335534 -38.578125 19.71484375 C-38.4853125 18.13703125 -38.4853125 18.13703125 -38.390625 16.52734375 C-37.43368563 12.03708977 -36.09892164 10.56501246 -32.578125 7.71484375 C-27.94765439 6.17135355 -23.83468038 6.37214683 -19.140625 7.65234375 C-15.64372264 8.09256454 -15.64372264 8.09256454 -13.7109375 6.22265625 C-13.06898437 5.58070313 -12.42703125 4.93875 -11.765625 4.27734375 C-7.94071699 0.60040123 -5.28713531 -0.32844325 0 0 Z " fill="#5D2B1D" transform="translate(51.578125,-0.71484375)"/>
<path d="M0 0 C0.32804489 7.23471972 -0.92487367 13.91475611 -2.3125 21 C-2.52583984 22.11761719 -2.73917969 23.23523438 -2.95898438 24.38671875 C-3.40323858 26.71275418 -3.85027493 29.03825962 -4.29980469 31.36328125 C-5.41200897 37.13991825 -6.4895746 42.92302034 -7.57052612 48.70556641 C-8.0361732 51.19325272 -8.50342659 53.68063388 -8.97094727 56.16796875 C-9.8461186 60.82459079 -10.71844271 65.48173988 -11.58935547 70.13916016 C-11.94916404 72.06087245 -12.30985419 73.98241988 -12.67138672 75.90380859 C-13.20245756 78.72712049 -13.73043269 81.55099661 -14.2578125 84.375 C-14.41823029 85.22408936 -14.57864807 86.07317871 -14.743927 86.94799805 C-15.67500633 91.95381967 -16.41782385 96.94139072 -17 102 C-22.44462854 103.81487618 -27.82314643 101.01161051 -33 99 C-44.80959042 93.08756599 -52.81767666 84.30395624 -57.07421875 71.859375 C-60.06258946 59.40152579 -58.93324727 46.34713868 -53 35 C-52.34837891 33.68322266 -52.34837891 33.68322266 -51.68359375 32.33984375 C-43.30489953 16.89535611 -27.19753809 6.47333063 -10.75 1.1875 C-7.08455722 0.15840092 -3.83050442 -0.30240824 0 0 Z " fill="#D29351" transform="translate(90,43)"/>
<path d="M0 0 C4.60120956 1.80047331 6.60750636 4.74667797 9 9 C9 9.99 9 10.98 9 12 C9.66 11.67 10.32 11.34 11 11 C15.15748782 10.72737785 18.02330484 10.64672728 21.9375 12.0625 C24.83144285 14.78105237 24.78140783 17.13820495 25 21 C28.40312738 19.94124926 31.01353231 18.99097846 34 17 C35.62106302 20.24212603 34.92904748 23.60967001 34 27 C31.9375 29 31.9375 29 30 30 C30 28.35 30 26.7 30 25 C14.53802821 29.06204344 1.13566283 34.15443466 -11 45 C-11.62261719 45.495 -12.24523438 45.99 -12.88671875 46.5 C-20.34206971 52.9333815 -27.23852382 66.34634331 -28.21508789 76.16186523 C-28.71899779 86.22072114 -28.90539897 95.93800128 -24 105 C-23.36384766 106.19302734 -23.36384766 106.19302734 -22.71484375 107.41015625 C-19.17154685 113.32223102 -14.63175754 117.12502957 -9 121 C-8.05447266 121.65355469 -8.05447266 121.65355469 -7.08984375 122.3203125 C-5.73965252 123.23320775 -4.37213235 124.12042798 -3 125 C-3.99 125.495 -3.99 125.495 -5 126 C-5 126.66 -5 127.32 -5 128 C-6.2375 127.79375 -7.475 127.5875 -8.75 127.375 C-12.25712901 126.9180853 -13.90551803 127.23172459 -17 129 C-19.25 128.625 -19.25 128.625 -21 128 C-19.02 127.01 -19.02 127.01 -17 126 C-17.99 125.505 -17.99 125.505 -19 125 C-19 123.68 -19 122.36 -19 121 C-21.2704415 118.47906969 -21.2704415 118.47906969 -24 116 C-32.85541633 106.07119987 -35.72634087 93.98783316 -35.27734375 80.953125 C-34.27679034 66.69171585 -28.26139276 53.04306525 -18 43 C-19.34851619 39.76568479 -20.49910829 38.36644956 -23.59765625 36.74609375 C-24.31759766 36.36646484 -25.03753906 35.98683594 -25.77929688 35.59570312 C-26.53275391 35.21349609 -27.28621094 34.83128906 -28.0625 34.4375 C-28.78888672 34.05142578 -29.51527344 33.66535156 -30.26367188 33.26757812 C-37.97385936 29.26591583 -45.33780736 26.78747206 -54 26 C-53.74347656 27.22460938 -53.48695312 28.44921875 -53.22265625 29.7109375 C-50.20859949 44.33905147 -47.48052658 59.01871171 -44.80880737 73.71270752 C-44.39533236 75.98356046 -43.97975109 78.25403092 -43.56204224 80.52410889 C-42.96608225 83.76757311 -42.37844072 87.01244075 -41.79296875 90.2578125 C-41.61194611 91.2361908 -41.43092346 92.21456909 -41.24441528 93.22259521 C-40.35034601 98.23497622 -39.79829034 102.908479 -40 108 C-41.485 107.505 -41.485 107.505 -43 107 C-43 108.98 -43 110.96 -43 113 C-48.54815721 104.67776418 -49.14327542 92.47171059 -50.91796875 82.77734375 C-51.18266891 81.34110008 -51.44742531 79.90486677 -51.7122345 78.46864319 C-52.26213576 75.47986099 -52.80867316 72.49048514 -53.35327148 69.50073242 C-54.04664254 65.69793802 -54.75260558 61.89759782 -55.46161938 58.09769344 C-56.0113185 55.13980686 -56.55214399 52.18034604 -57.09063148 49.22039986 C-57.3469788 47.819399 -57.60646094 46.41896747 -57.86934471 45.01917839 C-59.38501394 36.92803038 -60.38906967 29.23909491 -60 21 C-58.35 20.34 -56.7 19.68 -55 19 C-55 19.66 -55 20.32 -55 21 C-53.68 20.67 -52.36 20.34 -51 20 C-50.89042969 19.41347656 -50.78085937 18.82695313 -50.66796875 18.22265625 C-49.92360504 15.74579687 -48.98318735 14.39759776 -47.3125 12.4375 C-46.83425781 11.85871094 -46.35601562 11.27992187 -45.86328125 10.68359375 C-40.2236445 5.58782134 -34.68635326 5.55709284 -27.4375 5.6953125 C-23.08647708 6.08097135 -19.91914643 7.11880972 -16 9 C-16 9.33 -16 9.66 -16 10 C-16.83402344 9.96519531 -17.66804688 9.93039063 -18.52734375 9.89453125 C-27.22250545 9.68536928 -34.49213708 10.05746482 -41.5625 15.5 C-44.34905007 17.7760635 -44.34905007 17.7760635 -44 21 C-41.58848443 22.03479213 -39.17205531 23.0529372 -36.75 24.0625 C-36.06808594 24.35705078 -35.38617188 24.65160156 -34.68359375 24.95507812 C-30.95773889 26.49244542 -28.82763845 27.2248443 -25 26 C-22.33333333 25.33333333 -19.66666667 24.66666667 -17 24 C-17.515625 24.5775 -18.03125 25.155 -18.5625 25.75 C-20.17946309 27.83589856 -20.17946309 27.83589856 -20 30 C-18.52670853 32.94658295 -16.79060795 34.28758148 -14 36 C-10.39102128 35.81955106 -7.30406766 34.416029 -4 33 C-4 32.34 -4 31.68 -4 31 C-5.11375 30.855625 -6.2275 30.71125 -7.375 30.5625 C-11 30 -11 30 -13 29 C-13 28.34 -13 27.68 -13 27 C-9.04 26.01 -5.08 25.02 -1 24 C-0.34 25.32 0.32 26.64 1 28 C2.19238281 27.566875 3.38476562 27.13375 4.61328125 26.6875 C6.1795982 26.12475139 7.74600939 25.56226502 9.3125 25 C10.09818359 24.71382812 10.88386719 24.42765625 11.69335938 24.1328125 C12.45068359 23.86210938 13.20800781 23.59140625 13.98828125 23.3125 C14.68477783 23.06113281 15.38127441 22.80976562 16.09887695 22.55078125 C18 22 18 22 21 22 C20.51294288 19.93597032 20.51294288 19.93597032 19 18 C15.01055278 16.87091116 12.92465074 16.52740073 9.1875 18.4375 C8.465625 18.953125 7.74375 19.46875 7 20 C6.34 20 5.68 20 5 20 C5 19.34 5 18.68 5 18 C4.34 18 3.68 18 3 18 C3.0825 16.948125 3.165 15.89625 3.25 14.8125 C3.26275577 11.00885039 3.26275577 11.00885039 1.4375 8.0625 C-0.9207153 5.68627538 -0.9207153 5.68627538 -4.5 5.5625 C-7.66799697 5.95849962 -9.28575928 6.50248788 -12 8 C-13.32 8 -14.64 8 -16 8 C-13.28846487 -0.36056664 -7.99615414 -0.93613512 0 0 Z " fill="#5A2615" transform="translate(61,17)"/>
<path d="M0 0 C12.06921379 -1.18325625 23.99181063 5.84335873 34 12 C35.8671875 13.7109375 35.8671875 13.7109375 37 15 C35.47286028 18.38320184 33.46258364 21.07675677 31.1875 24 C21.8555795 36.70225114 18.25264406 51.40512184 20 67 C21.82343954 76.90519265 26.26195443 85.51484896 33 93 C33.99 93.66 34.98 94.32 36 95 C35.505 96.98 35.505 96.98 35 99 C35.99 99.33 36.98 99.66 38 100 C37.01 100.66 36.02 101.32 35 102 C36.1446875 101.60039062 37.289375 101.20078125 38.46875 100.7890625 C43.62885051 99.49903737 46.89568761 101.0557908 51.5 103.375 C52.22703125 103.71789062 52.9540625 104.06078125 53.703125 104.4140625 C55.47878926 105.25516662 57.24092478 106.12473199 59 107 C58.67 107.66 58.34 108.32 58 109 C52.10482579 110.87875484 46.65838829 111.33721263 40.5 111.3125 C39.29537109 111.33666992 39.29537109 111.33666992 38.06640625 111.36132812 C32.39262593 111.365926 28.20395815 110.26181208 23 108 C23 107.01 23 106.02 23 105 C20.03 105 17.06 105 14 105 C13.67 105.99 13.34 106.98 13 108 C12.29825244 104.75290806 11.61611931 101.50199748 10.9375 98.25 C10.73833984 97.32960938 10.53917969 96.40921875 10.33398438 95.4609375 C10.15029297 94.57148438 9.96660156 93.68203125 9.77734375 92.765625 C9.51812134 91.54020996 9.51812134 91.54020996 9.25366211 90.29003906 C8.86917662 86.81893808 9.90681496 84.27955511 11 81 C11.66 81 12.32 81 13 81 C12.46616777 72.7129094 11.36076772 64.69222001 9.78515625 56.54296875 C9.5693541 55.3969368 9.35355194 54.25090485 9.13121033 53.07014465 C8.44736328 49.44148504 7.75565239 45.81439264 7.0625 42.1875 C1.37741266 12.3422912 1.37741266 12.3422912 0 0 Z " fill="#D09251" transform="translate(7,43)"/>
<path d="M0 0 C3.73140702 0.70403906 4.57705544 1.56601819 7.25 4.125 C10.46572552 7.16991373 10.46572552 7.16991373 14.8125 8.125 C16.67522873 7.8588959 18.53758351 7.58261139 20.38671875 7.234375 C25.81559466 6.31116505 25.81559466 6.31116505 28.6875 8.125 C30.66118998 11.16144613 31.34763635 14.15149087 32.3125 17.625 C35.59870152 19.81580101 38.53130738 20.57466872 42.3125 21.625 C42.6425 21.955 42.9725 22.285 43.3125 22.625 C43.22312197 24.15019276 43.06712854 25.67181929 42.875 27.1875 C42.72224609 28.42693359 42.72224609 28.42693359 42.56640625 29.69140625 C42.44072266 30.64853516 42.44072266 30.64853516 42.3125 31.625 C40.9925 31.625 39.6725 31.625 38.3125 31.625 C37.9 30.67625 37.4875 29.7275 37.0625 28.75 C35.20620666 25.43519047 34.72362126 24.874143 31.3125 23.625 C28.72095081 23.38470041 28.72095081 23.38470041 26.0625 23.5 C24.72445312 23.52707031 24.72445312 23.52707031 23.359375 23.5546875 C22.68390625 23.57789062 22.0084375 23.60109375 21.3125 23.625 C21.08175781 23.08230469 20.85101563 22.53960938 20.61328125 21.98046875 C19.11893727 18.7023624 17.83003698 16.11209363 15.1875 13.625 C10.86987454 12.12321723 6.82162158 11.79709571 2.3125 12.625 C0.03325828 14.0837147 -1.03532154 15.42209538 -2.6875 17.625 C-1.6975 17.625 -0.7075 17.625 0.3125 17.625 C0.3125 18.285 0.3125 18.945 0.3125 19.625 C0.828125 19.13 1.34375 18.635 1.875 18.125 C5.30386114 16.01493161 7.35470351 16.00008477 11.3125 16.625 C14.3125 19.1875 14.3125 19.1875 16.3125 22.625 C16.125 26.5 16.125 26.5 15.3125 29.625 C15.9725 29.625 16.6325 29.625 17.3125 29.625 C17.3125 30.285 17.3125 30.945 17.3125 31.625 C18.323125 30.944375 19.33375 30.26375 20.375 29.5625 C23.44784721 27.79498829 24.3681657 27.6268251 28.125 27.75 C31.3125 28.625 31.3125 28.625 33.3125 30.625 C33.3125 31.615 33.3125 32.605 33.3125 33.625 C30.91789412 34.44127446 28.52193474 35.25311645 26.125 36.0625 C25.45146484 36.29259766 24.77792969 36.52269531 24.08398438 36.75976562 C16.15668605 39.42797823 16.15668605 39.42797823 13.3125 39.625 C12.83167969 39.13386719 12.35085937 38.64273438 11.85546875 38.13671875 C11.34628906 37.63785156 10.83710937 37.13898437 10.3125 36.625 C7.54333764 36.69854063 7.54333764 36.69854063 4.625 37.4375 C3.63113281 37.65019531 2.63726562 37.86289062 1.61328125 38.08203125 C0.85402344 38.26121094 0.09476563 38.44039062 -0.6875 38.625 C-0.6875 39.285 -0.6875 39.945 -0.6875 40.625 C2.2825 41.285 5.2525 41.945 8.3125 42.625 C8.3125 43.285 8.3125 43.945 8.3125 44.625 C2.044419 48.60282064 2.044419 48.60282064 -0.75 48.6875 C-3.74663459 47.04418426 -6.13086791 44.89110571 -8.6875 42.625 C-8.18146008 40.45625748 -7.68766187 38.62532373 -6.6875 36.625 C-7.739375 37.140625 -8.79125 37.65625 -9.875 38.1875 C-14.29859843 40.3559306 -17.45195292 39.01879403 -21.984375 37.57421875 C-23.69367187 36.94966797 -23.69367187 36.94966797 -25.4375 36.3125 C-26.58734375 35.90386719 -27.7371875 35.49523438 -28.921875 35.07421875 C-31.6875 33.625 -31.6875 33.625 -32.578125 31.45703125 C-32.61421875 30.85246094 -32.6503125 30.24789062 -32.6875 29.625 C-26.27501306 23.25375092 -20.21840175 20.47603136 -11.125 20.4375 C-9.6452692 20.48479733 -8.16564012 20.54168104 -6.6875 20.625 C-13.1419282 17.5804584 -21.07104033 17.3630612 -27.9453125 19.2421875 C-32.26867076 21.43294752 -34.75895604 25.06083682 -37.328125 29.015625 C-37.77671875 29.54671875 -38.2253125 30.0778125 -38.6875 30.625 C-39.6775 30.625 -40.6675 30.625 -41.6875 30.625 C-43.06875018 27.86249964 -42.87829306 25.67768901 -42.6875 22.625 C-40.39400047 20.33150047 -39.33824025 20.24708528 -36.25 19.5625 C-33.27326961 18.64658296 -32.03986356 18.25554532 -30.5 15.5 C-29.72255801 13.08932182 -29.72255801 13.08932182 -29.22265625 10.68359375 C-28.6875 8.625 -28.6875 8.625 -26.6875 6.625 C-24.34726685 6.90582798 -22.01444964 7.24968554 -19.6875 7.625 C-15.34672494 8.08500506 -12.30963775 7.965415 -8.375 5.8125 C-5.76542652 3.82099823 -5.76542652 3.82099823 -4.1875 1.875 C-2.6875 0.625 -2.6875 0.625 0 0 Z " fill="#7D3B25" transform="translate(48.6875,5.375)"/>
<path d="M0 0 C3.73140702 0.70403906 4.57705544 1.56601819 7.25 4.125 C10.46572552 7.16991373 10.46572552 7.16991373 14.8125 8.125 C16.67522873 7.8588959 18.53758351 7.58261139 20.38671875 7.234375 C25.81559466 6.31116505 25.81559466 6.31116505 28.6875 8.125 C30.66118998 11.16144613 31.34763635 14.15149087 32.3125 17.625 C35.59870152 19.81580101 38.53130738 20.57466872 42.3125 21.625 C42.6425 21.955 42.9725 22.285 43.3125 22.625 C43.22312197 24.15019276 43.06712854 25.67181929 42.875 27.1875 C42.72224609 28.42693359 42.72224609 28.42693359 42.56640625 29.69140625 C42.44072266 30.64853516 42.44072266 30.64853516 42.3125 31.625 C40.9925 31.625 39.6725 31.625 38.3125 31.625 C37.9 30.67625 37.4875 29.7275 37.0625 28.75 C35.20620666 25.43519047 34.72362126 24.874143 31.3125 23.625 C28.72095081 23.38470041 28.72095081 23.38470041 26.0625 23.5 C24.72445312 23.52707031 24.72445312 23.52707031 23.359375 23.5546875 C22.68390625 23.57789062 22.0084375 23.60109375 21.3125 23.625 C21.08175781 23.08230469 20.85101563 22.53960938 20.61328125 21.98046875 C19.11893727 18.7023624 17.83003698 16.11209363 15.1875 13.625 C10.86192488 12.12045213 6.83088767 11.8149601 2.3125 12.625 C-0.84585169 15.05956276 -2.48731495 17.32472243 -4.6875 20.625 C-5.55375 20.295 -6.42 19.965 -7.3125 19.625 C-14.07084266 17.72163003 -23.26142217 16.88327324 -29.6875 20.125 C-32.9004852 22.80248766 -35.06095587 25.52571297 -37.328125 29.015625 C-37.77671875 29.54671875 -38.2253125 30.0778125 -38.6875 30.625 C-39.6775 30.625 -40.6675 30.625 -41.6875 30.625 C-43.06875018 27.86249964 -42.87829306 25.67768901 -42.6875 22.625 C-40.39400047 20.33150047 -39.33824025 20.24708528 -36.25 19.5625 C-33.27326961 18.64658296 -32.03986356 18.25554532 -30.5 15.5 C-29.72255801 13.08932182 -29.72255801 13.08932182 -29.22265625 10.68359375 C-28.6875 8.625 -28.6875 8.625 -26.6875 6.625 C-24.34726685 6.90582798 -22.01444964 7.24968554 -19.6875 7.625 C-15.34672494 8.08500506 -12.30963775 7.965415 -8.375 5.8125 C-5.76542652 3.82099823 -5.76542652 3.82099823 -4.1875 1.875 C-2.6875 0.625 -2.6875 0.625 0 0 Z " fill="#7EA24A" transform="translate(48.6875,5.375)"/>
<path d="M0 0 C0.33 0 0.66 0 1 0 C1.50763865 2.68625454 2.00627197 5.37368383 2.5 8.0625 C2.64308594 8.81466797 2.78617188 9.56683594 2.93359375 10.34179688 C3.776431 14.97740175 4.15015262 19.2889615 4 24 C5.02480469 23.62746094 6.04960937 23.25492188 7.10546875 22.87109375 C8.46592113 22.39258981 9.82661096 21.91476062 11.1875 21.4375 C11.86103516 21.19064453 12.53457031 20.94378906 13.22851562 20.68945312 C17.2006008 19.31375533 19.95485799 18.68827434 24 20 C23.01 20.99 22.02 21.98 21 23 C22.1446875 22.60039062 23.289375 22.20078125 24.46875 21.7890625 C29.62885051 20.49903737 32.89568761 22.0557908 37.5 24.375 C38.22703125 24.71789062 38.9540625 25.06078125 39.703125 25.4140625 C41.47878926 26.25516662 43.24092478 27.12473199 45 28 C44.67 28.66 44.34 29.32 44 30 C38.10482579 31.87875484 32.65838829 32.33721263 26.5 32.3125 C25.29537109 32.33666992 25.29537109 32.33666992 24.06640625 32.36132812 C18.39262593 32.365926 14.20395815 31.26181208 9 29 C9 28.01 9 27.02 9 26 C6.03 26 3.06 26 0 26 C-0.33 26.99 -0.66 27.98 -1 29 C-1.70174756 25.75290806 -2.38388069 22.50199748 -3.0625 19.25 C-3.26166016 18.32960937 -3.46082031 17.40921875 -3.66601562 16.4609375 C-3.84970703 15.57148438 -4.03339844 14.68203125 -4.22265625 13.765625 C-4.39547119 12.94868164 -4.56828613 12.13173828 -4.74633789 11.29003906 C-5.13082338 7.81893808 -4.09318504 5.27955511 -3 2 C-2.34 2 -1.68 2 -1 2 C-0.67 1.34 -0.34 0.68 0 0 Z " fill="#5C2D21" transform="translate(21,122)"/>
<path d="M0 0 C2.96912152 1.32475625 5.46853066 2.96902174 8 5 C7.20189567 9.6408289 4.61821978 11.12019242 1 14 C0.01 15.485 0.01 15.485 -1 17 C-5.0921179 16.30003246 -8.85249219 15.11158939 -12.75 13.6875 C-14.47476562 13.07455078 -14.47476562 13.07455078 -16.234375 12.44921875 C-19 11 -19 11 -19.890625 8.83203125 C-19.92671875 8.22746094 -19.9628125 7.62289062 -20 7 C-18.87720538 6.01830524 -17.75168527 5.03972702 -16.625 4.0625 C-15.68527344 3.24458984 -15.68527344 3.24458984 -14.7265625 2.41015625 C-10.42682215 -1.10162263 -5.30462584 -0.66930849 0 0 Z " fill="#DA4B44" transform="translate(36,28)"/>
<path d="M0 0 C4.00676108 1.05201831 6.96362772 3.30326539 9.41015625 6.6328125 C9.41015625 7.6228125 9.41015625 8.6128125 9.41015625 9.6328125 C11.72015625 9.6328125 14.03015625 9.6328125 16.41015625 9.6328125 C15.42015625 10.2928125 14.43015625 10.9528125 13.41015625 11.6328125 C14.73015625 12.2928125 16.05015625 12.9528125 17.41015625 13.6328125 C14.14967996 15.26305064 12.0321459 15.100166 8.41015625 14.6328125 C6.3828125 13.0703125 6.3828125 13.0703125 4.34765625 11.1328125 C1.29000041 8.24032457 1.29000041 8.24032457 -2.65234375 6.8203125 C-6.33255149 7.8382423 -8.3404365 9.61817452 -11.07421875 12.22265625 C-14.01505497 14.95884665 -16.50342261 14.7804308 -20.421875 14.73046875 C-24.27500397 14.55690438 -28.11074309 14.37236283 -31.58984375 12.6328125 C-30.58984375 11.6328125 -30.58984375 11.6328125 -28.0859375 11.53515625 C-26.57193359 11.55255859 -26.57193359 11.55255859 -25.02734375 11.5703125 C-24.01542969 11.57933594 -23.00351562 11.58835937 -21.9609375 11.59765625 C-20.78724609 11.61505859 -20.78724609 11.61505859 -19.58984375 11.6328125 C-20.24984375 10.9728125 -20.90984375 10.3128125 -21.58984375 9.6328125 C-20.76484375 9.4471875 -19.93984375 9.2615625 -19.08984375 9.0703125 C-15.64560459 7.65571427 -14.38794274 6.57144868 -11.83984375 4.0078125 C-7.99133977 0.49780027 -5.18033295 -0.36830806 0 0 Z " fill="#4B2716" transform="translate(51.58984375,-0.6328125)"/>
<path d="M0 0 C1.03125 0.495 2.0625 0.99 3.125 1.5 C3.125 1.83 3.125 2.16 3.125 2.5 C2.29097656 2.46519531 1.45695312 2.43039063 0.59765625 2.39453125 C-8.06922569 2.18604955 -15.29596577 2.61019453 -22.4375 7.875 C-25.11787842 10.2547436 -25.11787842 10.2547436 -25.25 13.3125 C-25.12625 14.034375 -25.0025 14.75625 -24.875 15.5 C-26.525 15.5 -28.175 15.5 -29.875 15.5 C-29.875 16.16 -29.875 16.82 -29.875 17.5 C-31.855 17.5 -33.835 17.5 -35.875 17.5 C-35.545 19.81 -35.215 22.12 -34.875 24.5 C-35.535 23.84 -36.195 23.18 -36.875 22.5 C-37.865 22.5 -38.855 22.5 -39.875 22.5 C-41.3533226 19.54335481 -40.93532783 16.75770263 -40.875 13.5 C-39.225 12.84 -37.575 12.18 -35.875 11.5 C-35.875 12.16 -35.875 12.82 -35.875 13.5 C-34.555 13.17 -33.235 12.84 -31.875 12.5 C-31.76542969 11.91347656 -31.65585937 11.32695313 -31.54296875 10.72265625 C-30.79860504 8.24579687 -29.85818735 6.89759776 -28.1875 4.9375 C-27.70925781 4.35871094 -27.23101562 3.77992187 -26.73828125 3.18359375 C-19.5730592 -3.29064253 -8.73626008 -3.27609753 0 0 Z " fill="#5A2414" transform="translate(41.875,24.5)"/>
<path d="M0 0 C3.24861379 1.21726101 6.45251972 2.50217499 9.6484375 3.8515625 C11.23785156 4.52058594 11.23785156 4.52058594 12.859375 5.203125 C13.65601563 5.54085937 14.45265625 5.87859375 15.2734375 6.2265625 C14.9434375 6.8865625 14.6134375 7.5465625 14.2734375 8.2265625 C8.35900743 10.11357908 2.88993445 10.56371931 -3.2890625 10.5390625 C-4.10052734 10.55517578 -4.91199219 10.57128906 -5.74804688 10.58789062 C-11.16251555 10.59226066 -14.89615283 9.68391185 -19.7265625 7.2265625 C-17.14535275 4.64535275 -14.6438253 3.93041542 -11.2265625 2.6640625 C-2.31708247 -0.65728127 -2.31708247 -0.65728127 0 0 Z " fill="#CC8F53" transform="translate(50.7265625,143.7734375)"/>
<path d="M0 0 C0 0.99 0 1.98 0 3 C8.67789216 5.25824035 17.04211664 6.57483041 26 7 C26 7.33 26 7.66 26 8 C24.02 8.33 22.04 8.66 20 9 C20.75925781 8.97679687 21.51851562 8.95359375 22.30078125 8.9296875 C23.29464844 8.91164062 24.28851563 8.89359375 25.3125 8.875 C26.29863281 8.85179687 27.28476562 8.82859375 28.30078125 8.8046875 C31 9 31 9 34 11 C22.19563967 14.0311823 6.88394804 13.47950488 -4 8 C-7.25 6 -7.25 6 -9 4 C-9 2.68 -9 1.36 -9 0 C-5.93109813 -1.53445094 -3.29905734 -0.54984289 0 0 Z " fill="#4F2116" transform="translate(30,148)"/>
<path d="M0 0 C0 1.32 0 2.64 0 4 C-5.20161847 5.99053719 -10.40525278 7.97550634 -15.61328125 9.94921875 C-18.64120692 11.09730941 -21.65826919 12.26148499 -24.66796875 13.45703125 C-25.60253906 13.82183594 -26.53710938 14.18664062 -27.5 14.5625 C-28.2734375 14.87316406 -29.046875 15.18382813 -29.84375 15.50390625 C-32.49973549 16.11497538 -34.39050192 15.6937222 -37 15 C-36.90307617 13.17480469 -36.90307617 13.17480469 -36 11 C-33.2277832 9.53613281 -33.2277832 9.53613281 -29.55078125 8.203125 C-28.57542671 7.84537994 -28.57542671 7.84537994 -27.58036804 7.48040771 C-26.20193125 6.97879043 -24.82061553 6.48502539 -23.43676758 5.99853516 C-21.33118122 5.25658276 -19.23687094 4.48802241 -17.14257812 3.71484375 C-5.94130743 -0.3292212 -5.94130743 -0.3292212 0 0 Z " fill="#B3703A" transform="translate(78,80)"/>
<path d="M0 0 C0 1.32 0 2.64 0 4 C-0.93682617 4.33994995 -0.93682617 4.33994995 -1.89257812 4.68676758 C-4.7618772 5.72824244 -7.63093995 6.77036686 -10.5 7.8125 C-11.48226562 8.16892578 -12.46453125 8.52535156 -13.4765625 8.89257812 C-14.44335938 9.24384766 -15.41015625 9.59511719 -16.40625 9.95703125 C-17.35886719 10.3020166 -18.31148437 10.64700195 -19.29296875 11.00244141 C-21.69951098 11.88926784 -24.08312797 12.82063733 -26.46875 13.76171875 C-30 15 -30 15 -34 15 C-34 13.35 -34 11.7 -34 10 C-29.40951099 8.26515286 -24.81472088 6.54249812 -20.21582031 4.83007812 C-18.12697172 4.04756543 -16.04373136 3.25158089 -13.9609375 2.453125 C-12.73632812 1.99421875 -11.51171875 1.5353125 -10.25 1.0625 C-9.14140625 0.64097656 -8.0328125 0.21945313 -6.890625 -0.21484375 C-4.0170952 -0.99535657 -2.72858532 -1.06626757 0 0 Z " fill="#AB6A36" transform="translate(74,95)"/>
<path d="M0 0 C0 1.65 0 3.3 0 5 C-6.36665962 7.46870475 -12.8233921 9.61071627 -19.31640625 11.71875 C-21.90891474 12.62049208 -24.32102328 13.55897949 -26.8125 14.67578125 C-30 16 -30 16 -32.4375 15.6875 C-32.953125 15.460625 -33.46875 15.23375 -34 15 C-33.80957031 13.14306641 -33.80957031 13.14306641 -33 11 C-30.85449219 9.75146484 -30.85449219 9.75146484 -28.046875 8.7109375 C-27.03496094 8.32679687 -26.02304687 7.94265625 -24.98046875 7.546875 C-23.91441406 7.16015625 -22.84835938 6.7734375 -21.75 6.375 C-20.69941406 5.98054688 -19.64882813 5.58609375 -18.56640625 5.1796875 C-16.6013315 4.44247314 -14.63378534 3.71179016 -12.66308594 2.98974609 C-10.8721308 2.32413075 -9.09493817 1.62037776 -7.33300781 0.88134766 C-4.74151307 -0.09764941 -2.74714988 -0.15697999 0 0 Z " fill="#B06E38" transform="translate(80,65)"/>
<path d="M0 0 C0 0.99 0 1.98 0 3 C-3.63 3.66 -7.26 4.32 -11 5 C-11 5.66 -11 6.32 -11 7 C-6.545 7.99 -6.545 7.99 -2 9 C-2 9.66 -2 10.32 -2 11 C-8.268081 14.97782064 -8.268081 14.97782064 -11.0625 15.0625 C-14.05913459 13.41918426 -16.44336791 11.26610571 -19 9 C-18.61898591 6.5573343 -18.2819555 5.27974697 -16.50390625 3.515625 C-10.93841248 -0.11258422 -6.56414042 -0.60529983 0 0 Z " fill="#A05B43" transform="translate(59,39)"/>
<path d="M0 0 C-0.2019043 1.86401367 -0.2019043 1.86401367 -1 4 C-3.06958008 5.2043457 -3.06958008 5.2043457 -5.76953125 6.17578125 C-6.74083984 6.52833984 -7.71214844 6.88089844 -8.71289062 7.24414062 C-9.73576172 7.59669922 -10.75863281 7.94925781 -11.8125 8.3125 C-12.82376953 8.68439453 -13.83503906 9.05628906 -14.87695312 9.43945312 C-23.13454381 12.37027017 -23.13454381 12.37027017 -27 11 C-26.78222656 9.13598633 -26.78222656 9.13598633 -26 7 C-24.03808594 5.7956543 -24.03808594 5.7956543 -21.484375 4.82421875 C-20.56269531 4.47166016 -19.64101563 4.11910156 -18.69140625 3.75585938 C-17.72074219 3.40330078 -16.75007813 3.05074219 -15.75 2.6875 C-14.79480469 2.31560547 -13.83960938 1.94371094 -12.85546875 1.56054688 C-5.0190894 -1.36583401 -5.0190894 -1.36583401 0 0 Z " fill="#B27039" transform="translate(71,110)"/>
<path d="M0 0 C3.1875 0.3125 3.1875 0.3125 7 1 C8.299375 1.185625 9.59875 1.37125 10.9375 1.5625 C11.948125 1.706875 12.95875 1.85125 14 2 C14 2.33 14 2.66 14 3 C9.71 3 5.42 3 1 3 C0.01 5.31 -0.98 7.62 -2 10 C-1.47921875 9.83628906 -0.9584375 9.67257813 -0.421875 9.50390625 C2.6756875 8.85941341 5.58841094 8.90588411 8.75 8.9375 C10.50570312 8.95103516 10.50570312 8.95103516 12.296875 8.96484375 C13.18890625 8.97644531 14.0809375 8.98804688 15 9 C15 9.33 15 9.66 15 10 C13.60587891 10.14695312 13.60587891 10.14695312 12.18359375 10.296875 C0.96886335 11.40196042 0.96886335 11.40196042 -7.640625 18.0390625 C-8.67747628 19.4634747 -9.68083256 20.9131917 -10.640625 22.390625 C-11.08921875 22.92171875 -11.5378125 23.4528125 -12 24 C-12.99 24 -13.98 24 -15 24 C-16.38125018 21.23749964 -16.19079306 19.05268901 -16 16 C-13.70650047 13.70650047 -12.65074025 13.62208528 -9.5625 12.9375 C-6.58576961 12.02158296 -5.35236356 11.63054532 -3.8125 8.875 C-3.03505801 6.46432182 -3.03505801 6.46432182 -2.53515625 4.05859375 C-2 2 -2 2 0 0 Z " fill="#8EA351" transform="translate(22,12)"/>
<path d="M0 0 C-0.99 0.66 -1.98 1.32 -3 2 C-2.34 2.66 -1.68 3.32 -1 4 C-5.29 4 -9.58 4 -14 4 C-14.680625 6.6915625 -14.680625 6.6915625 -15.375 9.4375 C-16.1484375 12.49609375 -16.1484375 12.49609375 -17 15 C-17.66 15.33 -18.32 15.66 -19 16 C-20.5 14.6875 -20.5 14.6875 -22 13 C-22 8.06593208 -21.90233838 5.06855861 -18.625 1.1875 C-12.90646664 -3.57794446 -6.59227467 -2.57259499 0 0 Z " fill="#52281D" transform="translate(35,8)"/>
<path d="M0 0 C1.32 0 2.64 0 4 0 C4.33 0.99 4.66 1.98 5 3 C5.66 2.01 6.32 1.02 7 0 C7.06772608 3.86038683 7.08756263 7.43084288 6.5 11.25 C5.92190264 15.58573019 5.97176212 19.76605205 6.0625 24.1328125 C6.00251205 26.88475977 5.62688989 29.3259228 5 32 C4.67 31.01 4.34 30.02 4 29 C3.01 29 2.02 29 1 29 C0.01783753 22.76194105 0.01221189 17.55933843 1.453125 11.40625 C2.23672611 7.95840514 2.60978831 4.51190521 3 1 C2.01 0.67 1.02 0.34 0 0 Z " fill="#612D1D" transform="translate(87,42)"/>
<path d="M0 0 C0.99 0.33 1.98 0.66 3 1 C2.01 1.495 2.01 1.495 1 2 C0.53348793 4.12576782 0.53348793 4.12576782 0.375 6.5625 C0.30023438 7.38878906 0.22546875 8.21507812 0.1484375 9.06640625 C0.09945313 9.70449219 0.05046875 10.34257813 0 11 C0.66 11.33 1.32 11.66 2 12 C0.35 12 -1.3 12 -3 12 C-3 12.66 -3 13.32 -3 14 C-4.98 14 -6.96 14 -9 14 C-8.67 16.31 -8.34 18.62 -8 21 C-8.66 20.34 -9.32 19.68 -10 19 C-10.99 19 -11.98 19 -13 19 C-14.4783226 16.04335481 -14.06032783 13.25770263 -14 10 C-12.35 9.34 -10.7 8.68 -9 8 C-9 8.66 -9 9.32 -9 10 C-7.68 9.67 -6.36 9.34 -5 9 C-4.9175 8.443125 -4.835 7.88625 -4.75 7.3125 C-3.77389987 4.30285794 -2.04811186 2.37845248 0 0 Z " fill="#4C1D12" transform="translate(15,28)"/>
<path d="M0 0 C3.68709149 3.35935002 5.13199716 6.93617453 6.8125 11.5625 C5.8225 12.0575 5.8225 12.0575 4.8125 12.5625 C4.4825 11.5725 4.1525 10.5825 3.8125 9.5625 C3.4825 10.2225 3.1525 10.8825 2.8125 11.5625 C2.1525 11.5625 1.4925 11.5625 0.8125 11.5625 C0.4825 9.5825 0.1525 7.6025 -0.1875 5.5625 C-1.18330078 5.57990234 -1.18330078 5.57990234 -2.19921875 5.59765625 C-10.96957381 5.68728032 -10.96957381 5.68728032 -15.1875 4.5625 C-14.8575 3.9025 -14.5275 3.2425 -14.1875 2.5625 C-15.5075 2.2325 -16.8275 1.9025 -18.1875 1.5625 C-17.8575 0.9025 -17.5275 0.2425 -17.1875 -0.4375 C-11.24440662 -1.62611868 -5.631331 -2.53961986 0 0 Z " fill="#5C372B" transform="translate(79.1875,7.4375)"/>
<path d="M0 0 C2 2 2 2 2 5 C-0.41605225 5.81436587 -2.83279998 6.62655397 -5.25 7.4375 C-5.93191406 7.66759766 -6.61382812 7.89769531 -7.31640625 8.13476562 C-10.52066613 9.20803714 -13.70046619 10.26015608 -17 11 C-16.9158797 8.13990965 -16.43181261 6.45351173 -14.4453125 4.3671875 C-9.21959839 -0.12128894 -7.057516 -1.38629778 0 0 Z " fill="#DEB35D" transform="translate(80,34)"/>
<path d="M0 0 C0.33 0 0.66 0 1 0 C1.23890685 6.68939174 0.59107609 12.25629155 -2.0625 18.5 C-3.36585735 21.97561959 -3.6247173 25.30972007 -4 29 C-4.33 29 -4.66 29 -5 29 C-5.12375 27.865625 -5.2475 26.73125 -5.375 25.5625 C-5.58125 24.386875 -5.7875 23.21125 -6 22 C-6.66 21.67 -7.32 21.34 -8 21 C-7.34 15.72 -6.68 10.44 -6 5 C-4.68 5 -3.36 5 -2 5 C-1.34 3.35 -0.68 1.7 0 0 Z " fill="#562619" transform="translate(82,115)"/>
<path d="M0 0 C3.62142448 1.45697542 6.80308304 3.62364433 10.01953125 5.8125 C9.02953125 6.3075 9.02953125 6.3075 8.01953125 6.8125 C8.01953125 7.4725 8.01953125 8.1325 8.01953125 8.8125 C6.78203125 8.60625 5.54453125 8.4 4.26953125 8.1875 C0.76240224 7.7305853 -0.88598678 8.04422459 -3.98046875 9.8125 C-6.23046875 9.4375 -6.23046875 9.4375 -7.98046875 8.8125 C-6.66046875 8.1525 -5.34046875 7.4925 -3.98046875 6.8125 C-4.64046875 6.4825 -5.30046875 6.1525 -5.98046875 5.8125 C-6.60546875 2.75 -6.60546875 2.75 -6.98046875 -0.1875 C-4.33100491 -1.51223192 -2.74582971 -0.83241995 0 0 Z " fill="#512013" transform="translate(47.98046875,136.1875)"/>
<path d="M0 0 C-2.95900962 4.2271566 -5.80722373 6.06896989 -10.6875 7.625 C-11.49574219 7.88539063 -12.30398437 8.14578125 -13.13671875 8.4140625 C-14.05904297 8.70410156 -14.05904297 8.70410156 -15 9 C-15 8.01 -15 7.02 -15 6 C-17.97 5.505 -17.97 5.505 -21 5 C-20.67 3.68 -20.34 2.36 -20 1 C-20 1.99 -20 2.98 -20 4 C-18.97519531 3.62746094 -17.95039063 3.25492188 -16.89453125 2.87109375 C-15.53407887 2.39258981 -14.17338904 1.91476062 -12.8125 1.4375 C-12.13896484 1.19064453 -11.46542969 0.94378906 -10.77148438 0.68945312 C-6.7993992 -0.68624467 -4.04514201 -1.31172566 0 0 Z " fill="#682E19" transform="translate(45,142)"/>
<path d="M0 0 C0.33 0.33 0.66 0.66 1 1 C0.91062197 2.52519276 0.75462854 4.04681929 0.5625 5.5625 C0.46066406 6.38878906 0.35882813 7.21507812 0.25390625 8.06640625 C0.17011719 8.70449219 0.08632812 9.34257813 0 10 C-1.32 10 -2.64 10 -4 10 C-4.4125 9.05125 -4.825 8.1025 -5.25 7.125 C-7.06528122 3.8834264 -7.57247816 3.07722115 -11 2 C-12.99110401 1.61709538 -14.99100513 1.27395385 -17 1 C-17 0.67 -17 0.34 -17 0 C-15.10507254 -0.19644384 -13.20899097 -0.38177288 -11.3125 -0.5625 C-9.72888672 -0.71912109 -9.72888672 -0.71912109 -8.11328125 -0.87890625 C-5.17062643 -0.99336334 -2.83147026 -0.77036398 0 0 Z " fill="#7E9648" transform="translate(91,27)"/>
<path d="M0 0 C0.66 0 1.32 0 2 0 C2.33 1.98 2.66 3.96 3 6 C3.66 6 4.32 6 5 6 C5.33 4.68 5.66 3.36 6 2 C6.33 3.65 6.66 5.3 7 7 C8.3921875 7.061875 8.3921875 7.061875 9.8125 7.125 C13 8 13 8 14.8125 10.75 C15.82850129 13.5306351 16.57030036 16.07804245 17 19 C16.505 18.21625 16.01 17.4325 15.5 16.625 C12.92430416 13.92051937 12.36481198 13.62548712 8.9375 12.9375 C5.19164171 12.16608948 5.19164171 12.16608948 3.125 10.375 C1.52527686 6.9978067 0.79142287 3.65272095 0 0 Z " fill="#4F2614" transform="translate(77,13)"/>
<path d="M0 0 C0.33 0.66 0.66 1.32 1 2 C1.99 2 2.98 2 4 2 C4.33 1.34 4.66 0.68 5 0 C5.66 0.33 6.32 0.66 7 1 C7 3.97 7 6.94 7 10 C6.67 9.01 6.34 8.02 6 7 C5.34 7 4.68 7 4 7 C4.15597656 7.95261719 4.31195312 8.90523437 4.47265625 9.88671875 C4.66730469 11.14097656 4.86195313 12.39523438 5.0625 13.6875 C5.25972656 14.92886719 5.45695313 16.17023437 5.66015625 17.44921875 C5.96752656 20.66070857 5.84273231 22.91783919 5 26 C4.67 26 4.34 26 4 26 C3.32754163 22.41772843 2.66304461 18.8340249 2 15.25 C1.80921875 14.23421875 1.6184375 13.2184375 1.421875 12.171875 C1.15117188 10.70234375 1.15117188 10.70234375 0.875 9.203125 C0.70742188 8.30239258 0.53984375 7.40166016 0.3671875 6.47363281 C0 4 0 4 0 0 Z " fill="#5A2F23" transform="translate(1,45)"/>
<path d="M0 0 C0.53625 0.680625 1.0725 1.36125 1.625 2.0625 C4.9403846 6.16310726 8.26892981 10.26892981 12 14 C7.01075269 15.29032258 7.01075269 15.29032258 4 15 C1.09725829 13.18578643 -0.63842174 11.13855328 -2 8 C-1.8929668 4.91744391 -1.13236635 2.93385826 0 0 Z " fill="#652B17" transform="translate(36,122)"/>
<path d="M0 0 C0.33 0 0.66 0 1 0 C1.71372592 12.72811225 -0.43723657 24.56616706 -3 37 C-3.33 37 -3.66 37 -4 37 C-5.68401921 29.09418526 -4.03418838 21.83819517 -2.5625 14 C-2.31597945 12.63951778 -2.07052748 11.27884148 -1.82617188 9.91796875 C-1.22790808 6.60992188 -0.61890779 3.30423571 0 0 Z " fill="#59372E" transform="translate(97,26)"/>
<path d="M0 0 C0.3641989 2.5614319 0.71662798 5.12358419 1.0625 7.6875 C1.2181543 8.7693457 1.2181543 8.7693457 1.37695312 9.87304688 C1.9023633 13.84079957 2.10596507 17.07885111 1 21 C0.34 21 -0.32 21 -1 21 C-4.44419134 7.3667426 -4.44419134 7.3667426 -4 1 C-1 0 -1 0 0 0 Z " fill="#612B1B" transform="translate(9,51)"/>
<path d="M0 0 C0 3.31766523 -0.45250948 4.0703452 -2.3125 6.6875 C-2.74175781 7.31011719 -3.17101562 7.93273438 -3.61328125 8.57421875 C-4.07089844 9.04472656 -4.52851563 9.51523437 -5 10 C-5.99 10 -6.98 10 -8 10 C-9.38125018 7.23749964 -9.19079306 5.05268901 -9 2 C-6.32750728 -0.67249272 -3.5165484 -1.7582742 0 0 Z " fill="#7A8F49" transform="translate(15,26)"/>
<path d="M0 0 C0.33 0.66 0.66 1.32 1 2 C1.77190674 1.9592334 2.54381348 1.9184668 3.33911133 1.87646484 C6.82978027 1.69829172 10.32101959 1.53645574 13.8125 1.375 C15.02744141 1.31054688 16.24238281 1.24609375 17.49414062 1.1796875 C18.65751953 1.128125 19.82089844 1.0765625 21.01953125 1.0234375 C22.09307861 0.97106934 23.16662598 0.91870117 24.27270508 0.86474609 C27 1 27 1 30 3 C24.83063817 4.15136308 19.9001306 4.18383671 14.625 4.1875 C13.24441406 4.20586914 13.24441406 4.20586914 11.8359375 4.22460938 C6.48596454 4.2360736 2.05854092 3.76282486 -3 2 C-2.01 1.34 -1.02 0.68 0 0 Z " fill="#522F26" transform="translate(34,156)"/>
<path d="M0 0 C0 0.33 0 0.66 0 1 C-1.2375 1.28875 -2.475 1.5775 -3.75 1.875 C-6.72448742 2.61334794 -9.333856 3.44474933 -12 5 C-12.20970559 9.14093698 -12.20970559 9.14093698 -11 13 C-11.27942455 14.67654729 -11.60828247 16.34608154 -12 18 C-13.32 17.34 -14.64 16.68 -16 16 C-15.7215625 15.1028125 -15.7215625 15.1028125 -15.4375 14.1875 C-14.77906313 11.83591238 -14.77906313 11.83591238 -16 9 C-14.66648974 5.23479455 -13.57228721 3.39019583 -10.25 1.125 C-6.64084775 -0.12432193 -3.79285735 -0.22757144 0 0 Z " fill="#5E3426" transform="translate(29,6)"/>
<path d="M0 0 C1.07138687 3.29760194 0.90279404 5.60429626 0.22265625 8.984375 C-0.05288086 10.38623047 -0.05288086 10.38623047 -0.33398438 11.81640625 C-0.53314453 12.78449219 -0.73230469 13.75257812 -0.9375 14.75 C-1.13279297 15.73355469 -1.32808594 16.71710938 -1.52929688 17.73046875 C-2.01190558 20.15528321 -2.50238859 22.57822773 -3 25 C-3.66 25 -4.32 25 -5 25 C-4.01724138 7.05172414 -4.01724138 7.05172414 -2 1 C-1.34 0.67 -0.68 0.34 0 0 Z " fill="#532F26" transform="translate(88,87)"/>
<path d="M0 0 C2.23461533 2.23461533 2.36415473 2.94566925 2.8515625 5.95703125 C2.98046875 6.74013672 3.109375 7.52324219 3.2421875 8.33007812 C3.36851563 9.14927734 3.49484375 9.96847656 3.625 10.8125 C3.7590625 11.62009766 3.893125 12.42769531 4.03125 13.25976562 C4.66500621 17.20780814 5.17907297 20.98713749 5 25 C-0.75935587 18.21500542 -0.33169745 8.49514017 0 0 Z " fill="#462019" transform="translate(6,66)"/>
<path d="M0 0 C0.89203125 0.01804688 1.7840625 0.03609375 2.703125 0.0546875 C3.71632813 0.08949219 3.71632813 0.08949219 4.75 0.125 C4.75 1.115 4.75 2.105 4.75 3.125 C1.27888059 4.2820398 -1.47631654 4.15896489 -5.09375 4.0625 C-7.43574877 4.02657821 -7.43574877 4.02657821 -10.25 5.125 C-9.25 2.125 -9.25 2.125 -7.515625 0.9453125 C-4.86680319 -0.01374367 -2.80934533 -0.07393014 0 0 Z " fill="#AD6448" transform="translate(54.25,38.875)"/>
<path d="M0 0 C0 0.99 0 1.98 0 3 C-1.7902061 3.67057887 -3.58221489 4.3363469 -5.375 5 C-6.37273437 5.37125 -7.37046875 5.7425 -8.3984375 6.125 C-11 7 -11 7 -13 7 C-10 1 -10 1 -8.3125 0.375 C-5.51555886 -0.07855802 -2.82858003 -0.06428591 0 0 Z " fill="#F2C753" transform="translate(79,35)"/>
<path d="M0 0 C0.33 0 0.66 0 1 0 C2.51708428 9.41002278 2.51708428 9.41002278 0 14 C-0.66 14 -1.32 14 -2 14 C-2.33 14.99 -2.66 15.98 -3 17 C-3.33 14.69 -3.66 12.38 -4 10 C-3.67 10 -3.34 10 -3 10 C-2.690625 8.72125 -2.38125 7.4425 -2.0625 6.125 C-1.52394756 3.89898325 -1.0263 2.05260001 0 0 Z " fill="#673322" transform="translate(23,134)"/>
<path d="M0 0 C1.125 3.75 1.125 3.75 0 6 C0.66 6.33 1.32 6.66 2 7 C1.67 7.66 1.34 8.32 1 9 C-0.43655854 9.08131463 -1.8744483 9.13933559 -3.3125 9.1875 C-4.51326172 9.23970703 -4.51326172 9.23970703 -5.73828125 9.29296875 C-8.47851584 8.93801608 -9.29171079 8.10633718 -11 6 C-10.28972656 5.73445313 -9.57945313 5.46890625 -8.84765625 5.1953125 C-7.92855469 4.84210937 -7.00945313 4.48890625 -6.0625 4.125 C-4.68771484 3.60292969 -4.68771484 3.60292969 -3.28515625 3.0703125 C-0.85058944 2.2180914 -0.85058944 2.2180914 0 0 Z M-8 6 C-7.67 6.66 -7.34 7.32 -7 8 C-6.67 7.34 -6.34 6.68 -6 6 C-6.66 6 -7.32 6 -8 6 Z " fill="#5B3429" transform="translate(14,16)"/>
<path d="M0 0 C8.4690583 -0.92017937 8.4690583 -0.92017937 12.22265625 1.3359375 C13.91890579 2.81972046 15.49407433 4.32453303 17 6 C16.01 6.33 15.02 6.66 14 7 C12.5 5.625 12.5 5.625 11 4 C11 3.34 11 2.68 11 2 C10.01 2.66 9.02 3.32 8 4 C5.66800612 4.07905064 3.33167378 4.08798769 1 4 C1.33 3.34 1.66 2.68 2 2 C1.34 1.34 0.68 0.68 0 0 Z " fill="#552A21" transform="translate(44,0)"/>
<path d="M0 0 C-1.88807863 2.69725519 -3.19824644 4.13216429 -6 6 C-8.32387947 6.39387788 -10.65793749 6.73486085 -13 7 C-12.0409375 6.6596875 -12.0409375 6.6596875 -11.0625 6.3125 C-8.72806339 5.14749104 -8.72806339 5.14749104 -8.25 2.375 C-8.1675 1.59125 -8.085 0.8075 -8 0 C-4.71023192 -1.09658936 -3.28696233 -0.79953138 0 0 Z " fill="#5F2816" transform="translate(45,142)"/>
<path d="M0 0 C1.4049404 3.89060419 0.69513239 7.23092362 0.0625 11.25 C-0.13214844 12.51328125 -0.32679687 13.7765625 -0.52734375 15.078125 C-0.68332031 16.04234375 -0.83929687 17.0065625 -1 18 C-1.33 17.01 -1.66 16.02 -2 15 C-2.66 15 -3.32 15 -4 15 C-4 12.36 -4 9.72 -4 7 C-3.34 6.67 -2.68 6.34 -2 6 C-1.27306096 4.02111039 -0.60183749 2.02045442 0 0 Z " fill="#501E11" transform="translate(32,87)"/>
<path d="M0 0 C0.99 0.33 1.98 0.66 3 1 C2.21625 1.763125 1.4325 2.52625 0.625 3.3125 C-2.07257717 5.90891805 -2.07257717 5.90891805 -4 9 C-4.94875 8.690625 -5.8975 8.38125 -6.875 8.0625 C-11.50938425 6.72071729 -16.20552041 6.36657993 -21 6 C-21 5.67 -21 5.34 -21 5 C-19.22882812 5.08701172 -19.22882812 5.08701172 -17.421875 5.17578125 C-15.86462289 5.22268643 -14.30732799 5.26818579 -12.75 5.3125 C-11.97269531 5.35439453 -11.19539063 5.39628906 -10.39453125 5.43945312 C-8.15648863 5.48727455 -6.19040326 5.46976923 -4 5 C-1.41432117 2.65870146 -1.41432117 2.65870146 0 0 Z " fill="#818D47" transform="translate(48,17)"/>
<path d="M0 0 C2 2 2 2 2.125 5.625 C2.08375 6.73875 2.0425 7.8525 2 9 C1.01 8.67 0.02 8.34 -1 8 C-1 9.98 -1 11.96 -1 14 C-3.33909307 10.4913604 -3.41291057 9.12910567 -3 5 C-1.5 2.125 -1.5 2.125 0 0 Z " fill="#4B1D12" transform="translate(19,116)"/>
<path d="M0 0 C0.70189453 0.05671875 1.40378906 0.1134375 2.12695312 0.171875 C3.85630285 0.31304641 5.58454088 0.46771959 7.3125 0.625 C7.3125 0.955 7.3125 1.285 7.3125 1.625 C2.16026142 3.07124241 -2.28209582 4.04895327 -7.6875 3.625 C-8.6775 2.965 -9.6675 2.305 -10.6875 1.625 C-6.92241505 -0.88505664 -4.29288391 -0.4008295 0 0 Z " fill="#5C2415" transform="translate(48.6875,154.375)"/>
<path d="M0 0 C1.00109515 3.31070838 1.10356134 6.30084769 1.0625 9.75 C1.05347656 10.73484375 1.04445312 11.7196875 1.03515625 12.734375 C1.02355469 13.48203125 1.01195312 14.2296875 1 15 C0.34 15 -0.32 15 -1 15 C-1 16.65 -1 18.3 -1 20 C-1.33 20 -1.66 20 -2 20 C-2.05392397 17.22890693 -2.09363455 14.45886182 -2.125 11.6875 C-2.14175781 10.90181641 -2.15851563 10.11613281 -2.17578125 9.30664062 C-2.18544922 8.1706543 -2.18544922 8.1706543 -2.1953125 7.01171875 C-2.20578613 6.31522217 -2.21625977 5.61872559 -2.22705078 4.90112305 C-2 3 -2 3 0 0 Z " fill="#4F2E26" transform="translate(2,23)"/>
<path d="M0 0 C0 0.66 0 1.32 0 2 C-0.66 2.66 -1.32 3.32 -2 4 C-2.59834554 5.52056618 -3.13506656 7.06612088 -3.625 8.625 C-4.01558594 9.85089844 -4.01558594 9.85089844 -4.4140625 11.1015625 C-4.60742188 11.72804688 -4.80078125 12.35453125 -5 13 C-7.28456082 8.99540304 -7.08532015 6.50825292 -6 2 C-3 0 -3 0 0 0 Z " fill="#5E2D1A" transform="translate(23,9)"/>
<path d="M0 0 C3.85326762 0.06226106 6.27262857 0.63352207 9.25 3.25 C10.0625 5.9375 10.0625 5.9375 10.25 8.25 C9.59 8.25 8.93 8.25 8.25 8.25 C7.92 9.24 7.59 10.23 7.25 11.25 C6.59 9.6 5.93 7.95 5.25 6.25 C5.91 6.25 6.57 6.25 7.25 6.25 C7.25 5.26 7.25 4.27 7.25 3.25 C6.63511719 3.18941406 6.02023438 3.12882812 5.38671875 3.06640625 C4.57847656 2.98261719 3.77023438 2.89882813 2.9375 2.8125 C2.13699219 2.73128906 1.33648437 2.65007813 0.51171875 2.56640625 C-1.75 2.25 -1.75 2.25 -4.75 1.25 C-3.75 0.25 -3.75 0.25 0 0 Z " fill="#47210D" transform="translate(75.75,27.75)"/>
<path d="M0 0 C0 0.33 0 0.66 0 1 C-1.65 1.33 -3.3 1.66 -5 2 C-5.33 3.32 -5.66 4.64 -6 6 C-6.495 5.319375 -6.495 5.319375 -7 4.625 C-10.0377843 2.15680026 -13.19187061 1.81156856 -17 1 C-17 0.67 -17 0.34 -17 0 C-15.10507254 -0.19644384 -13.20899097 -0.38177288 -11.3125 -0.5625 C-9.72888672 -0.71912109 -9.72888672 -0.71912109 -8.11328125 -0.87890625 C-5.18573914 -0.99277552 -2.82868856 -0.70848415 0 0 Z " fill="#798744" transform="translate(91,27)"/>
<path d="M0 0 C0.99 0.495 0.99 0.495 2 1 C1.01 1.495 1.01 1.495 0 2 C0 1.34 0 0.68 0 0 Z M-3 1 C-1.4221875 1.2475 -1.4221875 1.2475 0.1875 1.5 C3.20468796 1.89569678 5.97093972 2.09178971 9 2 C7 4 7 4 4 4.8125 C0.79029933 5.7054215 0.79029933 5.7054215 -0.375 8.625 C-0.58125 9.40875 -0.7875 10.1925 -1 11 C-1.33 11 -1.66 11 -2 11 C-1.67 8.36 -1.34 5.72 -1 3 C-1.66 3 -2.32 3 -3 3 C-3 2.34 -3 1.68 -3 1 Z " fill="#442010" transform="translate(6,22)"/>
<path d="M0 0 C0.66 0 1.32 0 2 0 C2.33 0.66 2.66 1.32 3 2 C3.66 1.34 4.32 0.68 5 0 C5.99 2.97 6.98 5.94 8 9 C7.34 9 6.68 9 6 9 C5.67 8.01 5.34 7.02 5 6 C4.67 6.66 4.34 7.32 4 8 C3.34 8 2.68 8 2 8 C1.34 5.36 0.68 2.72 0 0 Z " fill="#663A2E" transform="translate(78,11)"/>
<path d="M0 0 C-1.3125 2.9375 -1.3125 2.9375 -3 6 C-3.99 6.33 -4.98 6.66 -6 7 C-6.66 5.02 -7.32 3.04 -8 1 C-3.375 -1.125 -3.375 -1.125 0 0 Z " fill="#672F17" transform="translate(75,42)"/>
<path d="M0 0 C0.66 0.66 1.32 1.32 2 2 C0.74057614 3.19959375 -0.53295286 4.38439443 -1.8125 5.5625 C-2.87404297 6.55443359 -2.87404297 6.55443359 -3.95703125 7.56640625 C-4.63121094 8.03949219 -5.30539063 8.51257812 -6 9 C-6.99 8.67 -7.98 8.34 -9 8 C-6.03 5.36 -3.06 2.72 0 0 Z " fill="#C78B52" transform="translate(57,55)"/>
<path d="M0 0 C2.76818166 2.3279587 3.46055679 3.92091654 3.8125 7.5 C3.90144531 8.2734375 3.99039062 9.046875 4.08203125 9.84375 C4 12 4 12 2 15 C1.66223316 13.2508503 1.32996329 11.50063855 1 9.75 C0.814375 8.77546875 0.62875 7.8009375 0.4375 6.796875 C0 4 0 4 0 0 Z " fill="#59382F" transform="translate(9,89)"/>
<path d="M0 0 C-2.1875 2.0625 -2.1875 2.0625 -5 4 C-7.8125 3.75 -7.8125 3.75 -10 3 C-10 2.34 -10 1.68 -10 1 C-8.71073008 0.63720544 -7.41846728 0.28503302 -6.125 -0.0625 C-5.40570313 -0.25972656 -4.68640625 -0.45695312 -3.9453125 -0.66015625 C-2 -1 -2 -1 0 0 Z " fill="#672918" transform="translate(58,43)"/>
<path d="M0 0 C0.99 0.33 1.98 0.66 3 1 C2.21625 1.7425 1.4325 2.485 0.625 3.25 C-1.62142775 5.6034005 -2.63372768 7.16986448 -4 10 C-4.99 10.66 -5.98 11.32 -7 12 C-7 11.01 -7 10.02 -7 9 C-6.34 9 -5.68 9 -5 9 C-4.9175 8.443125 -4.835 7.88625 -4.75 7.3125 C-3.77389987 4.30285794 -2.04811186 2.37845248 0 0 Z " fill="#42230F" transform="translate(15,28)"/>
<path d="M0 0 C0 0.99 0 1.98 0 3 C-2.31 3.33 -4.62 3.66 -7 4 C-7.33 3.01 -7.66 2.02 -8 1 C-5.29120665 -0.35439668 -2.99066732 -0.06501451 0 0 Z " fill="#F1C345" transform="translate(79,35)"/>
<path d="M0 0 C-1.32 0.33 -2.64 0.66 -4 1 C-3.67 1.99 -3.34 2.98 -3 4 C-5.97 3.67 -8.94 3.34 -12 3 C-8.40198016 -0.59801984 -4.84291279 -0.09137571 0 0 Z " fill="#798345" transform="translate(66,14)"/>
<path d="M0 0 C0 0.33 0 0.66 0 1 C-2.01822917 1.45572917 -4.03645833 1.91145833 -6.0546875 2.3671875 C-8.20719964 2.90474428 -8.20719964 2.90474428 -10 5 C-12.125 4.625 -12.125 4.625 -14 4 C-9.28840397 0.26321694 -5.98096662 -0.11284843 0 0 Z " fill="#785D53" transform="translate(29,6)"/>
<path d="M0 0 C2.70931419 0.15481795 4.46584039 0.48172081 6.4453125 2.40234375 C7.67679642 3.89771708 8.8429837 5.4462924 10 7 C8.35 6.67 6.7 6.34 5 6 C4.67 4.68 4.34 3.36 4 2 C2.68 2 1.36 2 0 2 C0 1.34 0 0.68 0 0 Z " fill="#5E4038" transform="translate(51,0)"/>
<path d="M0 0 C0 3 0 3 -2 6 C-1.34 6.33 -0.68 6.66 0 7 C-1.65 7.66 -3.3 8.32 -5 9 C-4.5206753 4.68607774 -3.2542015 2.83430453 0 0 Z " fill="#E8BB65" transform="translate(68,36)"/>
<path d="M0 0 C2.34023315 0.28082798 4.67305036 0.62468554 7 1 C8.299375 1.185625 9.59875 1.37125 10.9375 1.5625 C11.948125 1.706875 12.95875 1.85125 14 2 C14 2.33 14 2.66 14 3 C12.25034642 3.05429959 10.50020213 3.09292823 8.75 3.125 C7.77546875 3.14820313 6.8009375 3.17140625 5.796875 3.1953125 C2.9803502 2.99862781 1.39050964 2.44568916 -1 1 C-0.67 0.67 -0.34 0.34 0 0 Z " fill="#85924C" transform="translate(22,12)"/>
<path d="M0 0 C2.64 0 5.28 0 8 0 C7.34 0.66 6.68 1.32 6 2 C6.33 2.66 6.66 3.32 7 4 C5.02 4 3.04 4 1 4 C0.67 2.68 0.34 1.36 0 0 Z " fill="#4D2113" transform="translate(69,8)"/>
<path d="M0 0 C0.66 0 1.32 0 2 0 C2.84098656 4.01804691 3.05404945 7.01803543 2 11 C1.67 11 1.34 11 1 11 C0.67 7.37 0.34 3.74 0 0 Z " fill="#54342B" transform="translate(4,60)"/>
<path d="M0 0 C-0.33 1.32 -0.66 2.64 -1 4 C-2.32 4 -3.64 4 -5 4 C-5 3.34 -5 2.68 -5 2 C-5.66 1.67 -6.32 1.34 -7 1 C-4 0 -4 0 0 0 Z " fill="#5A3218" transform="translate(27,23)"/>
<path d="M0 0 C0.66 0 1.32 0 2 0 C2 0.99 2 1.98 2 3 C2.639375 3.103125 3.27875 3.20625 3.9375 3.3125 C4.618125 3.539375 5.29875 3.76625 6 4 C6.33 4.99 6.66 5.98 7 7 C5.02 6.34 3.04 5.68 1 5 C0.67 3.35 0.34 1.7 0 0 Z " fill="#5E4037" transform="translate(23,150)"/>
<path d="M0 0 C0.33 0.66 0.66 1.32 1 2 C1.66 2 2.32 2 3 2 C2.625 4.4375 2.625 4.4375 2 7 C1.01 7.495 1.01 7.495 0 8 C0 5.36 0 2.72 0 0 Z " fill="#582314" transform="translate(84,78)"/>
<path d="M0 0 C0.33 0 0.66 0 1 0 C1.33 2.31 1.66 4.62 2 7 C2.99 7.33 3.98 7.66 5 8 C3.68 8.33 2.36 8.66 1 9 C-1.09230769 4.56923077 -1.09230769 4.56923077 -0.625 1.6875 C-0.41875 1.130625 -0.2125 0.57375 0 0 Z " fill="#53391D" transform="translate(5,29)"/>
<path d="M0 0 C2.31 0 4.62 0 7 0 C6.401875 0.268125 5.80375 0.53625 5.1875 0.8125 C2.95672092 1.8893979 2.95672092 1.8893979 1.375 3.625 C0.92125 4.07875 0.4675 4.5325 0 5 C-0.66 5 -1.32 5 -2 5 C-2 4.34 -2 3.68 -2 3 C-1.34 3 -0.68 3 0 3 C0 2.01 0 1.02 0 0 Z " fill="#452512" transform="translate(44,4)"/>
</svg>
