<?xml version="1.0" encoding="UTF-8"?>
<svg version="1.1" xmlns="http://www.w3.org/2000/svg" width="130" height="160">
<path d="M0 0 C13.80340887 -0.02333058 27.6068147 -0.04091354 41.41023922 -0.05181217 C47.81899128 -0.05704166 54.22773015 -0.0641405 60.63647461 -0.07543945 C66.81559441 -0.08626599 72.99470148 -0.09227634 79.17383003 -0.09487724 C81.5370561 -0.09673192 83.90028144 -0.10035332 86.26350212 -0.10573006 C89.56101896 -0.11293738 92.85848247 -0.11399107 96.15600586 -0.11352539 C97.14358887 -0.11712067 98.13117188 -0.12071594 99.14868164 -0.12442017 C100.04195663 -0.1230455 100.93523163 -0.12167084 101.85557556 -0.12025452 C102.63633422 -0.12117631 103.41709288 -0.1220981 104.22151089 -0.12304783 C106 -0 106 -0 107 1 C106.30232558 7.39534884 106.30232558 7.39534884 105 10 C105.97582031 9.96519531 106.95164062 9.93039062 107.95703125 9.89453125 C109.22933594 9.86746094 110.50164062 9.84039062 111.8125 9.8125 C113.07707031 9.77769531 114.34164062 9.74289062 115.64453125 9.70703125 C119 10 119 10 120.91796875 11.234375 C123.16804478 14.9059792 122.59107088 18.87365614 122 23 C119.46746826 31.52835474 115.97404843 38.93740733 108.265625 43.68359375 C100.99787854 47.52959664 94.24535254 50 86 50 C85.34 52.31 84.68 54.62 84 57 C87.63 57 91.26 57 95 57 C96.08644535 61.3457814 95.90680911 61.94960548 94.0625 65.75 C93.68222656 66.54921875 93.30195312 67.3484375 92.91015625 68.171875 C92.60980469 68.77515625 92.30945313 69.3784375 92 70 C93.08539063 69.95359375 94.17078125 69.9071875 95.2890625 69.859375 C96.73434731 69.82183513 98.17966211 69.78543736 99.625 69.75 C100.33785156 69.71648437 101.05070312 69.68296875 101.78515625 69.6484375 C106.98314884 69.55306149 110.05600273 70.31592232 114 74 C118.15896515 80.54206869 119.76080059 88.58211061 121.71972656 96.00195312 C122.25001673 98.00006304 122.80009002 99.99202148 123.3515625 101.984375 C125.18306115 108.74883909 126.6853021 114.96820454 126 122 C124 124 124 124 120.5625 124.4375 C119.386875 124.293125 118.21125 124.14875 117 124 C114.2570987 120.35272399 112.99408245 116.37269545 111.625 112.0546875 C111.19284366 110.71740418 110.76054786 109.38016592 110.328125 108.04296875 C109.6603897 105.95260272 108.99567675 103.86132978 108.33398438 101.76904297 C107.68872978 99.73668133 107.03244266 97.70813327 106.375 95.6796875 C105.99085937 94.47038574 105.60671875 93.26108398 105.2109375 92.01513672 C103.80345585 88.41943755 103.80345585 88.41943755 101 86 C98.48710325 85.63786432 98.48710325 85.63786432 95.8125 85.8125 C94.91144531 85.83957031 94.01039062 85.86664063 93.08203125 85.89453125 C92.05142578 85.94673828 92.05142578 85.94673828 91 86 C91.37584229 87.03664795 91.37584229 87.03664795 91.75927734 88.09423828 C94.13561734 94.66285155 96.48811738 101.23943523 98.81396484 107.82606506 C100.02797192 111.26305844 101.24910267 114.69712887 102.48730469 118.12548828 C103.7013221 121.48978949 104.89143976 124.86173729 106.06622314 128.2399292 C106.51839395 129.52782693 106.9785261 130.81295987 107.44696045 132.09503174 C110.13113003 139.45992244 112.25489707 145.51807111 109 153 C106.73544754 156.54779885 104.84670206 158.39099425 101 160 C99.02530098 160.25726891 99.02530098 160.25726891 96.91482544 160.26742554 C95.70794571 160.28022049 95.70794571 160.28022049 94.47668457 160.29327393 C93.60282104 160.29236755 92.72895752 160.29146118 91.82861328 160.29052734 C90.90132416 160.29724457 89.97403503 160.30396179 89.01864624 160.31088257 C85.95248052 160.32988419 82.88653344 160.33378785 79.8203125 160.3359375 C77.68805857 160.34236386 75.55580553 160.3490921 73.42355347 160.35610962 C68.95308386 160.36808776 64.48269156 160.37178988 60.01220703 160.37060547 C54.28662569 160.37040224 48.56154049 160.39770643 42.83607674 160.43214989 C38.43168872 160.45439815 34.02742049 160.45844364 29.62298203 160.45738602 C27.51227992 160.45974502 25.40157465 160.46858532 23.29092789 160.48405075 C20.33699141 160.50366859 17.38412994 160.49788897 14.43017578 160.48583984 C13.56036072 160.49707886 12.69054565 160.50831787 11.79437256 160.51989746 C5.36856439 160.45336547 1.75150223 158.78905843 -2.84902954 154.12573242 C-5.7069692 148.84739104 -4.57835774 141.64974659 -3.34210205 135.98583984 C-2.44211876 133.0093165 -1.42964778 130.10413037 -0.3515625 127.1875 C0.02102692 126.13014648 0.39361633 125.07279297 0.77749634 123.98339844 C1.95773468 120.64849338 3.16582469 117.32450718 4.375 114 C5.17892946 111.74154172 5.98102884 109.48243112 6.78125 107.22265625 C12.32549488 91.62188328 12.32549488 91.62188328 14.08853149 87.38256836 C16.25854155 81.71018662 16.0818369 74.70824711 13.84375 69.10546875 C12.94829895 67.44639695 12.00313815 65.81255469 10.99609375 64.21875 C9.72951154 61.39750021 10.08938383 59.90601006 11 57 C12 56 12 56 14.06640625 55.90234375 C15.30197266 55.91974609 15.30197266 55.91974609 16.5625 55.9375 C17.38878906 55.94652344 18.21507813 55.95554688 19.06640625 55.96484375 C19.70449219 55.97644531 20.34257812 55.98804688 21 56 C20.65855957 55.24195068 20.31711914 54.48390137 19.96533203 53.70288086 C16.85198406 46.78624196 13.75028583 39.86459604 10.6603241 32.93748474 C8.74327364 28.6454515 6.79843462 24.36703918 4.83984375 20.09375 C3.91358245 18.0418833 2.98777354 15.98981231 2.0625 13.9375 C1.61986816 12.9880249 1.17723633 12.0385498 0.72119141 11.06030273 C0.3297998 10.18317627 -0.0615918 9.3060498 -0.46484375 8.40234375 C-0.811521 7.64429443 -1.15819824 6.88624512 -1.51538086 6.10522461 C-2.14218674 3.38232933 -1.31456487 2.38395689 0 0 Z M102 16 C97.62084662 24.53114607 93.54551119 33.07903637 90 42 C97.71810132 41.57901266 103.7118534 39.19927777 109.3125 33.75 C112.42313267 28.68082084 115.43701712 23.00515072 116 17 C114.88873341 15.66098208 114.88873341 15.66098208 112.05859375 15.90234375 C110.86363281 15.91394531 109.66867188 15.92554688 108.4375 15.9375 C107.23996094 15.94652344 106.04242188 15.95554687 104.80859375 15.96484375 C103.41833984 15.98224609 103.41833984 15.98224609 102 16 Z " fill="#502118" transform="translate(4,0)"/>
<path d="M0 0 C0.99 0.99 1.98 1.98 3 3 C3.66 2.34 4.32 1.68 5 1 C6.7750311 5.95226793 8.51931019 10.91396289 10.23681641 15.88647461 C10.82432928 17.57391882 11.41991747 19.25857522 12.02392578 20.94018555 C12.8945098 23.36846743 13.73483728 25.80554276 14.5703125 28.24609375 C14.84312042 28.98709824 15.11592834 29.72810272 15.39700317 30.49156189 C17.26564167 36.08867081 17.01480228 40.44133164 15 46 C12.73544754 49.54779885 10.84670206 51.39099425 7 53 C5.02530098 53.25726891 5.02530098 53.25726891 2.91482544 53.26742554 C2.11023895 53.27595551 1.30565247 53.28448547 0.47668457 53.29327393 C-0.39717896 53.29236755 -1.27104248 53.29146118 -2.17138672 53.29052734 C-3.09867584 53.29724457 -4.02596497 53.30396179 -4.98135376 53.31088257 C-8.04751948 53.32988419 -11.11346656 53.33378785 -14.1796875 53.3359375 C-16.31194143 53.34236386 -18.44419447 53.3490921 -20.57644653 53.35610962 C-25.04691614 53.36808776 -29.51730844 53.37178988 -33.98779297 53.37060547 C-39.71337431 53.37040224 -45.43845951 53.39770643 -51.16392326 53.43214989 C-55.56831128 53.45439815 -59.97257951 53.45844364 -64.37701797 53.45738602 C-66.48772008 53.45974502 -68.59842535 53.46858532 -70.70907211 53.48405075 C-73.66300859 53.50366859 -76.61587006 53.49788897 -79.56982422 53.48583984 C-80.43963928 53.49707886 -81.30945435 53.50831787 -82.20562744 53.51989746 C-87.629458 53.46373982 -90.675759 52.57388459 -95 49 C-98.06437811 45.8642063 -98.45634763 43.52545397 -98.5 39.1875 C-98.37581975 33.71735987 -97.40836735 28.9224378 -95.75 23.75 C-95.54568359 23.09410889 -95.34136719 22.43821777 -95.13085938 21.76245117 C-94.484375 19.921875 -94.484375 19.921875 -93 17 C-90.828125 16.078125 -90.828125 16.078125 -89 16 C-88.9175 14.72125 -88.835 13.4425 -88.75 12.125 C-88.48046875 9.90625 -88.48046875 9.90625 -88 8 C-86.0625 6.625 -86.0625 6.625 -84 6 C-83.34 5.34 -82.68 4.68 -82 4 C-82 5.32 -82 6.64 -82 8 C-54.28 8 -26.56 8 2 8 C1.01 6.02 1.01 6.02 0 4 C0 2.68 0 1.36 0 0 Z " fill="#501F14" transform="translate(98,107)"/>
<path d="M0 0 C0.99 0.495 0.99 0.495 2 1 C2 1.66 2 2.32 2 3 C2.66 3.33 3.32 3.66 4 4 C6 7 6 7 6 10 C7.32 9.67 8.64 9.34 10 9 C9.67 7.35 9.34 5.7 9 4 C39.36 4 69.72 4 101 4 C100.14692538 8.26537309 99.16694023 11.11924705 97.33984375 14.98046875 C96.5190332 16.7294043 96.5190332 16.7294043 95.68164062 18.51367188 C95.10058235 19.73843403 94.51920227 20.96304358 93.9375 22.1875 C88.80414829 33.06344963 83.8868489 44.00458998 79 55 C63.16 55 47.32 55 31 55 C30.34 53.02 29.68 51.04 29 49 C28.01 49 27.02 49 26 49 C25.67 51.31 25.34 53.62 25 56 C20.05 56.495 20.05 56.495 15 57 C15.75150023 60.27773504 15.75150023 60.27773504 19 62 C19.33 61.67 19.66 61.34 20 61 C22.14743549 60.90574405 24.29801026 60.88257352 26.44750977 60.88647461 C27.45722336 60.88625557 27.45722336 60.88625557 28.48733521 60.8860321 C30.72205784 60.88673122 32.9566981 60.89452348 35.19140625 60.90234375 C36.73697362 60.90420794 38.28254157 60.90563184 39.82810974 60.90663147 C43.90357077 60.9104566 47.97899637 60.92028683 52.05444336 60.93133545 C56.21011882 60.94154968 60.36579999 60.94612911 64.52148438 60.95117188 C72.68100587 60.96190911 80.84049853 60.97898546 89 61 C88.47731534 63.76276177 87.89130413 66.3260876 87 69 C78.31610088 69.13064733 69.63219819 69.26105372 60.94829082 69.39115143 C56.91612763 69.45156676 52.88396573 69.51206549 48.85180664 69.57275391 C44.96148274 69.6313045 41.07115563 69.68963719 37.18082619 69.74781799 C35.69565527 69.77006754 34.21048553 69.79239596 32.725317 69.81480408 C30.64720332 69.84614512 28.56908565 69.8772072 26.4909668 69.90820312 C25.30738083 69.92596802 24.12379486 69.94373291 22.90434265 69.96203613 C20.93635587 69.9877605 18.9681549 70 17 70 C16.12855131 68.4470724 15.27846343 66.88214564 14.4375 65.3125 C13.96183594 64.44238281 13.48617188 63.57226562 12.99609375 62.67578125 C11.85040255 59.59814019 12.00948257 58.09063089 13 55 C14 54 14 54 16.06640625 53.90234375 C17.30197266 53.91974609 17.30197266 53.91974609 18.5625 53.9375 C19.38878906 53.94652344 20.21507813 53.95554688 21.06640625 53.96484375 C21.70449219 53.97644531 22.34257812 53.98804688 23 54 C22.65855957 53.24195068 22.31711914 52.48390137 21.96533203 51.70288086 C15.99002023 38.42808012 10.02484389 25.14868518 4.1875 11.8125 C3.76162598 10.84626709 3.33575195 9.88003418 2.89697266 8.88452148 C2.51202637 8.00094971 2.12708008 7.11737793 1.73046875 6.20703125 C1.39426514 5.4385083 1.05806152 4.66998535 0.71166992 3.87817383 C0 2 0 2 0 0 Z " fill="#C1AD94" transform="translate(2,2)"/>
<path d="M0 0 C20.46 0 40.92 0 62 0 C72 27 72 27 72 30 C44.94 30 17.88 30 -10 30 C-9.24734723 26.98938892 -8.41893451 24.12799611 -7.44140625 21.19140625 C-7.13783203 20.27939453 -6.83425781 19.36738281 -6.52148438 18.42773438 C-6.20501953 17.48220703 -5.88855469 16.53667969 -5.5625 15.5625 C-5.24990234 14.62083984 -4.93730469 13.67917969 -4.61523438 12.70898438 C-4.31037109 11.79568359 -4.00550781 10.88238281 -3.69140625 9.94140625 C-3.41498291 9.11326416 -3.13855957 8.28512207 -2.85375977 7.43188477 C-1.97473997 4.92804829 -0.98554189 2.46385472 0 0 Z " fill="#EFE9DC" transform="translate(26,85)"/>
<path d="M0 0 C0.495 1.485 0.495 1.485 1 3 C1.66 3 2.32 3 3 3 C3.33 2.01 3.66 1.02 4 0 C5.375 2.5 5.375 2.5 6 6 C3.01145474 12.9092973 -3.35994078 17.02310194 -10 20 C-15.35336068 21.74709431 -20.35659948 23 -26 23 C-26.99 26.465 -26.99 26.465 -28 30 C-24.37 30 -20.74 30 -17 30 C-15.59283406 35.62866375 -17.50528813 37.8593816 -20 43 C-14.72 43 -9.44 43 -4 43 C-4 43.33 -4 43.66 -4 44 C-6.79192205 44.05380578 -9.5828141 44.09357669 -12.375 44.125 C-13.1690625 44.14175781 -13.963125 44.15851563 -14.78125 44.17578125 C-16.85492015 44.19335473 -18.92883241 44.10335168 -21 44 C-21.66 43.34 -22.32 42.68 -23 42 C-24.485 42.495 -24.485 42.495 -26 43 C-26.33 42.34 -26.66 41.68 -27 41 C-26.34 39.35 -25.68 37.7 -25 36 C-47.77 36 -70.54 36 -94 36 C-94.33 36.99 -94.66 37.98 -95 39 C-98.08236365 36.21592961 -98.95206337 35.19174654 -100 31 C-96.37 31 -92.74 31 -89 31 C-89.33 29.35 -89.66 27.7 -90 26 C-88.5625 24.1875 -88.5625 24.1875 -87 23 C-84.23609263 25.40339772 -83.95934081 26.16263678 -83 30 C-67.16 30 -51.32 30 -35 30 C-34.67 28.35 -34.34 26.7 -34 25 C-33.24389648 23.05541992 -33.24389648 23.05541992 -32.37109375 21.23046875 C-32.05849609 20.56982422 -31.74589844 19.90917969 -31.42382812 19.22851562 C-30.9355957 18.21821289 -30.9355957 18.21821289 -30.4375 17.1875 C-30.10814453 16.49462891 -29.77878906 15.80175781 -29.43945312 15.08789062 C-28.63127749 13.38955052 -27.81631623 11.69444231 -27 10 C-25.5 11.375 -25.5 11.375 -24 13 C-24 13.66 -24 14.32 -24 15 C-16.28391755 13.92071498 -8.40110751 12.28317044 -3.328125 5.89453125 C-2.11308589 3.96616861 -1.00869069 2.04272538 0 0 Z " fill="#572C21" transform="translate(116,27)"/>
<path d="M0 0 C0.99 0.495 0.99 0.495 2 1 C2 1.66 2 2.32 2 3 C2.66 3.33 3.32 3.66 4 4 C6 7 6 7 6 10 C7.65 9.67 9.3 9.34 11 9 C13.10600686 13.56862068 15.20537514 18.14021279 17.29882812 22.71459961 C18.01090779 24.26815455 18.72474879 25.82090349 19.44042969 27.37280273 C20.47282142 29.61228759 21.49870255 31.85465935 22.5234375 34.09765625 C23.00011368 35.12621483 23.00011368 35.12621483 23.48641968 36.17555237 C25.4025534 40.38979291 26.83309224 44.51836082 28 49 C27.34 49 26.68 49 26 49 C25.67 51.31 25.34 53.62 25 56 C20.05 56.495 20.05 56.495 15 57 C15.75150023 60.27773504 15.75150023 60.27773504 19 62 C19.33 61.67 19.66 61.34 20 61 C22.14743549 60.90574405 24.29801026 60.88257352 26.44750977 60.88647461 C27.45722336 60.88625557 27.45722336 60.88625557 28.48733521 60.8860321 C30.72205784 60.88673122 32.9566981 60.89452348 35.19140625 60.90234375 C36.73697362 60.90420794 38.28254157 60.90563184 39.82810974 60.90663147 C43.90357077 60.9104566 47.97899637 60.92028683 52.05444336 60.93133545 C56.21011882 60.94154968 60.36579999 60.94612911 64.52148438 60.95117188 C72.68100587 60.96190911 80.84049853 60.97898546 89 61 C88.47731534 63.76276177 87.89130413 66.3260876 87 69 C78.31610088 69.13064733 69.63219819 69.26105372 60.94829082 69.39115143 C56.91612763 69.45156676 52.88396573 69.51206549 48.85180664 69.57275391 C44.96148274 69.6313045 41.07115563 69.68963719 37.18082619 69.74781799 C35.69565527 69.77006754 34.21048553 69.79239596 32.725317 69.81480408 C30.64720332 69.84614512 28.56908565 69.8772072 26.4909668 69.90820312 C25.30738083 69.92596802 24.12379486 69.94373291 22.90434265 69.96203613 C20.93635587 69.9877605 18.9681549 70 17 70 C16.12855131 68.4470724 15.27846343 66.88214564 14.4375 65.3125 C13.96183594 64.44238281 13.48617188 63.57226562 12.99609375 62.67578125 C11.85040255 59.59814019 12.00948257 58.09063089 13 55 C14 54 14 54 16.06640625 53.90234375 C17.30197266 53.91974609 17.30197266 53.91974609 18.5625 53.9375 C19.38878906 53.94652344 20.21507813 53.95554688 21.06640625 53.96484375 C21.70449219 53.97644531 22.34257812 53.98804688 23 54 C22.65855957 53.24195068 22.31711914 52.48390137 21.96533203 51.70288086 C15.99002023 38.42808012 10.02484389 25.14868518 4.1875 11.8125 C3.76162598 10.84626709 3.33575195 9.88003418 2.89697266 8.88452148 C2.51202637 8.00094971 2.12708008 7.11737793 1.73046875 6.20703125 C1.39426514 5.4385083 1.05806152 4.66998535 0.71166992 3.87817383 C0 2 0 2 0 0 Z " fill="#50251D" transform="translate(2,2)"/>
<path d="M0 0 C22.77 0 45.54 0 69 0 C68 5 68 5 66 7 C63.36776733 7.24050903 63.36776733 7.24050903 59.98974609 7.22705078 C58.09801163 7.22682419 58.09801163 7.22682419 56.1680603 7.22659302 C54.78651778 7.21637898 53.40497685 7.20594697 52.0234375 7.1953125 C50.61382243 7.19158288 49.20420477 7.18873567 47.79458618 7.18673706 C44.08240618 7.17909655 40.37038239 7.15944461 36.65826416 7.1373291 C32.87115594 7.11687959 29.0840225 7.10773727 25.296875 7.09765625 C17.86451207 7.076199 10.43227792 7.04205816 3 7 C2.01 4.69 1.02 2.38 0 0 Z " fill="#F4ECDC" transform="translate(22,63)"/>
<path d="M0 0 C0 0.66 0 1.32 0 2 C1.04800781 1.96519531 2.09601563 1.93039062 3.17578125 1.89453125 C4.55467147 1.86639063 5.93357902 1.83909076 7.3125 1.8125 C8.34793945 1.77479492 8.34793945 1.77479492 9.40429688 1.73632812 C14.45897134 1.66307197 14.45897134 1.66307197 16.95703125 3.21875 C19.07787693 6.84086846 18.46451137 10.95636893 18 15 C17.20958235 17.83005859 16.19853936 20.30328645 15 23 C14.34 23 13.68 23 13 23 C12.67 22.01 12.34 21.02 12 20 C11.67 20.66 11.34 21.32 11 22 C10.34 22 9.68 22 9 22 C9.52026366 17.61492059 10.09863876 13.32501905 11 9 C8.89646505 8.9189794 6.79204048 8.86080093 4.6875 8.8125 C3.51574219 8.77769531 2.34398438 8.74289063 1.13671875 8.70703125 C-1.99288464 8.71282601 -1.99288464 8.71282601 -3.91796875 10.51171875 C-4.27503906 11.00285156 -4.63210937 11.49398438 -5 12 C-4.67 10.02 -4.34 8.04 -4 6 C-4.66 6 -5.32 6 -6 6 C-5.6875 4.125 -5.6875 4.125 -5 2 C-2 0 -2 0 0 0 Z " fill="#57241C" transform="translate(108,8)"/>
<path d="M0 0 C0.33 0 0.66 0 1 0 C1.33 3.63 1.66 7.26 2 11 C2.99 10.67 3.98 10.34 5 10 C6.96440072 15.29628481 4.64726923 19.54940308 2.6875 24.5 C2.20506836 25.76263672 2.20506836 25.76263672 1.71289062 27.05078125 C1.09273394 28.66802763 0.46538034 30.28253814 -0.17016602 31.89379883 C-0.83534112 33.58207938 -1.476383 35.27985995 -2.109375 36.98046875 C-3.25518595 39.57864532 -4.55892572 40.59453299 -7 42 C-7.99 42 -8.98 42 -10 42 C-9.938125 42.928125 -9.87625 43.85625 -9.8125 44.8125 C-10 48 -10 48 -11.5 49.875 C-11.995 50.24625 -12.49 50.6175 -13 51 C-14 49 -14 49 -12.93603516 45.56689453 C-12.39369811 44.08641274 -11.844158 42.60855801 -11.2890625 41.1328125 C-10.69752206 39.50795611 -10.10639001 37.88295098 -9.515625 36.2578125 C-8.57764415 33.70420352 -7.63523135 31.15243233 -6.68457031 28.60351562 C-3.14848446 19.08701061 0.07477599 10.31135151 0 0 Z " fill="#542C24" transform="translate(20,73)"/>
<path d="M0 0 C8.14503822 -0.09270775 16.28985577 -0.16376823 24.43529129 -0.20724869 C28.21762995 -0.22811795 31.99960747 -0.25642248 35.78173828 -0.30175781 C39.43220312 -0.34524074 43.08232076 -0.36914209 46.7330246 -0.37950897 C48.12531754 -0.3868961 49.51759162 -0.40132175 50.90973663 -0.42292023 C52.86053411 -0.45198041 54.81168146 -0.45363412 56.76269531 -0.45410156 C58.42815399 -0.46742523 58.42815399 -0.46742523 60.1272583 -0.48101807 C63.62613322 0.1048411 64.79265094 1.2971458 67 4 C67 3.34 67 2.68 67 2 C67.66 2 68.32 2 69 2 C70.18295033 5.03557999 71.34335269 8.07931093 72.5 11.125 C72.83386719 11.9809375 73.16773437 12.836875 73.51171875 13.71875 C75.23859394 18.3002556 76.45737699 22.0178578 76 27 C75.01 26.01 74.02 25.02 73 24 C73.495 27.465 73.495 27.465 74 31 C73.34 31 72.68 31 72 31 C70.57180601 27.05043587 69.14775072 23.09941203 67.72753906 19.14697266 C67.24365357 17.80216068 66.75863256 16.45775672 66.27246094 15.11376953 C65.57449334 13.18367547 64.88060102 11.25215863 64.1875 9.3203125 C63.76855469 8.15773926 63.34960938 6.99516602 62.91796875 5.79736328 C62 3 62 3 62 1 C41.54 1 21.08 1 0 1 C0 0.67 0 0.34 0 0 Z " fill="#57382F" transform="translate(26,84)"/>
<path d="M0 0 C-1 3 -1 3 -3 4 C-6.02088464 4.09350611 -9.01858122 4.12572242 -12.03955078 4.11352539 C-12.97618561 4.11367142 -13.91282043 4.11381744 -14.87783813 4.1139679 C-17.98368622 4.11326944 -21.08947485 4.10548015 -24.1953125 4.09765625 C-26.34479744 4.09579183 -28.4942828 4.09436804 -30.64376831 4.09336853 C-36.30895149 4.08954522 -41.97410915 4.07971651 -47.63928223 4.06866455 C-53.41707006 4.05844644 -59.194862 4.05387005 -64.97265625 4.04882812 C-76.3151154 4.03809409 -87.65755558 4.02101989 -99 4 C-99 3.34 -99 2.68 -99 2 C-97.81427399 1.98969254 -96.62854797 1.97938507 -95.40689087 1.96876526 C-84.25262311 1.87116515 -73.09841281 1.76844398 -61.94423866 1.66066074 C-56.2092649 1.60540937 -50.47428606 1.55198583 -44.73925781 1.50268555 C-39.20847394 1.45507467 -33.67775352 1.40273307 -28.14704514 1.34705925 C-26.03307035 1.32662083 -23.91907815 1.30791025 -21.80507278 1.29092598 C-18.85256889 1.26691488 -15.90018566 1.23685585 -12.94775391 1.20532227 C-12.0666243 1.1995668 -11.18549469 1.19381134 -10.27766418 1.18788147 C-6.6562449 1.14368538 -3.39911699 0 0 0 Z " fill="#45241A" transform="translate(108,156)"/>
<path d="M0 0 C0.99 0.33 1.98 0.66 3 1 C4.25 3.9375 4.25 3.9375 5 7 C4.67 7.66 4.34 8.32 4 9 C6.64 9 9.28 9 12 9 C12 9.66 12 10.32 12 11 C29.16 11 46.32 11 64 11 C64 11.33 64 11.66 64 12 C40.9 12 17.8 12 -6 12 C-6.33 13.32 -6.66 14.64 -7 16 C-10.08236365 13.21592961 -10.95206337 12.19174654 -12 8 C-8.37 8 -4.74 8 -1 8 C-1.33 6.35 -1.66 4.7 -2 3 C-1.34 2.01 -0.68 1.02 0 0 Z " fill="#481C14" transform="translate(28,50)"/>
<path d="M0 0 C0 0.66 0 1.32 0 2 C-3.3 2.33 -6.6 2.66 -10 3 C-9.67 3.99 -9.34 4.98 -9 6 C-7.33927151 6.68132451 -5.672233 7.34742127 -4 8 C-2 11 -2 11 -2 14 C19.12 13.67 40.24 13.34 62 13 C62 13.66 62 14.32 62 15 C53.31610088 15.13064733 44.63219819 15.26105372 35.94829082 15.39115143 C31.91612763 15.45156676 27.88396573 15.51206549 23.85180664 15.57275391 C19.96148274 15.6313045 16.07115563 15.68963719 12.18082619 15.74781799 C10.69565527 15.77006754 9.21048553 15.79239596 7.725317 15.81480408 C5.64720332 15.84614512 3.56908565 15.8772072 1.4909668 15.90820312 C0.30738083 15.92596802 -0.87620514 15.94373291 -2.09565735 15.96203613 C-4.06364413 15.9877605 -6.0318451 16 -8 16 C-8.87144869 14.4470724 -9.72153657 12.88214564 -10.5625 11.3125 C-11.27599609 10.00732422 -11.27599609 10.00732422 -12.00390625 8.67578125 C-13.14959745 5.59814019 -12.99051743 4.09063089 -12 1 C-10.43632022 -0.56367978 -8.72161607 -0.383179 -6.5625 -0.625 C-5.35787109 -0.76808594 -5.35787109 -0.76808594 -4.12890625 -0.9140625 C-2 -1 -2 -1 0 0 Z " fill="#84645A" transform="translate(27,56)"/>
<path d="M0 0 C0.79921875 0.01804688 1.5984375 0.03609375 2.421875 0.0546875 C3.02515625 0.07789063 3.6284375 0.10109375 4.25 0.125 C5.18045933 2.67644824 5.33564091 3.86506478 4.47265625 6.484375 C3.3984375 8.69791667 2.32421875 10.91145833 1.25 13.125 C6.53 13.125 11.81 13.125 17.25 13.125 C17.25 13.455 17.25 13.785 17.25 14.125 C14.45807795 14.17880578 11.6671859 14.21857669 8.875 14.25 C8.0809375 14.26675781 7.286875 14.28351563 6.46875 14.30078125 C4.39507985 14.31835473 2.32116759 14.22835168 0.25 14.125 C-0.74 13.135 -0.74 13.135 -1.75 12.125 C-2.74 12.455 -3.73 12.785 -4.75 13.125 C-5.245 12.135 -5.245 12.135 -5.75 11.125 C-5.09 9.475 -4.43 7.825 -3.75 6.125 C-26.52 6.125 -49.29 6.125 -72.75 6.125 C-72.75 5.795 -72.75 5.465 -72.75 5.125 C-49.65 5.125 -26.55 5.125 -2.75 5.125 C-2.75 6.115 -2.75 7.105 -2.75 8.125 C-1.76 8.125 -0.77 8.125 0.25 8.125 C0.91 6.145 1.57 4.165 2.25 2.125 C-1.38 2.125 -5.01 2.125 -8.75 2.125 C-5.00631258 0.25315629 -3.9099209 -0.11499767 0 0 Z " fill="#6A4C40" transform="translate(94.75,56.875)"/>
<path d="M0 0 C0.66 0 1.32 0 2 0 C3.29956101 2.85063539 4.58817153 5.70609702 5.875 8.5625 C6.23980469 9.36236328 6.60460938 10.16222656 6.98046875 10.98632812 C9.05471243 15.6062345 10.74814814 20.09142298 12 25 C11.34 25 10.68 25 10 25 C8.36323743 26.9600281 8.36323743 26.9600281 7 29 C3.98492462 23.59798995 3.98492462 23.59798995 4.05859375 20.67578125 C3.98441112 17.28810799 2.92921174 14.96462031 1.5625 11.875 C0.2705433 8.92300777 -0.98081599 6.05755203 -2 3 C-1.34 2.01 -0.68 1.02 0 0 Z " fill="#51261C" transform="translate(18,26)"/>
<path d="M0 0 C0.33 0.99 0.66 1.98 1 3 C1.66 3 2.32 3 3 3 C3.33 2.01 3.66 1.02 4 0 C5.375 2.5 5.375 2.5 6 6 C3.56034509 10.92569108 -0.00694955 14.6503292 -5 17 C-5 16.34 -5 15.68 -5 15 C-5.78375 14.87625 -6.5675 14.7525 -7.375 14.625 C-10 14 -10 14 -12 12 C-11.46890625 11.72027344 -10.9378125 11.44054688 -10.390625 11.15234375 C-5.0589253 8.12650688 -2.6102597 5.54680186 0 0 Z " fill="#583229" transform="translate(116,27)"/>
<path d="M0 0 C0 0.66 0 1.32 0 2 C0.99 2 1.98 2 3 2 C2 5 2 5 -1.125 6.6875 C-4.79357134 8.14581407 -8.05393993 8.24159551 -12 8 C-12.33 7.34 -12.66 6.68 -13 6 C-13.99 5.34 -14.98 4.68 -16 4 C-10.41098718 1.57457934 -6.20613146 -0.13791403 0 0 Z " fill="#442119" transform="translate(108,40)"/>
<path d="M0 0 C1.625 1.625 1.625 1.625 3 4 C2.649375 4.9075 2.29875 5.815 1.9375 6.75 C0.86584322 10.46507682 1.12345226 10.8442583 2.875 14.0625 C3.25914063 14.73410156 3.64328125 15.40570313 4.0390625 16.09765625 C5.24446073 18.48395275 5.32927508 20.36579934 5 23 C5.66 23.33 6.32 23.66 7 24 C6.34 24.99 5.68 25.98 5 27 C1.37 18.75 -2.26 10.5 -6 2 C-4.68 1.67 -3.36 1.34 -2 1 C-1.34 0.67 -0.68 0.34 0 0 Z " fill="#61372D" transform="translate(16,20)"/>
<path d="M0 0 C0.66 0 1.32 0 2 0 C2.33266291 6.20970773 1.45029331 10.28264895 -1 16 C-1.66 16 -2.32 16 -3 16 C-3.33 15.01 -3.66 14.02 -4 13 C-4.33 13.66 -4.66 14.32 -5 15 C-5.66 15 -6.32 15 -7 15 C-6.125 7.25 -6.125 7.25 -5 5 C-4.34 5 -3.68 5 -3 5 C-3 5.66 -3 6.32 -3 7 C-2.01 7 -1.02 7 0 7 C0 4.69 0 2.38 0 0 Z " fill="#462018" transform="translate(124,15)"/>
<path d="M0 0 C1.65 0.33 3.3 0.66 5 1 C5.3227506 5.62609198 4.84450614 8.28026121 2 12 C1.34 12 0.68 12 0 12 C-2 9 -2 9 -1.6875 6 C-1 3 -1 3 0 0 Z " fill="#4A221A" transform="translate(92,30)"/>
<path d="M0 0 C1.875 0.1875 1.875 0.1875 4 1 C6.52058002 5.08093909 6.05215625 8.44065626 5 13 C4.01 13.495 4.01 13.495 3 14 C2.3012307 12.23358317 1.61633417 10.46167336 0.9375 8.6875 C0.55464844 7.70136719 0.17179687 6.71523437 -0.22265625 5.69921875 C-1 3 -1 3 0 0 Z " fill="#542921" transform="translate(92,93)"/>
<path d="M0 0 C0.66 0 1.32 0 2 0 C2.66 2.31 3.32 4.62 4 7 C3.34 7 2.68 7 2 7 C0.36323743 8.9600281 0.36323743 8.9600281 -1 11 C-1.99 8.69 -2.98 6.38 -4 4 C-3.34 4 -2.68 4 -2 4 C-1.34 2.68 -0.68 1.36 0 0 Z " fill="#5A3228" transform="translate(26,44)"/>
<path d="M0 0 C0.66 0 1.32 0 2 0 C3.32 3.63 4.64 7.26 6 11 C4.68 11.33 3.36 11.66 2 12 C1.27494442 10.57086153 0.57041565 9.13129342 -0.125 7.6875 C-0.51945312 6.88699219 -0.91390625 6.08648437 -1.3203125 5.26171875 C-1.54460938 4.51535156 -1.76890625 3.76898437 -2 3 C-1.34 2.01 -0.68 1.02 0 0 Z " fill="#5E2F23" transform="translate(18,26)"/>
<path d="M0 0 C3 1 3 1 4.16796875 2.671875 C7.55343511 9.57251908 7.55343511 9.57251908 7 14 C7.66 14.33 8.32 14.66 9 15 C8.01 16.485 8.01 16.485 7 18 C5.82887054 15.37690901 4.66294036 12.75171858 3.5 10.125 C3.16613281 9.37863281 2.83226562 8.63226563 2.48828125 7.86328125 C2.17246094 7.14785156 1.85664063 6.43242188 1.53125 5.6953125 C1.23798828 5.03547363 0.94472656 4.37563477 0.64257812 3.69580078 C0 2 0 2 0 0 Z " fill="#614439" transform="translate(14,29)"/>
<path d="M0 0 C1.39456452 0.00667256 2.78911118 0.01863093 4.18359375 0.03515625 C4.89451172 0.03966797 5.60542969 0.04417969 6.33789062 0.04882812 C8.09899388 0.06064761 9.86005411 0.07858362 11.62109375 0.09765625 C11.95109375 0.75765625 12.28109375 1.41765625 12.62109375 2.09765625 C11.57308594 2.13503906 10.52507812 2.17242188 9.4453125 2.2109375 C8.0663707 2.2766014 6.68746604 2.3430486 5.30859375 2.41015625 C4.2731543 2.44399414 4.2731543 2.44399414 3.21679688 2.47851562 C-0.87097359 2.68135595 -0.87097359 2.68135595 -4.359375 4.640625 C-4.69582031 5.12144531 -5.03226562 5.60226563 -5.37890625 6.09765625 C-4.3067966 0.12447389 -4.3067966 0.12447389 0 0 Z " fill="#401A13" transform="translate(108.37890625,13.90234375)"/>
<path d="M0 0 C0.33 0 0.66 0 1 0 C1.33 3.63 1.66 7.26 2 11 C2.99 10.67 3.98 10.34 5 10 C5.625 12.375 5.625 12.375 6 15 C5.34 15.66 4.68 16.32 4 17 C3.67 16.01 3.34 15.02 3 14 C2.01 14 1.02 14 0 14 C-0.33 14.99 -0.66 15.98 -1 17 C-1.33 16.34 -1.66 15.68 -2 15 C-1.67 14.01 -1.34 13.02 -1 12 C-0.77674186 9.94106379 -0.59294241 7.87766347 -0.4375 5.8125 C-0.35371094 4.72582031 -0.26992188 3.63914062 -0.18359375 2.51953125 C-0.12300781 1.68808594 -0.06242187 0.85664062 0 0 Z " fill="#5C3A30" transform="translate(20,73)"/>
<path d="M0 0 C2.86724686 0.57344937 3.8614515 0.8614515 6 3 C5.67 3.66 5.34 4.32 5 5 C10.28 5 15.56 5 21 5 C21 5.33 21 5.66 21 6 C18.20807795 6.05380578 15.4171859 6.09357669 12.625 6.125 C11.8309375 6.14175781 11.036875 6.15851563 10.21875 6.17578125 C8.14507985 6.19335473 6.07116759 6.10335168 4 6 C3.34 5.34 2.68 4.68 2 4 C1.01 4.33 0.02 4.66 -1 5 C-1.33 4.34 -1.66 3.68 -2 3 C-1.34 2.01 -0.68 1.02 0 0 Z " fill="#5A352C" transform="translate(91,65)"/>
<path d="M0 0 C1.27551076 4.45941929 1.30244676 8.58041394 -0.9609375 12.78515625 C-1.92172081 14.22633122 -2.95537018 15.61839282 -4 17 C-5 15 -5 15 -4.00390625 11.5234375 C-3.53099953 10.13802064 -3.05018356 8.75528453 -2.5625 7.375 C-2.31951172 6.66859375 -2.07652344 5.9621875 -1.82617188 5.234375 C-1.22412795 3.48726713 -0.61291983 1.74332214 0 0 Z " fill="#60463B" transform="translate(5,124)"/>
<path d="M0 0 C0.99 0.495 0.99 0.495 2 1 C2 1.66 2 2.32 2 3 C2.66 3.33 3.32 3.66 4 4 C6.1519437 7.22791555 6.20086443 8.28400809 6 12 C6.66 12.33 7.32 12.66 8 13 C7.01 14.485 7.01 14.485 6 16 C4.9955866 13.7101766 3.99632388 11.4183401 3 9.125 C2.71382813 8.47402344 2.42765625 7.82304687 2.1328125 7.15234375 C0 2.2265625 0 2.2265625 0 0 Z " fill="#6E5249" transform="translate(2,2)"/>
<path d="M0 0 C0.99 0 1.98 0 3 0 C3.33 1.32 3.66 2.64 4 4 C3.1028125 4.37125 3.1028125 4.37125 2.1875 4.75 C-0.28647521 6.16370012 -1.43370255 7.65055383 -3 10 C-2.25 3.375 -2.25 3.375 0 0 Z " fill="#491F18" transform="translate(20,87)"/>
<path d="M0 0 C2.34914492 2.34914492 2.73140357 3.95679446 3.625 7.125 C3.88539062 8.03507812 4.14578125 8.94515625 4.4140625 9.8828125 C4.70410156 10.93082031 4.70410156 10.93082031 5 12 C4.01 12 3.02 12 2 12 C0.40861915 7.82262526 -0.21278058 4.46839215 0 0 Z " fill="#3C1B13" transform="translate(113,98)"/>
<path d="M0 0 C0.33 0.99 0.66 1.98 1 3 C-1 5 -1 5 -4.5 5.3125 C-5.655 5.209375 -6.81 5.10625 -8 5 C-8.66 4.01 -9.32 3.02 -10 2 C-8.72125 2.04125 -7.4425 2.0825 -6.125 2.125 C-3.98128508 2.24212873 -3.98128508 2.24212873 -2 2 C-1.34 1.34 -0.68 0.68 0 0 Z " fill="#46281F" transform="translate(129,119)"/>
<path d="M0 0 C5.61 0 11.22 0 17 0 C17.33 0.99 17.66 1.98 18 3 C12.06 2.34 6.12 1.68 0 1 C0 0.67 0 0.34 0 0 Z " fill="#3D1810" transform="translate(97,71)"/>
<path d="M0 0 C4.0042343 3.49087093 5.62671065 5.64951939 6 11 C5.34 11 4.68 11 4 11 C3.32591692 9.73308493 2.66099503 8.46129251 2 7.1875 C1.62875 6.47980469 1.2575 5.77210937 0.875 5.04296875 C0 3 0 3 0 0 Z " fill="#492920" transform="translate(115,72)"/>
<path d="M0 0 C0 0.66 0 1.32 0 2 C-3.96 2 -7.92 2 -12 2 C-11.67 1.34 -11.34 0.68 -11 0 C-9.00390625 -0.44921875 -9.00390625 -0.44921875 -6.5625 -0.6875 C-5.75941406 -0.77386719 -4.95632812 -0.86023437 -4.12890625 -0.94921875 C-2 -1 -2 -1 0 0 Z " fill="#947A6E" transform="translate(27,56)"/>
<path d="M0 0 C1.13643966 3.40931897 0.86747764 4.00335456 -0.4375 7.1875 C-0.86869141 8.26064453 -0.86869141 8.26064453 -1.30859375 9.35546875 C-1.53675781 9.89816406 -1.76492188 10.44085938 -2 11 C-2.33 11 -2.66 11 -3 11 C-2.88590407 9.54077307 -2.75834456 8.08259402 -2.625 6.625 C-2.55539062 5.81289062 -2.48578125 5.00078125 -2.4140625 4.1640625 C-2 2 -2 2 0 0 Z " fill="#4B2C21" transform="translate(15,100)"/>
<path d="M0 0 C1.32 0.66 2.64 1.32 4 2 C2.75023244 5.65316671 2.32901247 6.78065836 -1 9 C-0.67 6.03 -0.34 3.06 0 0 Z " fill="#50332A" transform="translate(109,149)"/>
<path d="M0 0 C0 0.66 0 1.32 0 2 C0.66 2 1.32 2 2 2 C2 2.66 2 3.32 2 4 C0.25 4.6875 0.25 4.6875 -2 5 C-4.25 3.5625 -4.25 3.5625 -6 2 C-3 0 -3 0 0 0 Z " fill="#50241B" transform="translate(98,42)"/>
<path d="M0 0 C0.99 0 1.98 0 3 0 C2.34 2.31 1.68 4.62 1 7 C0.34 6.67 -0.32 6.34 -1 6 C-1.042721 4.33388095 -1.04063832 2.66617115 -1 1 C-0.67 0.67 -0.34 0.34 0 0 Z " fill="#5D261F" transform="translate(94,59)"/>
<path d="M0 0 C2.25 1.9375 2.25 1.9375 4 4 C2.25 4.75 2.25 4.75 0 5 C-2.25 3.0625 -2.25 3.0625 -4 1 C-2.25 0.25 -2.25 0.25 0 0 Z " fill="#462A21" transform="translate(7,154)"/>
<path d="M0 0 C3 2 3 2 3.51171875 4.1640625 C3.56972656 4.97617188 3.62773438 5.78828125 3.6875 6.625 C3.75324219 7.44226563 3.81898437 8.25953125 3.88671875 9.1015625 C3.92410156 9.72804688 3.96148437 10.35453125 4 11 C1.55160412 7.32740617 0 4.45351799 0 0 Z " fill="#3C1A13" transform="translate(102,112)"/>
<path d="M0 0 C0.99 0 1.98 0 3 0 C4.125 2.3125 4.125 2.3125 5 5 C4.01 6.485 4.01 6.485 3 8 C0 2.25 0 2.25 0 0 Z " fill="#6C4E44" transform="translate(16,64)"/>
<path d="M0 0 C1.88391785 3.26545761 2.49287967 6.28111761 3 10 C2.34 10 1.68 10 1 10 C-1.42857143 3.71428571 -1.42857143 3.71428571 0 0 Z " fill="#48291F" transform="translate(125,98)"/>
<path d="M0 0 C1.00000429 4.00001715 0.80688405 6.05523353 0 10 C-0.99 10.33 -1.98 10.66 -3 11 C-2.01 7.37 -1.02 3.74 0 0 Z " fill="#6C554A" transform="translate(17,90)"/>
<path d="M0 0 C4.51720311 -0.36625971 4.51720311 -0.36625971 6.8125 1.375 C8 3 8 3 8 5 C5.33333333 3.66666667 2.66666667 2.33333333 0 1 C0 0.67 0 0.34 0 0 Z " fill="#502D26" transform="translate(118,10)"/>
<path d="M0 0 C0.99 0.33 1.98 0.66 3 1 C3.33 2.65 3.66 4.3 4 6 C3.01 6 2.02 6 1 6 C0.67 4.02 0.34 2.04 0 0 Z " fill="#5C3B32" transform="translate(14,58)"/>
</svg>
