<?xml version="1.0" encoding="UTF-8"?>
<svg version="1.1" xmlns="http://www.w3.org/2000/svg" width="130" height="99">
<path d="M0 0 C2.25761284 0.01610141 4.51343653 0.00004327 6.77099609 -0.01904297 C21.62466321 -0.04019815 37.83114051 1.6085307 49.38427734 11.82861328 C52.35361673 15.20286258 53.00606452 17.94894413 52.75927734 22.39111328 C53.74927734 22.06111328 54.73927734 21.73111328 55.75927734 21.39111328 C61.77070312 22.36069808 64.76600558 23.55078388 68.75927734 28.39111328 C70.85447911 32.58151681 70.1730476 37.82764715 69.75927734 42.39111328 C67.22886671 47.97910343 62.43104985 51.55844554 57.75927734 55.39111328 C58.16919922 55.85001953 58.57912109 56.30892578 59.00146484 56.78173828 C59.54029297 57.39533203 60.07912109 58.00892578 60.63427734 58.64111328 C61.16794922 59.24439453 61.70162109 59.84767578 62.25146484 60.46923828 C65.50868268 64.62092527 66.21276521 67.88728391 66.06787109 73.08642578 C65.27219327 79.02882975 61.55617067 83.27654853 56.98193359 86.91845703 C34.97352516 101.50047809 3.35884197 102.60855638 -22.01977539 98.21264648 C-36.10611499 95.31075753 -50.48647362 90.4282057 -59.24072266 78.39111328 C-61.22099625 74.43056609 -60.65155823 69.70795269 -60.24072266 65.39111328 C-57.63810022 59.23946025 -51.87788142 55.67042198 -46.24072266 52.39111328 C-43.92822266 51.69189453 -43.92822266 51.69189453 -42.24072266 51.39111328 C-42.51787109 50.51068359 -42.79501953 49.63025391 -43.08056641 48.72314453 C-43.44279297 47.56169922 -43.80501953 46.40025391 -44.17822266 45.20361328 C-44.71769531 43.48078125 -44.71769531 43.48078125 -45.26806641 41.72314453 C-47.7346605 33.27332622 -49.69359537 22.05472303 -46.06494141 13.67626953 C-35.58541947 0.64564679 -15.39935806 -0.13019184 0 0 Z M52.75927734 29.39111328 C52.08572806 31.72263003 51.42016132 34.05598991 50.75927734 36.39111328 C50.49501953 37.31794922 50.23076172 38.24478516 49.95849609 39.19970703 C49.68650391 40.17037109 49.41451172 41.14103516 49.13427734 42.14111328 C48.87388672 43.06408203 48.61349609 43.98705078 48.34521484 44.93798828 C47.64311813 47.457078 47.64311813 47.457078 47.75927734 50.39111328 C54.06375881 50.23350124 57.57515723 46.71503693 61.75927734 42.39111328 C62.92979164 40.05008469 62.95850195 38.49758375 63.00927734 35.89111328 C63.03505859 35.09705078 63.06083984 34.30298828 63.08740234 33.48486328 C62.97912109 32.79392578 62.87083984 32.10298828 62.75927734 31.39111328 C59.11509994 28.96166168 57.04686462 29.22931753 52.75927734 29.39111328 Z " fill="#55271C" transform="translate(60.24072265625,-0.39111328125)"/>
<path d="M0 0 C0.96873047 0.47179687 0.96873047 0.47179687 1.95703125 0.953125 C24.15229632 11.03360107 50.76657377 12.52648565 74 5 C76.89481178 3.79921438 79.58121017 2.53082289 82.28515625 0.953125 C84 0 84 0 86 0 C84.75062942 13.43073371 79.48023128 26.29929823 70 36 C59.68189689 44.36547404 48.92655377 46.03488898 35.99316406 45.21142578 C25.1136555 44.05737698 16.48980009 37.50807837 9.66796875 29.328125 C3.3066178 20.44904967 -0.19263662 10.92249643 0 0 Z " fill="#F1EBDD" transform="translate(20,29)"/>
<path d="M0 0 C1.578125 1.85546875 1.578125 1.85546875 3.25 4.1875 C10.13554506 13.2580197 19.05667346 19.64540029 30.46875 21.71484375 C44.79785231 23.32907904 58.39752517 21.01316614 70 12 C73.77894484 8.290918 77.06400113 4.40399831 80 0 C82.91162891 -0.4365045 84.50054839 -0.27065255 87.09765625 1.13671875 C94.93856596 7.32526975 94.93856596 7.32526975 97 11 C97.08503071 15.67668906 96.05459553 19.05054361 92.828125 22.52734375 C74.20537061 37.52900701 46.55369075 37.36234818 24 36 C10.67115101 34.49094369 -7.01704833 30.29225511 -16 19.625 C-17.32391333 16.1497275 -17.46151903 13.69215227 -17 10 C-14.16236684 4.71168366 -6.08361346 -2.02787115 0 0 Z " fill="#A05F3A" transform="translate(23,57)"/>
<path d="M0 0 C1.76537109 -0.01160156 1.76537109 -0.01160156 3.56640625 -0.0234375 C13.98364159 -0.00051729 24.37526953 0.72013346 34.125 4.625 C35.15625 5.02460938 36.1875 5.42421875 37.25 5.8359375 C40.28637659 7.32937272 42.62963349 8.96967406 45.125 11.25 C45.9375 13.6875 45.9375 13.6875 45.125 16.25 C31.9691337 28.24291679 10.41586205 28.00410117 -6.23974609 27.39794922 C-18.33814515 26.71871725 -31.19314997 24.90539593 -40.6875 16.6796875 C-41.875 15.25 -41.875 15.25 -41.9375 13.375 C-39.10131135 7.7026227 -33.50905446 5.41062659 -27.92578125 3.14453125 C-18.64701444 0.42386851 -9.62856444 -0.06286332 0 0 Z " fill="#93AD54" transform="translate(60.875,5.75)"/>
<path d="M0 0 C1.76537109 -0.01160156 1.76537109 -0.01160156 3.56640625 -0.0234375 C13.98364159 -0.00051729 24.37526953 0.72013346 34.125 4.625 C35.15625 5.02460938 36.1875 5.42421875 37.25 5.8359375 C40.29307338 7.33266653 42.64621247 8.93796727 45.125 11.25 C45.5 13.9375 45.5 13.9375 45.125 16.25 C44.63 16.745 44.63 16.745 44.125 17.25 C38.61820686 16.88288046 33.82997237 15.20248618 28.67578125 13.28515625 C19.32825181 10.56007891 10.00846281 9.88759909 0.3125 9.9375 C-0.82243896 9.94241455 -1.95737793 9.9473291 -3.12670898 9.95239258 C-14.48778356 10.11053445 -25.45743615 10.70745504 -35.04296875 17.45703125 C-36.875 18.25 -36.875 18.25 -39.05078125 17.63671875 C-40.875 16.25 -40.875 16.25 -41.625 14.125 C-41.7075 13.50625 -41.79 12.8875 -41.875 12.25 C-30.11387697 1.00023015 -15.66023673 -0.10224311 0 0 Z " fill="#EFE7D5" transform="translate(60.875,5.75)"/>
<path d="M0 0 C0.99 0 1.98 0 3 0 C3 1.65 3 3.3 3 5 C5.97 4.34 8.94 3.68 12 3 C12 5.64 12 8.28 12 11 C11.01 10.67 10.02 10.34 9 10 C9 10.66 9 11.32 9 12 C9.99 12.33 10.98 12.66 12 13 C11.67 13.66 11.34 14.32 11 15 C10.113125 14.34 9.22625 13.68 8.3125 13 C4.36315371 10.5589758 4.36315371 10.5589758 0 11 C-1.70680947 12.62553283 -3.37660195 14.29115995 -5 16 C-5.99 16 -6.98 16 -8 16 C-7.53898164 11.29761275 -6.96823597 7.76737643 -4 4 C-3.01 4 -2.02 4 -1 4 C-0.67 2.68 -0.34 1.36 0 0 Z " fill="#4D1C14" transform="translate(103,47)"/>
<path d="M0 0 C7.26236302 1.30960645 13.3830748 3.75956186 20 7 C20 7.33 20 7.66 20 8 C18.35 8.33 16.7 8.66 15 9 C15 9.33 15 9.66 15 10 C8.375 9.25 8.375 9.25 5 7 C4.67 9.31 4.34 11.62 4 14 C3.34 14 2.68 14 2 14 C1.34 14.66 0.68 15.32 0 16 C-1.52634923 12.94730154 -0.83794444 10.24154311 -0.5625 6.875 C-0.46066406 5.59367187 -0.35882813 4.31234375 -0.25390625 2.9921875 C-0.12822266 1.51105469 -0.12822266 1.51105469 0 0 Z " fill="#522619" transform="translate(16,23)"/>
<path d="M0 0 C0.33 0 0.66 0 1 0 C1.33 1.65 1.66 3.3 2 5 C2.78375 4.938125 3.5675 4.87625 4.375 4.8125 C5.674375 4.9053125 5.674375 4.9053125 7 5 C7.99 6.485 7.99 6.485 9 8 C6.03 7.505 6.03 7.505 3 7 C3 11.62 3 16.24 3 21 C4.65 20.01 6.3 19.02 8 18 C9.38458877 24.79707213 8.35001386 29.52086573 6 36 C5.01 35.67 4.02 35.34 3 35 C3.66 35 4.32 35 5 35 C4.72285156 34.11957031 4.44570313 33.23914062 4.16015625 32.33203125 C3.79792969 31.17058594 3.43570312 30.00914063 3.0625 28.8125 C2.70285156 27.66394531 2.34320313 26.51539062 1.97265625 25.33203125 C0.25402291 19.44450418 -0.12892743 14.28349455 -0.0625 8.1875 C-0.05573242 7.00510742 -0.05573242 7.00510742 -0.04882812 5.79882812 C-0.03711312 3.86585239 -0.01917998 1.93291607 0 0 Z " fill="#5D372D" transform="translate(13,16)"/>
<path d="M0 0 C3.36563586 4.30880815 6.17687586 8.82362968 8 14 C7.3125 17.625 7.3125 17.625 6 20 C5.278125 19.175 4.55625 18.35 3.8125 17.5 C1.27082634 14.75592194 1.27082634 14.75592194 -1.8125 14.6875 C-2.534375 14.790625 -3.25625 14.89375 -4 15 C-4 14.34 -4 13.68 -4 13 C-4.66 12.34 -5.32 11.68 -6 11 C-4.68 10.67 -3.36 10.34 -2 10 C-2.061875 8.9171875 -2.061875 8.9171875 -2.125 7.8125 C-1.99078695 4.79270631 -1.24829381 2.73064271 0 0 Z " fill="#502017" transform="translate(21,42)"/>
<path d="M0 0 C1.32 0.66 2.64 1.32 4 2 C4 3.32 4 4.64 4 6 C2.1015625 7.6328125 2.1015625 7.6328125 -0.375 9.125 C-2.87621627 10.65749124 -4.92103344 11.92103344 -7 14 C-7.33 13.34 -7.66 12.68 -8 12 C-9.65 12.33 -11.3 12.66 -13 13 C-10.50869967 6.88499009 -5.394715 3.38737919 0 0 Z " fill="#5F2D20" transform="translate(14,52)"/>
<path d="M0 0 C1.33333333 0 2.66666667 0 4 0 C4.144375 0.78375 4.28875 1.5675 4.4375 2.375 C4.87798925 4.96421018 4.87798925 4.96421018 6 7 C5.59255295 9.0571802 5.10151304 11.09831097 4.5625 13.125 C4.27503906 14.22070312 3.98757812 15.31640625 3.69140625 16.4453125 C3.46324219 17.28835937 3.23507813 18.13140625 3 19 C2.34 19 1.68 19 1 19 C1 17.35 1 15.7 1 14 C0.01 14 -0.98 14 -2 14 C-2.33 15.32 -2.66 16.64 -3 18 C-3.66 18 -4.32 18 -5 18 C-3.36959185 11.98922864 -1.72852643 5.98336072 0 0 Z " fill="#61372F" transform="translate(105,33)"/>
<path d="M0 0 C4.67239145 2.13206212 8.59287819 4.02502456 12 8 C10.8141763 11.37503669 9.72426311 13.64722731 7 16 C6.65775391 14.84757812 6.65775391 14.84757812 6.30859375 13.671875 C4.69073094 10.36853719 3.37005365 9.74592735 0.0625 8.25 C-0.81277344 7.84265625 -1.68804687 7.4353125 -2.58984375 7.015625 C-5.07215324 5.93317923 -5.07215324 5.93317923 -8 5 C-8 4.34 -8 3.68 -8 3 C-5 3 -2 3 1 3 C0.67 2.01 0.34 1.02 0 0 Z " fill="#5F392E" transform="translate(99,5)"/>
<path d="M0 0 C0.33 0.66 0.66 1.32 1 2 C0.67 2.66 0.34 3.32 0 4 C0.99 4 1.98 4 3 4 C3.99 5.485 3.99 5.485 5 7 C5.66 6.67 6.32 6.34 7 6 C7 8.97 7 11.94 7 15 C6.01 15.495 6.01 15.495 5 16 C4.67 14.35 4.34 12.7 4 11 C3.34 11.66 2.68 12.32 2 13 C2 10.69 2 8.38 2 6 C0.9275 6.66 -0.145 7.32 -1.25 8 C-4.30980686 9.88295807 -5.1335864 10 -9 10 C-9 7.25 -9 7.25 -8 4 C-5.49568941 2.25280657 -2.84048268 1.09995912 0 0 Z " fill="#4B2618" transform="translate(104,23)"/>
<path d="M0 0 C0.74330566 -0.00191345 1.48661133 -0.0038269 2.25244141 -0.00579834 C3.82259459 -0.00715817 5.3927591 -0.00347579 6.96289062 0.00488281 C9.36614233 0.01558555 11.76864654 0.0049811 14.171875 -0.0078125 C15.69791832 -0.00649087 17.22396117 -0.0039284 18.75 0 C19.46881348 -0.00404846 20.18762695 -0.00809692 20.92822266 -0.01226807 C24.62850434 0.02250818 26.21266401 0.15740101 29.375 2.265625 C20.465 2.265625 11.555 2.265625 2.375 2.265625 C7.985 2.595625 13.595 2.925625 19.375 3.265625 C19.375 3.595625 19.375 3.925625 19.375 4.265625 C11.455 4.595625 3.535 4.925625 -4.625 5.265625 C-3.965 4.935625 -3.305 4.605625 -2.625 4.265625 C-2.625 3.605625 -2.625 2.945625 -2.625 2.265625 C-5.265 2.265625 -7.905 2.265625 -10.625 2.265625 C-6.96846256 -0.17206663 -4.22710148 -0.02380765 0 0 Z " fill="#471B13" transform="translate(51.625,0.734375)"/>
<path d="M0 0 C0.680625 0.70125 1.36125 1.4025 2.0625 2.125 C4.72871619 4.79883395 7.5596584 7.23971294 10.44921875 9.66796875 C11.68048318 10.72555357 12.85228537 11.85228537 14 13 C5.5309417 14.0735426 5.5309417 14.0735426 1.77734375 11.44140625 C0.0671533 9.69609895 -1.50926247 7.93499705 -3 6 C-2.01 4.02 -1.02 2.04 0 0 Z " fill="#5B2D23" transform="translate(29,57)"/>
<path d="M0 0 C1.91772461 0.23779297 1.91772461 0.23779297 4.40234375 0.7421875 C5.29244141 0.92136719 6.18253906 1.10054688 7.09960938 1.28515625 C8.03611328 1.47980469 8.97261719 1.67445312 9.9375 1.875 C11.33645508 2.15537109 11.33645508 2.15537109 12.76367188 2.44140625 C19.71943681 3.85971841 19.71943681 3.85971841 22 5 C22 5.66 22 6.32 22 7 C15.02634831 7.23245506 7.68018983 7.20936076 1 5 C-0.34765625 2.921875 -0.34765625 2.921875 -1 1 C-0.67 0.67 -0.34 0.34 0 0 Z " fill="#612415" transform="translate(27,88)"/>
<path d="M0 0 C0 1.98 0 3.96 0 6 C-4.10520474 7.62298792 -6.74564545 8.37979067 -11 7 C-11.99 6.34 -12.98 5.68 -14 5 C-16.28648848 4.75892674 -16.28648848 4.75892674 -18.6875 4.875 C-19.49574219 4.89304687 -20.30398437 4.91109375 -21.13671875 4.9296875 C-21.75160156 4.95289063 -22.36648437 4.97609375 -23 5 C-23 4.67 -23 4.34 -23 4 C-21.80761719 3.79503906 -20.61523438 3.59007812 -19.38671875 3.37890625 C-17.82029147 3.10689193 -16.25388636 2.83474985 -14.6875 2.5625 C-13.90181641 2.42779297 -13.11613281 2.29308594 -12.30664062 2.15429688 C-11.54931641 2.02216797 -10.79199219 1.89003906 -10.01171875 1.75390625 C-9.31522217 1.63345947 -8.61872559 1.5130127 -7.90112305 1.38891602 C-1.11173886 0 -1.11173886 0 0 0 Z " fill="#5F3722" transform="translate(96,28)"/>
<path d="M0 0 C1.24716797 -0.00193359 1.24716797 -0.00193359 2.51953125 -0.00390625 C3.39480469 -0.00003906 4.27007812 0.00382813 5.171875 0.0078125 C6.03167969 0.00394531 6.89148438 0.00007812 7.77734375 -0.00390625 C16.59118962 0.00967441 16.59118962 0.00967441 19.921875 1.1328125 C20.581875 2.1228125 21.241875 3.1128125 21.921875 4.1328125 C17.79700662 4.21958158 13.67237116 4.27312545 9.546875 4.3203125 C8.37125 4.34544922 7.195625 4.37058594 5.984375 4.39648438 C4.86289062 4.40615234 3.74140625 4.41582031 2.5859375 4.42578125 C1.54904785 4.4414917 0.5121582 4.45720215 -0.55615234 4.47338867 C-1.38840332 4.36099854 -2.2206543 4.2486084 -3.078125 4.1328125 C-3.738125 3.1428125 -4.398125 2.1528125 -5.078125 1.1328125 C-3.54347493 -0.40183757 -2.13411513 0.00317172 0 0 Z " fill="#55251D" transform="translate(58.078125,1.8671875)"/>
<path d="M0 0 C0.75732422 0.04833984 1.51464844 0.09667969 2.29492188 0.14648438 C3.08060547 0.20255859 3.86628906 0.25863281 4.67578125 0.31640625 C5.47306641 0.36861328 6.27035156 0.42082031 7.09179688 0.47460938 C9.05764647 0.60409647 11.0230179 0.74080666 12.98828125 0.87890625 C12.98828125 1.53890625 12.98828125 2.19890625 12.98828125 2.87890625 C15.29828125 3.20890625 17.60828125 3.53890625 19.98828125 3.87890625 C19.98828125 4.20890625 19.98828125 4.53890625 19.98828125 4.87890625 C16.07167695 4.93700285 12.15518362 4.97253518 8.23828125 5.00390625 C7.12710938 5.02066406 6.0159375 5.03742187 4.87109375 5.0546875 C3.26621094 5.06435547 3.26621094 5.06435547 1.62890625 5.07421875 C0.64438477 5.08469238 -0.34013672 5.09516602 -1.35449219 5.10595703 C-4.07144986 4.87380243 -5.69284388 4.26926898 -8.01171875 2.87890625 C-6.28289536 -0.57874054 -3.44247755 -0.23294961 0 0 Z " fill="#704439" transform="translate(55.01171875,34.12109375)"/>
<path d="M0 0 C0.66 0 1.32 0 2 0 C4.5393228 3.41831915 5.3636198 5.75776898 5 10 C4.01 10 3.02 10 2 10 C-0.22189824 12.22189824 -0.92598892 14.08482708 -2 17 C-3.4662333 14.06753341 -2.97087389 11.32233257 -2.83984375 8.09375 C-2.78848226 5.77744021 -2.78848226 5.77744021 -5 4 C-4.34 4 -3.68 4 -3 4 C-3 3.34 -3 2.68 -3 2 C-2.01 2 -1.02 2 0 2 C0 1.34 0 0.68 0 0 Z " fill="#633E35" transform="translate(125,25)"/>
<path d="M0 0 C4.72815638 -0.07526453 9.45594922 -0.12911619 14.18457031 -0.16479492 C15.78652027 -0.17969902 17.3884308 -0.20002947 18.99023438 -0.22631836 C43.57140603 -0.61906264 43.57140603 -0.61906264 52 5 C49.77027727 4.88534579 47.54121247 4.75785234 45.3125 4.625 C44.07113281 4.55539063 42.82976562 4.48578125 41.55078125 4.4140625 C38 4 38 4 35.75976562 3 C32.26452748 1.73350182 28.96515537 1.6468807 25.29296875 1.5859375 C24.56757401 1.56657135 23.84217926 1.5472052 23.09480286 1.5272522 C20.79248578 1.46777892 18.49011781 1.42120155 16.1875 1.375 C14.62042168 1.33679042 13.05336369 1.29773697 11.48632812 1.2578125 C7.65771848 1.16210437 3.82901058 1.07795552 0 1 C0 0.67 0 0.34 0 0 Z " fill="#65493D" transform="translate(45,0)"/>
<path d="M0 0 C0.66 0 1.32 0 2 0 C2.9375 2.625 2.9375 2.625 3 6 C0.23454709 9.38865357 -2.86540575 11.62180192 -7 13 C-7.33 12.01 -7.66 11.02 -8 10 C-6.85546875 8.02734375 -6.85546875 8.02734375 -5.1875 5.9375 C-4.37345703 4.89916016 -4.37345703 4.89916016 -3.54296875 3.83984375 C-2 2 -2 2 0 0 Z " fill="#5E3228" transform="translate(119,76)"/>
<path d="M0 0 C0.99 0 1.98 0 3 0 C4.53166168 4.08443115 3.63081652 7.79455657 3 12 C1.35 12 -0.3 12 -2 12 C-2.05395478 10.37536158 -2.09277195 8.75021459 -2.125 7.125 C-2.14820313 6.22007813 -2.17140625 5.31515625 -2.1953125 4.3828125 C-2 2 -2 2 0 0 Z " fill="#491B12" transform="translate(3,63)"/>
<path d="M0 0 C1.58323688 -0.027193 3.16661062 -0.04648306 4.75 -0.0625 C6.07257813 -0.07990234 6.07257813 -0.07990234 7.421875 -0.09765625 C9.7818838 -0.00826198 11.74498524 0.33087179 14 1 C14 1.99 14 2.98 14 4 C13.01 4 12.02 4 11 4 C11 4.66 11 5.32 11 6 C7.37 5.67 3.74 5.34 0 5 C1.32 4.01 2.64 3.02 4 2 C2.68 1.34 1.36 0.68 0 0 Z " fill="#491E16" transform="translate(111,23)"/>
<path d="M0 0 C0.33 0 0.66 0 1 0 C1.33 2.97 1.66 5.94 2 9 C3.32 9.33 4.64 9.66 6 10 C6.144375 10.598125 6.28875 11.19625 6.4375 11.8125 C6.8872439 13.56150404 7.42892341 15.28677023 8 17 C7.34 17.66 6.68 18.32 6 19 C-0.13676471 11.76176471 -0.13676471 11.76176471 -0.0625 5.375 C-0.05347656 4.37210937 -0.04445312 3.36921875 -0.03515625 2.3359375 C-0.02355469 1.56507812 -0.01195312 0.79421875 0 0 Z " fill="#5B372D" transform="translate(0,65)"/>
<path d="M0 0 C2 3 2 3 1.6875 5.5 C1.17901328 7.34904262 0.60642538 9.18072387 0 11 C-1.98 11.33 -3.96 11.66 -6 12 C-5.01 8.37 -4.02 4.74 -3 1 C-2.34 1.33 -1.68 1.66 -1 2 C-0.67 1.34 -0.34 0.68 0 0 Z " fill="#471A14" transform="translate(128,32)"/>
<path d="M0 0 C15.34407216 -0.31314433 15.34407216 -0.31314433 21 5 C13.69303751 4.54034292 7.00242552 3.11670277 0 1 C0 0.67 0 0.34 0 0 Z " fill="#5F4237" transform="translate(24,93)"/>
<path d="M0 0 C-0.29296875 2.01822917 -0.5859375 4.03645833 -0.87890625 6.0546875 C-1.1684297 8.08140667 -1.1684297 8.08140667 0 10 C-1.32 10 -2.64 10 -4 10 C-4 8.35 -4 6.7 -4 5 C-4.66 4.67 -5.32 4.34 -6 4 C-5.34 4 -4.68 4 -4 4 C-4 3.34 -4 2.68 -4 2 C-6.31 2.33 -8.62 2.66 -11 3 C-4.23255814 -1.51162791 -4.23255814 -1.51162791 0 0 Z " fill="#66423A" transform="translate(119,48)"/>
<path d="M0 0 C0 0.99 0 1.98 0 3 C0.99 3 1.98 3 3 3 C3.99 3.33 4.98 3.66 6 4 C-2.42857143 7.42857143 -2.42857143 7.42857143 -7 7 C-7 6.34 -7 5.68 -7 5 C-7.66 4.67 -8.32 4.34 -9 4 C-8.01 3.67 -7.02 3.34 -6 3 C-5.34 3.33 -4.68 3.66 -4 4 C-4 3.34 -4 2.68 -4 2 C-2.68 1.34 -1.36 0.68 0 0 Z " fill="#471D15" transform="translate(32,4)"/>
<path d="M0 0 C-0.99 0.33 -1.98 0.66 -3 1 C-3 1.66 -3 2.32 -3 3 C-3.90492187 3.09087891 -3.90492187 3.09087891 -4.828125 3.18359375 C-6.02695312 3.30927734 -6.02695312 3.30927734 -7.25 3.4375 C-8.03890625 3.51871094 -8.8278125 3.59992187 -9.640625 3.68359375 C-11.82364639 3.97634993 -13.8773182 4.42064419 -16 5 C-16 5.66 -16 6.32 -16 7 C-17.32 6.34 -18.64 5.68 -20 5 C-18.25093469 4.35163958 -16.50070781 3.70641216 -14.75 3.0625 C-13.77546875 2.70285156 -12.8009375 2.34320313 -11.796875 1.97265625 C-7.67221885 0.53824371 -4.3787014 -0.12163059 0 0 Z " fill="#604438" transform="translate(44,1)"/>
<path d="M0 0 C0.33 0.66 0.66 1.32 1 2 C2.32 1.67 3.64 1.34 5 1 C3.55922954 4.36179774 1.75249979 6.59156268 -1 9 C-1.66 9 -2.32 9 -3 9 C-3.75 6.75 -3.75 6.75 -4 4 C-2.0625 1.6875 -2.0625 1.6875 0 0 Z " fill="#5F3128" transform="translate(121,42)"/>
<path d="M0 0 C4.89712235 4.73915066 4.89712235 4.73915066 5.16796875 8.05859375 C5.17441406 8.84363281 5.18085937 9.62867187 5.1875 10.4375 C5.20167969 11.21996094 5.21585937 12.00242187 5.23046875 12.80859375 C5 15 5 15 3 18 C2.80083984 16.67935547 2.80083984 16.67935547 2.59765625 15.33203125 C2.42105469 14.17058594 2.24445313 13.00914063 2.0625 11.8125 C1.88847656 10.66394531 1.71445313 9.51539062 1.53515625 8.33203125 C1.08620687 5.53674788 0.57917838 2.77066414 0 0 Z " fill="#5D4037" transform="translate(121,60)"/>
<path d="M0 0 C5.21979128 -0.1799928 9.07262981 0.02905192 14 2 C14 2.66 14 3.32 14 4 C11.69 4.33 9.38 4.66 7 5 C6.67 4.34 6.34 3.68 6 3 C4.02111039 2.27306096 2.02045442 1.60183749 0 1 C0 0.67 0 0.34 0 0 Z " fill="#5A281D" transform="translate(33,32)"/>
<path d="M0 0 C2.43757413 -0.02698422 4.87484915 -0.04683099 7.3125 -0.0625 C8.00279297 -0.07087891 8.69308594 -0.07925781 9.40429688 -0.08789062 C12.5483025 -0.10307906 14.99420019 -0.00193327 18 1 C18 1.66 18 2.32 18 3 C18.99 3.33 19.98 3.66 21 4 C17.99768661 5.50115669 15.96116256 4.42412493 12.75 3.625 C8.51102027 2.57990592 4.3157184 1.66697466 0 1 C0 0.67 0 0.34 0 0 Z " fill="#D9DEB3" transform="translate(74,15)"/>
<path d="M0 0 C0 0.66 0 1.32 0 2 C0.99 2.33 1.98 2.66 3 3 C-2.75 6.875 -2.75 6.875 -5 8 C-5.99 7.01 -6.98 6.02 -8 5 C-2.25 0 -2.25 0 0 0 Z " fill="#5D2F26" transform="translate(25,9)"/>
<path d="M0 0 C0.125 7.75 0.125 7.75 -1 10 C-1.66 10 -2.32 10 -3 10 C-3 8.35 -3 6.7 -3 5 C-3.99 5.33 -4.98 5.66 -6 6 C-3.4 0 -3.4 0 0 0 Z " fill="#56271D" transform="translate(124,71)"/>
<path d="M0 0 C0.66 0.33 1.32 0.66 2 1 C1.07544441 2.508013 0.1349253 4.00624917 -0.8125 5.5 C-1.33457031 6.3353125 -1.85664062 7.170625 -2.39453125 8.03125 C-2.92433594 8.6809375 -3.45414062 9.330625 -4 10 C-4.99 10 -5.98 10 -7 10 C-7 7 -7 7 -4.625 4.4375 C-3.75875 3.633125 -2.8925 2.82875 -2 2 C-1.34 1.34 -0.68 0.68 0 0 Z " fill="#5E3930" transform="translate(9,55)"/>
<path d="M0 0 C-0.33 2.31 -0.66 4.62 -1 7 C-3.31 6.67 -5.62 6.34 -8 6 C-6.72879117 2.18637351 -4.19078006 0 0 0 Z " fill="#DED2C2" transform="translate(106,29)"/>
<path d="M0 0 C1.34771696 2.21976911 2.04398726 3.50147776 1.8125 6.125 C1 8 1 8 -2 10 C-3.4783226 7.04335481 -3.06032783 4.25770263 -3 1 C-2.01 1.33 -1.02 1.66 0 2 C0 1.34 0 0.68 0 0 Z " fill="#451811" transform="translate(18,29)"/>
<path d="M0 0 C-0.33 0.99 -0.66 1.98 -1 3 C-1.99 3 -2.98 3 -4 3 C-4 3.66 -4 4.32 -4 5 C-6.31 4.67 -8.62 4.34 -11 4 C-7.88789178 0.88789178 -4.34860953 0 0 0 Z " fill="#563215" transform="translate(96,28)"/>
<path d="M0 0 C0 2.97 0 5.94 0 9 C-0.99 9.495 -0.99 9.495 -2 10 C-2.33 8.35 -2.66 6.7 -3 5 C-3.66 5.66 -4.32 6.32 -5 7 C-5 5.35 -5 3.7 -5 2 C-1.125 0 -1.125 0 0 0 Z " fill="#421A14" transform="translate(111,29)"/>
<path d="M0 0 C4.07842654 -0.23990744 7.26602153 0.30273706 11 2 C11.671875 4.078125 11.671875 4.078125 12 6 C6 4 6 4 0 2 C0 1.34 0 0.68 0 0 Z " fill="#583429" transform="translate(91,8)"/>
<path d="M0 0 C2.12508244 3.18762365 2.5020163 5.26512223 3 9 C2.34 9 1.68 9 1 9 C1 7.35 1 5.7 1 4 C0.01 4 -0.98 4 -2 4 C-2.33 5.32 -2.66 6.64 -3 8 C-3.66 8 -4.32 8 -5 8 C-4.1875 4.5625 -4.1875 4.5625 -3 1 C-2.01 0.67 -1.02 0.34 0 0 Z " fill="#582D26" transform="translate(105,43)"/>
<path d="M0 0 C0.33 0.66 0.66 1.32 1 2 C1.99 2 2.98 2 4 2 C4 3.65 4 5.3 4 7 C2.35 7.33 0.7 7.66 -1 8 C-1.04241723 5.66705225 -1.04092937 3.33297433 -1 1 C-0.67 0.67 -0.34 0.34 0 0 Z " fill="#451C14" transform="translate(15,15)"/>
<path d="M0 0 C-2.07914664 0.70005949 -4.16351586 1.38462244 -6.25 2.0625 C-7.41015625 2.44535156 -8.5703125 2.82820313 -9.765625 3.22265625 C-12.80077085 3.95211763 -14.15703213 4.11889082 -17 3 C-16.34 3 -15.68 3 -15 3 C-15 2.34 -15 1.68 -15 1 C-13.25215171 0.63536268 -11.50159498 0.2836922 -9.75 -0.0625 C-8.28820312 -0.35833984 -8.28820312 -0.35833984 -6.796875 -0.66015625 C-4.131881 -0.98397535 -2.51128277 -0.85503199 0 0 Z " fill="#6F554D" transform="translate(105,93)"/>
<path d="M0 0 C1.98 0.66 3.96 1.32 6 2 C5.67 3.65 5.34 5.3 5 7 C3.02 5.35 1.04 3.7 -1 2 C-0.67 1.34 -0.34 0.68 0 0 Z " fill="#642719" transform="translate(27,61)"/>
<path d="M0 0 C0.99 0 1.98 0 3 0 C3.3125 2.25 3.3125 2.25 3 5 C0.5 7.3125 0.5 7.3125 -2 9 C-2.20140476 5.37471432 -1.85776765 3.13498292 0 0 Z " fill="#5E2416" transform="translate(9,57)"/>
<path d="M0 0 C2.475 0.495 2.475 0.495 5 1 C5 1.66 5 2.32 5 3 C5.99 3.33 6.98 3.66 8 4 C6.35 4.66 4.7 5.32 3 6 C1.5 4.6875 1.5 4.6875 0 3 C0 2.01 0 1.02 0 0 Z " fill="#E4DCC7" transform="translate(19,18)"/>
<path d="M0 0 C0.33 1.32 0.66 2.64 1 4 C1.66 3.67 2.32 3.34 3 3 C2.67 4.65 2.34 6.3 2 8 C0.35 7.67 -1.3 7.34 -3 7 C-3 3.48283697 -2.17554415 2.62878252 0 0 Z " fill="#623125" transform="translate(95,58)"/>
<path d="M0 0 C1.1446875 0.12375 1.1446875 0.12375 2.3125 0.25 C-0.79766455 3.53788824 -3.70368925 6.08735988 -7.6875 8.25 C-4.03125 0.375 -4.03125 0.375 0 0 Z " fill="#8E5236" transform="translate(105.6875,56.75)"/>
<path d="M0 0 C1.5 1.375 1.5 1.375 3 3 C3 3.66 3 4.32 3 5 C3.99 5.33 4.98 5.66 6 6 C5.67 6.66 5.34 7.32 5 8 C4.01 8 3.02 8 2 8 C0.25 6.25 0.25 6.25 -1 4 C-0.6875 1.75 -0.6875 1.75 0 0 Z " fill="#6A2A1B" transform="translate(6,74)"/>
<path d="M0 0 C2.97 0.33 5.94 0.66 9 1 C8.01 1.495 8.01 1.495 7 2 C7 2.99 7 3.98 7 5 C2.25 3.125 2.25 3.125 0 2 C0 1.34 0 0.68 0 0 Z " fill="#501D12" transform="translate(34,69)"/>
<path d="M0 0 C2.15377564 2.62198774 3.40072174 4.64404172 4 8 C3.01 8.33 2.02 8.66 1 9 C1 8.01 1 7.02 1 6 C0.34 6 -0.32 6 -1 6 C-0.67 4.02 -0.34 2.04 0 0 Z " fill="#512820" transform="translate(21,42)"/>
<path d="M0 0 C0.99 0.33 1.98 0.66 3 1 C1.71937515 2.7074998 0.38232443 4.37373596 -1 6 C-1.66 6 -2.32 6 -3 6 C-3 7.98 -3 9.96 -3 12 C-3.33 12 -3.66 12 -4 12 C-4.33292585 7.75519536 -4.43885872 5.64457375 -2 2.0625 C-1.34 1.381875 -0.68 0.70125 0 0 Z " fill="#915538" transform="translate(10,62)"/>
<path d="M0 0 C1.36511719 0.29197266 1.36511719 0.29197266 2.7578125 0.58984375 C3.45648438 0.74582031 4.15515625 0.90179688 4.875 1.0625 C4.215 1.7225 3.555 2.3825 2.875 3.0625 C-1.26330989 2.76153201 -3.64347024 2.38351984 -7.125 0.0625 C-4.4030754 -1.2984623 -2.9418043 -0.64116248 0 0 Z " fill="#633B32" transform="translate(36.125,32.9375)"/>
<path d="M0 0 C0.99 0.33 1.98 0.66 3 1 C2.42655063 3.86724686 2.1385485 4.8614515 0 7 C-2.125 6.625 -2.125 6.625 -4 6 C-2.68 5.67 -1.36 5.34 0 5 C0 3.35 0 1.7 0 0 Z " fill="#461B13" transform="translate(19,47)"/>
<path d="M0 0 C1.98 0.99 3.96 1.98 6 3 C5.34 4.32 4.68 5.64 4 7 C3.34 6.01 2.68 5.02 2 4 C1.01 4.495 1.01 4.495 0 5 C0 3.35 0 1.7 0 0 Z " fill="#E0D4C5" transform="translate(20,29)"/>
<path d="M0 0 C2.375 0.3125 2.375 0.3125 5 1 C5.66 1.99 6.32 2.98 7 4 C5.35 4 3.7 4 2 4 C1.34 2.68 0.68 1.36 0 0 Z " fill="#4D2016" transform="translate(95,6)"/>
<path d="M0 0 C0.99 0 1.98 0 3 0 C3 1.98 3 3.96 3 6 C1.68 5.67 0.36 5.34 -1 5 C-0.67 3.35 -0.34 1.7 0 0 Z " fill="#531F15" transform="translate(3,69)"/>
<path d="M0 0 C1.5625 1.625 1.5625 1.625 3 4 C2.6875 7.25 2.6875 7.25 2 10 C1.01 9.67 0.02 9.34 -1 9 C-0.34 9 0.32 9 1 9 C0.67 8.34 0.34 7.68 0 7 C-0.04022391 4.6670134 -0.04320247 2.33293334 0 0 Z " fill="#674840" transform="translate(17,42)"/>
</svg>
