<?xml version="1.0" encoding="UTF-8"?>
<svg version="1.1" xmlns="http://www.w3.org/2000/svg" width="98" height="150">
<path d="M0 0 C1.33875687 0.00303635 1.33875687 0.00303635 2.70455933 0.00613403 C4.10688309 0.00350555 4.10688309 0.00350555 5.53753662 0.00082397 C8.6440107 -0.00359617 11.75042837 -0.00065598 14.85690308 0.00271606 C17.00542207 0.00204307 19.15394099 0.00107309 21.30245972 -0.00018311 C25.81182579 -0.0016603 30.3211721 0.00049517 34.83053589 0.00515747 C40.62488885 0.01085477 46.41919549 0.00757588 52.21354675 0.00158501 C56.65203198 -0.00202002 61.09050614 -0.00088229 65.5289917 0.0017128 C67.66613775 0.00238223 69.80328479 0.00155309 71.94042969 -0.00076675 C74.92172934 -0.00329233 77.90295288 0.00054597 80.88424683 0.00613403 C81.7767514 0.0041098 82.66925598 0.00208557 83.58880615 0 C89.68014075 0.02126624 89.68014075 0.02126624 90.79440308 1.13552856 C91.89831042 14.37693581 89.64922189 27.92282382 88.23971558 41.06130981 C87.97486048 43.57883979 87.71061979 46.09643448 87.44696045 48.61408997 C86.89474042 53.87357339 86.33815595 59.13257369 85.77731323 64.3911438 C85.06312564 71.08756297 84.3564005 77.78474543 83.65248299 84.48225117 C80.58308167 113.68152291 80.58308167 113.68152291 79.10388947 127.26532364 C78.81012137 129.98975568 78.52673786 132.71509555 78.24502563 135.4407959 C78.07817536 136.99167618 77.91091158 138.54251205 77.74313354 140.09329224 C77.5376741 142.05150154 77.5376741 142.05150154 77.32806396 144.04927063 C76.79440308 147.13552856 76.79440308 147.13552856 74.79440308 150.13552856 C72.06173706 150.50975037 72.06173706 150.50975037 68.54049683 150.50784302 C67.22573364 150.51407181 65.91097046 150.5203006 64.55636597 150.52671814 C63.1148745 150.51803034 61.67338671 150.50871239 60.23190308 150.49880981 C58.75981649 150.49829137 57.28772921 150.49880846 55.81564331 150.50032043 C52.72870565 150.50023065 49.64202882 150.48978873 46.55514526 150.47171021 C42.59366403 150.44902259 38.63256408 150.44847817 34.67103577 150.45522785 C31.63075355 150.45856567 28.59055864 150.45194132 25.55029297 150.44209862 C24.08942115 150.43824308 22.62853962 150.43709986 21.16766357 150.43868446 C19.12785674 150.43905435 17.08806259 150.42497495 15.04830933 150.41018677 C13.88630005 150.40557938 12.72429077 150.40097198 11.52706909 150.39622498 C8.79440308 150.13552856 8.79440308 150.13552856 6.79440308 148.13552856 C6.36840128 145.69874234 6.05943898 143.33998351 5.82052612 140.8833313 C5.74039559 140.13178772 5.66026506 139.38024414 5.57770634 138.60592651 C5.31209464 136.09446192 5.05913619 133.58188483 4.80612183 131.06912231 C4.62135787 129.29821434 4.43581671 127.5273873 4.24954224 125.75663757 C3.75254639 121.01065556 3.26645561 116.26361609 2.78272629 111.51626587 C2.28320778 106.62900503 1.77478506 101.7426709 1.26730347 96.85623169 C0.46712965 89.14109963 -0.32714854 81.42538189 -1.1177063 73.70925903 C-2.02898836 64.81931701 -2.96324273 55.93205093 -3.90872192 47.04568481 C-4.25710895 43.74378304 -4.60456866 40.44178613 -4.95129395 37.13970947 C-5.15981442 35.16235046 -5.37023341 33.18519057 -5.58270264 31.20825195 C-7.85926481 9.96148912 -7.85926481 9.96148912 -7.20559692 1.13552856 C-5.30807789 -0.76199047 -2.52501922 0.00881542 0 0 Z " fill="#D29451" transform="translate(7.205596923828125,-0.135528564453125)"/>
<path d="M0 0 C1.33875687 0.00303635 1.33875687 0.00303635 2.70455933 0.00613403 C4.10688309 0.00350555 4.10688309 0.00350555 5.53753662 0.00082397 C8.6440107 -0.00359617 11.75042837 -0.00065598 14.85690308 0.00271606 C17.00542207 0.00204307 19.15394099 0.00107309 21.30245972 -0.00018311 C25.81182579 -0.0016603 30.3211721 0.00049517 34.83053589 0.00515747 C40.62488885 0.01085477 46.41919549 0.00757588 52.21354675 0.00158501 C56.65203198 -0.00202002 61.09050614 -0.00088229 65.5289917 0.0017128 C67.66613775 0.00238223 69.80328479 0.00155309 71.94042969 -0.00076675 C74.92172934 -0.00329233 77.90295288 0.00054597 80.88424683 0.00613403 C81.7767514 0.0041098 82.66925598 0.00208557 83.58880615 0 C89.68014075 0.02126624 89.68014075 0.02126624 90.79440308 1.13552856 C91.89831042 14.37693581 89.64922189 27.92282382 88.23971558 41.06130981 C87.97486048 43.57883979 87.71061979 46.09643448 87.44696045 48.61408997 C86.89474042 53.87357339 86.33815595 59.13257369 85.77731323 64.3911438 C85.06312564 71.08756297 84.3564005 77.78474543 83.65248299 84.48225117 C80.58308167 113.68152291 80.58308167 113.68152291 79.10388947 127.26532364 C78.81012137 129.98975568 78.52673786 132.71509555 78.24502563 135.4407959 C78.07817536 136.99167618 77.91091158 138.54251205 77.74313354 140.09329224 C77.5376741 142.05150154 77.5376741 142.05150154 77.32806396 144.04927063 C76.79440308 147.13552856 76.79440308 147.13552856 74.79440308 150.13552856 C72.06173706 150.50975037 72.06173706 150.50975037 68.54049683 150.50784302 C67.22573364 150.51407181 65.91097046 150.5203006 64.55636597 150.52671814 C63.1148745 150.51803034 61.67338671 150.50871239 60.23190308 150.49880981 C58.75981649 150.49829137 57.28772921 150.49880846 55.81564331 150.50032043 C52.72870565 150.50023065 49.64202882 150.48978873 46.55514526 150.47171021 C42.59366403 150.44902259 38.63256408 150.44847817 34.67103577 150.45522785 C31.63075355 150.45856567 28.59055864 150.45194132 25.55029297 150.44209862 C24.08942115 150.43824308 22.62853962 150.43709986 21.16766357 150.43868446 C19.12785674 150.43905435 17.08806259 150.42497495 15.04830933 150.41018677 C13.88630005 150.40557938 12.72429077 150.40097198 11.52706909 150.39622498 C8.79440308 150.13552856 8.79440308 150.13552856 6.79440308 148.13552856 C6.36840128 145.69874234 6.05943898 143.33998351 5.82052612 140.8833313 C5.74039559 140.13178772 5.66026506 139.38024414 5.57770634 138.60592651 C5.31209464 136.09446192 5.05913619 133.58188483 4.80612183 131.06912231 C4.62135787 129.29821434 4.43581671 127.5273873 4.24954224 125.75663757 C3.75254639 121.01065556 3.26645561 116.26361609 2.78272629 111.51626587 C2.28320778 106.62900503 1.77478506 101.7426709 1.26730347 96.85623169 C0.46712965 89.14109963 -0.32714854 81.42538189 -1.1177063 73.70925903 C-2.02898836 64.81931701 -2.96324273 55.93205093 -3.90872192 47.04568481 C-4.25710895 43.74378304 -4.60456866 40.44178613 -4.95129395 37.13970947 C-5.15981442 35.16235046 -5.37023341 33.18519057 -5.58270264 31.20825195 C-7.85926481 9.96148912 -7.85926481 9.96148912 -7.20559692 1.13552856 C-5.30807789 -0.76199047 -2.52501922 0.00881542 0 0 Z M-1.20559692 6.13552856 C-0.60599323 15.72918768 0.01758169 25.22526759 1.02877808 34.76834106 C1.14704956 35.90911102 1.26532104 37.04988098 1.38717651 38.22521973 C1.76957959 41.90401328 2.1568222 45.58227724 2.54440308 49.26052856 C2.81312706 51.83277651 3.0816796 54.40504237 3.35006714 56.97732544 C6.38992899 86.0420019 9.56724714 115.09112512 12.79440308 144.13552856 C31.93440308 144.13552856 51.07440308 144.13552856 70.79440308 144.13552856 C75.79016961 98.11377628 75.79016961 98.11377628 80.60690308 52.07302856 C80.75486832 50.64158005 80.75486832 50.64158005 80.90582275 49.18121338 C81.00142487 48.25485077 81.09702698 47.32848816 81.19552612 46.37405396 C81.2778801 45.57770035 81.36023407 44.78134674 81.44508362 43.96086121 C82.71203775 31.35549744 83.74155383 18.76971953 84.79440308 6.13552856 C56.41440308 6.13552856 28.03440308 6.13552856 -1.20559692 6.13552856 Z " fill="#55281E" transform="translate(7.205596923828125,-0.135528564453125)"/>
<path d="M0 0 C28.38 0 56.76 0 86 0 C84 24 84 24 83 33 C56.6 33 30.2 33 3 33 C0 6 0 6 0 0 Z " fill="#F3EAD9" transform="translate(6,6)"/>
<path d="M0 0 C1.26115631 0.00007553 2.52231262 0.00015106 3.82168579 0.00022888 C5.20322712 0.0053359 6.58476806 0.0105519 7.96630859 0.01586914 C9.37592519 0.01773395 10.78554244 0.01915756 12.19515991 0.02015686 C15.90728542 0.02397706 19.61937187 0.03380311 23.33148193 0.04486084 C27.11860628 0.05508564 30.90573693 0.05965677 34.69287109 0.06469727 C42.12518058 0.07542581 49.55745786 0.09249628 56.98974609 0.11352539 C56.40529284 14.58378178 54.6570699 28.66338574 52.98974609 43.11352539 C33.84974609 43.11352539 14.70974609 43.11352539 -5.01025391 43.11352539 C-8.49239676 11.77423968 -8.49239676 11.77423968 -8.01025391 1.11352539 C-5.26360002 -0.25980155 -3.07401323 -0.00612353 0 0 Z " fill="#F3E9D8" transform="translate(25.01025390625,100.886474609375)"/>
<path d="M0 0 C0.33 0 0.66 0 1 0 C1.495 3.465 1.495 3.465 2 7 C2.33 7 2.66 7 3 7 C3 11.62 3 16.24 3 21 C3.66 16.71 4.32 12.42 5 8 C5.33 8 5.66 8 6 8 C5.34869728 20.64160725 4.1296917 33.1892406 2.78515625 45.7734375 C2.56700732 47.83409895 2.34902863 49.89477843 2.13121033 51.95547485 C1.67711138 56.24351571 1.22043059 60.53127178 0.76196289 64.81884766 C0.17703388 70.29179838 -0.40050847 75.76550022 -0.97603512 81.23944664 C-1.42317437 85.48302987 -1.87464766 89.72614374 -2.32736397 93.96913528 C-2.54207098 95.98704578 -2.75535821 98.0051079 -2.96714592 100.02332687 C-3.26391793 102.84596327 -3.56665567 105.66790117 -3.87084961 108.48974609 C-3.9555954 109.30762604 -4.04034119 110.12550598 -4.12765503 110.96817017 C-4.7567463 116.72234039 -5.78533734 122.34152934 -7 128 C-7.33 127.34 -7.66 126.68 -8 126 C-10.97 126.495 -10.97 126.495 -14 127 C-13.67 126.34 -13.34 125.68 -13 125 C-31.81 124.67 -50.62 124.34 -70 124 C-70 123.67 -70 123.34 -70 123 C-50.86 123 -31.72 123 -12 123 C-11.67 117.39 -11.34 111.78 -11 106 C-10.72326279 102.75173925 -10.43405668 99.51782759 -10.09204102 96.27758789 C-9.96496765 95.0297628 -9.96496765 95.0297628 -9.83532715 93.75672913 C-9.56169024 91.0783315 -9.28290451 88.40050021 -9.00390625 85.72265625 C-8.80804413 83.81712375 -8.61248897 81.91155967 -8.41722107 80.00596619 C-7.90673603 75.03311244 -7.3917441 70.06073549 -6.87585449 65.08843994 C-6.45925307 61.06548543 -6.04594927 57.04219538 -5.63281345 53.01888371 C-5.13267581 48.1491878 -4.63097267 43.27965363 -4.12890625 38.41015625 C-4.03609438 37.50945971 -3.94328251 36.60876316 -3.84765816 35.68077278 C-2.61976651 23.78085631 -1.33890994 11.88794511 0 0 Z " fill="#52241A" transform="translate(90,21)"/>
<path d="M0 0 C0.33 0 0.66 0 1 0 C1.33 2.31 1.66 4.62 2 7 C2.33 7 2.66 7 3 7 C3 11.62 3 16.24 3 21 C3.66 16.71 4.32 12.42 5 8 C5.33 8 5.66 8 6 8 C5.38501613 19.4388586 4.37711619 30.79903551 3.15234375 42.1875 C2.97411184 43.86853927 2.79618501 45.54961091 2.61854553 47.23071289 C2.15633154 51.5972493 1.69005124 55.96334161 1.22283936 60.3293457 C0.7443461 64.80783792 0.26981489 69.28674985 -0.20507812 73.765625 C-1.13290373 82.51082552 -2.06503778 91.2555596 -3 100 C-3.33 100 -3.66 100 -4 100 C-4.37885625 79.30279184 -4.37885625 79.30279184 -3.0625 69 C-2.1741987 62.02834986 -1.61070424 55.08222743 -1.25 48.0625 C-1.16504272 46.63067383 -1.16504272 46.63067383 -1.07836914 45.16992188 C-1.03703857 44.27982422 -0.99570801 43.38972656 -0.953125 42.47265625 C-0.89366699 41.28555054 -0.89366699 41.28555054 -0.83300781 40.07446289 C-0.85581335 37.68961922 -0.85581335 37.68961922 -3 35 C-3.03574667 32.42326112 -2.95281046 29.99671995 -2.75 27.4375 C-2.6991626 26.69894775 -2.6483252 25.96039551 -2.59594727 25.19946289 C-1.97920908 16.77483695 -1.01013291 8.38508389 0 0 Z " fill="#602D1E" transform="translate(90,21)"/>
<path d="M0 0 C0.33 0.66 0.66 1.32 1 2 C30.7 2 60.4 2 91 2 C91 2.33 91 2.66 91 3 C62.62 3 34.24 3 5 3 C5.33 5.31 5.66 7.62 6 10 C6.07951922 11.38123387 6.1303248 12.76491875 6.1328125 14.1484375 C6.13410156 14.84324219 6.13539063 15.53804687 6.13671875 16.25390625 C6.13285156 16.95386719 6.12898437 17.65382813 6.125 18.375 C6.12886719 19.09816406 6.13273438 19.82132813 6.13671875 20.56640625 C6.12676222 25.87323778 6.12676222 25.87323778 5 27 C4.76636119 28.84891946 4.58696365 30.70488031 4.4375 32.5625 C4.35371094 33.57441406 4.26992187 34.58632813 4.18359375 35.62890625 C4.09271484 36.80259766 4.09271484 36.80259766 4 38 C1.70018417 34.55027625 0.86265568 32.64554565 0.46484375 28.59765625 C0.37759033 27.71174805 0.29033691 26.82583984 0.20043945 25.91308594 C0.11366943 24.97239258 0.02689941 24.03169922 -0.0625 23.0625 C-0.15120361 22.1127832 -0.23990723 21.16306641 -0.33129883 20.18457031 C-1.53852891 6.66081551 -1.53852891 6.66081551 -1 1 C-0.67 0.67 -0.34 0.34 0 0 Z " fill="#4F2419" transform="translate(1,2)"/>
<path d="M0 0 C0.99 0.33 1.98 0.66 3 1 C2.47121539 24.13505687 2.47121539 24.13505687 0.5625 34.875 C0.44028076 35.57488037 0.31806152 36.27476074 0.19213867 36.99584961 C-0.72711643 41.72711643 -0.72711643 41.72711643 -3 44 C-4.03568783 39.88061004 -3.98470763 36.28994579 -3.6875 32.0625 C-3.64044922 31.38952881 -3.59339844 30.71655762 -3.54492188 30.02319336 C-3.37491102 27.68108394 -3.1894741 25.34061556 -3 23 C-2.92346191 22.04996094 -2.84692383 21.09992188 -2.76806641 20.12109375 C-2.52011118 17.10081399 -2.26232458 14.08156387 -2 11.0625 C-1.91709717 10.08482666 -1.83419434 9.10715332 -1.7487793 8.09985352 C-1.66668213 7.19162842 -1.58458496 6.28340332 -1.5 5.34765625 C-1.4278125 4.53304932 -1.355625 3.71844238 -1.28125 2.87915039 C-1 1 -1 1 0 0 Z " fill="#612919" transform="translate(87,56)"/>
<path d="M0 0 C0.33 0 0.66 0 1 0 C1.37062876 15.61891348 0.25226732 30.79964218 -1.5 46.3125 C-1.74191462 48.5291848 -1.9828052 50.7459816 -2.22265625 52.96289062 C-2.80336048 58.30993659 -3.39647812 63.65548382 -4 69 C-4.33 69 -4.66 69 -5 69 C-5.20224442 57.9512318 -5.26016607 47.0477322 -3.85424805 36.07421875 C-2.84731964 28.18032139 -2.27426483 20.260489 -1.69775391 12.32495117 C-1.62089355 11.30248291 -1.5440332 10.28001465 -1.46484375 9.2265625 C-1.36610962 7.85878662 -1.36610962 7.85878662 -1.26538086 6.46337891 C-1.02379748 4.22089844 -0.6100639 2.16764022 0 0 Z " fill="#533028" transform="translate(91,52)"/>
<path d="M0 0 C0.33 0 0.66 0 1 0 C0.88628503 2.29225435 0.75869036 4.58382388 0.625 6.875 C0.55539063 8.15117187 0.48578125 9.42734375 0.4140625 10.7421875 C0 14 0 14 -2 16 C-2 15.34 -2 14.68 -2 14 C-3.98 14.33 -5.96 14.66 -8 15 C-7.67 14.34 -7.34 13.68 -7 13 C-25.81 12.67 -44.62 12.34 -64 12 C-64 11.67 -64 11.34 -64 11 C-44.86 11 -25.72 11 -6 11 C-6 8.36 -6 5.72 -6 3 C-4.68 2.34 -3.36 1.68 -2 1 C-1.505 2.485 -1.505 2.485 -1 4 C-0.67 2.68 -0.34 1.36 0 0 Z " fill="#6B4136" transform="translate(84,133)"/>
<path d="M0 0 C0.33 0 0.66 0 1 0 C1.57541937 4.97982615 2.14486688 9.96028713 2.70898438 14.94140625 C2.90138659 16.63299619 3.09537008 18.32440711 3.29101562 20.015625 C3.5732562 22.45786999 3.84965154 24.90071951 4.125 27.34375 C4.21249512 28.08991577 4.29999023 28.83608154 4.39013672 29.6048584 C4.92713971 34.43383353 5.07682369 39.14090182 5 44 C4.34 44 3.68 44 3 44 C2.15318867 38.91913204 1.90961901 34.15171623 2 29 C1.34 29 0.68 29 0 29 C-0.33 29.66 -0.66 30.32 -1 31 C-1.33768172 27.93796326 -1.66936893 24.87530542 -2 21.8125 C-2.14308594 20.51602539 -2.14308594 20.51602539 -2.2890625 19.19335938 C-2.72690189 15.11207075 -3.13621913 11.11211498 -3 7 C-2.34 6.67 -1.68 6.34 -1 6 C-0.34227572 2.97065509 -0.34227572 2.97065509 0 0 Z " fill="#582A1E" transform="translate(15,98)"/>
<path d="M0 0 C2.0625 0.4375 2.0625 0.4375 4 1 C4.36758529 13.40260013 3.61097143 24.86209114 1 37 C0.67 37 0.34 37 0 37 C0 31.39 0 25.78 0 20 C-0.33 20 -0.66 20 -1 20 C-1.02888514 16.85418577 -1.04675923 13.70840531 -1.0625 10.5625 C-1.07087891 9.66466797 -1.07925781 8.76683594 -1.08789062 7.84179688 C-1.09111328 6.98779297 -1.09433594 6.13378906 -1.09765625 5.25390625 C-1.10551147 4.06776733 -1.10551147 4.06776733 -1.11352539 2.85766602 C-1 1 -1 1 0 0 Z " fill="#4F2319" transform="translate(92,9)"/>
<path d="M0 0 C4.10221937 7.62078965 3.11547226 16.58335509 3 25 C2.34 25 1.68 25 1 25 C1 26.65 1 28.3 1 30 C0.01 30.33 -0.98 30.66 -2 31 C-2.02694851 29.04174127 -2.04637218 27.08337774 -2.0625 25.125 C-2.07410156 24.03445312 -2.08570313 22.94390625 -2.09765625 21.8203125 C-2 19 -2 19 -1 17 C-0.76725791 14.12089412 -0.58027243 11.25853505 -0.4375 8.375 C-0.39431641 7.57320313 -0.35113281 6.77140625 -0.30664062 5.9453125 C-0.20048543 3.9637489 -0.09973145 1.98189729 0 0 Z " fill="#542214" transform="translate(10,59)"/>
<path d="M0 0 C0.33 0 0.66 0 1 0 C1.19629336 2.85380345 1.38226546 5.70767394 1.5625 8.5625 C1.61857422 9.36236328 1.67464844 10.16222656 1.73242188 10.98632812 C2.02968013 15.84154627 1.86778632 20.21110511 1 25 C0.34 25 -0.32 25 -1 25 C-1.33 26.65 -1.66 28.3 -2 30 C-2.33 30 -2.66 30 -3 30 C-3.33 25.05 -3.66 20.1 -4 15 C-3.67 15 -3.34 15 -3 15 C-2.87625 13.824375 -2.7525 12.64875 -2.625 11.4375 C-2.13564065 7.45879574 -1.1944795 3.82233441 0 0 Z " fill="#5F372B" transform="translate(7,22)"/>
<path d="M0 0 C-0.56422864 11.73001638 -1.59547734 23.34109829 -3 35 C-3.33 35 -3.66 35 -4 35 C-4.24416668 6.85697331 -4.24416668 6.85697331 -3 1 C-1 0 -1 0 0 0 Z " fill="#66453E" transform="translate(90,86)"/>
<path d="M0 0 C2.4765625 1.2421875 2.4765625 1.2421875 5 3 C5.73869123 5.83348727 5.2874325 8.02986412 5 11 C4.67 11.33 4.34 11.66 4 12 C3.76636119 13.84891946 3.58696365 15.70488031 3.4375 17.5625 C3.35371094 18.57441406 3.26992187 19.58632813 3.18359375 20.62890625 C3.12300781 21.41136719 3.06242188 22.19382812 3 23 C0.91254955 19.86882433 0.72346004 18.93053776 0.5859375 15.33203125 C0.54726563 14.43935547 0.50859375 13.54667969 0.46875 12.62695312 C0.4378125 11.69818359 0.406875 10.76941406 0.375 9.8125 C0.33632813 8.87212891 0.29765625 7.93175781 0.2578125 6.96289062 C0.16356813 4.6421229 0.07795975 2.32136252 0 0 Z " fill="#491D13" transform="translate(2,17)"/>
<path d="M0 0 C0.99 0.495 0.99 0.495 2 1 C3.94803311 9.96830339 3.09641534 19.8619687 3 29 C-2.12140446 21.3178933 -0.10026352 8.97915513 0 0 Z " fill="#452116" transform="translate(5,47)"/>
<path d="M0 0 C0.33 0 0.66 0 1 0 C0.38582209 11.71786804 -0.6946376 23.34045234 -2 35 C-2.33 35 -2.66 35 -3 35 C-4.46462898 20.90789417 -4.46462898 20.90789417 -2.61328125 15.15234375 C-1.21135228 10.23219811 -0.72464818 5.05711921 0 0 Z " fill="#71534B" transform="translate(95,29)"/>
<path d="M0 0 C0.33 0 0.66 0 1 0 C1 5.61 1 11.22 1 17 C0.34 17 -0.32 17 -1 17 C-1.33 18.32 -1.66 19.64 -2 21 C-2.3690205 6.21867882 -2.3690205 6.21867882 0 0 Z " fill="#5B2B21" transform="translate(7,22)"/>
<path d="M0 0 C0.99 0.495 0.99 0.495 2 1 C2.31241455 3.71446979 2.51336592 6.33909361 2.625 9.0625 C2.66367187 9.82111328 2.70234375 10.57972656 2.7421875 11.36132812 C2.83673562 13.24047195 2.91946756 15.12020336 3 17 C2.34 17 1.68 17 1 17 C0.00749455 11.29309366 -0.10477512 5.78591511 0 0 Z " fill="#6A4339" transform="translate(17,125)"/>
<path d="M0 0 C0.33 0 0.66 0 1 0 C0.88628503 2.29225435 0.75869036 4.58382388 0.625 6.875 C0.52058594 8.78925781 0.52058594 8.78925781 0.4140625 10.7421875 C0 14 0 14 -2 16 C-3.70701221 10.10304872 -1.95193635 5.58011183 0 0 Z " fill="#563329" transform="translate(84,133)"/>
<path d="M0 0 C0.33 0 0.66 0 1 0 C1.33 4.29 1.66 8.58 2 13 C1.01 13.495 1.01 13.495 0 14 C-1.31164842 11.37670316 -1.13262846 9.36301375 -1.125 6.4375 C-1.12757812 5.44621094 -1.13015625 4.45492188 -1.1328125 3.43359375 C-1 1 -1 1 0 0 Z " fill="#422016" transform="translate(1,2)"/>
<path d="M0 0 C0.66 0 1.32 0 2 0 C2.91397824 5.68697571 2.91397824 10.31302429 2 16 C1.67 16 1.34 16 1 16 C0.67 10.72 0.34 5.44 0 0 Z " fill="#533227" transform="translate(9,96)"/>
<path d="M0 0 C2.31 0 4.62 0 7 0 C7.26785714 8.03571429 7.26785714 8.03571429 5 12 C4.97421875 11.30132812 4.9484375 10.60265625 4.921875 9.8828125 C4.86515625 8.97273438 4.8084375 8.06265625 4.75 7.125 C4.70359375 6.22007813 4.6571875 5.31515625 4.609375 4.3828125 C4.24388852 1.82889456 4.24388852 1.82889456 1.953125 0.6796875 C1.30859375 0.45539062 0.6640625 0.23109375 0 0 Z " fill="#CE965D" transform="translate(81,40)"/>
<path d="M0 0 C0.66 0 1.32 0 2 0 C2.29296875 6.0546875 2.29296875 6.0546875 2 8 C1.01 8.66 0.02 9.32 -1 10 C-2.23076923 4.58461538 -2.23076923 4.58461538 -1.0625 1.625 C-0.5365625 0.820625 -0.5365625 0.820625 0 0 Z " fill="#652E1B" transform="translate(8,40)"/>
</svg>
