<?xml version="1.0" encoding="UTF-8"?>
<svg version="1.1" xmlns="http://www.w3.org/2000/svg" width="62" height="128">
<path d="M0 0 C1.546875 -0.02900391 1.546875 -0.02900391 3.125 -0.05859375 C6.66893585 0.55292779 7.81552767 1.63545489 10 4.4375 C10.75 7.1875 10.75 7.1875 11 9.4375 C12.8253125 9.31375 12.8253125 9.31375 14.6875 9.1875 C18.0726174 9.17549604 18.93868234 9.39836107 21.9375 11.3125 C25.62640733 15.1131924 25.13402157 18.5152413 25.140625 23.55078125 C25.15895482 25.20769602 25.1785253 26.86459744 25.19921875 28.52148438 C25.22817593 31.1352383 25.24999965 33.74813584 25.25048828 36.36206055 C25.25382775 38.8840747 25.28840551 41.40411113 25.328125 43.92578125 C25.3210553 44.70303055 25.3139856 45.48027985 25.30670166 46.28108215 C25.31141393 48.80317594 25.31141393 48.80317594 26 52.4375 C26.82525681 53.20635529 27.65051361 53.97521057 28.5007782 54.7673645 C31.61525391 58.09482914 31.62740196 59.6002753 31.63110352 64.09204102 C31.63825882 64.73983521 31.64541412 65.38762939 31.65278625 66.05505371 C31.66961998 68.18456738 31.65030885 70.31195981 31.62890625 72.44140625 C31.62973536 73.92683587 31.63219634 75.4122654 31.63621521 76.89768982 C31.63906937 80.00556161 31.62440906 83.11271118 31.59692383 86.22045898 C31.56281063 90.20101134 31.568872 94.18027524 31.5875864 98.16088963 C31.59816123 101.22619847 31.58921496 104.29120815 31.57420158 107.35648918 C31.56902477 108.82407683 31.56949554 110.29169578 31.57574654 111.75927925 C31.58120632 113.81098626 31.5608059 115.86085602 31.53344727 117.91235352 C31.52724869 119.07863785 31.52105011 120.24492218 31.5146637 121.44654846 C31 124.4375 31 124.4375 29.30088806 126.81297302 C26.51710392 128.77844562 25.0383371 128.94359476 21.65234375 128.95507812 C20.05048218 128.97399109 20.05048218 128.97399109 18.41625977 128.99328613 C17.26826904 128.98518921 16.12027832 128.97709229 14.9375 128.96875 C13.16234009 128.97449036 13.16234009 128.97449036 11.35131836 128.98034668 C8.84976348 128.98306809 6.34818026 128.97569103 3.84667969 128.95898438 C0.01432951 128.93758003 -3.81614574 128.95878045 -7.6484375 128.984375 C-10.07812914 128.98173177 -12.50781962 128.97660689 -14.9375 128.96875 C-16.65948608 128.98089539 -16.65948608 128.98089539 -18.41625977 128.99328613 C-19.48416748 128.98067749 -20.5520752 128.96806885 -21.65234375 128.95507812 C-22.59070068 128.95189575 -23.52905762 128.94871338 -24.49584961 128.94543457 C-27.86110786 128.26283539 -29.00648039 127.2166797 -31 124.4375 C-31.5146637 121.49124146 -31.5146637 121.49124146 -31.53344727 118.02001953 C-31.5492836 116.71831818 -31.56511993 115.41661682 -31.58143616 114.07546997 C-31.57759404 112.6570805 -31.57255463 111.23869385 -31.56640625 109.8203125 C-31.57164326 108.36066288 -31.57792002 106.90101665 -31.58518982 105.44137573 C-31.59559343 102.3831184 -31.59103525 99.32532633 -31.57641602 96.26708984 C-31.5592513 92.35719213 -31.58269247 88.44876719 -31.61790562 84.53903389 C-31.6399232 81.52426505 -31.63842743 78.50984602 -31.6301403 75.49502182 C-31.62932269 74.05418154 -31.63614985 72.61331509 -31.65091133 71.1725502 C-31.76191643 58.37381538 -31.76191643 58.37381538 -26 52.4375 C-25.52495236 49.5384345 -25.32250618 47.22052711 -25.36328125 44.3359375 C-25.35290329 43.57705231 -25.34252533 42.81816711 -25.33183289 42.0362854 C-25.30229066 39.62788887 -25.30550683 37.22104394 -25.3125 34.8125 C-25.30359208 32.39725087 -25.28760349 29.98241132 -25.2610321 27.56729126 C-25.2461747 26.06929384 -25.24227973 24.57113642 -25.25080872 23.0730896 C-25.23061128 19.38647208 -25.18921082 16.49045316 -23 13.4375 C-19.79619983 11.30163322 -18.98060033 11.20617825 -15.3125 11.3125 C-14.10013672 11.33957031 -14.10013672 11.33957031 -12.86328125 11.3671875 C-11.94095703 11.40199219 -11.94095703 11.40199219 -11 11.4375 C-10.9175 10.179375 -10.835 8.92125 -10.75 7.625 C-10.56522626 4.80720045 -10.31326413 3.76247494 -8.328125 1.703125 C-5.39915949 0.11086858 -3.32335113 0.00415419 0 0 Z " fill="#642D19" transform="translate(31,-0.4375)"/>
<path d="M0 0 C1.43653931 -0.00472824 1.43653931 -0.00472824 2.90209961 -0.009552 C3.94374268 -0.00752777 4.98538574 -0.00550354 6.05859375 -0.00341797 C7.12021729 -0.00437469 8.18184082 -0.00533142 9.27563477 -0.00631714 C11.52522847 -0.00699911 13.77482412 -0.00514366 16.02441406 -0.00097656 C19.48116446 0.00437143 22.93778492 -0.00092101 26.39453125 -0.00732422 C28.57421904 -0.00666344 30.75390675 -0.00538228 32.93359375 -0.00341797 C34.49605835 -0.00645432 34.49605835 -0.00645432 36.09008789 -0.009552 C37.04778076 -0.00639984 38.00547363 -0.00324768 38.9921875 0 C39.83966553 0.00079559 40.68714355 0.00159119 41.56030273 0.00241089 C43.49609375 0.12939453 43.49609375 0.12939453 44.49609375 1.12939453 C44.59010045 3.09308606 44.61352756 5.06018652 44.60961914 7.02612305 C44.60954361 8.28735489 44.60946808 9.54858673 44.60939026 10.84803772 C44.60428285 12.23479247 44.59906684 13.62154682 44.59375 15.00830078 C44.59188576 16.41934662 44.59046189 17.8303931 44.58946228 19.24143982 C44.58563754 22.96179988 44.57580765 26.68212113 44.5647583 30.40246582 C44.55454323 34.19620234 44.54996446 37.98994511 44.54492188 41.78369141 C44.53418533 49.23227684 44.51710945 56.68083026 44.49609375 64.12939453 C37.53605928 64.15466291 30.57603655 64.17222675 23.6159668 64.18432617 C21.24617063 64.18936795 18.8763776 64.19620118 16.5065918 64.20483398 C13.10855336 64.21690643 9.7105559 64.22262424 6.3125 64.22705078 C5.2458461 64.23221207 4.1791922 64.23737335 3.08021545 64.24269104 C2.09927414 64.24276657 1.11833282 64.2428421 0.10766602 64.24291992 C-0.76059311 64.24514053 -1.62885223 64.24736115 -2.52342224 64.24964905 C-4.50390625 64.12939453 -4.50390625 64.12939453 -5.50390625 63.12939453 C-5.60311488 61.20177636 -5.6318999 59.27050099 -5.63330078 57.34033203 C-5.63645294 56.10234863 -5.6396051 54.86436523 -5.64285278 53.58886719 C-5.641063 52.22737594 -5.63901205 50.86588502 -5.63671875 49.50439453 C-5.63739184 48.11816389 -5.63836191 46.73193336 -5.63961792 45.34570312 C-5.64109465 42.43700031 -5.63894115 39.52832816 -5.63427734 36.61962891 C-5.62858006 32.88342855 -5.63185919 29.14730002 -5.63784981 25.41110229 C-5.6414561 22.54760187 -5.64031652 19.6841186 -5.63772202 16.82061768 C-5.63705293 15.44264721 -5.63788051 14.06467521 -5.64020157 12.68670654 C-5.64272917 10.76395699 -5.63819649 8.84120201 -5.63330078 6.91845703 C-5.63250519 5.82227051 -5.63170959 4.72608398 -5.63088989 3.59667969 C-5.41415679 -0.61443245 -3.76740308 0.00353675 0 0 Z " fill="#DE4C46" transform="translate(11.50390625,57.87060546875)"/>
<path d="M0 0 C2.64 0 5.28 0 8 0 C10.60088622 2.60088622 10.29962225 3.82137113 10.4140625 7.4453125 C10.47207031 9.05986328 10.47207031 9.05986328 10.53125 10.70703125 C10.5621875 11.83496094 10.593125 12.96289062 10.625 14.125 C10.68300781 15.82849609 10.68300781 15.82849609 10.7421875 17.56640625 C10.83667601 20.37743956 10.92223541 23.18846233 11 26 C11.66 24.68 12.32 23.36 13 22 C13.495 25.96 13.495 25.96 14 30 C14.33 20.1 14.66 10.2 15 0 C15.33 0 15.66 0 16 0 C16.00410889 1.09465576 16.00821777 2.18931152 16.01245117 3.31713867 C16.03427052 7.38971645 16.08858831 11.46133191 16.15258789 15.53344727 C16.17574364 17.29376991 16.19015794 19.05423061 16.19555664 20.81469727 C16.20486442 23.34999379 16.24589048 25.88312628 16.29296875 28.41796875 C16.2890361 29.20149216 16.28510345 29.98501556 16.28105164 30.7922821 C16.30069473 31.53267227 16.32033783 32.27306244 16.34057617 33.03588867 C16.34723801 33.68208664 16.35389984 34.32828461 16.36076355 34.99406433 C16.91639954 37.30367889 16.91639954 37.30367889 19.5007782 39.33184814 C22.61386094 42.65535368 22.63167413 44.16616736 22.64697266 48.65454102 C22.65573425 49.30233521 22.66449585 49.95012939 22.67352295 50.61755371 C22.69543163 52.74703037 22.6810002 54.8744106 22.6640625 57.00390625 C22.66743278 58.48933814 22.67228716 59.97476734 22.67855835 61.46018982 C22.68591762 64.56804755 22.67525453 67.67518517 22.65185547 70.78295898 C22.6233417 74.76368422 22.63979163 78.74272587 22.66971779 82.72338963 C22.68779612 85.78871829 22.68203108 88.85364844 22.66907883 91.91898918 C22.6657475 93.38658791 22.6698224 94.85422302 22.68147659 96.32177925 C22.69419899 98.37377739 22.67479904 100.42305763 22.64697266 102.47485352 C22.64299469 103.64113785 22.63901672 104.80742218 22.63491821 106.00904846 C22 109 22 109 19.45956421 111.40782166 C18.64790802 111.93324051 17.83625183 112.45865936 17 113 C17 112.34 17 111.68 17 111 C16.34 111 15.68 111 15 111 C15 110.01 15 109.02 15 108 C-0.84 108 -16.68 108 -33 108 C-33 107.67 -33 107.34 -33 107 C-16.83 107 -0.66 107 16 107 C15.67 85.55 15.34 64.1 15 42 C12.69 42 10.38 42 8 42 C7.67 41.34 7.34 40.68 7 40 C4.69 39.34 2.38 38.68 0 38 C0 25.46 0 12.92 0 0 Z " fill="#72422B" transform="translate(40,15)"/>
<path d="M0 0 C1.43653931 -0.00472824 1.43653931 -0.00472824 2.90209961 -0.009552 C3.94374268 -0.00752777 4.98538574 -0.00550354 6.05859375 -0.00341797 C7.12021729 -0.00437469 8.18184082 -0.00533142 9.27563477 -0.00631714 C11.52522847 -0.00699911 13.77482412 -0.00514366 16.02441406 -0.00097656 C19.48116446 0.00437143 22.93778492 -0.00092101 26.39453125 -0.00732422 C28.57421904 -0.00666344 30.75390675 -0.00538228 32.93359375 -0.00341797 C34.49605835 -0.00645432 34.49605835 -0.00645432 36.09008789 -0.009552 C37.04778076 -0.00639984 38.00547363 -0.00324768 38.9921875 0 C39.83966553 0.00079559 40.68714355 0.00159119 41.56030273 0.00241089 C43.49609375 0.12939453 43.49609375 0.12939453 44.49609375 1.12939453 C44.49609375 6.40939453 44.49609375 11.68939453 44.49609375 17.12939453 C27.99609375 17.12939453 11.49609375 17.12939453 -5.50390625 17.12939453 C-5.50390625 0.00516694 -5.50390625 0.00516694 0 0 Z " fill="#F0E4D4" transform="translate(11.50390625,57.87060546875)"/>
<path d="M0 0 C16.5 0 33 0 50 0 C50 5.28 50 10.56 50 16 C43.03996034 16.02464201 36.07994584 16.04283222 29.11987305 16.05493164 C26.75007688 16.05997341 24.38028385 16.06680665 22.01049805 16.07543945 C18.61245961 16.0875119 15.21446215 16.09322971 11.81640625 16.09765625 C10.74975235 16.10281754 9.68309845 16.10797882 8.5841217 16.11329651 C7.60318039 16.11337204 6.62223907 16.11344757 5.61157227 16.11352539 C4.74331314 16.115746 3.87505402 16.11796661 2.98048401 16.12025452 C1 16 1 16 0 15 C0 10.05 0 5.1 0 0 Z " fill="#F4E9DA" transform="translate(6,106)"/>
<path d="M0 0 C1.04285156 -0.00773438 2.08570313 -0.01546875 3.16015625 -0.0234375 C6.21005908 0.4141013 7.10028255 0.97199587 8.9375 3.375 C7.4834375 3.2821875 7.4834375 3.2821875 6 3.1875 C0.6855923 3.16580854 -4.3453763 5.01643815 -9.0625 7.375 C-9.71805119 9.90233235 -9.71805119 9.90233235 -10.0625 12.375 C-14.5175 12.87 -14.5175 12.87 -19.0625 13.375 C-18.32 13.49875 -17.5775 13.6225 -16.8125 13.75 C-13.88213956 14.41599101 -11.22802089 15.20947911 -9.0625 17.375 C-8.97381701 20.33205321 -8.94729704 23.26565056 -8.96484375 26.22265625 C-8.9662587 27.1090831 -8.96767365 27.99550995 -8.96913147 28.90879822 C-8.97474785 31.75173254 -8.98730309 34.59458931 -9 37.4375 C-9.00501289 39.36002491 -9.00957616 41.28255104 -9.01367188 43.20507812 C-9.02472259 47.92841549 -9.04199817 52.65169458 -9.0625 57.375 C-10.24328125 57.36339844 -11.4240625 57.35179687 -12.640625 57.33984375 C-14.19791508 57.33046248 -15.75520688 57.32136264 -17.3125 57.3125 C-18.08980469 57.30412109 -18.86710937 57.29574219 -19.66796875 57.28710938 C-20.42207031 57.28388672 -21.17617188 57.28066406 -21.953125 57.27734375 C-22.64438477 57.27210693 -23.33564453 57.26687012 -24.04785156 57.26147461 C-26.16223898 57.38062029 -28.02891515 57.79881763 -30.0625 58.375 C-28.91076645 55.90699953 -28.01466435 54.32716435 -26.0625 52.375 C-25.84124358 49.77297936 -25.73725849 47.26899092 -25.71875 44.6640625 C-25.7041272 43.89951752 -25.68950439 43.13497253 -25.67443848 42.34725952 C-25.62786217 39.89822626 -25.59371624 37.44927437 -25.5625 35 C-25.52132849 31.78355508 -25.46760836 28.56767852 -25.40625 25.3515625 C-25.4009729 24.61289948 -25.3956958 23.87423645 -25.39025879 23.1131897 C-25.31874837 19.41370669 -25.25955704 16.43965535 -23.0625 13.375 C-19.85869983 11.23913322 -19.04310033 11.14367825 -15.375 11.25 C-14.16263672 11.27707031 -14.16263672 11.27707031 -12.92578125 11.3046875 C-12.00345703 11.33949219 -12.00345703 11.33949219 -11.0625 11.375 C-10.98 10.116875 -10.8975 8.85875 -10.8125 7.5625 C-10.62785062 4.74659695 -10.37338885 3.69899424 -8.39453125 1.63671875 C-5.44041649 0.03842885 -3.34641401 -0.0248804 0 0 Z " fill="#69321A" transform="translate(31.0625,-0.375)"/>
<path d="M0 0 C0.80045242 0.02017181 1.60090485 0.04034363 2.4256134 0.06112671 C3.27475815 0.09332306 4.12390289 0.12551941 4.9987793 0.15869141 C6.31992989 0.19623032 6.31992989 0.19623032 7.66777039 0.23452759 C10.46992137 0.31643865 13.27133685 0.41313927 16.07299805 0.51025391 C17.97726526 0.56852303 19.88156232 0.62582566 21.78588867 0.68212891 C26.44451179 0.82197432 31.10253129 0.97508189 35.76049805 1.13525391 C35.76049805 1.46525391 35.76049805 1.79525391 35.76049805 2.13525391 C16.95049805 2.63025391 16.95049805 2.63025391 -2.23950195 3.13525391 C-2.23950195 24.25525391 -2.23950195 45.37525391 -2.23950195 67.13525391 C13.60049805 67.13525391 29.44049805 67.13525391 45.76049805 67.13525391 C45.76049805 68.12525391 45.76049805 69.11525391 45.76049805 70.13525391 C46.42049805 70.13525391 47.08049805 70.13525391 47.76049805 70.13525391 C47.76049805 70.79525391 47.76049805 71.45525391 47.76049805 72.13525391 C40.28584359 72.23660126 32.81136604 72.3066974 25.33618164 72.35498047 C22.79282001 72.37510662 20.24950471 72.40241028 17.70629883 72.43701172 C14.052374 72.4854836 10.39906049 72.50821307 6.74487305 72.52587891 C5.60620789 72.54652405 4.46754272 72.56716919 3.29437256 72.58843994 C2.23357483 72.58874207 1.1727771 72.58904419 0.07983398 72.58935547 C-0.85282288 72.59823792 -1.78547974 72.60712036 -2.74639893 72.61627197 C-6.12186952 71.96501034 -7.25217681 70.92263012 -9.23950195 68.13525391 C-9.72052002 65.14862061 -9.72052002 65.14862061 -9.69360352 61.62255859 C-9.69447968 60.65607895 -9.69447968 60.65607895 -9.69537354 59.67007446 C-9.69259529 57.54853714 -9.6615197 55.42841955 -9.63012695 53.30712891 C-9.62266354 51.83311735 -9.61697108 50.35909584 -9.61297607 48.8850708 C-9.59772735 45.01160124 -9.55845303 41.13873475 -9.51416016 37.26550293 C-9.47319047 33.31071124 -9.45496149 29.35582179 -9.43481445 25.40087891 C-9.39195724 17.64539609 -9.32371617 9.8904096 -9.23950195 2.13525391 C-6.01480644 0.70465371 -3.5289882 -0.11203137 0 0 Z " fill="#4C221A" transform="translate(9.239501953125,55.86474609375)"/>
<path d="M0 0 C2.64 0 5.28 0 8 0 C8 15.51 8 31.02 8 47 C5.36 47 2.72 47 0 47 C0 31.49 0 15.98 0 0 Z " fill="#F2C253" transform="translate(27,6)"/>
<path d="M0 0 C2.31 0 4.62 0 7 0 C8 1 8 1 8.11352539 4.41821289 C8.11336628 5.93636988 8.10767226 7.45453229 8.09765625 8.97265625 C8.0962413 9.77029892 8.09482635 10.56794159 8.09336853 11.38975525 C8.08775316 13.94737435 8.07519812 16.50490718 8.0625 19.0625 C8.05748698 20.79231645 8.05292373 22.52213426 8.04882812 24.25195312 C8.03777875 28.50133553 8.02050386 32.75065312 8 37 C5.36 37 2.72 37 0 37 C0 24.79 0 12.58 0 0 Z " fill="#F4C451" transform="translate(41,15)"/>
<path d="M0 0 C2.64 0 5.28 0 8 0 C8 11.88 8 23.76 8 36 C5.36 36 2.72 36 0 36 C0 24.12 0 12.24 0 0 Z " fill="#F5C551" transform="translate(13,17)"/>
<path d="M0 0 C2.33944736 0.28730055 4.6739143 0.61936779 7 1 C7 3.31 7 5.62 7 8 C6.67 6.68 6.34 5.36 6 4 C5.34 4 4.68 4 4 4 C4 19.51 4 35.02 4 51 C3.67 51 3.34 51 3 51 C2.67 35.82 2.34 20.64 2 5 C-0.64 5 -3.28 5 -6 5 C-6.33 20.18 -6.66 35.36 -7 51 C-7.33 51 -7.66 51 -8 51 C-8 39.78 -8 28.56 -8 17 C-8.66 17 -9.32 17 -10 17 C-10 27.89 -10 38.78 -10 50 C-10.33 50 -10.66 50 -11 50 C-11.495 32.675 -11.495 32.675 -12 15 C-14.31 14.67 -16.62 14.34 -19 14 C-20.9375 12.4375 -20.9375 12.4375 -22 11 C-21 10 -21 10 -18.93359375 9.90234375 C-17.69802734 9.91974609 -17.69802734 9.91974609 -16.4375 9.9375 C-15.61121094 9.94652344 -14.78492188 9.95554687 -13.93359375 9.96484375 C-13.29550781 9.97644531 -12.65742188 9.98804688 -12 10 C-11.67 7.69 -11.34 5.38 -11 3 C-10.28972656 2.86722656 -9.57945313 2.73445312 -8.84765625 2.59765625 C-7.92855469 2.42105469 -7.00945313 2.24445312 -6.0625 2.0625 C-5.14597656 1.88847656 -4.22945312 1.71445312 -3.28515625 1.53515625 C-1.04710156 1.22285012 -1.04710156 1.22285012 0 0 Z " fill="#511C0F" transform="translate(33,2)"/>
<path d="M0 0 C0.33 0.66 0.66 1.32 1 2 C1.99 2 2.98 2 4 2 C4.02545424 8.68944482 4.04291058 15.37887703 4.05493164 22.06835938 C4.05994564 24.34180162 4.06675848 26.61524067 4.07543945 28.88867188 C4.08763383 32.16537264 4.09325778 35.4420306 4.09765625 38.71875 C4.10281754 39.72740112 4.10797882 40.73605225 4.11329651 41.77526855 C4.11372955 47.28146462 3.81646966 52.55310207 3 58 C2.34 58 1.68 58 1 58 C-0.17891148 45.70582733 -0.11535979 33.4622763 -0.0625 21.125 C-0.05747274 19.06901151 -0.05291201 17.01302183 -0.04882812 14.95703125 C-0.03792482 9.97132408 -0.02072847 4.9856756 0 0 Z " fill="#531E15" transform="translate(57,61)"/>
<path d="M0 0 C2 2 2 2 2.22705078 5.25634766 C2.22673382 6.64229295 2.21541759 8.02826301 2.1953125 9.4140625 C2.1924826 10.14370209 2.18965271 10.87334167 2.18673706 11.62509155 C2.17553002 13.95856028 2.1504251 16.29164703 2.125 18.625 C2.11497085 20.20572363 2.10584489 21.78645327 2.09765625 23.3671875 C2.07558905 27.24493914 2.04105615 31.12240478 2 35 C1.34 34.67 0.68 34.34 0 34 C-0.33 32.68 -0.66 31.36 -1 30 C-1.33 32.97 -1.66 35.94 -2 39 C-2.33 39 -2.66 39 -3 39 C-3.02505615 38.00556885 -3.0501123 37.0111377 -3.07592773 35.98657227 C-3.16984882 32.30951253 -3.27010619 28.6326485 -3.37231445 24.95581055 C-3.41572146 23.362107 -3.45739219 21.7683552 -3.49731445 20.17456055 C-3.55487807 17.88836092 -3.61861149 15.60240551 -3.68359375 13.31640625 C-3.70030624 12.59973282 -3.71701874 11.88305939 -3.73423767 11.14466858 C-3.55018654 7.78472618 -3.55018654 7.78472618 -5 5 C-6.34747084 4.76924918 -7.70377565 4.58846937 -9.0625 4.4375 C-10.361875 4.293125 -11.66125 4.14875 -13 4 C-9.14677847 -0.220195 -5.5791643 -0.30431805 0 0 Z " fill="#592212" transform="translate(53,11)"/>
<path d="M0 0 C0.99 0 1.98 0 3 0 C3.02498214 4.78311801 3.04299163 9.56619685 3.05493164 14.34936523 C3.05991672 15.97176781 3.0667072 17.594166 3.07543945 19.21655273 C3.1225263 28.19906119 3.09493092 37.06649939 2 46 C1.67 46 1.34 46 1 46 C1 42.7 1 39.4 1 36 C0.34 36 -0.32 36 -1 36 C-1.02465098 31.03377651 -1.04283649 26.06758834 -1.05493164 21.10131836 C-1.0599719 19.41055684 -1.06680405 17.71979971 -1.07543945 16.02905273 C-1.08751857 13.60399293 -1.09323123 11.17899056 -1.09765625 8.75390625 C-1.10281754 7.99348526 -1.10797882 7.23306427 -1.11329651 6.44960022 C-1.11349238 4.6326743 -1.06197277 2.81586873 -1 1 C-0.67 0.67 -0.34 0.34 0 0 Z " fill="#5F2117" transform="translate(3,71)"/>
<path d="M0 0 C0.19430855 2.6246601 0.38073238 5.24946765 0.5625 7.875 C0.61857422 8.62136719 0.67464844 9.36773437 0.73242188 10.13671875 C1.11328125 15.7734375 1.11328125 15.7734375 0 18 C5.94 18 11.88 18 18 18 C17.67 18.66 17.34 19.32 17 20 C14.93359375 20.4140625 14.93359375 20.4140625 12.4375 20.625 C11.61121094 20.69976562 10.78492188 20.77453125 9.93359375 20.8515625 C8.97646484 20.92503906 8.97646484 20.92503906 8 21 C8 21.33 8 21.66 8 22 C4.7 22 1.4 22 -2 22 C-2 21.01 -2 20.02 -2 19 C-2.66 18.34 -3.32 17.68 -4 17 C-4.14507695 14.25514407 -4.18652423 11.61519457 -4.125 8.875 C-4.11146484 7.74384766 -4.11146484 7.74384766 -4.09765625 6.58984375 C-4.0740687 4.72642746 -4.03819719 2.86317407 -4 1 C-1 0 -1 0 0 0 Z " fill="#56291E" transform="translate(6,106)"/>
<path d="M0 0 C0.33 0 0.66 0 1 0 C1 4.62 1 9.24 1 14 C1.66 14 2.32 14 3 14 C3 11.36 3 8.72 3 6 C3.33 6 3.66 6 4 6 C4.10794277 8.26979665 4.18556176 10.54105196 4.25 12.8125 C4.29640625 14.07707031 4.3428125 15.34164062 4.390625 16.64453125 C4 20 4 20 1.984375 21.94921875 C1.32953125 22.29597656 0.6746875 22.64273438 0 23 C0 22.34 0 21.68 0 21 C-0.66 21 -1.32 21 -2 21 C-2 20.01 -2 19.02 -2 18 C-17.84 18 -33.68 18 -50 18 C-50 17.67 -50 17.34 -50 17 C-33.83 16.67 -17.66 16.34 -1 16 C-0.67 10.72 -0.34 5.44 0 0 Z " fill="#6C4137" transform="translate(57,105)"/>
<path d="M0 0 C0.33 0 0.66 0 1 0 C1.09893328 5.4809035 1.17149865 10.96128645 1.21972656 16.44287109 C1.23983261 18.30722101 1.2671218 20.17150794 1.30175781 22.03564453 C1.35032121 24.71662948 1.37297838 27.39678023 1.390625 30.078125 C1.41127014 30.91055725 1.43191528 31.7429895 1.45318604 32.60064697 C1.45467195 36.43936215 1.45185898 38.37085664 -0.83691406 41.55761719 C-3 43 -3 43 -6 43 C-4.84826645 40.53199953 -3.95216435 38.95216435 -2 37 C-1.76665034 34.37505135 -1.65062507 31.84747895 -1.62109375 29.21875 C-1.60409927 28.44946167 -1.5871048 27.68017334 -1.56959534 26.88757324 C-1.51638232 24.42513266 -1.47613732 21.9627091 -1.4375 19.5 C-1.3935846 17.03737811 -1.34687621 14.57488765 -1.29469299 12.11242676 C-1.26272312 10.57891678 -1.23583691 9.04529093 -1.21446228 7.51159668 C-1.11168865 2.22337729 -1.11168865 2.22337729 0 0 Z " fill="#634237" transform="translate(7,15)"/>
<path d="M0 0 C0.33 0 0.66 0 1 0 C1 14.85 1 29.7 1 45 C0.34 45 -0.32 45 -1 45 C-2.13955286 34.84921378 -1.97325148 24.82397138 -1.625 14.625 C-1.58189697 13.31055908 -1.53879395 11.99611816 -1.49438477 10.6418457 C-1.1299565 1.1299565 -1.1299565 1.1299565 0 0 Z " fill="#62291E" transform="translate(59,74)"/>
<path d="M0 0 C1.04285156 -0.00773438 2.08570313 -0.01546875 3.16015625 -0.0234375 C6.21005908 0.4141013 7.10028255 0.97199587 8.9375 3.375 C7.4834375 3.2821875 7.4834375 3.2821875 6 3.1875 C0.6855923 3.16580854 -4.3453763 5.01643815 -9.0625 7.375 C-9.71805119 9.90233235 -9.71805119 9.90233235 -10.0625 12.375 C-10.66578125 12.42398437 -11.2690625 12.47296875 -11.890625 12.5234375 C-12.68984375 12.59820312 -13.4890625 12.67296875 -14.3125 12.75 C-15.10140625 12.81960938 -15.8903125 12.88921875 -16.703125 12.9609375 C-19.148377 13.39007113 -20.91086903 14.16100638 -23.0625 15.375 C-23.0625 14.715 -23.0625 14.055 -23.0625 13.375 C-19.85869983 11.23913322 -19.04310033 11.14367825 -15.375 11.25 C-14.16263672 11.27707031 -14.16263672 11.27707031 -12.92578125 11.3046875 C-12.00345703 11.33949219 -12.00345703 11.33949219 -11.0625 11.375 C-10.98 10.116875 -10.8975 8.85875 -10.8125 7.5625 C-10.62785062 4.74659695 -10.37338885 3.69899424 -8.39453125 1.63671875 C-5.44041649 0.03842885 -3.34641401 -0.0248804 0 0 Z " fill="#634039" transform="translate(31.0625,-0.375)"/>
<path d="M0 0 C3.375 -0.125 3.375 -0.125 7 0 C9 2 9 2 9.22705078 5.25634766 C9.22673382 6.64229295 9.21541759 8.02826301 9.1953125 9.4140625 C9.1924826 10.14370209 9.18965271 10.87334167 9.18673706 11.62509155 C9.17553002 13.95856028 9.1504251 16.29164703 9.125 18.625 C9.11497085 20.20572363 9.10584489 21.78645327 9.09765625 23.3671875 C9.07558905 27.24493914 9.04105615 31.12240478 9 35 C8.34 34.67 7.68 34.34 7 34 C6.67 23.77 6.34 13.54 6 3 C4.02 2.34 2.04 1.68 0 1 C0 0.67 0 0.34 0 0 Z " fill="#482119" transform="translate(46,11)"/>
<path d="M0 0 C2.64 0 5.28 0 8 0 C8 0.33 8 0.66 8 1 C5.69 1 3.38 1 1 1 C1.33 11.56 1.66 22.12 2 33 C3.65 33.33 5.3 33.66 7 34 C7 30.37 7 26.74 7 23 C7.33 23 7.66 23 8 23 C8 27.29 8 31.58 8 36 C5.36 36 2.72 36 0 36 C0 24.12 0 12.24 0 0 Z " fill="#ECBD5E" transform="translate(13,17)"/>
<path d="M0 0 C0.33 0 0.66 0 1 0 C1.22786458 2.05078125 1.45572917 4.1015625 1.68359375 6.15234375 C1.81886614 8.01140229 1.81886614 8.01140229 3 9 C3.04092937 11.33297433 3.04241723 13.66705225 3 16 C3.99 16.33 4.98 16.66 6 17 C4.35 16.67 2.7 16.34 1 16 C0.67 14.35 0.34 12.7 0 11 C-0.33 11 -0.66 11 -1 11 C-1.14285714 3.57142857 -1.14285714 3.57142857 0 0 Z " fill="#5A291E" transform="translate(52,37)"/>
<path d="M0 0 C2 2 2 2 2 5 C3.918125 4.938125 3.918125 4.938125 5.875 4.875 C8.0546875 4.8046875 8.0546875 4.8046875 10 5 C10.66 5.66 11.32 6.32 12 7 C10.20991533 7.22151549 8.41781838 7.42682213 6.625 7.625 C5.62726562 7.74101562 4.62953125 7.85703125 3.6015625 7.9765625 C2.74304687 7.98429688 1.88453125 7.99203125 1 8 C0.34 7.34 -0.32 6.68 -1 6 C-0.625 2.875 -0.625 2.875 0 0 Z " fill="#6A473D" transform="translate(40,4)"/>
<path d="M0 0 C2.31 0.33 4.62 0.66 7 1 C7 3.31 7 5.62 7 8 C6.67 6.68 6.34 5.36 6 4 C3.69 3.34 1.38 2.68 -1 2 C-0.67 1.34 -0.34 0.68 0 0 Z " fill="#4A1E18" transform="translate(33,2)"/>
</svg>
