<?xml version="1.0" encoding="UTF-8"?>
<svg version="1.1" xmlns="http://www.w3.org/2000/svg" width="144" height="134">
<path d="M0 0 C24.68135978 14.84995147 42.75691631 48.1887373 53.625 74.0625 C54.13289062 75.25101562 54.64078125 76.43953125 55.1640625 77.6640625 C59.33718106 88.55147238 60.94606793 100.39643763 57.515625 111.7265625 C52.55127608 122.48265183 45.33239623 126.78295151 34.625 131.0625 C30.83570726 132.32559758 27.27024331 132.23436699 23.32080078 132.25537109 C22.0493647 132.26763733 22.0493647 132.26763733 20.75224304 132.28015137 C17.94160663 132.30499688 15.13102101 132.32152653 12.3203125 132.3359375 C11.35739162 132.34126118 10.39447075 132.34658485 9.40237045 132.35206985 C4.29755195 132.37880815 -0.80724215 132.39817384 -5.91210938 132.41259766 C-10.11968953 132.42589149 -14.32677949 132.45365864 -18.53417969 132.49462891 C-23.6275943 132.54422186 -28.7205671 132.56875234 -33.8142128 132.57582474 C-35.74611354 132.58249722 -37.678006 132.59761346 -39.60976791 132.62171555 C-54.87739198 132.80121131 -66.87219365 131.53206025 -78.34375 120.33984375 C-85.19243612 112.66141297 -85.99321797 104.77939851 -85.77734375 94.83984375 C-84.98547384 81.03989014 -77.83931702 67.99480976 -71.375 56.0625 C-71.02034668 55.39476562 -70.66569336 54.72703125 -70.30029297 54.0390625 C-62.77159922 39.89609125 -53.75882853 27.26258122 -43.375 15.0625 C-42.64539062 14.17433594 -41.91578125 13.28617188 -41.1640625 12.37109375 C-31.00434509 0.41114571 -15.40479493 -7.14959382 0 0 Z " fill="#F1EBDD" transform="translate(85.375,1.9375)"/>
<path d="M0 0 C24.68135978 14.84995147 42.75691631 48.1887373 53.625 74.0625 C54.13289062 75.25101562 54.64078125 76.43953125 55.1640625 77.6640625 C59.33718106 88.55147238 60.94606793 100.39643763 57.515625 111.7265625 C52.55127608 122.48265183 45.33239623 126.78295151 34.625 131.0625 C30.83570726 132.32559758 27.27024331 132.23436699 23.32080078 132.25537109 C22.0493647 132.26763733 22.0493647 132.26763733 20.75224304 132.28015137 C17.94160663 132.30499688 15.13102101 132.32152653 12.3203125 132.3359375 C11.35739162 132.34126118 10.39447075 132.34658485 9.40237045 132.35206985 C4.29755195 132.37880815 -0.80724215 132.39817384 -5.91210938 132.41259766 C-10.11968953 132.42589149 -14.32677949 132.45365864 -18.53417969 132.49462891 C-23.6275943 132.54422186 -28.7205671 132.56875234 -33.8142128 132.57582474 C-35.74611354 132.58249722 -37.678006 132.59761346 -39.60976791 132.62171555 C-54.87739198 132.80121131 -66.87219365 131.53206025 -78.34375 120.33984375 C-85.19243612 112.66141297 -85.99321797 104.77939851 -85.77734375 94.83984375 C-84.98547384 81.03989014 -77.83931702 67.99480976 -71.375 56.0625 C-71.02034668 55.39476562 -70.66569336 54.72703125 -70.30029297 54.0390625 C-62.77159922 39.89609125 -53.75882853 27.26258122 -43.375 15.0625 C-42.64539062 14.17433594 -41.91578125 13.28617188 -41.1640625 12.37109375 C-31.00434509 0.41114571 -15.40479493 -7.14959382 0 0 Z M-29.375 10.0625 C-29.9421875 10.47242188 -30.509375 10.88234375 -31.09375 11.3046875 C-52.37726597 27.46811236 -75.20849607 66.6612876 -79.375 93.0625 C-80.35149679 101.52917103 -79.3670559 108.0370945 -74.375 115.0625 C-69.27853658 121.06986978 -63.01181595 124.29084673 -55.375 126.0625 C-53.37515379 126.08730167 -51.37480719 126.09027031 -49.375 126.0625 C-49.36691315 125.34031281 -49.35882629 124.61812561 -49.35049438 123.87405396 C-49.27262708 117.0756699 -49.18536046 110.27746486 -49.08747292 103.47934151 C-49.03747827 99.98415234 -48.99114887 96.48899386 -48.953125 92.99365234 C-48.90927456 88.97734293 -48.84961041 84.96140513 -48.7890625 80.9453125 C-48.77751129 79.68695587 -48.76596008 78.42859924 -48.75405884 77.1321106 C-48.73418915 75.97105804 -48.71431946 74.81000549 -48.69384766 73.61376953 C-48.68052399 72.58784698 -48.66720032 71.56192444 -48.6534729 70.50491333 C-48.375 68.0625 -48.375 68.0625 -46.375 66.0625 C-43.64233398 65.80853271 -43.64233398 65.80853271 -40.12109375 65.80371094 C-38.80633057 65.79740662 -37.49156738 65.79110229 -36.13696289 65.78460693 C-34.6954739 65.7881866 -33.25398613 65.79228854 -31.8125 65.796875 C-30.34041276 65.79552832 -28.86832595 65.79358777 -27.39624023 65.79107666 C-24.30936452 65.78812551 -21.22260447 65.79242268 -18.13574219 65.80175781 C-14.17427871 65.81315244 -10.21308622 65.80659291 -6.25163269 65.79461288 C-3.21136423 65.787394 -0.17116027 65.78968232 2.86911011 65.79486847 C4.3299869 65.79620489 5.7908695 65.7945575 7.2517395 65.78990936 C9.29152315 65.78484394 11.33132726 65.79393021 13.37109375 65.80371094 C15.11410767 65.80609772 15.11410767 65.80609772 16.89233398 65.80853271 C19.625 66.0625 19.625 66.0625 21.625 68.0625 C21.9034729 70.50491333 21.9034729 70.50491333 21.94384766 73.61376953 C21.96371735 74.77482208 21.98358704 75.93587463 22.00405884 77.1321106 C22.01561005 78.39046722 22.02716125 79.64882385 22.0390625 80.9453125 C22.05842865 82.22985321 22.0777948 83.51439392 22.0977478 84.83786011 C22.14913941 88.25397535 22.18872714 91.67013007 22.22589111 95.08642578 C22.26588698 98.57203999 22.31699938 102.05748903 22.3671875 105.54296875 C22.46402975 112.3826919 22.5484078 119.22252096 22.625 126.0625 C24.2298079 125.92143918 25.83413257 125.77487331 27.43823242 125.62597656 C28.33168869 125.5449469 29.22514496 125.46391724 30.14567566 125.38043213 C37.12301021 124.48570497 43.15671871 120.34319607 47.625 115.0625 C48.4603125 114.1034375 48.4603125 114.1034375 49.3125 113.125 C53.90417203 105.90951538 53.62446058 97.08510569 52.0078125 88.9609375 C44.17414383 61.5777594 23.79077046 22.17686263 -1.4375 7.078125 C-2.076875 6.74296875 -2.71625 6.4078125 -3.375 6.0625 C-4.29732422 5.51335938 -4.29732422 5.51335938 -5.23828125 4.953125 C-14.18817291 1.22263999 -22.45187185 4.15586289 -29.375 10.0625 Z " fill="#562B22" transform="translate(85.375,1.9375)"/>
<path d="M0 0 C19.8 0 39.6 0 60 0 C60 18.15 60 36.3 60 55 C40.2 55 20.4 55 0 55 C0 36.85 0 18.7 0 0 Z " fill="#434C3D" transform="translate(42,73)"/>
<path d="M0 0 C4.80853549 7.21280323 3.95954059 17.66138371 3 26 C0.78994584 33.490505 -3.20499457 39.92603701 -10 44 C-13.4375 45.375 -13.4375 45.375 -16 46 C-16 44.35 -16 42.7 -16 41 C-16.66 40.67 -17.32 40.34 -18 40 C-17.20335938 39.56300781 -17.20335938 39.56300781 -16.390625 39.1171875 C-10.59401597 35.75346182 -7.51291707 32.50359742 -4.8125 26.25 C-3.71688325 21.86753302 -3.33772113 17.49702348 -3 13 C-2.67 13 -2.34 13 -2 13 C-1.67 15.31 -1.34 17.62 -1 20 C-0.34 20 0.32 20 1 20 C0.505 10.1 0.505 10.1 0 0 Z " fill="#572E26" transform="translate(141,84)"/>
<path d="M0 0 C1.1034375 -0.00515625 2.206875 -0.0103125 3.34375 -0.015625 C6.46392334 0.24696385 8.68304814 0.92561218 11.5 2.25 C11.5 2.91 11.5 3.57 11.5 4.25 C7.93834274 6.62443817 5.98451965 6.59895663 1.75 6.8125 C-3.06067056 7.09137945 -7.74900256 7.45816709 -12.5 8.25 C-13.5 6.25 -13.5 6.25 -12.875 4.25 C-9.8601583 -0.13522429 -4.92841118 -0.02302996 0 0 Z " fill="#4F291F" transform="translate(70.5,-0.25)"/>
<path d="M0 0 C3.36405483 3.17085714 5.43519507 6.78258011 7.75 10.75 C8.18739502 11.49773682 8.62479004 12.24547363 9.07543945 13.01586914 C11.98354806 18.06237112 14.69433691 23.17357918 17.1875 28.4375 C17.49075195 29.06946289 17.79400391 29.70142578 18.10644531 30.35253906 C18.80409156 31.87292096 19.41147547 33.43414232 20 35 C19.67 35.66 19.34 36.32 19 37 C16.18899321 35.59449661 16.08775293 33.89703565 15 31 C14.23978839 29.4756319 13.45663401 27.96251567 12.65234375 26.4609375 C12.21212891 25.63335937 11.77191406 24.80578125 11.31835938 23.953125 C10.86267578 23.10234375 10.40699219 22.2515625 9.9375 21.375 C9.02783946 19.67560611 8.12019727 17.97512986 7.21484375 16.2734375 C6.81386475 15.52497559 6.41288574 14.77651367 5.99975586 14.00537109 C5 12 5 12 4 9 C3.34 9 2.68 9 2 9 C2.33 10.32 2.66 11.64 3 13 C2.01 13.495 2.01 13.495 1 14 C0.34 12.35 -0.32 10.7 -1 9 C-0.34 9 0.32 9 1 9 C0.649375 7.88625 0.29875 6.7725 -0.0625 5.625 C-1 2 -1 2 0 0 Z " fill="#5D3C31" transform="translate(119,41)"/>
<path d="M0 0 C0.66 0.33 1.32 0.66 2 1 C1.67 1.99 1.34 2.98 1 4 C1.99 4.66 2.98 5.32 4 6 C-2.25381166 12.83318386 -2.25381166 12.83318386 -6.53515625 13.2421875 C-8.75319384 12.96800853 -10.84649912 12.59320973 -13 12 C-9.12207712 7.07091854 -5.23883167 3.4576289 0 0 Z " fill="#532C22" transform="translate(57,3)"/>
<path d="M0 0 C0.33 0 0.66 0 1 0 C1.33 2.64 1.66 5.28 2 8 C1.01 8.495 1.01 8.495 0 9 C-0.69227032 11.80980673 -0.69227032 11.80980673 -1.125 15.0625 C-1.29257813 16.16722656 -1.46015625 17.27195312 -1.6328125 18.41015625 C-1.75398437 19.26480469 -1.87515625 20.11945313 -2 21 C-2.99 21.33 -3.98 21.66 -5 22 C-4.61084136 28.32894835 -4.15514458 33.99638295 -2 40 C-2.33 40.99 -2.66 41.98 -3 43 C-8.20577697 32.80535344 -7.24986653 20.99514672 -3.84741211 10.38427734 C-2.63760979 6.89115176 -1.35213046 3.44068912 0 0 Z " fill="#5B3930" transform="translate(6,74)"/>
<path d="M0 0 C4.7845786 7.1768679 3.92436622 17.68962648 3 26 C1.79900542 29.73316146 0.28781898 32.82156578 -2 36 C-2.33 34.68 -2.66 33.36 -3 32 C-2.34 32 -1.68 32 -1 32 C-1 30.68 -1 29.36 -1 28 C-0.34 28 0.32 28 1 28 C0.67 27.01 0.34 26.02 0 25 C-0.66 25 -1.32 25 -2 25 C-3.26237731 22.47524538 -3.09856404 20.68799534 -3.0625 17.875 C-3.05347656 16.96492188 -3.04445312 16.05484375 -3.03515625 15.1171875 C-3.02355469 14.41851562 -3.01195312 13.71984375 -3 13 C-2.67 13 -2.34 13 -2 13 C-1.67 15.31 -1.34 17.62 -1 20 C-0.34 20 0.32 20 1 20 C0.67 13.4 0.34 6.8 0 0 Z " fill="#5D3D33" transform="translate(141,84)"/>
<path d="M0 0 C4.50980466 1.94741565 7.53660882 3.66443153 10 8 C9.75 11.8125 9.75 11.8125 9 15 C6.62263514 14.60968637 5.29524226 14.28887585 3.55078125 12.58203125 C0.87825172 8.76292753 -0.77138237 5.8009702 -1 1 C-0.67 0.67 -0.34 0.34 0 0 Z " fill="#51281D" transform="translate(102,21)"/>
<path d="M0 0 C1.32 0.33 2.64 0.66 4 1 C4.36504603 2.58086048 4.71660506 4.16483907 5.0625 5.75 C5.25972656 6.63171875 5.45695313 7.5134375 5.66015625 8.421875 C6.00067863 11.00514825 5.87114098 12.56737991 5 15 C4.67 15.33 4.34 15.66 4 16 C4.28604898 17.67542976 4.61781233 19.34385343 5 21 C4.34 21 3.68 21 3 21 C-0.0017506 13.92444501 -0.34855655 7.62951555 0 0 Z " fill="#4D1D17" transform="translate(1,96)"/>
<path d="M0 0 C0.8125 2 0.8125 2 1 5 C-0.41167572 7.84968868 -2.14884761 10.41863524 -4 13 C-4.66 12.34 -5.32 11.68 -6 11 C-6.99 11.495 -6.99 11.495 -8 12 C-8.30769231 5.23076923 -8.30769231 5.23076923 -6 2 C-3.83022576 0.6438911 -2.5637264 0 0 0 Z " fill="#4F251B" transform="translate(22,52)"/>
<path d="M0 0 C4 6 4 6 8 12 C6.25 13.125 6.25 13.125 4 14 C1.34031367 13.03284133 -0.62922362 11.58051758 -3 10 C-3 9.34 -3 8.68 -3 8 C-2.34 8 -1.68 8 -1 8 C-1.66 6.02 -2.32 4.04 -3 2 C-2.01 1.34 -1.02 0.68 0 0 Z " fill="#5F342B" transform="translate(7,109)"/>
<path d="M0 0 C0.66 0 1.32 0 2 0 C2 0.66 2 1.32 2 2 C2.66 2 3.32 2 4 2 C4.33 1.34 4.66 0.68 5 0 C5 1.65 5 3.3 5 5 C4.34 5 3.68 5 3 5 C3 6.32 3 7.64 3 9 C2.34 9 1.68 9 1 9 C1 10.32 1 11.64 1 13 C0.01 13 -0.98 13 -2 13 C-2 13.66 -2 14.32 -2 15 C-2.66 15 -3.32 15 -4 15 C-2.9318153 9.88634986 -1.76892524 4.92772031 0 0 Z " fill="#552820" transform="translate(137,107)"/>
<path d="M0 0 C0.66 0.99 1.32 1.98 2 3 C2.66 2.67 3.32 2.34 4 2 C4.88336837 4.4667645 5.1312406 5.63859372 4.22265625 8.140625 C3.83980469 8.83671875 3.45695312 9.5328125 3.0625 10.25 C2.68222656 10.95640625 2.30195313 11.6628125 1.91015625 12.390625 C1.60980469 12.92171875 1.30945313 13.4528125 1 14 C0 11 0 11 0 8 C-0.99 9.98 -1.98 11.96 -3 14 C-3.99 14 -4.98 14 -6 14 C-4.45941767 8.98491285 -2.97068161 4.3852919 0 0 Z " fill="#5B3227" transform="translate(13,60)"/>
<path d="M0 0 C0.66 0 1.32 0 2 0 C4.31 4.29 6.62 8.58 9 13 C8.01 13.99 7.02 14.98 6 16 C-0.88838269 5.62642369 -0.88838269 5.62642369 0 0 Z " fill="#55271C" transform="translate(121,50)"/>
<path d="M0 0 C0.7425 0.350625 1.485 0.70125 2.25 1.0625 C4.86030223 2.2581454 4.86030223 2.2581454 6.9375 1.375 C9 1 9 1 12.1875 2.6875 C15 5 15 5 15.875 7.25 C15.936875 8.11625 15.936875 8.11625 16 9 C3.02330508 5.55720339 3.02330508 5.55720339 0.5625 1.8125 C0.376875 1.214375 0.19125 0.61625 0 0 Z " fill="#52271E" transform="translate(7,120)"/>
<path d="M0 0 C2.52775351 3.79163027 2.22443035 6.80874031 2.125 11.1875 C2.11597656 11.93708984 2.10695312 12.68667969 2.09765625 13.45898438 C2.07412578 15.30612654 2.03825561 17.15310412 2 19 C1.34 19 0.68 19 0 19 C-0.33 19.66 -0.66 20.32 -1 21 C-1.33 16.38 -1.66 11.76 -2 7 C-1.67 7 -1.34 7 -1 7 C-0.67 4.69 -0.34 2.38 0 0 Z " fill="#511E16" transform="translate(140,85)"/>
<path d="M0 0 C4.65304216 2.88045467 8.21919074 6.03915221 12 10 C11.67 10.66 11.34 11.32 11 12 C8.525 11.01 8.525 11.01 6 10 C6 9.34 6 8.68 6 8 C5.34 8 4.68 8 4 8 C4 7.34 4 6.68 4 6 C3.01 6 2.02 6 1 6 C0.67 4.02 0.34 2.04 0 0 Z " fill="#57362B" transform="translate(89,5)"/>
<path d="M0 0 C0 1.65 0 3.3 0 5 C-3.3 5.33 -6.6 5.66 -10 6 C-9.34 5.67 -8.68 5.34 -8 5 C-8 4.34 -8 3.68 -8 3 C-9.32 2.67 -10.64 2.34 -12 2 C-7.8803623 0.70756464 -4.33168317 -0.26252625 0 0 Z " fill="#51271F" transform="translate(125,125)"/>
<path d="M0 0 C0.66 0.33 1.32 0.66 2 1 C1.34 1.66 0.68 2.32 0 3 C0.33 3.99 0.66 4.98 1 6 C1.66 6 2.32 6 3 6 C2.67 6.99 2.34 7.98 2 9 C-0.97 8.67 -3.94 8.34 -7 8 C-1.125 1.125 -1.125 1.125 0 0 Z " fill="#603F35" transform="translate(51,7)"/>
<path d="M0 0 C3.3 0 6.6 0 10 0 C10 0.66 10 1.32 10 2 C10.66 2.66 11.32 3.32 12 4 C8.84493858 4.93619813 6.03413498 5.1057123 2.75 5.0625 C1.85796875 5.05347656 0.9659375 5.04445312 0.046875 5.03515625 C-0.62859375 5.02355469 -1.3040625 5.01195312 -2 5 C-2 4.67 -2 4.34 -2 4 C-0.02 3.67 1.96 3.34 4 3 C2.68 2.01 1.36 1.02 0 0 Z " fill="#421811" transform="translate(107,128)"/>
<path d="M0 0 C4.56228926 -0.36792655 8.07242087 -0.61838609 12 2 C8.4513865 4.36574234 7.4235475 4.10865265 3.3125 3.625 C1.82169922 3.45871094 1.82169922 3.45871094 0.30078125 3.2890625 C-0.45847656 3.19367187 -1.21773438 3.09828125 -2 3 C-1.34 2.01 -0.68 1.02 0 0 Z " fill="#4B1D14" transform="translate(70,2)"/>
<path d="M0 0 C2 1 2 1 2.9375 3.25 C3 6 3 6 0.5625 8.8125 C-0.283125 9.534375 -1.12875 10.25625 -2 11 C-3.125 4.25 -3.125 4.25 -2 2 C-1.34 2 -0.68 2 0 2 C0 1.34 0 0.68 0 0 Z " fill="#481F17" transform="translate(36,26)"/>
<path d="M0 0 C0.88672454 2.4828287 1.14518218 3.62029277 0.1875 6.125 C-1 8 -1 8 -3 10 C-3.99 10 -4.98 10 -6 10 C-4.6302836 6.00499382 -2.74277578 3.19990508 0 0 Z " fill="#633F35" transform="translate(33,28)"/>
<path d="M0 0 C1.25541557 3.76624671 0.37061958 5.37188934 -1 9 C-1.99 8.67 -2.98 8.34 -4 8 C-3.50168276 4.31245243 -2.89932357 2.39509338 0 0 Z M-6 7 C-5.34 7.66 -4.68 8.32 -4 9 C-4.99 9.99 -5.98 10.98 -7 12 C-6.67 10.35 -6.34 8.7 -6 7 Z " fill="#532117" transform="translate(14,66)"/>
<path d="M0 0 C0.66 0 1.32 0 2 0 C2.39253254 4.44870215 1.15305957 7.14243493 -1 11 C-1.99 11 -2.98 11 -4 11 C-3.52269162 9.5410574 -3.04308958 8.08286504 -2.5625 6.625 C-2.29566406 5.81289062 -2.02882813 5.00078125 -1.75390625 4.1640625 C-1 2 -1 2 0 0 Z " fill="#5F3E33" transform="translate(11,63)"/>
<path d="M0 0 C0.66 0 1.32 0 2 0 C2.86366822 1.78710586 3.71568594 3.5798465 4.5625 5.375 C5.27599609 6.87160156 5.27599609 6.87160156 6.00390625 8.3984375 C6.33261719 9.25695312 6.66132813 10.11546875 7 11 C6.67 11.66 6.34 12.32 6 13 C3.19151983 11.59575991 3.07585415 9.89135802 2 7 C1.62875 6.29875 1.2575 5.5975 0.875 4.875 C0 3 0 3 0 0 Z " fill="#63463A" transform="translate(132,65)"/>
<path d="M0 0 C1.98 0.495 1.98 0.495 4 1 C4.33 3.97 4.66 6.94 5 10 C4.34 10 3.68 10 3 10 C1.68 7.03 0.36 4.06 -1 1 C-0.67 0.67 -0.34 0.34 0 0 Z " fill="#5C261F" transform="translate(115,40)"/>
<path d="M0 0 C3.55780196 0.60990891 6.6828589 1.5783681 10 3 C10 3.99 10 4.98 10 6 C5.56909529 4.79157144 3.01887244 3.48331435 0 0 Z " fill="#553A2F" transform="translate(11,125)"/>
<path d="M0 0 C0.33 0 0.66 0 1 0 C1.33 2.64 1.66 5.28 2 8 C0.35 8.66 -1.3 9.32 -3 10 C-2.01 6.7 -1.02 3.4 0 0 Z " fill="#5E3B32" transform="translate(6,74)"/>
<path d="M0 0 C0.33 0 0.66 0 1 0 C1.1875 2.375 1.1875 2.375 1 5 C0.01 5.66 -0.98 6.32 -2 7 C-2.99 6.67 -3.98 6.34 -5 6 C-3.35830472 3.97945196 -1.69088222 1.97956942 0 0 Z " fill="#57362A" transform="translate(42,17)"/>
<path d="M0 0 C0.99 0 1.98 0 3 0 C1.63016497 3.16115776 1.0109362 3.9927092 -2 6 C-2.33 4.35 -2.66 2.7 -3 1 C-2.01 1.33 -1.02 1.66 0 2 C0 1.34 0 0.68 0 0 Z " fill="#6D4E46" transform="translate(135,120)"/>
<path d="M0 0 C0.99 0 1.98 0 3 0 C3.33 2.31 3.66 4.62 4 7 C2.68 6.67 1.36 6.34 0 6 C0 5.34 0 4.68 0 4 C0.66 4 1.32 4 2 4 C1.34 2.68 0.68 1.36 0 0 Z " fill="#4D261A" transform="translate(86,5)"/>
<path d="M0 0 C0.66 0.99 1.32 1.98 2 3 C0.68 4.32 -0.64 5.64 -2 7 C-2.99 6.34 -3.98 5.68 -5 5 C-3.35 3.35 -1.7 1.7 0 0 Z " fill="#63382F" transform="translate(133,116)"/>
<path d="M0 0 C1.65 1.32 3.3 2.64 5 4 C4.67 4.66 4.34 5.32 4 6 C1.525 5.01 1.525 5.01 -1 4 C-0.67 2.68 -0.34 1.36 0 0 Z " fill="#62453B" transform="translate(96,11)"/>
<path d="M0 0 C0.99 1.32 1.98 2.64 3 4 C2.01 4.99 1.02 5.98 0 7 C-0.66 5.35 -1.32 3.7 -2 2 C-1.34 2 -0.68 2 0 2 C0 1.34 0 0.68 0 0 Z " fill="#4C2116" transform="translate(127,59)"/>
<path d="M0 0 C0.75 1.75 0.75 1.75 1 4 C-0.9375 6.25 -0.9375 6.25 -3 8 C-3 4.42424104 -1.91159393 2.94704065 0 0 Z " fill="#5C3C32" transform="translate(21,46)"/>
</svg>
