<?xml version="1.0" encoding="UTF-8"?>
<!DOCTYPE svg PUBLIC "-//W3C//DTD SVG 1.1//EN" "http://www.w3.org/Graphics/SVG/1.1/DTD/svg11.dtd">
<svg xmlns="http://www.w3.org/2000/svg" version="1.1" width="151px" height="128px" style="shape-rendering:geometricPrecision; text-rendering:geometricPrecision; image-rendering:optimizeQuality; fill-rule:evenodd; clip-rule:evenodd" xmlns:xlink="http://www.w3.org/1999/xlink">
<g><path style="opacity:1" fill="#f5d589" d="M 44.5,5.5 C 56.052,4.47723 66.7186,6.97723 76.5,13C 78.9962,14.331 80.9962,16.1644 82.5,18.5C 80.2506,17.7689 78.084,16.7689 76,15.5C 72.7269,18.0213 69.2269,19.0213 65.5,18.5C 64.2011,19.09 63.3678,20.09 63,21.5C 62.3333,20.1667 61.6667,20.1667 61,21.5C 60.3923,23.1545 59.8923,24.8211 59.5,26.5C 58.0568,25.6649 57.0568,24.3316 56.5,22.5C 54.876,23.8689 54.376,25.5355 55,27.5C 56.2811,26.3533 56.6144,26.6866 56,28.5C 54.8552,28.6191 53.6885,28.9524 52.5,29.5C 49.225,29.7672 48.3916,28.7672 50,26.5C 50.6667,29.1667 51.3333,29.1667 52,26.5C 52.3333,26.8333 52.6667,27.1667 53,27.5C 54.3372,22.9159 53.1705,19.2493 49.5,16.5C 51.2922,15.6909 53.2922,15.1909 55.5,15C 56.8333,13.6667 56.8333,12.3333 55.5,11C 57.5,10.3333 59.5,9.66667 61.5,9C 57.4518,7.05088 53.1185,6.21754 48.5,6.5C 43.9296,6.22035 39.5963,7.05369 35.5,9C 34.287,11.6865 33.6203,14.5198 33.5,17.5C 30.786,17.75 28.1194,17.9167 25.5,18C 27.0614,17.059 28.3947,15.8924 29.5,14.5C 28.8333,14.1667 28.1667,13.8333 27.5,13.5C 24.321,14.9903 21.321,16.657 18.5,18.5C 25.4983,11.0008 34.165,6.66746 44.5,5.5 Z"/></g>
<g><path style="opacity:1" fill="#45261e" d="M 57.5,-0.5 C 58.8333,-0.5 60.1667,-0.5 61.5,-0.5C 74.247,3.07191 84.747,10.0719 93,20.5C 95.0383,23.2432 96.5383,26.2432 97.5,29.5C 92.7326,23.5585 87.7326,17.7251 82.5,12C 77.7873,8.75317 72.7873,6.25317 67.5,4.5C 63.9562,3.21053 60.6229,1.54386 57.5,-0.5 Z"/></g>
<g><path style="opacity:1" fill="#f7d583" d="M 49.5,16.5 C 47.0637,16.683 44.897,16.0163 43,14.5C 42.1382,16.5944 40.9715,17.5944 39.5,17.5C 40.0253,18.1924 40.6919,18.6924 41.5,19C 40.1416,19.9344 38.8083,20.7677 37.5,21.5C 33.7412,19.3175 29.7412,19.1509 25.5,21C 24.6195,21.7083 23.9528,22.5416 23.5,23.5C 21.9755,22.8262 20.6422,21.8262 19.5,20.5C 16.6156,22.6242 13.9489,24.9576 11.5,27.5C 13.1108,23.9485 15.4442,20.9485 18.5,18.5C 21.321,16.657 24.321,14.9903 27.5,13.5C 28.1667,13.8333 28.8333,14.1667 29.5,14.5C 28.3947,15.8924 27.0614,17.059 25.5,18C 28.1194,17.9167 30.786,17.75 33.5,17.5C 33.6203,14.5198 34.287,11.6865 35.5,9C 39.5963,7.05369 43.9296,6.22035 48.5,6.5C 53.1185,6.21754 57.4518,7.05088 61.5,9C 59.5,9.66667 57.5,10.3333 55.5,11C 56.8333,12.3333 56.8333,13.6667 55.5,15C 53.2922,15.1909 51.2922,15.6909 49.5,16.5 Z"/></g>
<g><path style="opacity:1" fill="#4e2318" d="M 39.5,-0.5 C 45.5,-0.5 51.5,-0.5 57.5,-0.5C 60.6229,1.54386 63.9562,3.21053 67.5,4.5C 59.6484,4.17464 51.9818,4.50797 44.5,5.5C 34.165,6.66746 25.4983,11.0008 18.5,18.5C 15.4442,20.9485 13.1108,23.9485 11.5,27.5C 9.41203,29.3356 8.0787,31.6689 7.5,34.5C 6.31806,32.9005 4.98473,32.5672 3.5,33.5C 2.04232,39.4098 1.37566,45.4098 1.5,51.5C 0.515112,47.3656 0.181778,43.0323 0.5,38.5C 5.82549,17.8412 18.8255,4.84117 39.5,-0.5 Z"/></g>
<g><path style="opacity:1" fill="#efba5c" d="M 37.5,21.5 C 37.5,22.8333 37.5,24.1667 37.5,25.5C 33.8846,30.5189 29.3846,31.5189 24,28.5C 23.5065,26.8659 23.3398,25.1992 23.5,23.5C 23.9528,22.5416 24.6195,21.7083 25.5,21C 29.7412,19.1509 33.7412,19.3175 37.5,21.5 Z"/></g>
<g><path style="opacity:1" fill="#f9d78a" d="M 49.5,16.5 C 53.1705,19.2493 54.3372,22.9159 53,27.5C 52.6667,27.1667 52.3333,26.8333 52,26.5C 51.3333,29.1667 50.6667,29.1667 50,26.5C 48.3916,28.7672 49.225,29.7672 52.5,29.5C 54.2905,30.3913 56.1239,31.3913 58,32.5C 57.9813,34.1075 57.8146,35.7741 57.5,37.5C 55.8333,37.5 54.1667,37.5 52.5,37.5C 52.7678,35.901 52.4345,34.5676 51.5,33.5C 50.8658,32.0532 49.6991,31.3866 48,31.5C 46.9302,31.528 46.0968,31.8614 45.5,32.5C 39.8174,33.3536 37.1507,31.0203 37.5,25.5C 37.5,24.1667 37.5,22.8333 37.5,21.5C 38.8083,20.7677 40.1416,19.9344 41.5,19C 40.6919,18.6924 40.0253,18.1924 39.5,17.5C 40.9715,17.5944 42.1382,16.5944 43,14.5C 44.897,16.0163 47.0637,16.683 49.5,16.5 Z"/></g>
<g><path style="opacity:1" fill="#f7d380" d="M 82.5,18.5 C 87.9197,22.9995 91.5863,28.6661 93.5,35.5C 93.5,36.8333 93.5,38.1667 93.5,39.5C 91.5,39.8333 89.5,40.1667 87.5,40.5C 86.1667,40.5 84.8333,40.5 83.5,40.5C 81.5183,40.0046 79.5183,39.5046 77.5,39C 78.4506,38.2825 78.6172,37.4491 78,36.5C 75.6457,36.8916 73.1457,36.8916 70.5,36.5C 69.4716,33.2856 67.1382,31.4523 63.5,31C 61.9586,29.6288 60.6253,28.1288 59.5,26.5C 59.8923,24.8211 60.3923,23.1545 61,21.5C 61.6667,20.1667 62.3333,20.1667 63,21.5C 63.3678,20.09 64.2011,19.09 65.5,18.5C 69.2269,19.0213 72.7269,18.0213 76,15.5C 78.084,16.7689 80.2506,17.7689 82.5,18.5 Z"/></g>
<g><path style="opacity:1" fill="#edb759" d="M 71.5,23.5 C 73.8333,23.5 76.1667,23.5 78.5,23.5C 79.6694,30.1904 77.5027,31.8571 72,28.5C 71.5065,26.8659 71.3398,25.1992 71.5,23.5 Z"/></g>
<g><path style="opacity:1" fill="#f9d47f" d="M 23.5,23.5 C 23.3398,25.1992 23.5065,26.8659 24,28.5C 29.3846,31.5189 33.8846,30.5189 37.5,25.5C 37.1507,31.0203 39.8174,33.3536 45.5,32.5C 43.7182,34.6869 41.5515,35.0203 39,33.5C 38.5348,34.9308 37.7014,36.0975 36.5,37C 37.8172,38.7672 39.4839,40.1005 41.5,41C 39.8659,41.4935 38.1992,41.6602 36.5,41.5C 36.5,42.5 36.5,43.5 36.5,44.5C 38.1998,44.3739 39.6998,43.7073 41,42.5C 42.3943,43.6133 43.561,44.9466 44.5,46.5C 45.5939,44.1638 46.9272,44.1638 48.5,46.5C 47.624,47.2508 46.624,47.7508 45.5,48C 46.3247,49.6883 47.3247,49.8549 48.5,48.5C 49.6956,48.8457 49.6956,49.3457 48.5,50C 51.8168,50.4983 55.1501,50.665 58.5,50.5C 58.5674,51.9587 58.2341,53.2921 57.5,54.5C 56.8826,54.6107 56.3826,54.944 56,55.5C 53.73,52.8472 51.0633,52.1805 48,53.5C 46.5347,51.085 44.368,50.085 41.5,50.5C 41.6309,49.6236 41.2975,48.9569 40.5,48.5C 38.1463,47.9399 35.813,47.2733 33.5,46.5C 32.9478,44.9974 32.9478,43.3307 33.5,41.5C 31.0194,41.6766 29.1861,40.6766 28,38.5C 26.1316,39.6719 24.2983,39.5053 22.5,38C 19.6112,34.2193 15.9445,32.0527 11.5,31.5C 11.5,30.1667 11.5,28.8333 11.5,27.5C 13.9489,24.9576 16.6156,22.6242 19.5,20.5C 20.6422,21.8262 21.9755,22.8262 23.5,23.5 Z"/></g>
<g><path style="opacity:1" fill="#54251a" d="M 44.5,5.5 C 51.9818,4.50797 59.6484,4.17464 67.5,4.5C 72.7873,6.25317 77.7873,8.75317 82.5,12C 87.7326,17.7251 92.7326,23.5585 97.5,29.5C 98.1125,33.163 98.2792,36.8297 98,40.5C 97.2303,39.4019 96.397,39.4019 95.5,40.5C 95.2041,38.597 94.5375,36.9303 93.5,35.5C 91.5863,28.6661 87.9197,22.9995 82.5,18.5C 80.9962,16.1644 78.9962,14.331 76.5,13C 66.7186,6.97723 56.052,4.47723 44.5,5.5 Z"/></g>
<g><path style="opacity:1" fill="#f9d686" d="M 59.5,26.5 C 60.6253,28.1288 61.9586,29.6288 63.5,31C 67.1382,31.4523 69.4716,33.2856 70.5,36.5C 73.1457,36.8916 75.6457,36.8916 78,36.5C 78.6172,37.4491 78.4506,38.2825 77.5,39C 79.5183,39.5046 81.5183,40.0046 83.5,40.5C 79.3564,40.0822 75.3564,40.5822 71.5,42C 70.7402,43.4411 70.0736,44.9411 69.5,46.5C 66.7658,47.9006 64.7658,49.9006 63.5,52.5C 63.6495,51.448 63.4828,50.448 63,49.5C 60.6097,48.1092 58.9431,46.1092 58,43.5C 57.586,43.9574 57.086,44.2907 56.5,44.5C 52.9405,41.7131 51.2739,38.0464 51.5,33.5C 52.4345,34.5676 52.7678,35.901 52.5,37.5C 54.1667,37.5 55.8333,37.5 57.5,37.5C 57.8146,35.7741 57.9813,34.1075 58,32.5C 56.1239,31.3913 54.2905,30.3913 52.5,29.5C 53.6885,28.9524 54.8552,28.6191 56,28.5C 56.6144,26.6866 56.2811,26.3533 55,27.5C 54.376,25.5355 54.876,23.8689 56.5,22.5C 57.0568,24.3316 58.0568,25.6649 59.5,26.5 Z"/></g>
<g><path style="opacity:1" fill="#f8d483" d="M 11.5,27.5 C 11.5,28.8333 11.5,30.1667 11.5,31.5C 15.9445,32.0527 19.6112,34.2193 22.5,38C 24.2983,39.5053 26.1316,39.6719 28,38.5C 29.1861,40.6766 31.0194,41.6766 33.5,41.5C 32.9478,43.3307 32.9478,44.9974 33.5,46.5C 35.813,47.2733 38.1463,47.9399 40.5,48.5C 41.2975,48.9569 41.6309,49.6236 41.5,50.5C 39.5416,50.908 37.5416,51.2413 35.5,51.5C 35.8333,52.1667 36.1667,52.8333 36.5,53.5C 34.9539,54.684 33.2873,55.684 31.5,56.5C 32.6888,57.4287 34.0222,57.762 35.5,57.5C 35.1866,60.2469 35.52,62.9135 36.5,65.5C 37.6753,64.1451 38.6753,64.3117 39.5,66C 41.8333,66.3333 44.1667,66.6667 46.5,67C 47.756,67.4169 48.4226,68.2502 48.5,69.5C 43.5022,68.4035 38.5022,68.2369 33.5,69C 30.7364,67.456 30.9031,66.2893 34,65.5C 35.9,60.0866 34.0666,57.7532 28.5,58.5C 28.781,61.8166 28.781,64.9832 28.5,68C 22.3955,68.6075 16.8955,67.1075 12,63.5C 12.1343,65.1893 12.6343,66.856 13.5,68.5C 9.48471,65.148 6.98471,60.8147 6,55.5C 5.05021,48.3577 5.55021,41.3577 7.5,34.5C 8.0787,31.6689 9.41203,29.3356 11.5,27.5 Z"/></g>
<g><path style="opacity:1" fill="#b38857" d="M 93.5,35.5 C 94.5375,36.9303 95.2041,38.597 95.5,40.5C 92.8333,40.8333 90.1667,41.1667 87.5,41.5C 87.5,41.1667 87.5,40.8333 87.5,40.5C 89.5,40.1667 91.5,39.8333 93.5,39.5C 93.5,38.1667 93.5,36.8333 93.5,35.5 Z"/></g>
<g><path style="opacity:1" fill="#f8d17c" d="M 51.5,33.5 C 51.2739,38.0464 52.9405,41.7131 56.5,44.5C 57.086,44.2907 57.586,43.9574 58,43.5C 58.9431,46.1092 60.6097,48.1092 63,49.5C 63.4828,50.448 63.6495,51.448 63.5,52.5C 61.847,52.6596 60.5137,53.3263 59.5,54.5C 58.8333,54.5 58.1667,54.5 57.5,54.5C 58.2341,53.2921 58.5674,51.9587 58.5,50.5C 55.1501,50.665 51.8168,50.4983 48.5,50C 49.6956,49.3457 49.6956,48.8457 48.5,48.5C 47.3247,49.8549 46.3247,49.6883 45.5,48C 46.624,47.7508 47.624,47.2508 48.5,46.5C 46.9272,44.1638 45.5939,44.1638 44.5,46.5C 43.561,44.9466 42.3943,43.6133 41,42.5C 39.6998,43.7073 38.1998,44.3739 36.5,44.5C 36.5,43.5 36.5,42.5 36.5,41.5C 38.1992,41.6602 39.8659,41.4935 41.5,41C 39.4839,40.1005 37.8172,38.7672 36.5,37C 37.7014,36.0975 38.5348,34.9308 39,33.5C 41.5515,35.0203 43.7182,34.6869 45.5,32.5C 46.0968,31.8614 46.9302,31.528 48,31.5C 49.6991,31.3866 50.8658,32.0532 51.5,33.5 Z"/></g>
<g><path style="opacity:1" fill="#f1d086" d="M 105.5,46.5 C 101.233,46.203 97.0659,46.5363 93,47.5C 92.3333,48.1667 92.3333,48.8333 93,49.5C 94.6851,51.0175 96.1851,52.6841 97.5,54.5C 104.961,57.0992 104.795,60.0992 97,63.5C 95.5187,62.5291 94.6854,61.1958 94.5,59.5C 95.7911,58.4583 95.7911,57.2917 94.5,56C 91.5706,55.2228 88.7372,55.3895 86,56.5C 84.9717,54.6385 83.4717,53.3052 81.5,52.5C 79.2178,53.2234 76.8845,53.5567 74.5,53.5C 78.2042,50.6483 82.2042,48.315 86.5,46.5C 92.9834,45.3244 99.3167,45.3244 105.5,46.5 Z"/></g>
<g><path style="opacity:1" fill="#f9d787" d="M 41.5,50.5 C 44.368,50.085 46.5347,51.085 48,53.5C 51.0633,52.1805 53.73,52.8472 56,55.5C 56.3826,54.944 56.8826,54.6107 57.5,54.5C 58.1667,54.5 58.8333,54.5 59.5,54.5C 59.1788,56.0481 58.1788,56.7148 56.5,56.5C 56.0074,58.8056 55.6741,61.139 55.5,63.5C 54.4043,66.0316 53.0709,68.3649 51.5,70.5C 50.791,69.596 49.791,69.2627 48.5,69.5C 48.4226,68.2502 47.756,67.4169 46.5,67C 44.1667,66.6667 41.8333,66.3333 39.5,66C 38.6753,64.3117 37.6753,64.1451 36.5,65.5C 35.52,62.9135 35.1866,60.2469 35.5,57.5C 34.0222,57.762 32.6888,57.4287 31.5,56.5C 33.2873,55.684 34.9539,54.684 36.5,53.5C 36.1667,52.8333 35.8333,52.1667 35.5,51.5C 37.5416,51.2413 39.5416,50.908 41.5,50.5 Z"/></g>
<g><path style="opacity:1" fill="#f8d585" d="M 105.5,46.5 C 119.515,48.1564 130.182,54.8231 137.5,66.5C 132.6,61.9179 129.934,62.5846 129.5,68.5C 128.883,68.6107 128.383,68.944 128,69.5C 127.5,68.3333 126.667,67.5 125.5,67C 125.833,66.6667 126.167,66.3333 126.5,66C 125.584,65.6258 124.75,65.1258 124,64.5C 123.505,62.5273 123.338,60.5273 123.5,58.5C 124.552,58.6495 125.552,58.4828 126.5,58C 123.385,53.5285 120.052,53.0285 116.5,56.5C 115.914,56.2907 115.414,55.9574 115,55.5C 113.434,57.8223 111.267,59.3223 108.5,60C 108.854,61.6255 108.854,63.4588 108.5,65.5C 107.493,66.8284 106.16,67.8284 104.5,68.5C 99.5593,65.7412 94.5593,64.0745 89.5,63.5C 89.5,62.5 89.5,61.5 89.5,60.5C 91.2915,60.634 92.9582,60.3007 94.5,59.5C 94.6854,61.1958 95.5187,62.5291 97,63.5C 104.795,60.0992 104.961,57.0992 97.5,54.5C 96.1851,52.6841 94.6851,51.0175 93,49.5C 92.3333,48.8333 92.3333,48.1667 93,47.5C 97.0659,46.5363 101.233,46.203 105.5,46.5 Z"/></g>
<g><path style="opacity:1" fill="#4e231a" d="M 97.5,29.5 C 99.2095,32.4295 100.543,35.5961 101.5,39C 110.852,39.9511 119.519,42.7845 127.5,47.5C 130.973,52.4905 135.139,57.1571 140,61.5C 141.394,63.3875 142.56,65.3875 143.5,67.5C 141.784,67.3713 140.117,67.038 138.5,66.5C 138.167,66.5 137.833,66.5 137.5,66.5C 130.182,54.8231 119.515,48.1564 105.5,46.5C 99.3167,45.3244 92.9834,45.3244 86.5,46.5C 86.366,44.7085 86.6993,43.0418 87.5,41.5C 90.1667,41.1667 92.8333,40.8333 95.5,40.5C 96.397,39.4019 97.2303,39.4019 98,40.5C 98.2792,36.8297 98.1125,33.163 97.5,29.5 Z"/></g>
<g><path style="opacity:1" fill="#542319" d="M 7.5,34.5 C 5.55021,41.3577 5.05021,48.3577 6,55.5C 6.98471,60.8147 9.48471,65.148 13.5,68.5C 20.8392,75.9572 29.8392,79.9572 40.5,80.5C 39.2825,81.1614 37.9492,81.8281 36.5,82.5C 37.2427,83.1818 37.9094,83.8485 38.5,84.5C 22.0443,82.8655 9.87767,74.8655 2,60.5C 1.50204,57.5184 1.33537,54.5184 1.5,51.5C 1.37566,45.4098 2.04232,39.4098 3.5,33.5C 4.98473,32.5672 6.31806,32.9005 7.5,34.5 Z"/></g>
<g><path style="opacity:1" fill="#eccd8b" d="M 83.5,40.5 C 84.8333,40.5 86.1667,40.5 87.5,40.5C 87.5,40.8333 87.5,41.1667 87.5,41.5C 74.043,44.886 63.3763,52.2194 55.5,63.5C 55.6741,61.139 56.0074,58.8056 56.5,56.5C 58.1788,56.7148 59.1788,56.0481 59.5,54.5C 60.5137,53.3263 61.847,52.6596 63.5,52.5C 64.7658,49.9006 66.7658,47.9006 69.5,46.5C 70.0736,44.9411 70.7402,43.4411 71.5,42C 75.3564,40.5822 79.3564,40.0822 83.5,40.5 Z"/></g>
<g><path style="opacity:1" fill="#f8d17b" d="M 94.5,59.5 C 92.9582,60.3007 91.2915,60.634 89.5,60.5C 89.5,61.5 89.5,62.5 89.5,63.5C 87.0728,64.2789 87.0728,65.4455 89.5,67C 88.9056,67.4643 88.2389,67.631 87.5,67.5C 86.609,68.1098 85.609,68.4431 84.5,68.5C 84.8362,63.9999 82.8362,62.1666 78.5,63C 73.4639,64.2098 71.4639,67.3764 72.5,72.5C 71.6862,70.369 71.1862,68.0356 71,65.5C 68.8767,65.034 67.3767,63.8673 66.5,62C 68.9407,58.948 71.6073,56.1147 74.5,53.5C 76.8845,53.5567 79.2178,53.2234 81.5,52.5C 83.4717,53.3052 84.9717,54.6385 86,56.5C 88.7372,55.3895 91.5706,55.2228 94.5,56C 95.7911,57.2917 95.7911,58.4583 94.5,59.5 Z"/></g>
<g><path style="opacity:1" fill="#582719" d="M 87.5,41.5 C 86.6993,43.0418 86.366,44.7085 86.5,46.5C 82.2042,48.315 78.2042,50.6483 74.5,53.5C 66.2047,58.0831 60.2047,64.7498 56.5,73.5C 56.5654,73.0618 56.3988,72.7284 56,72.5C 55.3023,75.4106 53.8023,76.0773 51.5,74.5C 51.5,73.8333 51.5,73.1667 51.5,72.5C 51.5,71.8333 51.5,71.1667 51.5,70.5C 53.0709,68.3649 54.4043,66.0316 55.5,63.5C 63.3763,52.2194 74.043,44.886 87.5,41.5 Z"/></g>
<g><path style="opacity:1" fill="#f8d480" d="M 89.5,63.5 C 94.5593,64.0745 99.5593,65.7412 104.5,68.5C 106.16,67.8284 107.493,66.8284 108.5,65.5C 108.141,67.7659 108.808,69.5993 110.5,71C 108.314,71.6036 108.148,72.7703 110,74.5C 113.726,75.296 117.893,75.296 122.5,74.5C 122.351,73.448 122.517,72.448 123,71.5C 125,72.1667 127,72.8333 129,73.5C 128.229,71.82 128.395,70.1533 129.5,68.5C 129.934,62.5846 132.6,61.9179 137.5,66.5C 137.833,66.5 138.167,66.5 138.5,66.5C 141.013,70.5227 142.679,74.8561 143.5,79.5C 141.551,78.2753 140.218,78.942 139.5,81.5C 138.482,88.0117 135.815,93.6784 131.5,98.5C 129.016,96.9723 129.182,95.3056 132,93.5C 132.796,90.9615 132.629,88.6282 131.5,86.5C 129.964,83.9078 127.631,82.9078 124.5,83.5C 127.122,82.9669 129.622,81.9669 132,80.5C 134.125,85.9967 135.459,85.6634 136,79.5C 138.91,78.5497 140.077,76.5497 139.5,73.5C 137.801,73.6602 136.134,73.4935 134.5,73C 135.451,72.2825 135.617,71.4491 135,70.5C 132.307,70.9526 130.473,72.4526 129.5,75C 130.34,76.6665 129.84,76.8331 128,75.5C 127.383,76.4491 127.549,77.2825 128.5,78C 127.083,80.8262 125.583,80.9928 124,78.5C 123.692,79.3081 123.192,79.9747 122.5,80.5C 121.402,79.3845 120.235,79.3845 119,80.5C 118.955,79.077 117.789,78.077 115.5,77.5C 114.522,77.9767 113.689,78.6433 113,79.5C 112.667,79.1667 112.333,78.8333 112,78.5C 111.581,79.6721 110.915,80.6721 110,81.5C 109.667,79.8333 109.333,78.1667 109,76.5C 108.431,80.3605 107.598,80.3605 106.5,76.5C 105.637,78.7713 105.637,81.1046 106.5,83.5C 104.339,83.1742 102.506,82.1742 101,80.5C 100.409,85.3772 99.0757,86.0439 97,82.5C 95.5053,84.1096 95.3387,85.7763 96.5,87.5C 95.4231,88.7051 94.0898,89.3718 92.5,89.5C 92.5978,88.118 92.5978,86.618 92.5,85C 91.5509,84.3828 90.7175,84.5494 90,85.5C 88.6381,84.0753 87.1381,83.242 85.5,83C 87.4727,82.5045 89.4727,82.3379 91.5,82.5C 91.5,80.1667 91.5,77.8333 91.5,75.5C 93.4924,77.6826 95.8257,78.0159 98.5,76.5C 100.34,70.9163 98.3396,69.083 92.5,71C 91.6634,72.0113 91.33,73.1779 91.5,74.5C 90.8971,71.8252 89.5638,69.4918 87.5,67.5C 88.2389,67.631 88.9056,67.4643 89.5,67C 87.0728,65.4455 87.0728,64.2789 89.5,63.5 Z"/></g>
<g><path style="opacity:1" fill="#f4ca73" d="M 48.5,69.5 C 49.791,69.2627 50.791,69.596 51.5,70.5C 51.5,71.1667 51.5,71.8333 51.5,72.5C 43.2517,71.5314 34.9183,71.1981 26.5,71.5C 24.7839,71.3713 23.1172,71.038 21.5,70.5C 20.0903,69.1716 18.9236,69.5049 18,71.5C 16.871,69.8588 15.371,68.8588 13.5,68.5C 12.6343,66.856 12.1343,65.1893 12,63.5C 16.8955,67.1075 22.3955,68.6075 28.5,68C 28.781,64.9832 28.781,61.8166 28.5,58.5C 34.0666,57.7532 35.9,60.0866 34,65.5C 30.9031,66.2893 30.7364,67.456 33.5,69C 38.5022,68.2369 43.5022,68.4035 48.5,69.5 Z"/></g>
<g><path style="opacity:1" fill="#f5d48a" d="M 74.5,53.5 C 71.6073,56.1147 68.9407,58.948 66.5,62C 67.3767,63.8673 68.8767,65.034 71,65.5C 71.1862,68.0356 71.6862,70.369 72.5,72.5C 73.3382,72.8417 73.6716,73.5084 73.5,74.5C 75.2701,75.764 76.9368,77.264 78.5,79C 77.9056,79.4643 77.2389,79.631 76.5,79.5C 75.0105,78.7134 73.1772,78.7134 71,79.5C 70.028,77.6951 68.8613,76.0284 67.5,74.5C 65.651,76.9065 63.4844,78.2399 61,78.5C 60.5,78 60,77.5 59.5,77C 60.7472,75.5064 60.7472,74.0064 59.5,72.5C 58.3378,74.8244 57.1711,77.1578 56,79.5C 55.3905,86.1892 55.5572,92.8558 56.5,99.5C 55.8333,98.5 55.1667,97.5 54.5,96.5C 54.0252,88.6879 54.6918,81.0213 56.5,73.5C 60.2047,64.7498 66.2047,58.0831 74.5,53.5 Z"/></g>
<g><path style="opacity:1" fill="#f8d380" d="M 129.5,68.5 C 128.395,70.1533 128.229,71.82 129,73.5C 127,72.8333 125,72.1667 123,71.5C 122.517,72.448 122.351,73.448 122.5,74.5C 117.893,75.296 113.726,75.296 110,74.5C 108.148,72.7703 108.314,71.6036 110.5,71C 108.808,69.5993 108.141,67.7659 108.5,65.5C 108.854,63.4588 108.854,61.6255 108.5,60C 111.267,59.3223 113.434,57.8223 115,55.5C 115.414,55.9574 115.914,56.2907 116.5,56.5C 120.052,53.0285 123.385,53.5285 126.5,58C 125.552,58.4828 124.552,58.6495 123.5,58.5C 123.338,60.5273 123.505,62.5273 124,64.5C 124.75,65.1258 125.584,65.6258 126.5,66C 126.167,66.3333 125.833,66.6667 125.5,67C 126.667,67.5 127.5,68.3333 128,69.5C 128.383,68.944 128.883,68.6107 129.5,68.5 Z"/></g>
<g><path style="opacity:0.847" fill="#48281f" d="M 127.5,47.5 C 138.833,55.1883 146.5,65.5217 150.5,78.5C 150.5,85.1667 150.5,91.8333 150.5,98.5C 148.822,103.518 146.322,108.185 143,112.5C 141.871,114.141 140.371,115.141 138.5,115.5C 138.67,114.178 138.337,113.011 137.5,112C 139.101,111.727 140.601,111.227 142,110.5C 144.812,106.299 146.812,101.632 148,96.5C 149.847,86.1891 148.347,76.5225 143.5,67.5C 142.56,65.3875 141.394,63.3875 140,61.5C 135.139,57.1571 130.973,52.4905 127.5,47.5 Z"/></g>
<g><path style="opacity:1" fill="#efb95c" d="M 84.5,68.5 C 82.1619,72.7388 78.4952,74.7388 73.5,74.5C 73.6716,73.5084 73.3382,72.8417 72.5,72.5C 71.4639,67.3764 73.4639,64.2098 78.5,63C 82.8362,62.1666 84.8362,63.9999 84.5,68.5 Z"/></g>
<g><path style="opacity:1" fill="#e4b05c" d="M 13.5,68.5 C 15.371,68.8588 16.871,69.8588 18,71.5C 18.9236,69.5049 20.0903,69.1716 21.5,70.5C 19.4508,70.7058 19.1175,71.5391 20.5,73C 29.4414,76.7344 38.7747,78.5678 48.5,78.5C 48.3573,76.7376 48.6906,75.0709 49.5,73.5C 43.1704,72.2912 36.8371,72.2912 30.5,73.5C 28.6455,73.6598 27.3121,72.9931 26.5,71.5C 34.9183,71.1981 43.2517,71.5314 51.5,72.5C 51.5,73.1667 51.5,73.8333 51.5,74.5C 50.2616,76.2143 49.595,78.2143 49.5,80.5C 46.5,80.5 43.5,80.5 40.5,80.5C 29.8392,79.9572 20.8392,75.9572 13.5,68.5 Z"/></g>
<g><path style="opacity:1" fill="#f0b854" d="M 21.5,70.5 C 23.1172,71.038 24.7839,71.3713 26.5,71.5C 27.3121,72.9931 28.6455,73.6598 30.5,73.5C 36.8371,72.2912 43.1704,72.2912 49.5,73.5C 48.6906,75.0709 48.3573,76.7376 48.5,78.5C 38.7747,78.5678 29.4414,76.7344 20.5,73C 19.1175,71.5391 19.4508,70.7058 21.5,70.5 Z"/></g>
<g><path style="opacity:1" fill="#f9d584" d="M 87.5,67.5 C 89.5638,69.4918 90.8971,71.8252 91.5,74.5C 91.5,74.8333 91.5,75.1667 91.5,75.5C 91.5,77.8333 91.5,80.1667 91.5,82.5C 89.4727,82.3379 87.4727,82.5045 85.5,83C 87.1381,83.242 88.6381,84.0753 90,85.5C 90.7175,84.5494 91.5509,84.3828 92.5,85C 92.5978,86.618 92.5978,88.118 92.5,89.5C 92.5,90.1667 92.5,90.8333 92.5,91.5C 92.5,92.1667 92.1667,92.5 91.5,92.5C 90.844,89.6821 89.0107,88.0154 86,87.5C 85.3741,89.9913 84.5407,89.9913 83.5,87.5C 81.6887,88.8265 79.6887,89.8265 77.5,90.5C 78.7287,91.2811 80.062,91.7811 81.5,92C 80.8742,92.7504 80.3742,93.5838 80,94.5C 77.6091,93.3975 77.1091,94.0642 78.5,96.5C 78.0234,97.931 77.3567,99.2643 76.5,100.5C 75.3247,99.1451 74.3247,99.3117 73.5,101C 75.158,101.725 75.658,102.892 75,104.5C 74.6667,104.167 74.3333,103.833 74,103.5C 73.5,104.667 72.6667,105.5 71.5,106C 75.1656,107.008 78.6656,108.508 82,110.5C 83.3877,110.786 84.8877,110.452 86.5,109.5C 89.0098,109.927 91.3432,110.593 93.5,111.5C 83.8201,112.751 74.8201,111.084 66.5,106.5C 67.9302,104.845 68.7635,102.845 69,100.5C 69.3333,100.833 69.6667,101.167 70,101.5C 70.5885,99.1367 72.0885,98.1367 74.5,98.5C 75.0262,95.1922 73.6928,93.0255 70.5,92C 71.3802,90.6439 71.7135,89.1439 71.5,87.5C 68.3751,87.1353 65.3751,86.302 62.5,85C 61.3157,83.8545 61.3157,82.6879 62.5,81.5C 66.6065,82.1409 70.4399,83.4743 74,85.5C 74.3076,84.6919 74.8076,84.0253 75.5,83.5C 78.376,85.9594 81.376,86.1261 84.5,84C 83.8921,83.1301 83.0588,82.6301 82,82.5C 78.9279,83.9464 77.0946,82.9464 76.5,79.5C 77.2389,79.631 77.9056,79.4643 78.5,79C 76.9368,77.264 75.2701,75.764 73.5,74.5C 78.4952,74.7388 82.1619,72.7388 84.5,68.5C 85.609,68.4431 86.609,68.1098 87.5,67.5 Z"/></g>
<g><path style="opacity:1" fill="#edb757" d="M 91.5,75.5 C 91.5,75.1667 91.5,74.8333 91.5,74.5C 91.33,73.1779 91.6634,72.0113 92.5,71C 98.3396,69.083 100.34,70.9163 98.5,76.5C 95.8257,78.0159 93.4924,77.6826 91.5,75.5 Z"/></g>
<g><path style="opacity:1" fill="#f9d684" d="M 124.5,83.5 C 122.473,84.8606 120.806,86.5273 119.5,88.5C 118.284,90.8474 118.284,93.3474 119.5,96C 119.317,97.6836 118.65,97.8502 117.5,96.5C 115.107,95.79 112.607,95.1233 110,94.5C 109.617,95.056 109.117,95.3893 108.5,95.5C 106.17,93.7098 103.503,92.2098 100.5,91C 98.2511,90.1368 96.4178,90.6368 95,92.5C 94.3292,91.7476 93.4959,91.4142 92.5,91.5C 92.5,90.8333 92.5,90.1667 92.5,89.5C 94.0898,89.3718 95.4231,88.7051 96.5,87.5C 95.3387,85.7763 95.5053,84.1096 97,82.5C 99.0757,86.0439 100.409,85.3772 101,80.5C 102.506,82.1742 104.339,83.1742 106.5,83.5C 105.637,81.1046 105.637,78.7713 106.5,76.5C 107.598,80.3605 108.431,80.3605 109,76.5C 109.333,78.1667 109.667,79.8333 110,81.5C 110.915,80.6721 111.581,79.6721 112,78.5C 112.333,78.8333 112.667,79.1667 113,79.5C 113.689,78.6433 114.522,77.9767 115.5,77.5C 117.789,78.077 118.955,79.077 119,80.5C 120.235,79.3845 121.402,79.3845 122.5,80.5C 123.192,79.9747 123.692,79.3081 124,78.5C 125.583,80.9928 127.083,80.8262 128.5,78C 127.549,77.2825 127.383,76.4491 128,75.5C 129.84,76.8331 130.34,76.6665 129.5,75C 130.473,72.4526 132.307,70.9526 135,70.5C 135.617,71.4491 135.451,72.2825 134.5,73C 136.134,73.4935 137.801,73.6602 139.5,73.5C 140.077,76.5497 138.91,78.5497 136,79.5C 135.459,85.6634 134.125,85.9967 132,80.5C 129.622,81.9669 127.122,82.9669 124.5,83.5 Z"/></g>
<g><path style="opacity:1" fill="#5a2418" d="M 56.5,73.5 C 54.6918,81.0213 54.0252,88.6879 54.5,96.5C 53.8999,97.9002 52.8999,98.9002 51.5,99.5C 50.673,94.6545 50.0063,89.6545 49.5,84.5C 45.8333,84.5 42.1667,84.5 38.5,84.5C 37.9094,83.8485 37.2427,83.1818 36.5,82.5C 37.9492,81.8281 39.2825,81.1614 40.5,80.5C 43.5,80.5 46.5,80.5 49.5,80.5C 49.595,78.2143 50.2616,76.2143 51.5,74.5C 53.8023,76.0773 55.3023,75.4106 56,72.5C 56.3988,72.7284 56.5654,73.0618 56.5,73.5 Z"/></g>
<g><path style="opacity:1" fill="#f8d586" d="M 76.5,79.5 C 77.0946,82.9464 78.9279,83.9464 82,82.5C 83.0588,82.6301 83.8921,83.1301 84.5,84C 81.376,86.1261 78.376,85.9594 75.5,83.5C 74.8076,84.0253 74.3076,84.6919 74,85.5C 70.4399,83.4743 66.6065,82.1409 62.5,81.5C 61.2502,81.4226 60.4169,80.756 60,79.5C 58.984,80.6341 58.3173,80.3008 58,78.5C 56.7475,81.0135 56.2475,83.6802 56.5,86.5C 58.861,86.6741 61.1944,87.0074 63.5,87.5C 65.3821,91.6481 64.0488,94.3148 59.5,95.5C 60.6085,97.2141 59.9418,97.8808 57.5,97.5C 57.9926,99.8056 58.3259,102.139 58.5,104.5C 57.0687,103.22 56.4021,101.553 56.5,99.5C 55.5572,92.8558 55.3905,86.1892 56,79.5C 57.1711,77.1578 58.3378,74.8244 59.5,72.5C 60.7472,74.0064 60.7472,75.5064 59.5,77C 60,77.5 60.5,78 61,78.5C 63.4844,78.2399 65.651,76.9065 67.5,74.5C 68.8613,76.0284 70.028,77.6951 71,79.5C 73.1772,78.7134 75.0105,78.7134 76.5,79.5 Z"/></g>
<g><path style="opacity:1" fill="#f0b95c" d="M 124.5,83.5 C 127.631,82.9078 129.964,83.9078 131.5,86.5C 131.847,93.6545 128.514,96.8212 121.5,96C 119.887,93.7724 119.22,91.2724 119.5,88.5C 120.806,86.5273 122.473,84.8606 124.5,83.5 Z"/></g>
<g><path style="opacity:1" fill="#57241a" d="M 138.5,66.5 C 140.117,67.038 141.784,67.3713 143.5,67.5C 148.347,76.5225 149.847,86.1891 148,96.5C 146.812,101.632 144.812,106.299 142,110.5C 140.601,111.227 139.101,111.727 137.5,112C 138.337,113.011 138.67,114.178 138.5,115.5C 138.5,116.167 138.167,116.5 137.5,116.5C 136.041,116.433 134.708,116.766 133.5,117.5C 134.167,115.5 134.833,113.5 135.5,111.5C 135.5,111.167 135.5,110.833 135.5,110.5C 143.927,101.798 146.593,91.465 143.5,79.5C 142.679,74.8561 141.013,70.5227 138.5,66.5 Z"/></g>
<g><path style="opacity:1" fill="#f9d583" d="M 91.5,92.5 C 92.0768,94.6516 93.2435,94.985 95,93.5C 95.5,94.5 96,95.5 96.5,96.5C 95.7528,96.7365 94.9195,97.0698 94,97.5C 93.6667,96.8333 93.3333,96.1667 93,95.5C 91.3333,96.8333 89.6667,96.8333 88,95.5C 86.3005,97.3883 85.8005,99.3883 86.5,101.5C 85.8333,101.833 85.1667,102.167 84.5,102.5C 84.8797,104.021 85.0464,105.687 85,107.5C 85.3826,106.944 85.8826,106.611 86.5,106.5C 87.8333,107.5 87.8333,108.5 86.5,109.5C 84.8877,110.452 83.3877,110.786 82,110.5C 78.6656,108.508 75.1656,107.008 71.5,106C 72.6667,105.5 73.5,104.667 74,103.5C 74.3333,103.833 74.6667,104.167 75,104.5C 75.658,102.892 75.158,101.725 73.5,101C 74.3247,99.3117 75.3247,99.1451 76.5,100.5C 77.3567,99.2643 78.0234,97.931 78.5,96.5C 77.1091,94.0642 77.6091,93.3975 80,94.5C 80.3742,93.5838 80.8742,92.7504 81.5,92C 80.062,91.7811 78.7287,91.2811 77.5,90.5C 79.6887,89.8265 81.6887,88.8265 83.5,87.5C 84.5407,89.9913 85.3741,89.9913 86,87.5C 89.0107,88.0154 90.844,89.6821 91.5,92.5 Z"/></g>
<g><path style="opacity:1" fill="#f9d484" d="M 108.5,95.5 C 106.748,95.4176 105.748,96.2509 105.5,98C 106.713,99.6303 107.546,101.464 108,103.5C 109.156,102.007 109.99,102.174 110.5,104C 109.258,105.651 108.424,107.485 108,109.5C 106.233,105.401 103.733,104.401 100.5,106.5C 98.2674,106.136 96.434,105.136 95,103.5C 92.2464,103.925 89.4131,104.925 86.5,106.5C 85.8826,106.611 85.3826,106.944 85,107.5C 85.0464,105.687 84.8797,104.021 84.5,102.5C 85.1667,102.167 85.8333,101.833 86.5,101.5C 85.8005,99.3883 86.3005,97.3883 88,95.5C 89.6667,96.8333 91.3333,96.8333 93,95.5C 93.3333,96.1667 93.6667,96.8333 94,97.5C 94.9195,97.0698 95.7528,96.7365 96.5,96.5C 96,95.5 95.5,94.5 95,93.5C 93.2435,94.985 92.0768,94.6516 91.5,92.5C 92.1667,92.5 92.5,92.1667 92.5,91.5C 93.4959,91.4142 94.3292,91.7476 95,92.5C 96.4178,90.6368 98.2511,90.1368 100.5,91C 103.503,92.2098 106.17,93.7098 108.5,95.5 Z"/></g>
<g><path style="opacity:1" fill="#f9d481" d="M 62.5,81.5 C 61.3157,82.6879 61.3157,83.8545 62.5,85C 65.3751,86.302 68.3751,87.1353 71.5,87.5C 71.7135,89.1439 71.3802,90.6439 70.5,92C 73.6928,93.0255 75.0262,95.1922 74.5,98.5C 72.0885,98.1367 70.5885,99.1367 70,101.5C 69.6667,101.167 69.3333,100.833 69,100.5C 68.7635,102.845 67.9302,104.845 66.5,106.5C 64.0712,106.415 62.0712,105.415 60.5,103.5C 59.8165,103.863 59.1499,104.196 58.5,104.5C 58.3259,102.139 57.9926,99.8056 57.5,97.5C 59.9418,97.8808 60.6085,97.2141 59.5,95.5C 64.0488,94.3148 65.3821,91.6481 63.5,87.5C 61.1944,87.0074 58.861,86.6741 56.5,86.5C 56.2475,83.6802 56.7475,81.0135 58,78.5C 58.3173,80.3008 58.984,80.6341 60,79.5C 60.4169,80.756 61.2502,81.4226 62.5,81.5 Z"/></g>
<g><path style="opacity:1" fill="#f0bc5e" d="M 143.5,79.5 C 146.593,91.465 143.927,101.798 135.5,110.5C 135.368,106.999 136.702,104.165 139.5,102C 138.362,99.9549 136.695,99.2883 134.5,100C 131.742,103.721 128.075,105.554 123.5,105.5C 126.541,103.638 129.208,101.305 131.5,98.5C 135.815,93.6784 138.482,88.0117 139.5,81.5C 140.218,78.942 141.551,78.2753 143.5,79.5 Z"/></g>
<g><path style="opacity:1" fill="#f7ce77" d="M 131.5,86.5 C 132.629,88.6282 132.796,90.9615 132,93.5C 129.182,95.3056 129.016,96.9723 131.5,98.5C 129.208,101.305 126.541,103.638 123.5,105.5C 120.159,107.5 116.493,108.5 112.5,108.5C 112.918,107.778 113.584,107.278 114.5,107C 113.584,106.626 112.75,106.126 112,105.5C 110.011,99.8674 111.844,96.8674 117.5,96.5C 118.65,97.8502 119.317,97.6836 119.5,96C 118.284,93.3474 118.284,90.8474 119.5,88.5C 119.22,91.2724 119.887,93.7724 121.5,96C 128.514,96.8212 131.847,93.6545 131.5,86.5 Z"/></g>
<g><path style="opacity:0.569" fill="#472a1f" d="M -0.5,38.5 C -0.166667,38.5 0.166667,38.5 0.5,38.5C 0.181778,43.0323 0.515112,47.3656 1.5,51.5C 1.33537,54.5184 1.50204,57.5184 2,60.5C 9.87767,74.8655 22.0443,82.8655 38.5,84.5C 42.1667,84.5 45.8333,84.5 49.5,84.5C 50.0063,89.6545 50.673,94.6545 51.5,99.5C 54.9122,110.08 61.9122,117.247 72.5,121C 73.2524,121.671 73.5858,122.504 73.5,123.5C 56.3549,117.392 48.0216,105.392 48.5,87.5C 31.3309,87.619 16.8309,81.619 5,69.5C 3.12073,65.7415 1.28739,62.0748 -0.5,58.5C -0.5,51.8333 -0.5,45.1667 -0.5,38.5 Z"/></g>
<g><path style="opacity:1" fill="#fad480" d="M 117.5,96.5 C 111.844,96.8674 110.011,99.8674 112,105.5C 112.75,106.126 113.584,106.626 114.5,107C 113.584,107.278 112.918,107.778 112.5,108.5C 110.981,109.41 109.315,110.243 107.5,111C 102.845,111.499 98.1785,111.666 93.5,111.5C 91.3432,110.593 89.0098,109.927 86.5,109.5C 87.8333,108.5 87.8333,107.5 86.5,106.5C 89.4131,104.925 92.2464,103.925 95,103.5C 96.434,105.136 98.2674,106.136 100.5,106.5C 103.733,104.401 106.233,105.401 108,109.5C 108.424,107.485 109.258,105.651 110.5,104C 109.99,102.174 109.156,102.007 108,103.5C 107.546,101.464 106.713,99.6303 105.5,98C 105.748,96.2509 106.748,95.4176 108.5,95.5C 109.117,95.3893 109.617,95.056 110,94.5C 112.607,95.1233 115.107,95.79 117.5,96.5 Z"/></g>
<g><path style="opacity:1" fill="#f3bd58" d="M 135.5,110.5 C 133.194,110.993 130.861,111.326 128.5,111.5C 128.5,112.5 128.5,113.5 128.5,114.5C 123.086,115.706 117.753,117.206 112.5,119C 100.821,119.602 89.1542,119.435 77.5,118.5C 76.7659,117.292 76.4326,115.959 76.5,114.5C 88.1333,113.298 99.8,112.465 111.5,112C 116.537,111.581 120.537,109.414 123.5,105.5C 128.075,105.554 131.742,103.721 134.5,100C 136.695,99.2883 138.362,99.9549 139.5,102C 136.702,104.165 135.368,106.999 135.5,110.5 Z"/></g>
<g><path style="opacity:1" fill="#efbd65" d="M 66.5,106.5 C 74.8201,111.084 83.8201,112.751 93.5,111.5C 98.1785,111.666 102.845,111.499 107.5,111C 109.315,110.243 110.981,109.41 112.5,108.5C 116.493,108.5 120.159,107.5 123.5,105.5C 120.537,109.414 116.537,111.581 111.5,112C 99.8,112.465 88.1333,113.298 76.5,114.5C 76.4326,115.959 76.7659,117.292 77.5,118.5C 69.4471,116.107 63.1138,111.44 58.5,104.5C 59.1499,104.196 59.8165,103.863 60.5,103.5C 62.0712,105.415 64.0712,106.415 66.5,106.5 Z"/></g>
<g><path style="opacity:1" fill="#572317" d="M 54.5,96.5 C 55.1667,97.5 55.8333,98.5 56.5,99.5C 56.4021,101.553 57.0687,103.22 58.5,104.5C 63.1138,111.44 69.4471,116.107 77.5,118.5C 91.625,122.261 105.958,122.428 120.5,119C 125.805,117.014 130.805,114.514 135.5,111.5C 134.833,113.5 134.167,115.5 133.5,117.5C 126.226,121.951 118.226,124.451 109.5,125C 97.7716,125.77 86.105,125.27 74.5,123.5C 74.1667,123.5 73.8333,123.5 73.5,123.5C 73.5858,122.504 73.2524,121.671 72.5,121C 61.9122,117.247 54.9122,110.08 51.5,99.5C 52.8999,98.9002 53.8999,97.9002 54.5,96.5 Z"/></g>
<g><path style="opacity:1" fill="#ebb767" d="M 135.5,110.5 C 135.5,110.833 135.5,111.167 135.5,111.5C 130.805,114.514 125.805,117.014 120.5,119C 105.958,122.428 91.625,122.261 77.5,118.5C 89.1542,119.435 100.821,119.602 112.5,119C 117.753,117.206 123.086,115.706 128.5,114.5C 128.5,113.5 128.5,112.5 128.5,111.5C 130.861,111.326 133.194,110.993 135.5,110.5 Z"/></g>
<g><path style="opacity:0.993" fill="#422018" d="M 137.5,116.5 C 134.744,119.389 131.411,121.556 127.5,123C 122.423,124.68 117.423,126.18 112.5,127.5C 104.167,127.5 95.8333,127.5 87.5,127.5C 83.0946,126.418 78.7612,125.085 74.5,123.5C 86.105,125.27 97.7716,125.77 109.5,125C 118.226,124.451 126.226,121.951 133.5,117.5C 134.708,116.766 136.041,116.433 137.5,116.5 Z"/></g>
</svg>
