<?xml version="1.0" encoding="UTF-8"?>
<!DOCTYPE svg PUBLIC "-//W3C//DTD SVG 1.1//EN" "http://www.w3.org/Graphics/SVG/1.1/DTD/svg11.dtd">
<svg xmlns="http://www.w3.org/2000/svg" version="1.1" width="149px" height="150px" style="shape-rendering:geometricPrecision; text-rendering:geometricPrecision; image-rendering:optimizeQuality; fill-rule:evenodd; clip-rule:evenodd" xmlns:xlink="http://www.w3.org/1999/xlink">
<g><path style="opacity:1" fill="#561e0f" d="M 93.5,3.5 C 91.4727,3.33788 89.4727,3.50454 87.5,4C 91.8333,5 96.1667,6 100.5,7C 101.305,8.11268 101.972,9.27935 102.5,10.5C 91.5274,6.11575 80.194,4.78242 68.5,6.5C 70.1484,5.07346 72.1484,4.24013 74.5,4C 72.1902,3.50335 69.8568,3.33669 67.5,3.5C 76.1623,0.893159 84.8289,0.893159 93.5,3.5 Z"/></g>
<g><path style="opacity:1" fill="#c77838" d="M 97.5,14.5 C 95.712,14.2148 94.0453,14.5481 92.5,15.5C 93.9209,18.4283 92.9209,19.7616 89.5,19.5C 89.6567,18.1266 89.49,16.7932 89,15.5C 88.2828,16.0442 87.7828,16.7109 87.5,17.5C 85.9681,16.6304 84.4681,16.9638 83,18.5C 80.8669,17.7449 79.2002,16.4116 78,14.5C 76.8552,14.6191 75.6885,14.9524 74.5,15.5C 74.5,14.1667 74.5,12.8333 74.5,11.5C 75.1016,7.87794 76.6016,7.5446 79,10.5C 81.0413,9.24782 83.3746,8.58115 86,8.5C 91.0461,8.05245 95.5461,9.38579 99.5,12.5C 98.7573,13.1818 98.0906,13.8485 97.5,14.5 Z"/></g>
<g><path style="opacity:1" fill="#521e12" d="M 93.5,3.5 C 100.615,3.141 105.948,5.97433 109.5,12C 115.708,13.7706 121.375,16.604 126.5,20.5C 127.167,22.1667 127.833,23.8333 128.5,25.5C 124.427,23.9752 121.427,21.3085 119.5,17.5C 117.199,16.6751 114.865,16.0084 112.5,15.5C 109.193,13.8466 105.86,12.1799 102.5,10.5C 101.972,9.27935 101.305,8.11268 100.5,7C 96.1667,6 91.8333,5 87.5,4C 89.4727,3.50454 91.4727,3.33788 93.5,3.5 Z"/></g>
<g><path style="opacity:1" fill="#582113" d="M 67.5,3.5 C 69.8568,3.33669 72.1902,3.50335 74.5,4C 72.1484,4.24013 70.1484,5.07346 68.5,6.5C 65.328,8.25192 62.328,10.2519 59.5,12.5C 54.1852,15.6496 50.0185,19.983 47,25.5C 44.3979,29.4738 42.8979,33.8071 42.5,38.5C 41.0735,40.1484 40.2401,42.1484 40,44.5C 39.5014,48.1516 39.3347,51.8183 39.5,55.5C 38.5318,53.3926 38.1984,51.0593 38.5,48.5C 37.0413,48.4326 35.7079,48.7659 34.5,49.5C 34.8496,44.4313 35.6829,39.4313 37,34.5C 39.4861,28.5379 42.1527,22.8712 45,17.5C 37.1628,24.8062 31.6628,33.4729 28.5,43.5C 27.0721,41.1459 27.4054,38.9792 29.5,37C 29.3552,36.228 29.0219,35.5613 28.5,35C 30.352,31.7609 31.352,28.2609 31.5,24.5C 33.3714,21.9392 35.3714,19.4392 37.5,17C 37.1667,16.8333 36.8333,16.6667 36.5,16.5C 33.1389,18.5113 29.8056,20.5113 26.5,22.5C 25.5,22.5 24.5,22.5 23.5,22.5C 26.607,20.8365 28.9404,18.3365 30.5,15C 36.8634,10.9829 43.5301,7.8162 50.5,5.5C 50.8333,5.5 51.1667,5.5 51.5,5.5C 56.9528,5.63514 62.2861,4.96847 67.5,3.5 Z"/></g>
<g><path style="opacity:1" fill="#512f23" d="M 70.5,-0.5 C 76.8333,-0.5 83.1667,-0.5 89.5,-0.5C 102.433,2.63295 114.099,8.46628 124.5,17C 125.823,17.8159 126.489,18.9826 126.5,20.5C 121.375,16.604 115.708,13.7706 109.5,12C 105.948,5.97433 100.615,3.141 93.5,3.5C 84.8289,0.893159 76.1623,0.893159 67.5,3.5C 62.2861,4.96847 56.9528,5.63514 51.5,5.5C 57.9439,3.90789 64.2772,1.90789 70.5,-0.5 Z"/></g>
<g><path style="opacity:1" fill="#c77634" d="M 59.5,12.5 C 61.1667,12.5 62.8333,12.5 64.5,12.5C 66.8669,13.1637 68.8669,14.497 70.5,16.5C 70.2907,17.086 69.9574,17.586 69.5,18C 71.2464,18.4709 72.913,19.1376 74.5,20C 73.6721,20.9147 72.6721,21.5814 71.5,22C 72.7839,22.6838 73.9505,22.5171 75,21.5C 75.4828,22.448 75.6495,23.448 75.5,24.5C 74.1779,24.33 73.0113,24.6634 72,25.5C 71.3333,24.1667 70.6667,22.8333 70,21.5C 69.6667,22.1667 69.3333,22.8333 69,23.5C 67.4229,20.3246 65.5896,19.9912 63.5,22.5C 61.3741,22.2702 59.7075,21.2702 58.5,19.5C 57.269,20.6507 57.269,21.8173 58.5,23C 56.8204,23.0343 55.3204,23.201 54,23.5C 54.1503,21.4944 54.6503,19.4944 55.5,17.5C 56.8333,15.8333 58.1667,14.1667 59.5,12.5 Z"/></g>
<g><path style="opacity:1" fill="#e9ae6e" d="M 71.5,11.5 C 72.5,11.5 73.5,11.5 74.5,11.5C 74.5,12.8333 74.5,14.1667 74.5,15.5C 73.791,16.404 72.791,16.7373 71.5,16.5C 71.5,14.8333 71.5,13.1667 71.5,11.5 Z"/></g>
<g><path style="opacity:1" fill="#ba6d37" d="M 102.5,10.5 C 105.86,12.1799 109.193,13.8466 112.5,15.5C 112.833,16.1667 113.167,16.8333 113.5,17.5C 109.968,17.31 106.635,17.9767 103.5,19.5C 102.458,18.2089 101.292,18.2089 100,19.5C 99.3109,18.6433 98.4776,17.9767 97.5,17.5C 96.4376,16.5754 96.4376,15.5754 97.5,14.5C 98.0906,13.8485 98.7573,13.1818 99.5,12.5C 95.5461,9.38579 91.0461,8.05245 86,8.5C 83.3746,8.58115 81.0413,9.24782 79,10.5C 76.6016,7.5446 75.1016,7.87794 74.5,11.5C 73.5,11.5 72.5,11.5 71.5,11.5C 71.0377,10.1201 70.0377,9.45344 68.5,9.5C 66.3472,9.56132 65.0138,10.5613 64.5,12.5C 62.8333,12.5 61.1667,12.5 59.5,12.5C 62.328,10.2519 65.328,8.25192 68.5,6.5C 80.194,4.78242 91.5274,6.11575 102.5,10.5 Z"/></g>
<g><path style="opacity:1" fill="#bf6e2f" d="M 71.5,11.5 C 71.5,13.1667 71.5,14.8333 71.5,16.5C 72.791,16.7373 73.791,16.404 74.5,15.5C 75.6885,14.9524 76.8552,14.6191 78,14.5C 79.2002,16.4116 80.8669,17.7449 83,18.5C 84.4681,16.9638 85.9681,16.6304 87.5,17.5C 87.1788,19.0481 86.1788,19.7148 84.5,19.5C 84.719,20.675 84.3857,21.675 83.5,22.5C 82.8243,21.3984 82.1577,20.3984 81.5,19.5C 79.7367,18.0462 78.4033,18.3796 77.5,20.5C 76.5655,21.5676 76.2322,22.901 76.5,24.5C 77.8734,24.3433 79.2068,24.51 80.5,25C 76.351,26.8629 72.0177,28.0296 67.5,28.5C 66.713,26.8958 65.3797,26.2291 63.5,26.5C 60.1726,27.6828 56.8393,28.5162 53.5,29C 54.1667,28.6667 54.8333,28.3333 55.5,28C 52.822,27.8386 51.1553,26.5052 50.5,24C 52.0162,21.6589 53.6828,19.4923 55.5,17.5C 54.6503,19.4944 54.1503,21.4944 54,23.5C 55.3204,23.201 56.8204,23.0343 58.5,23C 57.269,21.8173 57.269,20.6507 58.5,19.5C 59.7075,21.2702 61.3741,22.2702 63.5,22.5C 65.5896,19.9912 67.4229,20.3246 69,23.5C 69.3333,22.8333 69.6667,22.1667 70,21.5C 70.6667,22.8333 71.3333,24.1667 72,25.5C 73.0113,24.6634 74.1779,24.33 75.5,24.5C 75.6495,23.448 75.4828,22.448 75,21.5C 73.9505,22.5171 72.7839,22.6838 71.5,22C 72.6721,21.5814 73.6721,20.9147 74.5,20C 72.913,19.1376 71.2464,18.4709 69.5,18C 69.9574,17.586 70.2907,17.086 70.5,16.5C 68.8669,14.497 66.8669,13.1637 64.5,12.5C 65.0138,10.5613 66.3472,9.56132 68.5,9.5C 70.0377,9.45344 71.0377,10.1201 71.5,11.5 Z"/></g>
<g><path style="opacity:1" fill="#ba6d36" d="M 97.5,14.5 C 96.4376,15.5754 96.4376,16.5754 97.5,17.5C 98.4776,17.9767 99.3109,18.6433 100,19.5C 101.292,18.2089 102.458,18.2089 103.5,19.5C 102.624,19.3691 101.957,19.7025 101.5,20.5C 107.434,22.8007 113.101,25.4674 118.5,28.5C 102.426,21.2 86.7598,21.8667 71.5,30.5C 69.8333,30.5 68.1667,30.5 66.5,30.5C 66.8333,29.8333 67.1667,29.1667 67.5,28.5C 72.0177,28.0296 76.351,26.8629 80.5,25C 79.2068,24.51 77.8734,24.3433 76.5,24.5C 76.2322,22.901 76.5655,21.5676 77.5,20.5C 77.5,21.5 77.5,22.5 77.5,23.5C 80.5,23.8333 81.8333,22.5 81.5,19.5C 82.1577,20.3984 82.8243,21.3984 83.5,22.5C 84.3857,21.675 84.719,20.675 84.5,19.5C 86.1788,19.7148 87.1788,19.0481 87.5,17.5C 87.7828,16.7109 88.2828,16.0442 89,15.5C 89.49,16.7932 89.6567,18.1266 89.5,19.5C 92.9209,19.7616 93.9209,18.4283 92.5,15.5C 94.0453,14.5481 95.712,14.2148 97.5,14.5 Z"/></g>
<g><path style="opacity:1" fill="#c07238" d="M 113.5,17.5 C 119.5,21.5 124.5,26.5 128.5,32.5C 129.622,34.0518 130.122,35.7184 130,37.5C 127.248,34.5471 124.082,32.2137 120.5,30.5C 119.833,29.8333 119.167,29.1667 118.5,28.5C 113.101,25.4674 107.434,22.8007 101.5,20.5C 101.957,19.7025 102.624,19.3691 103.5,19.5C 106.635,17.9767 109.968,17.31 113.5,17.5 Z"/></g>
<g><path style="opacity:1" fill="#efb673" d="M 81.5,19.5 C 81.8333,22.5 80.5,23.8333 77.5,23.5C 77.5,22.5 77.5,21.5 77.5,20.5C 78.4033,18.3796 79.7367,18.0462 81.5,19.5 Z"/></g>
<g><path style="opacity:1" fill="#e9aa69" d="M 63.5,26.5 C 65.3797,26.2291 66.713,26.8958 67.5,28.5C 67.1667,29.1667 66.8333,29.8333 66.5,30.5C 65.1667,30.5 63.8333,30.5 62.5,30.5C 62.4326,29.0413 62.7659,27.7079 63.5,26.5 Z"/></g>
<g><path style="opacity:1" fill="#5e2413" d="M 118.5,28.5 C 119.167,29.1667 119.833,29.8333 120.5,30.5C 115.537,29.746 110.537,29.4126 105.5,29.5C 98.1239,29.2743 90.7906,29.6076 83.5,30.5C 78.4664,31.3734 73.4664,32.3734 68.5,33.5C 69.3065,32.2719 70.3065,31.2719 71.5,30.5C 86.7598,21.8667 102.426,21.2 118.5,28.5 Z"/></g>
<g><path style="opacity:1" fill="#e6bc87" d="M 34.5,49.5 C 34.287,56.2105 34.6204,62.8772 35.5,69.5C 35.8146,71.2259 35.9813,72.8925 36,74.5C 30.0174,65.1052 27.5174,54.7718 28.5,43.5C 31.6628,33.4729 37.1628,24.8062 45,17.5C 42.1527,22.8712 39.4861,28.5379 37,34.5C 35.6829,39.4313 34.8496,44.4313 34.5,49.5 Z"/></g>
<g><path style="opacity:1" fill="#e8c18a" d="M 105.5,29.5 C 114.899,32.3742 122.899,37.5408 129.5,45C 129.272,45.3988 128.938,45.5654 128.5,45.5C 127.833,45.1667 127.167,44.8333 126.5,44.5C 111.581,35.4339 95.5814,32.4339 78.5,35.5C 77.448,35.6495 76.448,35.4828 75.5,35C 78.3911,33.7258 81.0578,32.2258 83.5,30.5C 90.7906,29.6076 98.1239,29.2743 105.5,29.5 Z"/></g>
<g><path style="opacity:1" fill="#5b2312" d="M 78.5,35.5 C 95.5814,32.4339 111.581,35.4339 126.5,44.5C 125.609,45.2613 124.942,46.2613 124.5,47.5C 126.288,48.2826 127.288,49.6159 127.5,51.5C 126.395,50.3995 125.062,49.7329 123.5,49.5C 113.309,42.621 101.976,39.4544 89.5,40C 92.1064,40.7918 94.1064,42.2918 95.5,44.5C 92.1194,44.5405 88.7861,44.2071 85.5,43.5C 85.4085,38.7589 87.7419,36.5923 92.5,37C 87.9342,35.6908 83.2675,35.1908 78.5,35.5 Z"/></g>
<g><path style="opacity:1" fill="#5c2616" d="M 105.5,29.5 C 110.537,29.4126 115.537,29.746 120.5,30.5C 124.082,32.2137 127.248,34.5471 130,37.5C 130.122,35.7184 129.622,34.0518 128.5,32.5C 132.355,33.0353 133.688,35.0353 132.5,38.5C 130.922,39.2978 129.256,39.7978 127.5,40C 129.5,41.3333 131.167,43 132.5,45C 131.332,46.4056 131.665,47.5723 133.5,48.5C 131.267,49.0161 129.6,48.0161 128.5,45.5C 128.938,45.5654 129.272,45.3988 129.5,45C 122.899,37.5408 114.899,32.3742 105.5,29.5 Z"/></g>
<g><path style="opacity:1" fill="#b66933" d="M 59.5,12.5 C 58.1667,14.1667 56.8333,15.8333 55.5,17.5C 53.6828,19.4923 52.0162,21.6589 50.5,24C 51.1553,26.5052 52.822,27.8386 55.5,28C 54.8333,28.3333 54.1667,28.6667 53.5,29C 56.8393,28.5162 60.1726,27.6828 63.5,26.5C 62.7659,27.7079 62.4326,29.0413 62.5,30.5C 63.8333,30.5 65.1667,30.5 66.5,30.5C 68.1667,30.5 69.8333,30.5 71.5,30.5C 70.3065,31.2719 69.3065,32.2719 68.5,33.5C 66.0905,34.7007 64.0905,36.3674 62.5,38.5C 56.3893,40.6149 51.0559,43.9482 46.5,48.5C 46.5,46.8333 46.5,45.1667 46.5,43.5C 52.3745,42.4051 52.8745,40.0718 48,36.5C 46.1852,37.2444 44.3519,37.9111 42.5,38.5C 42.8979,33.8071 44.3979,29.4738 47,25.5C 50.0185,19.983 54.1852,15.6496 59.5,12.5 Z"/></g>
<g><path style="opacity:1" fill="#e6a665" d="M 49.5,32.5 C 51.1667,32.5 52.8333,32.5 54.5,32.5C 54.5499,34.5901 53.5499,35.9234 51.5,36.5C 49.8888,35.6798 49.2222,34.3464 49.5,32.5 Z"/></g>
<g><path style="opacity:1" fill="#522217" d="M 83.5,30.5 C 81.0578,32.2258 78.3911,33.7258 75.5,35C 76.448,35.4828 77.448,35.6495 78.5,35.5C 83.2675,35.1908 87.9342,35.6908 92.5,37C 87.7419,36.5923 85.4085,38.7589 85.5,43.5C 88.7861,44.2071 92.1194,44.5405 95.5,44.5C 95.5246,47.179 96.858,48.5123 99.5,48.5C 100.888,53.9039 102.222,59.2372 103.5,64.5C 98.7706,52.1188 89.7706,44.7855 76.5,42.5C 74.0948,41.2318 71.4282,40.5651 68.5,40.5C 65.9179,40.9746 63.9179,40.3079 62.5,38.5C 64.0905,36.3674 66.0905,34.7007 68.5,33.5C 73.4664,32.3734 78.4664,31.3734 83.5,30.5 Z"/></g>
<g><path style="opacity:1" fill="#c06f34" d="M 31.5,24.5 C 27.6793,29.6312 25.0127,35.2979 23.5,41.5C 22.0937,41.9731 21.427,42.9731 21.5,44.5C 20.3115,45.0476 19.1448,45.3809 18,45.5C 16.8822,43.2346 16.0488,40.9013 15.5,38.5C 16.5375,37.0697 17.2041,35.403 17.5,33.5C 20.0985,29.562 23.0985,25.8953 26.5,22.5C 29.8056,20.5113 33.1389,18.5113 36.5,16.5C 36.8333,16.6667 37.1667,16.8333 37.5,17C 35.3714,19.4392 33.3714,21.9392 31.5,24.5 Z"/></g>
<g><path style="opacity:1" fill="#bf6b34" d="M 46.5,48.5 C 43.841,51.8092 41.6743,55.4758 40,59.5C 39.51,58.2068 39.3433,56.8734 39.5,55.5C 39.3347,51.8183 39.5014,48.1516 40,44.5C 40.2401,42.1484 41.0735,40.1484 42.5,38.5C 44.3519,37.9111 46.1852,37.2444 48,36.5C 52.8745,40.0718 52.3745,42.4051 46.5,43.5C 46.5,45.1667 46.5,46.8333 46.5,48.5 Z"/></g>
<g><path style="opacity:1" fill="#60200f" d="M 31.5,24.5 C 31.352,28.2609 30.352,31.7609 28.5,35C 29.0219,35.5613 29.3552,36.228 29.5,37C 27.4054,38.9792 27.0721,41.1459 28.5,43.5C 26.8762,43.3601 25.7096,44.0267 25,45.5C 24.3333,49.8333 24.3333,54.1667 25,58.5C 27.0006,62.6201 28.5006,66.9534 29.5,71.5C 30.376,72.2508 31.376,72.7508 32.5,73C 33.4881,75.167 34.8214,77.0003 36.5,78.5C 36.9926,80.8056 37.3259,83.139 37.5,85.5C 36.5,84.8333 35.5,84.1667 34.5,83.5C 33.8897,81.5659 32.8897,79.8993 31.5,78.5C 30.4043,75.9684 29.0709,73.6351 27.5,71.5C 23.96,61.8347 22.6267,51.8347 23.5,41.5C 25.0127,35.2979 27.6793,29.6312 31.5,24.5 Z"/></g>
<g><path style="opacity:0.969" fill="#4f3024" d="M 50.5,5.5 C 43.5301,7.8162 36.8634,10.9829 30.5,15C 28.9404,18.3365 26.607,20.8365 23.5,22.5C 22.448,22.3505 21.448,22.5172 20.5,23C 16.8592,26.1263 13.8592,29.6263 11.5,33.5C 2.63983,46.6498 -1.02683,61.3165 0.5,77.5C 0.166667,77.5 -0.166667,77.5 -0.5,77.5C -0.5,70.8333 -0.5,64.1667 -0.5,57.5C 4.12609,35.1028 16.7928,18.9362 37.5,9C 41.7155,7.31578 46.0488,6.14911 50.5,5.5 Z"/></g>
<g><path style="opacity:1" fill="#54291e" d="M 126.5,20.5 C 131.876,25.5608 136.043,31.5608 139,38.5C 141.701,47.0506 143.868,55.7173 145.5,64.5C 144.833,64.1667 144.167,63.8333 143.5,63.5C 142.178,63.67 141.011,63.3366 140,62.5C 140.434,58.5478 140.434,54.5478 140,50.5C 138.201,48.1698 136.035,46.1698 133.5,44.5C 133.846,43.3044 134.346,43.3044 135,44.5C 135.986,37.0364 133.819,30.7031 128.5,25.5C 127.833,23.8333 127.167,22.1667 126.5,20.5 Z"/></g>
<g><path style="opacity:1" fill="#bf6c2f" d="M 15.5,38.5 C 16.0488,40.9013 16.8822,43.2346 18,45.5C 19.1448,45.3809 20.3115,45.0476 21.5,44.5C 21.6653,48.1817 21.4986,51.8484 21,55.5C 19.3845,54.1991 17.8845,54.1991 16.5,55.5C 15.7659,56.7079 15.4326,58.0413 15.5,59.5C 15.33,60.8221 15.6634,61.9887 16.5,63C 13.075,65.2845 12.575,68.1179 15,71.5C 15.3333,70.8333 15.6667,70.1667 16,69.5C 17.129,71.1412 18.629,72.1412 20.5,72.5C 21.4782,73.2971 21.1449,73.9638 19.5,74.5C 17.8983,73.45 17.065,74.1167 17,76.5C 16.7679,75.2625 16.2679,74.2625 15.5,73.5C 10.2727,70.9017 7.606,66.5684 7.5,60.5C 7.50688,57.4083 8.00688,54.4083 9,51.5C 11.1971,47.1059 13.3637,42.7726 15.5,38.5 Z"/></g>
<g><path style="opacity:1" fill="#bc6f3a" d="M 123.5,49.5 C 122.167,49.1667 120.833,48.8333 119.5,48.5C 113.045,44.6352 106.045,42.4686 98.5,42C 99.5,43 100.5,44 101.5,45C 103.591,46.7264 105.924,47.8931 108.5,48.5C 109.581,51.3315 109.415,53.9982 108,56.5C 107.009,53.3596 105.176,51.0263 102.5,49.5C 100.427,47.4202 98.0934,45.7536 95.5,44.5C 94.1064,42.2918 92.1064,40.7918 89.5,40C 101.976,39.4544 113.309,42.621 123.5,49.5 Z"/></g>
<g><path style="opacity:1" fill="#592013" d="M 112.5,15.5 C 114.865,16.0084 117.199,16.6751 119.5,17.5C 121.427,21.3085 124.427,23.9752 128.5,25.5C 133.819,30.7031 135.986,37.0364 135,44.5C 134.346,43.3044 133.846,43.3044 133.5,44.5C 136.035,46.1698 138.201,48.1698 140,50.5C 140.434,54.5478 140.434,58.5478 140,62.5C 141.011,63.3366 142.178,63.67 143.5,63.5C 143.389,70.2854 144.056,76.952 145.5,83.5C 146.324,87.8668 144.99,91.2002 141.5,93.5C 142.694,86.3507 142.694,79.3507 141.5,72.5C 141.075,67.65 139.075,63.65 135.5,60.5C 133.57,56.8998 130.903,53.8998 127.5,51.5C 127.288,49.6159 126.288,48.2826 124.5,47.5C 124.942,46.2613 125.609,45.2613 126.5,44.5C 127.167,44.8333 127.833,45.1667 128.5,45.5C 129.6,48.0161 131.267,49.0161 133.5,48.5C 131.665,47.5723 131.332,46.4056 132.5,45C 131.167,43 129.5,41.3333 127.5,40C 129.256,39.7978 130.922,39.2978 132.5,38.5C 133.688,35.0353 132.355,33.0353 128.5,32.5C 124.5,26.5 119.5,21.5 113.5,17.5C 113.167,16.8333 112.833,16.1667 112.5,15.5 Z"/></g>
<g><path style="opacity:1" fill="#552c22" d="M 68.5,40.5 C 71.4282,40.5651 74.0948,41.2318 76.5,42.5C 59.6512,43.3957 48.6512,51.7291 43.5,67.5C 43.3924,63.753 43.8924,60.0863 45,56.5C 47.3063,54.1937 49.6396,51.8604 52,49.5C 52.1129,47.0261 53.1129,45.0261 55,43.5C 55.414,43.9574 55.914,44.2907 56.5,44.5C 60.3221,42.3507 64.3221,41.0173 68.5,40.5 Z"/></g>
<g><path style="opacity:1" fill="#5b1f10" d="M 23.5,22.5 C 24.5,22.5 25.5,22.5 26.5,22.5C 23.0985,25.8953 20.0985,29.562 17.5,33.5C 7.49381,45.7014 3.66048,59.7014 6,75.5C 6.24013,77.8516 7.07346,79.8516 8.5,81.5C 9.30844,84.4502 10.6418,87.1169 12.5,89.5C 11.5,89.5 10.5,89.5 9.5,89.5C 9.5751,92.2062 9.90843,94.8728 10.5,97.5C 9.5,97.5 8.5,97.5 7.5,97.5C 6.90346,94.0588 6.23679,90.7254 5.5,87.5C 2.88439,74.1292 3.05106,60.7958 6,47.5C 8.67773,43.1477 10.5111,38.481 11.5,33.5C 13.8592,29.6263 16.8592,26.1263 20.5,23C 21.448,22.5172 22.448,22.3505 23.5,22.5 Z"/></g>
<g><path style="opacity:1" fill="#c17439" d="M 119.5,48.5 C 118.5,48.5 117.5,48.5 116.5,48.5C 116.808,50.924 116.474,53.2573 115.5,55.5C 113.625,56.4095 112.292,57.7428 111.5,59.5C 110.5,59.5 109.5,59.5 108.5,59.5C 106.5,56.1667 104.5,52.8333 102.5,49.5C 105.176,51.0263 107.009,53.3596 108,56.5C 109.415,53.9982 109.581,51.3315 108.5,48.5C 105.924,47.8931 103.591,46.7264 101.5,45C 100.5,44 99.5,43 98.5,42C 106.045,42.4686 113.045,44.6352 119.5,48.5 Z"/></g>
<g><path style="opacity:1" fill="#ecad65" d="M 16.5,55.5 C 18.6348,55.147 19.9681,55.9803 20.5,58C 19.5001,60.6106 17.8334,61.1106 15.5,59.5C 15.4326,58.0413 15.7659,56.7079 16.5,55.5 Z"/></g>
<g><path style="opacity:1" fill="#be6e32" d="M 119.5,48.5 C 120.833,48.8333 122.167,49.1667 123.5,49.5C 125.062,49.7329 126.395,50.3995 127.5,51.5C 130.903,53.8998 133.57,56.8998 135.5,60.5C 132.67,59.5409 130.004,59.8742 127.5,61.5C 127.5,62.1667 127.167,62.5 126.5,62.5C 125.25,62.4226 124.417,61.756 124,60.5C 123.626,61.4162 123.126,62.2496 122.5,63C 123.554,64.3876 123.72,65.8876 123,67.5C 122.888,64.5529 121.388,63.2196 118.5,63.5C 118.675,65.6208 118.341,67.6208 117.5,69.5C 114.462,66.7533 112.462,63.4199 111.5,59.5C 112.292,57.7428 113.625,56.4095 115.5,55.5C 116.474,53.2573 116.808,50.924 116.5,48.5C 117.5,48.5 118.5,48.5 119.5,48.5 Z"/></g>
<g><path style="opacity:1" fill="#bf7133" d="M 135.5,60.5 C 139.075,63.65 141.075,67.65 141.5,72.5C 139.833,75.1667 138.167,75.1667 136.5,72.5C 135.295,71.3143 133.961,71.3143 132.5,72.5C 131.77,70.955 130.437,70.1216 128.5,70C 128.833,69.6667 129.167,69.3333 129.5,69C 128.177,68.1841 127.511,67.0174 127.5,65.5C 128.5,65.5 129.5,65.5 130.5,65.5C 130.5,64.1667 130.5,62.8333 130.5,61.5C 129.5,61.5 128.5,61.5 127.5,61.5C 130.004,59.8742 132.67,59.5409 135.5,60.5 Z"/></g>
<g><path style="opacity:1" fill="#ba6b32" d="M 23.5,41.5 C 22.6267,51.8347 23.96,61.8347 27.5,71.5C 25.187,69.7906 23.687,67.4572 23,64.5C 21.6439,65.3802 20.1439,65.7135 18.5,65.5C 18.1658,68.188 18.8325,70.5214 20.5,72.5C 18.629,72.1412 17.129,71.1412 16,69.5C 15.6667,70.1667 15.3333,70.8333 15,71.5C 12.575,68.1179 13.075,65.2845 16.5,63C 15.6634,61.9887 15.33,60.8221 15.5,59.5C 17.8334,61.1106 19.5001,60.6106 20.5,58C 19.9681,55.9803 18.6348,55.147 16.5,55.5C 17.8845,54.1991 19.3845,54.1991 21,55.5C 21.4986,51.8484 21.6653,48.1817 21.5,44.5C 21.427,42.9731 22.0937,41.9731 23.5,41.5 Z"/></g>
<g><path style="opacity:1" fill="#541f13" d="M 62.5,38.5 C 63.9179,40.3079 65.9179,40.9746 68.5,40.5C 64.3221,41.0173 60.3221,42.3507 56.5,44.5C 55.914,44.2907 55.414,43.9574 55,43.5C 53.1129,45.0261 52.1129,47.0261 52,49.5C 49.6396,51.8604 47.3063,54.1937 45,56.5C 43.8924,60.0863 43.3924,63.753 43.5,67.5C 43.5,67.8333 43.5,68.1667 43.5,68.5C 40.8333,73.1667 40.8333,77.8333 43.5,82.5C 44.5375,83.9303 45.2041,85.597 45.5,87.5C 45.5,88.8333 45.5,90.1667 45.5,91.5C 43.4832,90.4706 41.4832,89.4706 39.5,88.5C 38.8333,87.5 38.1667,86.5 37.5,85.5C 37.3259,83.139 36.9926,80.8056 36.5,78.5C 37.4584,78.0472 38.2917,77.3805 39,76.5C 39.4974,73.854 39.6641,71.1873 39.5,68.5C 38.0413,68.4326 36.7079,68.7659 35.5,69.5C 34.6204,62.8772 34.287,56.2105 34.5,49.5C 35.7079,48.7659 37.0413,48.4326 38.5,48.5C 38.1984,51.0593 38.5318,53.3926 39.5,55.5C 39.3433,56.8734 39.51,58.2068 40,59.5C 41.6743,55.4758 43.841,51.8092 46.5,48.5C 51.0559,43.9482 56.3893,40.6149 62.5,38.5 Z"/></g>
<g><path style="opacity:1" fill="#eeb36d" d="M 127.5,61.5 C 128.5,61.5 129.5,61.5 130.5,61.5C 130.5,62.8333 130.5,64.1667 130.5,65.5C 129.5,65.5 128.5,65.5 127.5,65.5C 126.596,64.791 126.263,63.791 126.5,62.5C 127.167,62.5 127.5,62.1667 127.5,61.5 Z"/></g>
<g><path style="opacity:1" fill="#5a2014" d="M 95.5,44.5 C 98.0934,45.7536 100.427,47.4202 102.5,49.5C 104.5,52.8333 106.5,56.1667 108.5,59.5C 109.861,61.8505 111.194,64.1838 112.5,66.5C 112.227,68.451 112.893,69.951 114.5,71C 113.299,71.9025 112.465,73.0692 112,74.5C 111.465,72.7295 110.631,72.3961 109.5,73.5C 108.95,75.6568 108.283,77.6568 107.5,79.5C 107.5,79.1667 107.5,78.8333 107.5,78.5C 107.695,74.0848 107.195,69.7514 106,65.5C 105.329,64.7476 104.496,64.4142 103.5,64.5C 102.222,59.2372 100.888,53.9039 99.5,48.5C 96.858,48.5123 95.5246,47.179 95.5,44.5 Z"/></g>
<g><path style="opacity:1" fill="#4d1e15" d="M 11.5,33.5 C 10.5111,38.481 8.67773,43.1477 6,47.5C 3.05106,60.7958 2.88439,74.1292 5.5,87.5C 4.86756,85.2574 3.53422,83.5907 1.5,82.5C 0.699293,80.9582 0.36596,79.2915 0.5,77.5C -1.02683,61.3165 2.63983,46.6498 11.5,33.5 Z"/></g>
<g><path style="opacity:1" fill="#b46630" d="M 17.5,33.5 C 17.2041,35.403 16.5375,37.0697 15.5,38.5C 13.3637,42.7726 11.1971,47.1059 9,51.5C 8.00688,54.4083 7.50688,57.4083 7.5,60.5C 7.606,66.5684 10.2727,70.9017 15.5,73.5C 15.1667,73.5 14.8333,73.5 14.5,73.5C 10.311,74.3729 8.31097,77.0395 8.5,81.5C 7.07346,79.8516 6.24013,77.8516 6,75.5C 3.66048,59.7014 7.49381,45.7014 17.5,33.5 Z"/></g>
<g><path style="opacity:1" fill="#bb6d36" d="M 108.5,59.5 C 109.5,59.5 110.5,59.5 111.5,59.5C 112.462,63.4199 114.462,66.7533 117.5,69.5C 118.663,71.9822 120.663,73.3155 123.5,73.5C 123.231,71.5714 123.731,69.9047 125,68.5C 125.617,69.4491 125.451,70.2825 124.5,71C 125.167,71.3333 125.833,71.6667 126.5,72C 123.279,76.2593 122.945,80.5927 125.5,85C 126.833,85.3333 128.167,85.6667 129.5,86C 128.552,86.4828 127.552,86.6495 126.5,86.5C 125.167,89.1667 125.167,91.8333 126.5,94.5C 126.665,97.8499 126.498,101.183 126,104.5C 125.617,105.056 125.117,105.389 124.5,105.5C 124.5,102.5 124.5,99.5 124.5,96.5C 124.353,84.8852 120.353,74.8852 112.5,66.5C 111.194,64.1838 109.861,61.8505 108.5,59.5 Z"/></g>
<g><path style="opacity:1" fill="#c77634" d="M 27.5,71.5 C 29.0709,73.6351 30.4043,75.9684 31.5,78.5C 31.7947,80.7354 31.4614,82.7354 30.5,84.5C 30.5858,83.5041 30.2524,82.6708 29.5,82C 27.2865,81.3744 25.1199,81.5411 23,82.5C 21.7147,82.0496 20.548,81.3829 19.5,80.5C 17.3368,82.6473 16.3368,85.314 16.5,88.5C 12.996,88.2079 11.3293,86.2079 11.5,82.5C 11.1787,79.488 12.512,78.1547 15.5,78.5C 15.634,76.7085 15.3007,75.0418 14.5,73.5C 14.8333,73.5 15.1667,73.5 15.5,73.5C 16.2679,74.2625 16.7679,75.2625 17,76.5C 17.065,74.1167 17.8983,73.45 19.5,74.5C 21.1449,73.9638 21.4782,73.2971 20.5,72.5C 18.8325,70.5214 18.1658,68.188 18.5,65.5C 20.1439,65.7135 21.6439,65.3802 23,64.5C 23.687,67.4572 25.187,69.7906 27.5,71.5 Z"/></g>
<g><path style="opacity:1" fill="#ebaf6e" d="M 136.5,72.5 C 136.5,73.5 136.5,74.5 136.5,75.5C 135.167,75.5 133.833,75.5 132.5,75.5C 132.5,74.5 132.5,73.5 132.5,72.5C 133.961,71.3143 135.295,71.3143 136.5,72.5 Z"/></g>
<g><path style="opacity:1" fill="#5c2516" d="M 28.5,43.5 C 27.5174,54.7718 30.0174,65.1052 36,74.5C 35.9813,72.8925 35.8146,71.2259 35.5,69.5C 36.7079,68.7659 38.0413,68.4326 39.5,68.5C 39.6641,71.1873 39.4974,73.854 39,76.5C 38.2917,77.3805 37.4584,78.0472 36.5,78.5C 34.8214,77.0003 33.4881,75.167 32.5,73C 31.376,72.7508 30.376,72.2508 29.5,71.5C 28.5006,66.9534 27.0006,62.6201 25,58.5C 24.3333,54.1667 24.3333,49.8333 25,45.5C 25.7096,44.0267 26.8762,43.3601 28.5,43.5 Z"/></g>
<g><path style="opacity:0.367" fill="#6b4d44" d="M 43.5,68.5 C 42.4868,73.1934 42.4868,77.8601 43.5,82.5C 40.8333,77.8333 40.8333,73.1667 43.5,68.5 Z"/></g>
<g><path style="opacity:1" fill="#c67637" d="M 126.5,62.5 C 126.263,63.791 126.596,64.791 127.5,65.5C 127.511,67.0174 128.177,68.1841 129.5,69C 129.167,69.3333 128.833,69.6667 128.5,70C 130.437,70.1216 131.77,70.955 132.5,72.5C 132.5,73.5 132.5,74.5 132.5,75.5C 133.833,75.5 135.167,75.5 136.5,75.5C 136.5,74.5 136.5,73.5 136.5,72.5C 138.167,75.1667 139.833,75.1667 141.5,72.5C 141.919,78.973 141.253,85.3063 139.5,91.5C 138.167,92.1667 136.833,92.8333 135.5,93.5C 134.224,88.3183 133.557,88.3183 133.5,93.5C 131.833,93.5 130.167,93.5 128.5,93.5C 127.833,93.8333 127.167,94.1667 126.5,94.5C 125.167,91.8333 125.167,89.1667 126.5,86.5C 127.552,86.6495 128.552,86.4828 129.5,86C 128.167,85.6667 126.833,85.3333 125.5,85C 122.945,80.5927 123.279,76.2593 126.5,72C 125.833,71.6667 125.167,71.3333 124.5,71C 125.451,70.2825 125.617,69.4491 125,68.5C 123.731,69.9047 123.231,71.5714 123.5,73.5C 120.663,73.3155 118.663,71.9822 117.5,69.5C 118.341,67.6208 118.675,65.6208 118.5,63.5C 121.388,63.2196 122.888,64.5529 123,67.5C 123.72,65.8876 123.554,64.3876 122.5,63C 123.126,62.2496 123.626,61.4162 124,60.5C 124.417,61.756 125.25,62.4226 126.5,62.5 Z"/></g>
<g><path style="opacity:1" fill="#cb8242" d="M 14.5,73.5 C 15.3007,75.0418 15.634,76.7085 15.5,78.5C 12.512,78.1547 11.1787,79.488 11.5,82.5C 11.3293,86.2079 12.996,88.2079 16.5,88.5C 16.3368,85.314 17.3368,82.6473 19.5,80.5C 20.548,81.3829 21.7147,82.0496 23,82.5C 25.1199,81.5411 27.2865,81.3744 29.5,82C 30.2524,82.6708 30.5858,83.5041 30.5,84.5C 28.8369,87.0524 27.1702,86.8857 25.5,84C 24.2068,83.51 22.8734,83.3433 21.5,83.5C 21.5,85.1667 21.5,86.8333 21.5,88.5C 19.139,88.6741 16.8056,89.0074 14.5,89.5C 13.8333,89.5 13.1667,89.5 12.5,89.5C 10.6418,87.1169 9.30844,84.4502 8.5,81.5C 8.31097,77.0395 10.311,74.3729 14.5,73.5 Z"/></g>
<g><path style="opacity:1" fill="#5e2213" d="M 112.5,66.5 C 120.353,74.8852 124.353,84.8852 124.5,96.5C 123.698,95.0484 123.198,93.3817 123,91.5C 122.692,92.3081 122.192,92.9747 121.5,93.5C 120.8,89.5229 119.467,86.5229 117.5,84.5C 116.379,82.2585 115.213,79.9252 114,77.5C 113.31,76.2617 112.81,76.2617 112.5,77.5C 111.15,78.4831 110.15,79.8164 109.5,81.5C 108.478,81.1445 107.811,80.4778 107.5,79.5C 108.283,77.6568 108.95,75.6568 109.5,73.5C 110.631,72.3961 111.465,72.7295 112,74.5C 112.465,73.0692 113.299,71.9025 114.5,71C 112.893,69.951 112.227,68.451 112.5,66.5 Z"/></g>
<g><path style="opacity:0.991" fill="#5b3b31" d="M 1.5,82.5 C 3.53422,83.5907 4.86756,85.2574 5.5,87.5C 6.23679,90.7254 6.90346,94.0588 7.5,97.5C 7.4664,102.395 8.79973,106.728 11.5,110.5C 11.5,111.833 11.5,113.167 11.5,114.5C 9.34448,111.563 7.84448,108.229 7,104.5C 5.69654,96.9934 3.8632,89.66 1.5,82.5 Z"/></g>
<g><path style="opacity:1" fill="#b96a32" d="M 31.5,78.5 C 32.8897,79.8993 33.8897,81.5659 34.5,83.5C 35.597,85.7742 36.9304,87.9409 38.5,90C 38.0556,91.7618 37.5556,91.5951 37,89.5C 36.1253,92.2146 34.2919,93.5479 31.5,93.5C 31.6594,96.8343 30.9927,99.5009 29.5,101.5C 23.3247,98.9937 18.3247,94.9937 14.5,89.5C 16.8056,89.0074 19.139,88.6741 21.5,88.5C 21.5,86.8333 21.5,85.1667 21.5,83.5C 22.8734,83.3433 24.2068,83.51 25.5,84C 27.1702,86.8857 28.8369,87.0524 30.5,84.5C 31.4614,82.7354 31.7947,80.7354 31.5,78.5 Z"/></g>
<g><path style="opacity:1" fill="#561f13" d="M 112.5,77.5 C 113.15,79.4352 113.483,81.4352 113.5,83.5C 113.666,89.1764 113.499,94.8431 113,100.5C 112.333,101.833 111.667,101.833 111,100.5C 110.699,97.0199 109.865,93.6866 108.5,90.5C 107.893,90.6236 107.56,90.9569 107.5,91.5C 103.805,99.8614 97.8053,105.861 89.5,109.5C 87.8333,110.167 86.1667,110.833 84.5,111.5C 84.5,110.5 84.5,109.5 84.5,108.5C 93.8181,104.014 100.651,97.0143 105,87.5C 105.204,84.2026 106.037,81.2026 107.5,78.5C 107.5,78.8333 107.5,79.1667 107.5,79.5C 107.811,80.4778 108.478,81.1445 109.5,81.5C 110.15,79.8164 111.15,78.4831 112.5,77.5 Z"/></g>
<g><path style="opacity:1" fill="#c06f37" d="M 141.5,72.5 C 142.694,79.3507 142.694,86.3507 141.5,93.5C 141.5,94.1667 141.5,94.8333 141.5,95.5C 139.271,100.312 137.105,105.312 135,110.5C 132.958,113.94 130.458,116.94 127.5,119.5C 128.87,116.688 129.87,113.688 130.5,110.5C 131.628,109.738 132.795,109.071 134,108.5C 134.273,106.899 134.773,105.399 135.5,104C 133.208,101.843 130.875,99.6759 128.5,97.5C 129.363,96.2736 129.363,94.9403 128.5,93.5C 130.167,93.5 131.833,93.5 133.5,93.5C 133.557,88.3183 134.224,88.3183 135.5,93.5C 136.833,92.8333 138.167,92.1667 139.5,91.5C 141.253,85.3063 141.919,78.973 141.5,72.5 Z"/></g>
<g><path style="opacity:1" fill="#b76b37" d="M 34.5,83.5 C 35.5,84.1667 36.5,84.8333 37.5,85.5C 38.1667,86.5 38.8333,87.5 39.5,88.5C 41.1799,91.8599 42.8466,95.1932 44.5,98.5C 41.8146,96.501 39.3146,96.501 37,98.5C 36.5172,97.552 36.3505,96.552 36.5,95.5C 35.1667,95.5 33.8333,95.5 32.5,95.5C 32.5,96.8333 32.5,98.1667 32.5,99.5C 36.2364,99.6601 36.2364,100.493 32.5,102C 33.305,103.113 33.9717,104.279 34.5,105.5C 32.7162,105.107 31.0495,104.441 29.5,103.5C 22.6445,100.314 16.9778,95.6477 12.5,89.5C 13.1667,89.5 13.8333,89.5 14.5,89.5C 18.3247,94.9937 23.3247,98.9937 29.5,101.5C 30.9927,99.5009 31.6594,96.8343 31.5,93.5C 34.2919,93.5479 36.1253,92.2146 37,89.5C 37.5556,91.5951 38.0556,91.7618 38.5,90C 36.9304,87.9409 35.597,85.7742 34.5,83.5 Z"/></g>
<g><path style="opacity:1" fill="#542f25" d="M 145.5,64.5 C 146.5,66.5 147.5,68.5 148.5,70.5C 148.5,78.1667 148.5,85.8333 148.5,93.5C 147.291,97.9997 145.624,102.333 143.5,106.5C 142.959,101.551 143.792,96.8844 146,92.5C 146.721,83.1394 146.554,73.806 145.5,64.5 Z"/></g>
<g><path style="opacity:1" fill="#c27138" d="M 44.5,98.5 C 48.3499,103.023 53.0166,106.356 58.5,108.5C 54.3537,109.647 50.0204,109.814 45.5,109C 41.8463,107.726 38.1796,106.56 34.5,105.5C 33.9717,104.279 33.305,103.113 32.5,102C 36.2364,100.493 36.2364,99.6601 32.5,99.5C 32.5,98.1667 32.5,96.8333 32.5,95.5C 33.8333,95.5 35.1667,95.5 36.5,95.5C 36.3505,96.552 36.5172,97.552 37,98.5C 39.3146,96.501 41.8146,96.501 44.5,98.5 Z"/></g>
<g><path style="opacity:1" fill="#592117" d="M 143.5,63.5 C 144.167,63.8333 144.833,64.1667 145.5,64.5C 146.554,73.806 146.721,83.1394 146,92.5C 143.792,96.8844 142.959,101.551 143.5,106.5C 139.821,111.176 136.155,115.843 132.5,120.5C 132.343,119.127 132.51,117.793 133,116.5C 137.939,110.381 140.772,103.381 141.5,95.5C 141.5,94.8333 141.5,94.1667 141.5,93.5C 144.99,91.2002 146.324,87.8668 145.5,83.5C 144.056,76.952 143.389,70.2854 143.5,63.5 Z"/></g>
<g><path style="opacity:1" fill="#ba6e3b" d="M 107.5,91.5 C 108.643,94.9758 108.81,98.6425 108,102.5C 107.248,109.178 105.415,115.511 102.5,121.5C 99.5869,126.422 96.2536,131.088 92.5,135.5C 87.4383,139.194 81.7717,141.528 75.5,142.5C 77.3713,141.203 79.3713,140.203 81.5,139.5C 84.0632,139.269 85.7298,137.935 86.5,135.5C 87.5,135.5 88.5,135.5 89.5,135.5C 89.5,134.5 89.5,133.5 89.5,132.5C 92.6136,131.909 95.1136,130.242 97,127.5C 98.575,124.016 100.408,120.683 102.5,117.5C 103.694,113.914 104.694,110.247 105.5,106.5C 105.812,103.307 104.478,102.14 101.5,103C 98.1566,104.922 95.3233,107.422 93,110.5C 92.6174,109.944 92.1174,109.611 91.5,109.5C 90.8333,109.5 90.1667,109.5 89.5,109.5C 97.8053,105.861 103.805,99.8614 107.5,91.5 Z"/></g>
<g><path style="opacity:1" fill="#531d12" d="M 12.5,89.5 C 16.9778,95.6477 22.6445,100.314 29.5,103.5C 28.5144,105.408 26.8477,106.408 24.5,106.5C 22.1386,105.565 19.9719,104.232 18,102.5C 18.0579,104.435 18.8912,106.102 20.5,107.5C 18.9826,107.489 17.8159,106.823 17,105.5C 16.6667,106.167 16.3333,106.833 16,107.5C 12.4541,104.594 10.9541,105.594 11.5,110.5C 8.79973,106.728 7.4664,102.395 7.5,97.5C 8.5,97.5 9.5,97.5 10.5,97.5C 9.90843,94.8728 9.5751,92.2062 9.5,89.5C 10.5,89.5 11.5,89.5 12.5,89.5 Z"/></g>
<g><path style="opacity:1" fill="#572c23" d="M 45.5,87.5 C 52.3377,100.761 63.3377,107.094 78.5,106.5C 75.1667,107.167 71.8333,107.833 68.5,108.5C 63.7942,107.657 59.1275,106.49 54.5,105C 52.7429,100.581 49.9095,97.0814 46,94.5C 45.5172,93.552 45.3505,92.552 45.5,91.5C 45.5,90.1667 45.5,88.8333 45.5,87.5 Z"/></g>
<g><path style="opacity:1" fill="#e7b981" d="M 117.5,84.5 C 122.835,103.808 117.835,119.808 102.5,132.5C 102.062,132.565 101.728,132.399 101.5,132C 104.409,129.015 106.409,125.515 107.5,121.5C 108.892,119.727 110.059,117.727 111,115.5C 114.371,104.88 115.204,94.2134 113.5,83.5C 113.483,81.4352 113.15,79.4352 112.5,77.5C 112.81,76.2617 113.31,76.2617 114,77.5C 115.213,79.9252 116.379,82.2585 117.5,84.5 Z"/></g>
<g><path style="opacity:1" fill="#c57333" d="M 102.5,117.5 C 100.915,116.526 99.9147,115.026 99.5,113C 96.4686,112.505 93.4686,112.671 90.5,113.5C 90.4326,112.041 90.7659,110.708 91.5,109.5C 92.1174,109.611 92.6174,109.944 93,110.5C 95.3233,107.422 98.1566,104.922 101.5,103C 104.478,102.14 105.812,103.307 105.5,106.5C 104.694,110.247 103.694,113.914 102.5,117.5 Z"/></g>
<g><path style="opacity:1" fill="#622314" d="M 20.5,107.5 C 24.1719,110.174 27.8386,112.84 31.5,115.5C 27.7035,116.089 27.7035,117.089 31.5,118.5C 32.1098,119.391 32.4431,120.391 32.5,121.5C 26.6015,118.958 21.4348,115.292 17,110.5C 17.0322,112.598 17.6989,114.598 19,116.5C 21.3347,119.665 23.8347,122.665 26.5,125.5C 25.448,125.649 24.448,125.483 23.5,125C 22.2192,122.597 20.3858,120.763 18,119.5C 17.3401,115.252 15.1734,112.252 11.5,110.5C 10.9541,105.594 12.4541,104.594 16,107.5C 16.3333,106.833 16.6667,106.167 17,105.5C 17.8159,106.823 18.9826,107.489 20.5,107.5 Z"/></g>
<g><path style="opacity:1" fill="#662b17" d="M 29.5,103.5 C 31.0495,104.441 32.7162,105.107 34.5,105.5C 38.1796,106.56 41.8463,107.726 45.5,109C 50.0204,109.814 54.3537,109.647 58.5,108.5C 59.3764,108.369 60.0431,108.702 60.5,109.5C 57.2317,110.487 53.8984,110.82 50.5,110.5C 50.5,111.5 50.5,112.5 50.5,113.5C 51.6807,114.636 55.0141,114.969 60.5,114.5C 57.0381,115.482 53.3714,115.815 49.5,115.5C 40.4439,114.261 32.1106,111.261 24.5,106.5C 26.8477,106.408 28.5144,105.408 29.5,103.5 Z"/></g>
<g><path style="opacity:1" fill="#4f291f" d="M 103.5,64.5 C 104.496,64.4142 105.329,64.7476 106,65.5C 107.195,69.7514 107.695,74.0848 107.5,78.5C 106.037,81.2026 105.204,84.2026 105,87.5C 100.651,97.0143 93.8181,104.014 84.5,108.5C 79.56,109.098 74.56,109.098 69.5,108.5C 69.1667,108.5 68.8333,108.5 68.5,108.5C 71.8333,107.833 75.1667,107.167 78.5,106.5C 99.6278,100.259 107.961,86.2588 103.5,64.5 Z"/></g>
<g><path style="opacity:1" fill="#652917" d="M 113.5,83.5 C 115.204,94.2134 114.371,104.88 111,115.5C 110.059,117.727 108.892,119.727 107.5,121.5C 107.33,120.178 107.663,119.011 108.5,118C 108,117.833 107.5,117.667 107,117.5C 105.699,119.155 104.199,120.489 102.5,121.5C 105.415,115.511 107.248,109.178 108,102.5C 108.81,98.6425 108.643,94.9758 107.5,91.5C 107.56,90.9569 107.893,90.6236 108.5,90.5C 109.865,93.6866 110.699,97.0199 111,100.5C 111.667,101.833 112.333,101.833 113,100.5C 113.499,94.8431 113.666,89.1764 113.5,83.5 Z"/></g>
<g><path style="opacity:1" fill="#571e12" d="M 39.5,88.5 C 41.4832,89.4706 43.4832,90.4706 45.5,91.5C 45.3505,92.552 45.5172,93.552 46,94.5C 49.9095,97.0814 52.7429,100.581 54.5,105C 59.1275,106.49 63.7942,107.657 68.5,108.5C 68.8333,108.5 69.1667,108.5 69.5,108.5C 70.5274,110.194 71.8608,111.527 73.5,112.5C 69.2574,113.681 64.924,114.348 60.5,114.5C 55.0141,114.969 51.6807,114.636 50.5,113.5C 50.5,112.5 50.5,111.5 50.5,110.5C 53.8984,110.82 57.2317,110.487 60.5,109.5C 60.0431,108.702 59.3764,108.369 58.5,108.5C 53.0166,106.356 48.3499,103.023 44.5,98.5C 42.8466,95.1932 41.1799,91.8599 39.5,88.5 Z"/></g>
<g><path style="opacity:1" fill="#c37033" d="M 128.5,93.5 C 129.363,94.9403 129.363,96.2736 128.5,97.5C 130.875,99.6759 133.208,101.843 135.5,104C 134.773,105.399 134.273,106.899 134,108.5C 132.795,109.071 131.628,109.738 130.5,110.5C 129.87,113.688 128.87,116.688 127.5,119.5C 126.167,121.167 124.833,122.833 123.5,124.5C 123.167,124.5 122.833,124.5 122.5,124.5C 121.325,124.719 120.325,124.386 119.5,123.5C 123.206,118.051 124.873,112.051 124.5,105.5C 125.117,105.389 125.617,105.056 126,104.5C 126.498,101.183 126.665,97.8499 126.5,94.5C 127.167,94.1667 127.833,93.8333 128.5,93.5 Z"/></g>
<g><path style="opacity:1" fill="#d9b186" d="M 73.5,112.5 C 74.7383,112.81 74.7383,113.31 73.5,114C 69.1834,115.937 64.8501,117.77 60.5,119.5C 60.9528,118.542 61.6195,117.708 62.5,117C 57.9805,116.825 53.6472,116.325 49.5,115.5C 53.3714,115.815 57.0381,115.482 60.5,114.5C 64.924,114.348 69.2574,113.681 73.5,112.5 Z"/></g>
<g><path style="opacity:1" fill="#ebc383" d="M 24.5,106.5 C 32.1106,111.261 40.4439,114.261 49.5,115.5C 53.6472,116.325 57.9805,116.825 62.5,117C 61.6195,117.708 60.9528,118.542 60.5,119.5C 50.3114,121.625 40.6448,120.292 31.5,115.5C 27.8386,112.84 24.1719,110.174 20.5,107.5C 18.8912,106.102 18.0579,104.435 18,102.5C 19.9719,104.232 22.1386,105.565 24.5,106.5 Z"/></g>
<g><path style="opacity:1" fill="#bd6e32" d="M 89.5,109.5 C 90.1667,109.5 90.8333,109.5 91.5,109.5C 90.7659,110.708 90.4326,112.041 90.5,113.5C 93.4686,112.671 96.4686,112.505 99.5,113C 99.9147,115.026 100.915,116.526 102.5,117.5C 100.408,120.683 98.575,124.016 97,127.5C 95.1136,130.242 92.6136,131.909 89.5,132.5C 89.5,133.5 89.5,134.5 89.5,135.5C 88.5,135.5 87.5,135.5 86.5,135.5C 88.5923,132.966 88.9256,130.299 87.5,127.5C 86.0512,125.836 84.0512,125.002 81.5,125C 84.8034,123.993 85.9701,121.827 85,118.5C 83.9326,117.809 82.7659,117.309 81.5,117C 84.0625,114.267 86.7291,111.767 89.5,109.5 Z"/></g>
<g><path style="opacity:1" fill="#eaa967" d="M 95.5,113.5 C 98.1662,113.066 99.3329,114.066 99,116.5C 95.4034,118.066 94.2368,117.066 95.5,113.5 Z"/></g>
<g><path style="opacity:1" fill="#521f12" d="M 69.5,108.5 C 74.56,109.098 79.56,109.098 84.5,108.5C 84.5,109.5 84.5,110.5 84.5,111.5C 82.8061,113.861 80.8061,115.861 78.5,117.5C 76.8333,118.167 75.1667,118.833 73.5,119.5C 61.8997,121.27 50.2331,121.77 38.5,121C 36.3496,119.589 34.0163,118.755 31.5,118.5C 27.7035,117.089 27.7035,116.089 31.5,115.5C 40.6448,120.292 50.3114,121.625 60.5,119.5C 64.8501,117.77 69.1834,115.937 73.5,114C 74.7383,113.31 74.7383,112.81 73.5,112.5C 71.8608,111.527 70.5274,110.194 69.5,108.5 Z"/></g>
<g><path style="opacity:1" fill="#572112" d="M 124.5,96.5 C 124.5,99.5 124.5,102.5 124.5,105.5C 122.559,115.049 118.225,123.382 111.5,130.5C 111.44,129.957 111.107,129.624 110.5,129.5C 107.646,130.878 104.98,132.545 102.5,134.5C 101.537,134.03 101.537,133.363 102.5,132.5C 117.835,119.808 122.835,103.808 117.5,84.5C 119.467,86.5229 120.8,89.5229 121.5,93.5C 122.192,92.9747 122.692,92.3081 123,91.5C 123.198,93.3817 123.698,95.0484 124.5,96.5 Z"/></g>
<g><path style="opacity:1" fill="#bb7138" d="M 89.5,109.5 C 86.7291,111.767 84.0625,114.267 81.5,117C 82.7659,117.309 83.9326,117.809 85,118.5C 85.9701,121.827 84.8034,123.993 81.5,125C 84.0512,125.002 86.0512,125.836 87.5,127.5C 86.1667,127.5 84.8333,127.5 83.5,127.5C 83.5,128.833 83.5,130.167 83.5,131.5C 84.9587,131.567 86.2921,131.234 87.5,130.5C 87.2504,131.922 86.417,132.922 85,133.5C 81.7365,130.447 78.5698,127.281 75.5,124C 73.4567,123.36 71.7901,123.86 70.5,125.5C 68.9731,125.427 67.9731,126.094 67.5,127.5C 66.6618,127.158 66.3284,126.492 66.5,125.5C 67.0577,124.21 68.0577,123.377 69.5,123C 72.9561,123.093 75.9561,122.093 78.5,120C 77.4019,119.23 77.4019,118.397 78.5,117.5C 80.8061,115.861 82.8061,113.861 84.5,111.5C 86.1667,110.833 87.8333,110.167 89.5,109.5 Z"/></g>
<g><path style="opacity:1" fill="#b46a3d" d="M 124.5,105.5 C 124.873,112.051 123.206,118.051 119.5,123.5C 120.325,124.386 121.325,124.719 122.5,124.5C 119.433,127.879 115.766,130.546 111.5,132.5C 110.537,132.03 110.537,131.363 111.5,130.5C 118.225,123.382 122.559,115.049 124.5,105.5 Z"/></g>
<g><path style="opacity:1" fill="#5d2215" d="M 141.5,95.5 C 140.772,103.381 137.939,110.381 133,116.5C 132.51,117.793 132.343,119.127 132.5,120.5C 127.755,126.581 122.088,131.581 115.5,135.5C 115.5,134.5 115.5,133.5 115.5,132.5C 116.552,132.649 117.552,132.483 118.5,132C 120.231,129.491 121.898,126.991 123.5,124.5C 124.833,122.833 126.167,121.167 127.5,119.5C 130.458,116.94 132.958,113.94 135,110.5C 137.105,105.312 139.271,100.312 141.5,95.5 Z"/></g>
<g><path style="opacity:1" fill="#b76c38" d="M 32.5,121.5 C 37.7442,124.874 43.5775,126.208 50,125.5C 58.6523,126.078 66.4857,124.078 73.5,119.5C 75.1667,118.833 76.8333,118.167 78.5,117.5C 77.4019,118.397 77.4019,119.23 78.5,120C 75.9561,122.093 72.9561,123.093 69.5,123C 68.0577,123.377 67.0577,124.21 66.5,125.5C 64.0504,125.298 61.717,125.631 59.5,126.5C 50.9149,126.817 42.4149,126.483 34,125.5C 33.5,126 33,126.5 32.5,127C 33.2228,129.018 34.2228,130.852 35.5,132.5C 32.2085,130.542 29.2085,128.209 26.5,125.5C 23.8347,122.665 21.3347,119.665 19,116.5C 17.6989,114.598 17.0322,112.598 17,110.5C 21.4348,115.292 26.6015,118.958 32.5,121.5 Z"/></g>
<g><path style="opacity:1" fill="#5a1f11" d="M 31.5,118.5 C 34.0163,118.755 36.3496,119.589 38.5,121C 50.2331,121.77 61.8997,121.27 73.5,119.5C 66.4857,124.078 58.6523,126.078 50,125.5C 43.5775,126.208 37.7442,124.874 32.5,121.5C 32.4431,120.391 32.1098,119.391 31.5,118.5 Z"/></g>
<g><path style="opacity:1" fill="#bf6f33" d="M 87.5,130.5 C 87.5,129.5 87.5,128.5 87.5,127.5C 88.9256,130.299 88.5923,132.966 86.5,135.5C 85.7298,137.935 84.0632,139.269 81.5,139.5C 79.7839,139.371 78.1172,139.038 76.5,138.5C 78.2504,135.276 77.2504,133.442 73.5,133C 75.5,132.667 77.5,132.333 79.5,132C 75.274,130.118 71.1073,130.285 67,132.5C 65.5801,127.281 64.4135,127.281 63.5,132.5C 63.7093,133.086 64.0426,133.586 64.5,134C 62.5273,134.495 60.5273,134.662 58.5,134.5C 59.8333,132.833 59.8333,131.167 58.5,129.5C 59.404,128.791 59.7373,127.791 59.5,126.5C 61.717,125.631 64.0504,125.298 66.5,125.5C 66.3284,126.492 66.6618,127.158 67.5,127.5C 67.5,128.5 67.5,129.5 67.5,130.5C 71.2838,130.475 72.2838,128.808 70.5,125.5C 71.7901,123.86 73.4567,123.36 75.5,124C 78.5698,127.281 81.7365,130.447 85,133.5C 86.417,132.922 87.2504,131.922 87.5,130.5 Z"/></g>
<g><path style="opacity:1" fill="#ebaa69" d="M 70.5,125.5 C 72.2838,128.808 71.2838,130.475 67.5,130.5C 67.5,129.5 67.5,128.5 67.5,127.5C 67.9731,126.094 68.9731,125.427 70.5,125.5 Z"/></g>
<g><path style="opacity:1" fill="#be6e33" d="M 59.5,126.5 C 59.7373,127.791 59.404,128.791 58.5,129.5C 56.9731,129.427 55.9731,130.094 55.5,131.5C 53.1702,133.829 53.1702,136.162 55.5,138.5C 55.1373,139.183 54.8039,139.85 54.5,140.5C 52.1877,139.68 49.8543,138.847 47.5,138C 47.3601,136.736 47.3601,135.569 47.5,134.5C 45.5675,135.52 43.5675,135.687 41.5,135C 42.6226,133.956 43.9559,133.29 45.5,133C 42.1315,133.509 38.7982,133.343 35.5,132.5C 34.2228,130.852 33.2228,129.018 32.5,127C 33,126.5 33.5,126 34,125.5C 42.4149,126.483 50.9149,126.817 59.5,126.5 Z"/></g>
<g><path style="opacity:1" fill="#e8aa6a" d="M 87.5,127.5 C 87.5,128.5 87.5,129.5 87.5,130.5C 86.2921,131.234 84.9587,131.567 83.5,131.5C 83.5,130.167 83.5,128.833 83.5,127.5C 84.8333,127.5 86.1667,127.5 87.5,127.5 Z"/></g>
<g><path style="opacity:1" fill="#c87739" d="M 76.5,138.5 C 73.7814,138.603 71.1147,138.269 68.5,137.5C 65.5848,137.891 63.2514,139.224 61.5,141.5C 59.2534,140.626 56.9201,140.292 54.5,140.5C 54.8039,139.85 55.1373,139.183 55.5,138.5C 53.1702,136.162 53.1702,133.829 55.5,131.5C 55.5,132.5 55.5,133.5 55.5,134.5C 56.5,134.5 57.5,134.5 58.5,134.5C 60.5273,134.662 62.5273,134.495 64.5,134C 64.0426,133.586 63.7093,133.086 63.5,132.5C 64.4135,127.281 65.5801,127.281 67,132.5C 71.1073,130.285 75.274,130.118 79.5,132C 77.5,132.333 75.5,132.667 73.5,133C 77.2504,133.442 78.2504,135.276 76.5,138.5 Z"/></g>
<g><path style="opacity:1" fill="#eeb26f" d="M 58.5,129.5 C 59.8333,131.167 59.8333,132.833 58.5,134.5C 57.5,134.5 56.5,134.5 55.5,134.5C 55.5,133.5 55.5,132.5 55.5,131.5C 55.9731,130.094 56.9731,129.427 58.5,129.5 Z"/></g>
<g><path style="opacity:1" fill="#571f14" d="M 107.5,121.5 C 106.409,125.515 104.409,129.015 101.5,132C 101.728,132.399 102.062,132.565 102.5,132.5C 101.537,133.363 101.537,134.03 102.5,134.5C 104.98,132.545 107.646,130.878 110.5,129.5C 111.107,129.624 111.44,129.957 111.5,130.5C 110.537,131.363 110.537,132.03 111.5,132.5C 115.766,130.546 119.433,127.879 122.5,124.5C 122.833,124.5 123.167,124.5 123.5,124.5C 121.898,126.991 120.231,129.491 118.5,132C 117.552,132.483 116.552,132.649 115.5,132.5C 115.5,133.5 115.5,134.5 115.5,135.5C 107.025,139.568 98.0251,142.068 88.5,143C 86.1401,144.18 83.8068,145.347 81.5,146.5C 73.3435,147.629 65.3435,147.629 57.5,146.5C 63.9066,145.086 71.74,144.086 81,143.5C 81.772,143.645 82.4387,143.978 83,144.5C 86.6671,141.999 89.8338,138.999 92.5,135.5C 96.2536,131.088 99.5869,126.422 102.5,121.5C 104.199,120.489 105.699,119.155 107,117.5C 107.5,117.667 108,117.833 108.5,118C 107.663,119.011 107.33,120.178 107.5,121.5 Z"/></g>
<g><path style="opacity:0.984" fill="#53352a" d="M 143.5,106.5 C 136.347,122.486 124.68,133.986 108.5,141C 99.0051,143.089 89.6718,145.589 80.5,148.5C 80.8333,147.833 81.1667,147.167 81.5,146.5C 83.8068,145.347 86.1401,144.18 88.5,143C 98.0251,142.068 107.025,139.568 115.5,135.5C 122.088,131.581 127.755,126.581 132.5,120.5C 136.155,115.843 139.821,111.176 143.5,106.5 Z"/></g>
<g><path style="opacity:1" fill="#5c2114" d="M 11.5,110.5 C 15.1734,112.252 17.3401,115.252 18,119.5C 20.3858,120.763 22.2192,122.597 23.5,125C 24.448,125.483 25.448,125.649 26.5,125.5C 29.2085,128.209 32.2085,130.542 35.5,132.5C 44.6878,140.076 55.3545,143.743 67.5,143.5C 70.3555,143.497 73.0221,143.164 75.5,142.5C 81.7717,141.528 87.4383,139.194 92.5,135.5C 89.8338,138.999 86.6671,141.999 83,144.5C 82.4387,143.978 81.772,143.645 81,143.5C 71.74,144.086 63.9066,145.086 57.5,146.5C 52.7997,145.43 48.133,144.43 43.5,143.5C 43.5,142.5 43.5,141.5 43.5,140.5C 39.8239,137.397 35.4906,135.23 30.5,134C 28.9544,131.743 27.2877,129.576 25.5,127.5C 23.013,126.424 20.6797,125.09 18.5,123.5C 17.0457,119.83 14.7124,117.164 11.5,115.5C 11.5,115.167 11.5,114.833 11.5,114.5C 11.5,113.167 11.5,111.833 11.5,110.5 Z"/></g>
<g><path style="opacity:1" fill="#bb6d37" d="M 35.5,132.5 C 38.7982,133.343 42.1315,133.509 45.5,133C 43.9559,133.29 42.6226,133.956 41.5,135C 43.5675,135.687 45.5675,135.52 47.5,134.5C 47.3601,135.569 47.3601,136.736 47.5,138C 49.8543,138.847 52.1877,139.68 54.5,140.5C 56.9201,140.292 59.2534,140.626 61.5,141.5C 63.2514,139.224 65.5848,137.891 68.5,137.5C 71.1147,138.269 73.7814,138.603 76.5,138.5C 78.1172,139.038 79.7839,139.371 81.5,139.5C 79.3713,140.203 77.3713,141.203 75.5,142.5C 73.0221,143.164 70.3555,143.497 67.5,143.5C 55.3545,143.743 44.6878,140.076 35.5,132.5 Z"/></g>
<g><path style="opacity:1" fill="#522e24" d="M 11.5,115.5 C 14.7124,117.164 17.0457,119.83 18.5,123.5C 20.6797,125.09 23.013,126.424 25.5,127.5C 27.2877,129.576 28.9544,131.743 30.5,134C 35.4906,135.23 39.8239,137.397 43.5,140.5C 43.5,141.5 43.5,142.5 43.5,143.5C 48.133,144.43 52.7997,145.43 57.5,146.5C 65.3435,147.629 73.3435,147.629 81.5,146.5C 81.1667,147.167 80.8333,147.833 80.5,148.5C 79.8333,148.5 79.5,148.833 79.5,149.5C 72.1667,149.5 64.8333,149.5 57.5,149.5C 37.1113,144.976 21.778,133.642 11.5,115.5 Z"/></g>
</svg>
