<?xml version="1.0" encoding="UTF-8"?>
<!DOCTYPE svg PUBLIC "-//W3C//DTD SVG 1.1//EN" "http://www.w3.org/Graphics/SVG/1.1/DTD/svg11.dtd">
<svg xmlns="http://www.w3.org/2000/svg" version="1.1" width="155px" height="156px" style="shape-rendering:geometricPrecision; text-rendering:geometricPrecision; image-rendering:optimizeQuality; fill-rule:evenodd; clip-rule:evenodd" xmlns:xlink="http://www.w3.org/1999/xlink">
<g><path style="opacity:0.975" fill="#532e23" d="M 108.5,-0.5 C 113.167,-0.5 117.833,-0.5 122.5,-0.5C 129.254,1.91517 134.921,5.91517 139.5,11.5C 138.127,11.6567 136.793,11.49 135.5,11C 126.635,1.2371 115.968,-1.09623 103.5,4C 101.249,4.74753 99.9156,6.24753 99.5,8.5C 98.4341,9.69211 97.6008,9.35878 97,7.5C 96.1841,8.82277 95.0174,9.48944 93.5,9.5C 97.4615,4.52638 102.462,1.19305 108.5,-0.5 Z"/></g>
<g><path style="opacity:1" fill="#5a2214" d="M 139.5,11.5 C 141.636,15.5763 142.97,19.9097 143.5,24.5C 143.167,24.5 142.833,24.5 142.5,24.5C 138.909,20.2419 134.909,16.2419 130.5,12.5C 125.135,6.66573 118.468,4.49906 110.5,6C 107.555,6.139 105.221,7.30566 103.5,9.5C 102.391,9.55688 101.391,9.89022 100.5,10.5C 100.672,9.50838 100.338,8.84171 99.5,8.5C 99.9156,6.24753 101.249,4.74753 103.5,4C 115.968,-1.09623 126.635,1.2371 135.5,11C 136.793,11.49 138.127,11.6567 139.5,11.5 Z"/></g>
<g><path style="opacity:1" fill="#d39558" d="M 130.5,12.5 C 126.427,11.3861 122.427,11.0527 118.5,11.5C 118.5,10.5 118.5,9.5 118.5,8.5C 113.417,9.25587 108.417,9.5892 103.5,9.5C 105.221,7.30566 107.555,6.139 110.5,6C 118.468,4.49906 125.135,6.66573 130.5,12.5 Z"/></g>
<g><path style="opacity:1" fill="#d6934f" d="M 118.5,11.5 C 115.39,12.0885 112.39,12.7552 109.5,13.5C 108.833,13.5 108.167,13.5 107.5,13.5C 101.006,15.6566 99.6725,14.3232 103.5,9.5C 108.417,9.5892 113.417,9.25587 118.5,8.5C 118.5,9.5 118.5,10.5 118.5,11.5 Z"/></g>
<g><path style="opacity:1" fill="#d2904e" d="M 130.5,12.5 C 130.414,13.4959 130.748,14.3292 131.5,15C 129.285,16.3907 129.285,18.0574 131.5,20C 131,20.1667 130.5,20.3333 130,20.5C 128.243,18.2354 126.076,16.5687 123.5,15.5C 119.028,13.7843 114.362,13.1176 109.5,13.5C 112.39,12.7552 115.39,12.0885 118.5,11.5C 122.427,11.0527 126.427,11.3861 130.5,12.5 Z"/></g>
<g><path style="opacity:1" fill="#501f13" d="M 99.5,8.5 C 100.338,8.84171 100.672,9.50838 100.5,10.5C 98.5,13.1667 96.1667,15.5 93.5,17.5C 92.1667,17.5 90.8333,17.5 89.5,17.5C 89.5,18.5 89.5,19.5 89.5,20.5C 88.5,20.5 87.5,20.5 86.5,20.5C 88.3122,18.5395 89.3122,16.2061 89.5,13.5C 90.5,11.8333 91.8333,10.5 93.5,9.5C 95.0174,9.48944 96.1841,8.82277 97,7.5C 97.6008,9.35878 98.4341,9.69211 99.5,8.5 Z"/></g>
<g><path style="opacity:1" fill="#5e2212" d="M 107.5,13.5 C 108.167,13.5 108.833,13.5 109.5,13.5C 114.362,13.1176 119.028,13.7843 123.5,15.5C 126.582,18.6587 128.916,22.3253 130.5,26.5C 129.167,26.5 127.833,26.5 126.5,26.5C 126.5,27.5 126.5,28.5 126.5,29.5C 126.167,29.5 125.833,29.5 125.5,29.5C 125.488,24.4953 123.155,21.162 118.5,19.5C 112.775,17.43 107.775,18.43 103.5,22.5C 101.62,22.7709 100.287,22.1042 99.5,20.5C 101.575,17.4209 104.242,15.0875 107.5,13.5 Z"/></g>
<g><path style="opacity:1" fill="#9e4332" d="M 118.5,19.5 C 116.746,21.5887 115.413,23.922 114.5,26.5C 113.167,26.5 111.833,26.5 110.5,26.5C 109.116,25.1991 107.616,25.1991 106,26.5C 105.764,28.764 105.264,30.9307 104.5,33C 105.094,33.4643 105.761,33.631 106.5,33.5C 105.292,34.782 103.958,34.782 102.5,33.5C 102.709,32.914 103.043,32.414 103.5,32C 101.833,31.3333 100.167,31.3333 98.5,32C 97.4678,34.8739 95.4678,36.3739 92.5,36.5C 96.8678,32.4561 100.535,27.7895 103.5,22.5C 107.775,18.43 112.775,17.43 118.5,19.5 Z"/></g>
<g><path style="opacity:1" fill="#d79b5c" d="M 130.5,12.5 C 134.909,16.2419 138.909,20.2419 142.5,24.5C 141.833,24.1667 141.167,23.8333 140.5,23.5C 137.556,23.082 134.556,23.582 131.5,25C 132.305,26.1127 132.972,27.2794 133.5,28.5C 131.973,28.573 130.973,27.9063 130.5,26.5C 128.916,22.3253 126.582,18.6587 123.5,15.5C 126.076,16.5687 128.243,18.2354 130,20.5C 130.5,20.3333 131,20.1667 131.5,20C 129.285,18.0574 129.285,16.3907 131.5,15C 130.748,14.3292 130.414,13.4959 130.5,12.5 Z"/></g>
<g><path style="opacity:1" fill="#d29154" d="M 103.5,9.5 C 99.6725,14.3232 101.006,15.6566 107.5,13.5C 104.242,15.0875 101.575,17.4209 99.5,20.5C 97.8333,22.5 96.1667,24.5 94.5,26.5C 93.0721,24.1459 93.4054,21.9792 95.5,20C 95.1639,18.9701 94.4972,18.4701 93.5,18.5C 93.5,18.1667 93.5,17.8333 93.5,17.5C 96.1667,15.5 98.5,13.1667 100.5,10.5C 101.391,9.89022 102.391,9.55688 103.5,9.5 Z"/></g>
<g><path style="opacity:1" fill="#9a3e31" d="M 118.5,19.5 C 123.155,21.162 125.488,24.4953 125.5,29.5C 124.833,29.1667 124.167,28.8333 123.5,28.5C 123.03,27.3065 122.03,26.6399 120.5,26.5C 118.296,27.2994 116.296,27.2994 114.5,26.5C 115.413,23.922 116.746,21.5887 118.5,19.5 Z"/></g>
<g><path style="opacity:1" fill="#d4924e" d="M 140.5,23.5 C 139.343,26.3485 139.676,28.8485 141.5,31C 141,31.5 140.5,32 140,32.5C 138.871,30.8588 137.371,29.8588 135.5,29.5C 134.508,29.6716 133.842,29.3382 133.5,28.5C 132.972,27.2794 132.305,26.1127 131.5,25C 134.556,23.582 137.556,23.082 140.5,23.5 Z"/></g>
<g><path style="opacity:1" fill="#d89c5b" d="M 93.5,18.5 C 94.4972,18.4701 95.1639,18.9701 95.5,20C 93.4054,21.9792 93.0721,24.1459 94.5,26.5C 93.5265,29.135 91.8598,31.135 89.5,32.5C 86.6097,32.278 83.943,32.9447 81.5,34.5C 80.7084,33.3002 80.7084,31.9669 81.5,30.5C 85.1667,26.1667 89.1667,22.1667 93.5,18.5 Z"/></g>
<g><path style="opacity:1" fill="#52271d" d="M 139.5,11.5 C 146.068,17.0574 151.068,23.7241 154.5,31.5C 154.5,36.8333 154.5,42.1667 154.5,47.5C 153.514,49.4261 152.514,51.4261 151.5,53.5C 151.167,53.5 150.833,53.5 150.5,53.5C 151.226,46.0461 151.893,38.3794 152.5,30.5C 149.767,30.297 147.434,29.297 145.5,27.5C 144.833,26.5 144.167,25.5 143.5,24.5C 142.97,19.9097 141.636,15.5763 139.5,11.5 Z"/></g>
<g><path style="opacity:1" fill="#662612" d="M 99.5,20.5 C 100.287,22.1042 101.62,22.7709 103.5,22.5C 100.535,27.7895 96.8678,32.4561 92.5,36.5C 90.847,36.6596 89.5137,37.3263 88.5,38.5C 86.2163,38.9752 84.2163,39.9752 82.5,41.5C 82.8087,38.6545 84.4754,37.1545 87.5,37C 86.255,36.2086 84.9217,35.7086 83.5,35.5C 85.6287,34.7972 87.6287,33.7972 89.5,32.5C 91.8598,31.135 93.5265,29.135 94.5,26.5C 96.1667,24.5 97.8333,22.5 99.5,20.5 Z"/></g>
<g><path style="opacity:1" fill="#5b2314" d="M 93.5,17.5 C 93.5,17.8333 93.5,18.1667 93.5,18.5C 89.1667,22.1667 85.1667,26.1667 81.5,30.5C 77.5,34.1667 73.5,37.8333 69.5,41.5C 69.5858,40.5041 69.2524,39.6708 68.5,39C 70.6917,37.9331 72.3583,36.4331 73.5,34.5C 73.7031,32.9557 74.3698,31.6223 75.5,30.5C 79.2584,27.0658 82.9251,23.7325 86.5,20.5C 87.5,20.5 88.5,20.5 89.5,20.5C 89.5,19.5 89.5,18.5 89.5,17.5C 90.8333,17.5 92.1667,17.5 93.5,17.5 Z"/></g>
<g><path style="opacity:1" fill="#501b0f" d="M 130.5,26.5 C 130.973,27.9063 131.973,28.573 133.5,28.5C 133.842,29.3382 134.508,29.6716 135.5,29.5C 136.5,30.8333 137.5,32.1667 138.5,33.5C 137.5,34.5 136.5,35.5 135.5,36.5C 134.167,35.5 132.833,34.5 131.5,33.5C 131.158,32.6618 130.492,32.3284 129.5,32.5C 128.167,31.8333 127.167,30.8333 126.5,29.5C 126.5,28.5 126.5,27.5 126.5,26.5C 127.833,26.5 129.167,26.5 130.5,26.5 Z"/></g>
<g><path style="opacity:1" fill="#d39355" d="M 140.5,23.5 C 141.167,23.8333 141.833,24.1667 142.5,24.5C 142.833,24.5 143.167,24.5 143.5,24.5C 144.167,25.5 144.833,26.5 145.5,27.5C 146.441,29.0495 147.107,30.7162 147.5,32.5C 147.5,34.1667 147.5,35.8333 147.5,37.5C 146.751,36.469 146.085,35.3024 145.5,34C 144.175,34.1484 143.008,33.9817 142,33.5C 142.019,35.1075 142.185,36.7741 142.5,38.5C 142.167,38.5 141.833,38.5 141.5,38.5C 141.25,36.326 140.25,34.6594 138.5,33.5C 137.5,32.1667 136.5,30.8333 135.5,29.5C 137.371,29.8588 138.871,30.8588 140,32.5C 140.5,32 141,31.5 141.5,31C 139.676,28.8485 139.343,26.3485 140.5,23.5 Z"/></g>
<g><path style="opacity:1" fill="#aa4a31" d="M 106.5,33.5 C 107.5,33.5 108.5,33.5 109.5,33.5C 108.064,35.083 106.398,36.583 104.5,38C 105.056,38.3826 105.389,38.8826 105.5,39.5C 105.028,41.5313 104.028,43.1979 102.5,44.5C 102.5,44.1667 102.5,43.8333 102.5,43.5C 102.67,42.1779 102.337,41.0113 101.5,40C 97.2695,38.7101 92.9362,38.2101 88.5,38.5C 89.5137,37.3263 90.847,36.6596 92.5,36.5C 95.4678,36.3739 97.4678,34.8739 98.5,32C 100.167,31.3333 101.833,31.3333 103.5,32C 103.043,32.414 102.709,32.914 102.5,33.5C 103.958,34.782 105.292,34.782 106.5,33.5 Z"/></g>
<g><path style="opacity:1" fill="#532c21" d="M 89.5,13.5 C 89.3122,16.2061 88.3122,18.5395 86.5,20.5C 82.9251,23.7325 79.2584,27.0658 75.5,30.5C 74.3698,31.6223 73.7031,32.9557 73.5,34.5C 72.8826,34.3893 72.3826,34.056 72,33.5C 69.5473,36.7839 66.3806,39.1172 62.5,40.5C 71.1667,31.1667 80.1667,22.1667 89.5,13.5 Z"/></g>
<g><path style="opacity:1" fill="#ecba55" d="M 123.5,28.5 C 124.167,28.8333 124.833,29.1667 125.5,29.5C 125.833,29.5 126.167,29.5 126.5,29.5C 127.167,30.8333 128.167,31.8333 129.5,32.5C 129.833,33.8333 130.167,35.1667 130.5,36.5C 130.579,39.2706 130.079,41.9373 129,44.5C 127.981,42.4982 127.148,40.4982 126.5,38.5C 126.573,36.9731 125.906,35.9731 124.5,35.5C 123.167,34.0665 121.667,32.7332 120,31.5C 119.517,30.552 119.351,29.552 119.5,28.5C 120.833,28.5 122.167,28.5 123.5,28.5 Z"/></g>
<g><path style="opacity:1" fill="#9a4a2c" d="M 110.5,26.5 C 111.833,26.5 113.167,26.5 114.5,26.5C 116.296,27.2994 118.296,27.2994 120.5,26.5C 122.03,26.6399 123.03,27.3065 123.5,28.5C 122.167,28.5 120.833,28.5 119.5,28.5C 119.351,29.552 119.517,30.552 120,31.5C 121.667,32.7332 123.167,34.0665 124.5,35.5C 124.5,36.8333 124.5,38.1667 124.5,39.5C 123.167,39.5 121.833,39.5 120.5,39.5C 117.537,38.2588 114.537,38.2588 111.5,39.5C 110.754,40.7362 110.421,42.0695 110.5,43.5C 110.167,43.5 109.833,43.5 109.5,43.5C 109.674,41.139 110.007,38.8056 110.5,36.5C 112.646,36.8782 114.813,37.2115 117,37.5C 118.973,37.6906 120.473,37.024 121.5,35.5C 119.534,31.5594 117.201,31.0594 114.5,34C 112.735,34.6397 111.068,34.4731 109.5,33.5C 108.5,33.5 107.5,33.5 106.5,33.5C 105.761,33.631 105.094,33.4643 104.5,33C 105.264,30.9307 105.764,28.764 106,26.5C 107.616,25.1991 109.116,25.1991 110.5,26.5 Z"/></g>
<g><path style="opacity:1" fill="#8a8930" d="M 110.5,26.5 C 111.261,27.3909 112.261,28.0576 113.5,28.5C 114.429,29.6888 114.762,31.0222 114.5,32.5C 109.069,33.9064 106.735,31.9064 107.5,26.5C 108.5,26.5 109.5,26.5 110.5,26.5 Z"/></g>
<g><path style="opacity:1" fill="#c78a53" d="M 81.5,30.5 C 80.7084,31.9669 80.7084,33.3002 81.5,34.5C 83.943,32.9447 86.6097,32.278 89.5,32.5C 87.6287,33.7972 85.6287,34.7972 83.5,35.5C 79.4938,37.5062 76.4938,40.5062 74.5,44.5C 74.6602,42.8008 74.4935,41.1341 74,39.5C 73.0922,41.4386 71.5922,42.4386 69.5,42.5C 69.5,42.1667 69.5,41.8333 69.5,41.5C 73.5,37.8333 77.5,34.1667 81.5,30.5 Z"/></g>
<g><path style="opacity:1" fill="#a34632" d="M 109.5,43.5 C 108.566,42.4324 108.232,41.099 108.5,39.5C 107.5,39.5 106.5,39.5 105.5,39.5C 105.389,38.8826 105.056,38.3826 104.5,38C 106.398,36.583 108.064,35.083 109.5,33.5C 111.068,34.4731 112.735,34.6397 114.5,34C 117.201,31.0594 119.534,31.5594 121.5,35.5C 120.473,37.024 118.973,37.6906 117,37.5C 114.813,37.2115 112.646,36.8782 110.5,36.5C 110.007,38.8056 109.674,41.139 109.5,43.5 Z"/></g>
<g><path style="opacity:1" fill="#d58e49" d="M 147.5,37.5 C 147.879,41.5762 146.879,45.2429 144.5,48.5C 143.833,45.0227 143.166,41.6893 142.5,38.5C 142.185,36.7741 142.019,35.1075 142,33.5C 143.008,33.9817 144.175,34.1484 145.5,34C 146.085,35.3024 146.751,36.469 147.5,37.5 Z"/></g>
<g><path style="opacity:1" fill="#eebe56" d="M 88.5,38.5 C 92.9362,38.2101 97.2695,38.7101 101.5,40C 102.337,41.0113 102.67,42.1779 102.5,43.5C 101.584,43.9817 100.584,44.315 99.5,44.5C 92.4414,40.6014 87.4414,42.2681 84.5,49.5C 82.941,52.8683 82.1077,56.5349 82,60.5C 81.5007,55.5111 81.3341,50.5111 81.5,45.5C 81.8333,44.1667 82.1667,42.8333 82.5,41.5C 84.2163,39.9752 86.2163,38.9752 88.5,38.5 Z"/></g>
<g><path style="opacity:1" fill="#987c35" d="M 120.5,39.5 C 120.843,41.4832 120.176,42.8166 118.5,43.5C 115.939,44.7671 113.272,44.7671 110.5,43.5C 110.421,42.0695 110.754,40.7362 111.5,39.5C 114.537,38.2588 117.537,38.2588 120.5,39.5 Z"/></g>
<g><path style="opacity:1" fill="#561c0e" d="M 138.5,33.5 C 140.25,34.6594 141.25,36.326 141.5,38.5C 141.662,40.5273 141.495,42.5273 141,44.5C 140.667,43.5 140.333,42.5 140,41.5C 139.627,43.6982 139.127,45.8649 138.5,48C 138.164,49.0299 137.497,49.5299 136.5,49.5C 138.137,44.9041 137.803,40.5708 135.5,36.5C 136.5,35.5 137.5,34.5 138.5,33.5 Z"/></g>
<g><path style="opacity:1" fill="#899433" d="M 118.5,43.5 C 116.5,43.5 114.5,43.5 112.5,43.5C 112.5,42.5 112.5,41.5 112.5,40.5C 114.5,40.5 116.5,40.5 118.5,40.5C 118.5,41.5 118.5,42.5 118.5,43.5 Z"/></g>
<g><path style="opacity:1" fill="#9a4a26" d="M 124.5,35.5 C 125.906,35.9731 126.573,36.9731 126.5,38.5C 126.123,48.7168 120.79,52.7168 110.5,50.5C 110.5,50.1667 110.5,49.8333 110.5,49.5C 114.179,49.2756 117.846,48.9422 121.5,48.5C 121.5,47.5 121.5,46.5 121.5,45.5C 118.183,46.2209 114.849,46.3876 111.5,46C 110.748,45.3292 110.414,44.4959 110.5,43.5C 113.272,44.7671 115.939,44.7671 118.5,43.5C 120.176,42.8166 120.843,41.4832 120.5,39.5C 121.833,39.5 123.167,39.5 124.5,39.5C 124.5,38.1667 124.5,36.8333 124.5,35.5 Z"/></g>
<g><path style="opacity:1" fill="#9d422f" d="M 102.5,45.5 C 105.926,45.3497 106.259,46.5163 103.5,49C 104.685,50.353 106.019,51.5197 107.5,52.5C 105.995,53.8415 105.328,55.5082 105.5,57.5C 104.833,58.1667 104.167,58.8333 103.5,59.5C 102.417,59.4606 101.417,59.1272 100.5,58.5C 99.5057,62.4811 98.5057,62.4811 97.5,58.5C 98.9905,57.7564 100.491,57.0897 102,56.5C 102.495,53.4686 102.329,50.4686 101.5,47.5C 99.5853,47.2155 97.9187,47.5489 96.5,48.5C 95.5489,49.9187 95.2155,51.5853 95.5,53.5C 94.6091,52.7387 93.9424,51.7387 93.5,50.5C 91.8333,49.1667 90.1667,49.1667 88.5,50.5C 89.9459,52.6179 90.6126,54.9512 90.5,57.5C 88.9251,56.6716 87.5918,56.3382 86.5,56.5C 85.7606,50.0977 88.4273,46.0977 94.5,44.5C 97.1147,45.2692 99.7814,45.6025 102.5,45.5 Z"/></g>
<g><path style="opacity:1" fill="#efbb5a" d="M 130.5,36.5 C 132.495,43.5118 130.495,49.1785 124.5,53.5C 120.318,55.231 115.984,55.731 111.5,55C 110.62,53.6439 110.286,52.1439 110.5,50.5C 120.79,52.7168 126.123,48.7168 126.5,38.5C 127.148,40.4982 127.981,42.4982 129,44.5C 130.079,41.9373 130.579,39.2706 130.5,36.5 Z"/></g>
<g><path style="opacity:1" fill="#a54131" d="M 105.5,39.5 C 106.5,39.5 107.5,39.5 108.5,39.5C 108.232,41.099 108.566,42.4324 109.5,43.5C 109.833,43.5 110.167,43.5 110.5,43.5C 110.414,44.4959 110.748,45.3292 111.5,46C 114.849,46.3876 118.183,46.2209 121.5,45.5C 121.5,46.5 121.5,47.5 121.5,48.5C 117.846,48.9422 114.179,49.2756 110.5,49.5C 109.414,49.62 108.747,50.2867 108.5,51.5C 109.046,53.1347 109.38,54.8014 109.5,56.5C 108.041,56.4326 106.708,56.7659 105.5,57.5C 105.328,55.5082 105.995,53.8415 107.5,52.5C 106.019,51.5197 104.685,50.353 103.5,49C 106.259,46.5163 105.926,45.3497 102.5,45.5C 102.5,45.1667 102.5,44.8333 102.5,44.5C 104.028,43.1979 105.028,41.5313 105.5,39.5 Z"/></g>
<g><path style="opacity:1" fill="#552114" d="M 73.5,34.5 C 72.3583,36.4331 70.6917,37.9331 68.5,39C 69.2524,39.6708 69.5858,40.5041 69.5,41.5C 69.5,41.8333 69.5,42.1667 69.5,42.5C 66.5,44.8333 63.8333,47.5 61.5,50.5C 58.8333,52.8333 56.1667,55.1667 53.5,57.5C 53.5792,56.0695 53.2458,54.7362 52.5,53.5C 55.9196,50.3054 58.5863,46.6388 60.5,42.5C 60.8333,41.5 61.5,40.8333 62.5,40.5C 66.3806,39.1172 69.5473,36.7839 72,33.5C 72.3826,34.056 72.8826,34.3893 73.5,34.5 Z"/></g>
<g><path style="opacity:1" fill="#511d11" d="M 145.5,27.5 C 147.434,29.297 149.767,30.297 152.5,30.5C 151.893,38.3794 151.226,46.0461 150.5,53.5C 150.167,53.5 149.833,53.5 149.5,53.5C 149.296,50.4824 148.963,47.4824 148.5,44.5C 148.817,40.2984 148.483,36.2984 147.5,32.5C 147.107,30.7162 146.441,29.0495 145.5,27.5 Z"/></g>
<g><path style="opacity:1" fill="#d59652" d="M 74.5,44.5 C 74.5,45.1667 74.5,45.8333 74.5,46.5C 72.7462,48.5727 71.0795,50.7393 69.5,53C 70.4506,53.7175 70.6172,54.5509 70,55.5C 67.0414,54.5059 64.208,53.5059 61.5,52.5C 61.5,51.8333 61.5,51.1667 61.5,50.5C 63.8333,47.5 66.5,44.8333 69.5,42.5C 71.5922,42.4386 73.0922,41.4386 74,39.5C 74.4935,41.1341 74.6602,42.8008 74.5,44.5 Z"/></g>
<g><path style="opacity:1" fill="#5e2312" d="M 141.5,38.5 C 141.833,38.5 142.167,38.5 142.5,38.5C 143.471,45.8763 141.138,51.8763 135.5,56.5C 133.5,56.5 132.5,55.5 132.5,53.5C 133.5,51.8333 134.833,50.5 136.5,49.5C 137.497,49.5299 138.164,49.0299 138.5,48C 139.127,45.8649 139.627,43.6982 140,41.5C 140.333,42.5 140.667,43.5 141,44.5C 141.495,42.5273 141.662,40.5273 141.5,38.5 Z"/></g>
<g><path style="opacity:1" fill="#d29159" d="M 147.5,32.5 C 148.483,36.2984 148.817,40.2984 148.5,44.5C 146.613,49.2661 143.946,53.5995 140.5,57.5C 138.5,59.1667 136.5,60.8333 134.5,62.5C 133.817,60.8235 132.483,60.1568 130.5,60.5C 132.167,59.1667 133.833,57.8333 135.5,56.5C 141.138,51.8763 143.471,45.8763 142.5,38.5C 143.166,41.6893 143.833,45.0227 144.5,48.5C 146.879,45.2429 147.879,41.5762 147.5,37.5C 147.5,35.8333 147.5,34.1667 147.5,32.5 Z"/></g>
<g><path style="opacity:1" fill="#a14232" d="M 95.5,53.5 C 95.8333,55.5 96.1667,57.5 96.5,59.5C 95.1526,58.9717 93.8193,58.805 92.5,59C 91.373,60.7533 90.373,62.5866 89.5,64.5C 91.7883,67.6481 92.1217,70.9814 90.5,74.5C 90.1667,75.1667 89.8333,75.8333 89.5,76.5C 88.2334,77.087 87.2334,77.087 86.5,76.5C 88.6342,73.9262 88.9675,71.2595 87.5,68.5C 87.1062,67.0328 86.7728,65.5328 86.5,64C 88.1811,62.0109 89.5144,59.8442 90.5,57.5C 90.6126,54.9512 89.9459,52.6179 88.5,50.5C 90.1667,49.1667 91.8333,49.1667 93.5,50.5C 93.9424,51.7387 94.6091,52.7387 95.5,53.5 Z"/></g>
<g><path style="opacity:1" fill="#9b3f31" d="M 131.5,33.5 C 132.833,34.5 134.167,35.5 135.5,36.5C 137.803,40.5708 138.137,44.9041 136.5,49.5C 134.833,50.5 133.5,51.8333 132.5,53.5C 131.167,54.1667 129.833,54.8333 128.5,55.5C 130.826,50.6254 132.493,45.4587 133.5,40C 132.967,37.7739 132.3,35.6073 131.5,33.5 Z"/></g>
<g><path style="opacity:1" fill="#d39353" d="M 74.5,46.5 C 74.5,47.5 74.5,48.5 74.5,49.5C 73.461,52.0828 72.1276,54.5828 70.5,57C 67.9644,57.1862 65.631,57.6862 63.5,58.5C 61.7162,58.8925 60.0495,59.5592 58.5,60.5C 58.7135,58.8561 58.3802,57.3561 57.5,56C 58.7305,54.5952 60.0639,53.4286 61.5,52.5C 64.208,53.5059 67.0414,54.5059 70,55.5C 70.6172,54.5509 70.4506,53.7175 69.5,53C 71.0795,50.7393 72.7462,48.5727 74.5,46.5 Z"/></g>
<g><path style="opacity:1" fill="#a04826" d="M 102.5,43.5 C 102.5,43.8333 102.5,44.1667 102.5,44.5C 102.5,44.8333 102.5,45.1667 102.5,45.5C 99.7814,45.6025 97.1147,45.2692 94.5,44.5C 88.4273,46.0977 85.7606,50.0977 86.5,56.5C 85.8333,57.8333 85.1667,59.1667 84.5,60.5C 84.5,56.8333 84.5,53.1667 84.5,49.5C 87.4414,42.2681 92.4414,40.6014 99.5,44.5C 100.584,44.315 101.584,43.9817 102.5,43.5 Z"/></g>
<g><path style="opacity:1" fill="#531d10" d="M 83.5,35.5 C 84.9217,35.7086 86.255,36.2086 87.5,37C 84.4754,37.1545 82.8087,38.6545 82.5,41.5C 82.1667,42.8333 81.8333,44.1667 81.5,45.5C 80.8333,45.8333 80.1667,46.1667 79.5,46.5C 78.7979,50.6067 77.4645,54.6067 75.5,58.5C 74.3509,58.2089 73.6842,57.3756 73.5,56C 74.0767,53.863 74.41,51.6963 74.5,49.5C 74.5,48.5 74.5,47.5 74.5,46.5C 74.5,45.8333 74.5,45.1667 74.5,44.5C 76.4938,40.5062 79.4938,37.5062 83.5,35.5 Z"/></g>
<g><path style="opacity:1" fill="#edb754" d="M 81.5,45.5 C 81.3341,50.5111 81.5007,55.5111 82,60.5C 82.1077,56.5349 82.941,52.8683 84.5,49.5C 84.5,53.1667 84.5,56.8333 84.5,60.5C 83.0813,61.4511 81.4147,61.7845 79.5,61.5C 79.5,56.5 79.5,51.5 79.5,46.5C 80.1667,46.1667 80.8333,45.8333 81.5,45.5 Z"/></g>
<g><path style="opacity:1" fill="#5b2213" d="M 148.5,44.5 C 148.963,47.4824 149.296,50.4824 149.5,53.5C 147.167,55.5 144.833,57.5 142.5,59.5C 141.5,59.1667 140.833,58.5 140.5,57.5C 143.946,53.5995 146.613,49.2661 148.5,44.5 Z"/></g>
<g><path style="opacity:1" fill="#552e22" d="M 60.5,42.5 C 58.5863,46.6388 55.9196,50.3054 52.5,53.5C 53.2458,54.7362 53.5792,56.0695 53.5,57.5C 53.1667,58.5 52.5,59.1667 51.5,59.5C 49.8632,58.7822 48.1966,58.6155 46.5,59C 43.6227,63.3785 39.956,66.8785 35.5,69.5C 34.3951,70.6005 33.0618,71.2671 31.5,71.5C 40.8333,61.5 50.5,51.8333 60.5,42.5 Z"/></g>
<g><path style="opacity:1" fill="#a4462e" d="M 129.5,32.5 C 130.492,32.3284 131.158,32.6618 131.5,33.5C 132.3,35.6073 132.967,37.7739 133.5,40C 132.493,45.4587 130.826,50.6254 128.5,55.5C 126.004,56.5804 123.67,57.9138 121.5,59.5C 120.417,59.4606 119.417,59.1272 118.5,58.5C 117.851,60.6241 117.017,62.6241 116,64.5C 114.989,63.6634 113.822,63.33 112.5,63.5C 112.528,61.4176 111.861,59.5843 110.5,58C 114.046,56.8263 117.713,56.1596 121.5,56C 122.942,55.6232 123.942,54.7899 124.5,53.5C 130.495,49.1785 132.495,43.5118 130.5,36.5C 130.167,35.1667 129.833,33.8333 129.5,32.5 Z"/></g>
<g><path style="opacity:0.004" fill="#c8c5b8" d="M 149.5,57.5 C 150.833,58.1667 150.833,58.1667 149.5,57.5 Z"/></g>
<g><path style="opacity:1" fill="#d19256" d="M 61.5,50.5 C 61.5,51.1667 61.5,51.8333 61.5,52.5C 60.0639,53.4286 58.7305,54.5952 57.5,56C 58.3802,57.3561 58.7135,58.8561 58.5,60.5C 57.7362,63.0177 56.7362,65.351 55.5,67.5C 55.2865,65.8561 55.6198,64.3561 56.5,63C 54.0499,61.9397 51.7166,61.773 49.5,62.5C 50.1667,61.5 50.8333,60.5 51.5,59.5C 52.5,59.1667 53.1667,58.5 53.5,57.5C 56.1667,55.1667 58.8333,52.8333 61.5,50.5 Z"/></g>
<g><path style="opacity:1" fill="#9a4928" d="M 103.5,59.5 C 100.787,61.2135 98.7872,63.5468 97.5,66.5C 96.6739,71.3165 96.1739,76.3165 96,81.5C 94.6244,82.7051 93.4577,84.0384 92.5,85.5C 87.9681,86.1144 83.9681,85.1144 80.5,82.5C 83.0021,82.7495 85.5021,83.0828 88,83.5C 89.6811,83.3917 90.8478,82.7251 91.5,81.5C 92.5,81.5 93.5,81.5 94.5,81.5C 95.2949,77.2147 95.6282,72.8814 95.5,68.5C 96.1137,65.4689 96.447,62.4689 96.5,59.5C 96.1667,57.5 95.8333,55.5 95.5,53.5C 95.2155,51.5853 95.5489,49.9187 96.5,48.5C 97.9187,47.5489 99.5853,47.2155 101.5,47.5C 102.329,50.4686 102.495,53.4686 102,56.5C 100.491,57.0897 98.9905,57.7564 97.5,58.5C 98.5057,62.4811 99.5057,62.4811 100.5,58.5C 101.417,59.1272 102.417,59.4606 103.5,59.5 Z"/></g>
<g><path style="opacity:1" fill="#927432" d="M 96.5,48.5 C 97.8221,48.33 98.9887,48.6634 100,49.5C 100.497,51.8098 100.663,54.1432 100.5,56.5C 99.1779,56.67 98.0113,56.3366 97,55.5C 96.5034,53.1902 96.3367,50.8568 96.5,48.5 Z"/></g>
<g><path style="opacity:1" fill="#5a1f11" d="M 74.5,49.5 C 74.41,51.6963 74.0767,53.863 73.5,56C 73.6842,57.3756 74.3509,58.2089 75.5,58.5C 72.2807,60.7183 68.614,61.885 64.5,62C 62.5359,63.451 61.2026,65.2843 60.5,67.5C 59.4138,67.38 58.7472,66.7133 58.5,65.5C 59.9526,62.8941 61.6193,60.5608 63.5,58.5C 65.631,57.6862 67.9644,57.1862 70.5,57C 72.1276,54.5828 73.461,52.0828 74.5,49.5 Z"/></g>
<g><path style="opacity:1" fill="#672715" d="M 132.5,53.5 C 132.5,55.5 133.5,56.5 135.5,56.5C 133.833,57.8333 132.167,59.1667 130.5,60.5C 129.078,60.7086 127.745,61.2086 126.5,62C 124.613,64.9502 122.613,67.7835 120.5,70.5C 120.167,70.5 119.833,70.5 119.5,70.5C 119.5,69.5 119.5,68.5 119.5,67.5C 118.167,67.5 116.833,67.5 115.5,67.5C 118.386,65.5495 120.386,62.8828 121.5,59.5C 123.67,57.9138 126.004,56.5804 128.5,55.5C 129.833,54.8333 131.167,54.1667 132.5,53.5 Z"/></g>
<g><path style="opacity:1" fill="#98472c" d="M 79.5,46.5 C 79.5,51.5 79.5,56.5 79.5,61.5C 81.4147,61.7845 83.0813,61.4511 84.5,60.5C 85.1667,59.1667 85.8333,57.8333 86.5,56.5C 87.5918,56.3382 88.9251,56.6716 90.5,57.5C 89.5144,59.8442 88.1811,62.0109 86.5,64C 86.7728,65.5328 87.1062,67.0328 87.5,68.5C 88.1709,73.1463 86.1709,75.1463 81.5,74.5C 77.0916,74.9225 75.4249,72.9225 76.5,68.5C 77.7158,66.5491 79.3825,65.0491 81.5,64C 78.978,62.6591 76.3113,61.8257 73.5,61.5C 73.8238,64.6802 72.4904,65.8469 69.5,65C 72.3509,63.1187 72.0175,62.2854 68.5,62.5C 65.9365,62.62 64.4365,63.9533 64,66.5C 62.3745,65.5881 61.5412,66.2547 61.5,68.5C 61.6716,69.4916 61.3382,70.1583 60.5,70.5C 60.5,69.5 60.5,68.5 60.5,67.5C 61.2026,65.2843 62.5359,63.451 64.5,62C 68.614,61.885 72.2807,60.7183 75.5,58.5C 77.4645,54.6067 78.7979,50.6067 79.5,46.5 Z"/></g>
<g><path style="opacity:1" fill="#964330" d="M 96.5,59.5 C 96.447,62.4689 96.1137,65.4689 95.5,68.5C 93.9328,69.6808 93.0995,71.3474 93,73.5C 92.3292,74.2524 91.4959,74.5858 90.5,74.5C 92.1217,70.9814 91.7883,67.6481 89.5,64.5C 90.373,62.5866 91.373,60.7533 92.5,59C 93.8193,58.805 95.1526,58.9717 96.5,59.5 Z"/></g>
<g><path style="opacity:1" fill="#a44533" d="M 76.5,68.5 C 75.1667,68.8333 73.8333,69.1667 72.5,69.5C 71.8984,65.8779 70.3984,65.5446 68,68.5C 65.9734,68.0137 63.8067,68.0137 61.5,68.5C 61.5412,66.2547 62.3745,65.5881 64,66.5C 64.4365,63.9533 65.9365,62.62 68.5,62.5C 72.0175,62.2854 72.3509,63.1187 69.5,65C 72.4904,65.8469 73.8238,64.6802 73.5,61.5C 76.3113,61.8257 78.978,62.6591 81.5,64C 79.3825,65.0491 77.7158,66.5491 76.5,68.5 Z"/></g>
<g><path style="opacity:1" fill="#edba54" d="M 101.5,67.5 C 101.719,66.325 101.386,65.325 100.5,64.5C 99.7348,65.6119 98.7348,66.2786 97.5,66.5C 98.7872,63.5468 100.787,61.2135 103.5,59.5C 105.06,59.4809 106.56,59.1476 108,58.5C 110.502,59.5007 111.002,61.1674 109.5,63.5C 106.327,63.9478 103.661,65.2811 101.5,67.5 Z"/></g>
<g><path style="opacity:1" fill="#672917" d="M 140.5,57.5 C 140.833,58.5 141.5,59.1667 142.5,59.5C 140.576,63.7595 137.576,67.0928 133.5,69.5C 131.565,70.1495 129.565,70.4828 127.5,70.5C 129.833,67.8333 132.167,65.1667 134.5,62.5C 136.5,60.8333 138.5,59.1667 140.5,57.5 Z"/></g>
<g><path style="opacity:0.855" fill="#5a392f" d="M 149.5,53.5 C 149.833,53.5 150.167,53.5 150.5,53.5C 150.833,53.5 151.167,53.5 151.5,53.5C 150.833,54.8333 150.167,56.1667 149.5,57.5C 141.14,65.1937 133.14,73.1937 125.5,81.5C 125.5,80.5 125.5,79.5 125.5,78.5C 128.138,75.5256 130.805,72.5256 133.5,69.5C 137.576,67.0928 140.576,63.7595 142.5,59.5C 144.833,57.5 147.167,55.5 149.5,53.5 Z"/></g>
<g><path style="opacity:1" fill="#9f4827" d="M 110.5,49.5 C 110.5,49.8333 110.5,50.1667 110.5,50.5C 110.286,52.1439 110.62,53.6439 111.5,55C 115.984,55.731 120.318,55.231 124.5,53.5C 123.942,54.7899 122.942,55.6232 121.5,56C 117.713,56.1596 114.046,56.8263 110.5,58C 111.861,59.5843 112.528,61.4176 112.5,63.5C 112.389,64.1174 112.056,64.6174 111.5,65C 109.5,65.3333 107.5,65.6667 105.5,66C 104.295,67.3756 102.962,68.5423 101.5,69.5C 101.5,68.8333 101.5,68.1667 101.5,67.5C 103.661,65.2811 106.327,63.9478 109.5,63.5C 111.002,61.1674 110.502,59.5007 108,58.5C 106.56,59.1476 105.06,59.4809 103.5,59.5C 104.167,58.8333 104.833,58.1667 105.5,57.5C 106.708,56.7659 108.041,56.4326 109.5,56.5C 109.38,54.8014 109.046,53.1347 108.5,51.5C 108.747,50.2867 109.414,49.62 110.5,49.5 Z"/></g>
<g><path style="opacity:1" fill="#d39557" d="M 55.5,67.5 C 52.0912,68.3724 49.0912,70.039 46.5,72.5C 44.8058,73.5274 43.4725,74.8608 42.5,76.5C 42.5,75.1667 42.5,73.8333 42.5,72.5C 41.5,72.5 40.5,72.5 39.5,72.5C 42.5,68.8333 45.8333,65.5 49.5,62.5C 51.7166,61.773 54.0499,61.9397 56.5,63C 55.6198,64.3561 55.2865,65.8561 55.5,67.5 Z"/></g>
<g><path style="opacity:1" fill="#a94c2e" d="M 72.5,69.5 C 72.4359,71.5401 72.2692,73.8734 72,76.5C 71.6174,77.056 71.1174,77.3893 70.5,77.5C 66.8333,77.5 63.1667,77.5 59.5,77.5C 62.9619,76.5184 66.6286,76.185 70.5,76.5C 70.762,75.0222 70.4287,73.6888 69.5,72.5C 66.5788,71.5934 63.5788,71.2601 60.5,71.5C 60.5,71.1667 60.5,70.8333 60.5,70.5C 61.3382,70.1583 61.6716,69.4916 61.5,68.5C 63.8067,68.0137 65.9734,68.0137 68,68.5C 70.3984,65.5446 71.8984,65.8779 72.5,69.5 Z"/></g>
<g><path style="opacity:1" fill="#923c2e" d="M 121.5,59.5 C 120.386,62.8828 118.386,65.5495 115.5,67.5C 109.502,67.596 105.169,70.2627 102.5,75.5C 102.167,75.5 101.833,75.5 101.5,75.5C 101.5,73.5 101.5,71.5 101.5,69.5C 102.962,68.5423 104.295,67.3756 105.5,66C 107.5,65.6667 109.5,65.3333 111.5,65C 112.056,64.6174 112.389,64.1174 112.5,63.5C 113.822,63.33 114.989,63.6634 116,64.5C 117.017,62.6241 117.851,60.6241 118.5,58.5C 119.417,59.1272 120.417,59.4606 121.5,59.5 Z"/></g>
<g><path style="opacity:1" fill="#d9995d" d="M 130.5,60.5 C 132.483,60.1568 133.817,60.8235 134.5,62.5C 132.167,65.1667 129.833,67.8333 127.5,70.5C 126.833,70.8333 126.167,71.1667 125.5,71.5C 125.719,70.325 125.386,69.325 124.5,68.5C 123.378,69.6302 122.044,70.2969 120.5,70.5C 122.613,67.7835 124.613,64.9502 126.5,62C 127.745,61.2086 129.078,60.7086 130.5,60.5 Z"/></g>
<g><path style="opacity:1" fill="#562112" d="M 51.5,59.5 C 50.8333,60.5 50.1667,61.5 49.5,62.5C 45.8333,65.5 42.5,68.8333 39.5,72.5C 38.5,73.1667 37.5,73.8333 36.5,74.5C 36.3713,72.7839 36.038,71.1172 35.5,69.5C 39.956,66.8785 43.6227,63.3785 46.5,59C 48.1966,58.6155 49.8632,58.7822 51.5,59.5 Z"/></g>
<g><path style="opacity:1" fill="#632612" d="M 63.5,58.5 C 61.6193,60.5608 59.9526,62.8941 58.5,65.5C 58.7472,66.7133 59.4138,67.38 60.5,67.5C 60.5,68.5 60.5,69.5 60.5,70.5C 60.5,70.8333 60.5,71.1667 60.5,71.5C 58.0462,72.2271 55.7128,73.2271 53.5,74.5C 52.8333,74.5 52.1667,74.5 51.5,74.5C 52.9361,73.5714 54.2695,72.4048 55.5,71C 52.4057,70.7488 49.4057,71.2488 46.5,72.5C 49.0912,70.039 52.0912,68.3724 55.5,67.5C 56.7362,65.351 57.7362,63.0177 58.5,60.5C 60.0495,59.5592 61.7162,58.8925 63.5,58.5 Z"/></g>
<g><path style="opacity:1" fill="#928333" d="M 80.5,67.5 C 82.5,67.5 84.5,67.5 86.5,67.5C 87.2585,71.2403 85.7585,72.907 82,72.5C 78.7366,73.0676 77.2366,71.7343 77.5,68.5C 78.791,68.7373 79.791,68.404 80.5,67.5 Z"/></g>
<g><path style="opacity:1" fill="#d19154" d="M 125.5,71.5 C 123.833,73.8333 121.833,75.8333 119.5,77.5C 119.5,76.1667 119.5,74.8333 119.5,73.5C 114.633,72.5889 110.633,73.9222 107.5,77.5C 107.859,75.629 108.859,74.129 110.5,73C 113.579,72.3146 116.579,71.4812 119.5,70.5C 119.833,70.5 120.167,70.5 120.5,70.5C 122.044,70.2969 123.378,69.6302 124.5,68.5C 125.386,69.325 125.719,70.325 125.5,71.5 Z"/></g>
<g><path style="opacity:1" fill="#511d10" d="M 115.5,67.5 C 116.833,67.5 118.167,67.5 119.5,67.5C 119.5,68.5 119.5,69.5 119.5,70.5C 116.579,71.4812 113.579,72.3146 110.5,73C 108.859,74.129 107.859,75.629 107.5,77.5C 106.129,79.936 105.129,82.6027 104.5,85.5C 103.778,85.0825 103.278,84.4158 103,83.5C 102.503,80.854 102.336,78.1873 102.5,75.5C 105.169,70.2627 109.502,67.596 115.5,67.5 Z"/></g>
<g><path style="opacity:1" fill="#5a2215" d="M 133.5,69.5 C 130.805,72.5256 128.138,75.5256 125.5,78.5C 123.283,79.3686 120.95,79.702 118.5,79.5C 118.833,78.8333 119.167,78.1667 119.5,77.5C 121.833,75.8333 123.833,73.8333 125.5,71.5C 126.167,71.1667 126.833,70.8333 127.5,70.5C 129.565,70.4828 131.565,70.1495 133.5,69.5 Z"/></g>
<g><path style="opacity:1" fill="#a64832" d="M 76.5,68.5 C 75.4249,72.9225 77.0916,74.9225 81.5,74.5C 86.1709,75.1463 88.1709,73.1463 87.5,68.5C 88.9675,71.2595 88.6342,73.9262 86.5,76.5C 87.2334,77.087 88.2334,77.087 89.5,76.5C 88.9423,77.7899 87.9423,78.6232 86.5,79C 88.1749,79.9853 89.8415,80.8186 91.5,81.5C 90.8478,82.7251 89.6811,83.3917 88,83.5C 85.5021,83.0828 83.0021,82.7495 80.5,82.5C 79.6398,80.3862 77.9732,79.2195 75.5,79C 73.765,78.3486 72.0983,78.5153 70.5,79.5C 69.537,79.0302 69.537,78.3635 70.5,77.5C 71.1174,77.3893 71.6174,77.056 72,76.5C 72.2692,73.8734 72.4359,71.5401 72.5,69.5C 73.8333,69.1667 75.1667,68.8333 76.5,68.5 Z"/></g>
<g><path style="opacity:1" fill="#ebba53" d="M 101.5,67.5 C 101.5,68.1667 101.5,68.8333 101.5,69.5C 101.5,71.5 101.5,73.5 101.5,75.5C 102.322,80.8462 100.655,85.1796 96.5,88.5C 96.1667,88.5 95.8333,88.5 95.5,88.5C 95.1898,86.8564 94.1898,85.8564 92.5,85.5C 93.4577,84.0384 94.6244,82.7051 96,81.5C 96.1739,76.3165 96.6739,71.3165 97.5,66.5C 98.7348,66.2786 99.7348,65.6119 100.5,64.5C 101.386,65.325 101.719,66.325 101.5,67.5 Z"/></g>
<g><path style="opacity:1" fill="#532a1d" d="M 35.5,69.5 C 36.038,71.1172 36.3713,72.7839 36.5,74.5C 36.1667,75.5 35.5,76.1667 34.5,76.5C 28.8159,76.8161 24.8159,79.4827 22.5,84.5C 19.6067,86.4446 16.6067,88.1113 13.5,89.5C 19.1667,83.1667 25.1667,77.1667 31.5,71.5C 33.0618,71.2671 34.3951,70.6005 35.5,69.5 Z"/></g>
<g><path style="opacity:1" fill="#9d4730" d="M 95.5,68.5 C 95.6282,72.8814 95.2949,77.2147 94.5,81.5C 93.5,81.5 92.5,81.5 91.5,81.5C 89.8415,80.8186 88.1749,79.9853 86.5,79C 87.9423,78.6232 88.9423,77.7899 89.5,76.5C 89.8333,75.8333 90.1667,75.1667 90.5,74.5C 91.4959,74.5858 92.3292,74.2524 93,73.5C 93.0995,71.3474 93.9328,69.6808 95.5,68.5 Z"/></g>
<g><path style="opacity:1" fill="#edba58" d="M 60.5,71.5 C 63.5788,71.2601 66.5788,71.5934 69.5,72.5C 70.4287,73.6888 70.762,75.0222 70.5,76.5C 66.6286,76.185 62.9619,76.5184 59.5,77.5C 58.391,77.5569 57.391,77.8902 56.5,78.5C 55.8166,76.8235 54.4832,76.1568 52.5,76.5C 52.8333,75.8333 53.1667,75.1667 53.5,74.5C 55.7128,73.2271 58.0462,72.2271 60.5,71.5 Z"/></g>
<g><path style="opacity:1" fill="#d28f48" d="M 119.5,77.5 C 119.167,78.1667 118.833,78.8333 118.5,79.5C 115.833,81.5 113.5,83.8333 111.5,86.5C 110.5,87.1667 109.5,87.8333 108.5,88.5C 107.5,88.5 106.5,88.5 105.5,88.5C 106.167,84.8333 106.833,81.1667 107.5,77.5C 110.633,73.9222 114.633,72.5889 119.5,73.5C 119.5,74.8333 119.5,76.1667 119.5,77.5 Z"/></g>
<g><path style="opacity:1" fill="#a14b29" d="M 59.5,77.5 C 63.1667,77.5 66.8333,77.5 70.5,77.5C 69.537,78.3635 69.537,79.0302 70.5,79.5C 72.0983,78.5153 73.765,78.3486 75.5,79C 77.9732,79.2195 79.6398,80.3862 80.5,82.5C 78.8828,81.962 77.2161,81.6287 75.5,81.5C 75.2865,83.1439 75.6198,84.6439 76.5,86C 82.4767,90.705 88.81,91.5383 95.5,88.5C 95.8333,88.5 96.1667,88.5 96.5,88.5C 96.4226,89.7498 95.756,90.5831 94.5,91C 91.1832,91.4983 87.8499,91.665 84.5,91.5C 80.142,91.0811 76.142,89.7477 72.5,87.5C 72.628,85.3453 72.128,83.3453 71,81.5C 70.6667,81.8333 70.3333,82.1667 70,82.5C 64.9176,77.1834 59.9176,77.1834 55,82.5C 54.2446,86.2554 54.4113,89.9221 55.5,93.5C 55.5,94.1667 55.5,94.8333 55.5,95.5C 55.5,96.5 55.5,97.5 55.5,98.5C 52.9179,98.9746 50.9179,98.3079 49.5,96.5C 50.8333,96.5 52.1667,96.5 53.5,96.5C 53.3341,91.4889 53.5007,86.4889 54,81.5C 55.045,80.6266 55.8783,79.6266 56.5,78.5C 57.391,77.8902 58.391,77.5569 59.5,77.5 Z"/></g>
<g><path style="opacity:1" fill="#d7944d" d="M 39.5,72.5 C 40.5,72.5 41.5,72.5 42.5,72.5C 42.5,73.8333 42.5,75.1667 42.5,76.5C 40.9738,79.2797 39.6405,82.2797 38.5,85.5C 36.5471,84.0012 34.8804,84.3345 33.5,86.5C 32.6919,86.1924 32.0253,85.6924 31.5,85C 33.0905,83.9542 34.5905,82.7875 36,81.5C 36.9895,78.374 38.1562,75.374 39.5,72.5 Z"/></g>
<g><path style="opacity:1" fill="#eeba52" d="M 52.5,76.5 C 54.4832,76.1568 55.8166,76.8235 56.5,78.5C 55.8783,79.6266 55.045,80.6266 54,81.5C 53.5007,86.4889 53.3341,91.4889 53.5,96.5C 52.1667,96.5 50.8333,96.5 49.5,96.5C 48.5581,91.1946 48.3914,85.8613 49,80.5C 49.66,78.6763 50.8267,77.343 52.5,76.5 Z"/></g>
<g><path style="opacity:1" fill="#9f422f" d="M 72.5,87.5 C 70.5879,87.4877 68.5879,87.821 66.5,88.5C 66.4379,80.4359 63.6046,79.4359 58,85.5C 58.0533,88.6752 57.22,91.3419 55.5,93.5C 54.4113,89.9221 54.2446,86.2554 55,82.5C 59.9176,77.1834 64.9176,77.1834 70,82.5C 70.3333,82.1667 70.6667,81.8333 71,81.5C 72.128,83.3453 72.628,85.3453 72.5,87.5 Z"/></g>
<g><path style="opacity:1" fill="#d59252" d="M 39.5,72.5 C 38.1562,75.374 36.9895,78.374 36,81.5C 34.5905,82.7875 33.0905,83.9542 31.5,85C 32.0253,85.6924 32.6919,86.1924 33.5,86.5C 34.8804,84.3345 36.5471,84.0012 38.5,85.5C 37.7659,86.7079 37.4326,88.0413 37.5,89.5C 31.665,88.4444 26.9984,90.1111 23.5,94.5C 22.325,94.719 21.325,94.3857 20.5,93.5C 22.1667,91.1667 24.1667,89.1667 26.5,87.5C 27.1272,86.5832 27.4606,85.5832 27.5,84.5C 29.8333,81.8333 32.1667,79.1667 34.5,76.5C 35.5,76.1667 36.1667,75.5 36.5,74.5C 37.5,73.8333 38.5,73.1667 39.5,72.5 Z"/></g>
<g><path style="opacity:1" fill="#55241b" d="M 125.5,78.5 C 125.5,79.5 125.5,80.5 125.5,81.5C 124.127,81.3433 122.793,81.51 121.5,82C 120.333,83.8333 118.833,85.3333 117,86.5C 116.51,87.7932 116.343,89.1266 116.5,90.5C 114.833,92.8333 112.833,94.8333 110.5,96.5C 109.5,96.5 108.5,96.5 107.5,96.5C 107.5,95.5 107.5,94.5 107.5,93.5C 108.822,93.67 109.989,93.3366 111,92.5C 111.495,90.5273 111.662,88.5273 111.5,86.5C 113.5,83.8333 115.833,81.5 118.5,79.5C 120.95,79.702 123.283,79.3686 125.5,78.5 Z"/></g>
<g><path style="opacity:0.925" fill="#674942" d="M 125.5,81.5 C 122.833,84.8333 119.833,87.8333 116.5,90.5C 116.343,89.1266 116.51,87.7932 117,86.5C 118.833,85.3333 120.333,83.8333 121.5,82C 122.793,81.51 124.127,81.3433 125.5,81.5 Z"/></g>
<g><path style="opacity:1" fill="#d18f58" d="M 42.5,76.5 C 42.5,77.1667 42.5,77.8333 42.5,78.5C 41.6829,80.9686 41.1829,83.6353 41,86.5C 40.5348,87.9308 39.7014,89.0975 38.5,90C 33.2511,90.7761 28.2511,92.2761 23.5,94.5C 26.9984,90.1111 31.665,88.4444 37.5,89.5C 37.4326,88.0413 37.7659,86.7079 38.5,85.5C 39.6405,82.2797 40.9738,79.2797 42.5,76.5 Z"/></g>
<g><path style="opacity:1" fill="#f1c560" d="M 80.5,82.5 C 83.9681,85.1144 87.9681,86.1144 92.5,85.5C 94.1898,85.8564 95.1898,86.8564 95.5,88.5C 88.81,91.5383 82.4767,90.705 76.5,86C 75.6198,84.6439 75.2865,83.1439 75.5,81.5C 77.2161,81.6287 78.8828,81.962 80.5,82.5 Z"/></g>
<g><path style="opacity:1" fill="#531c12" d="M 51.5,74.5 C 47.2069,76.4738 45.5403,79.8071 46.5,84.5C 45.7579,89.2548 43.0913,92.5881 38.5,94.5C 35.2784,94.8919 32.2784,94.3919 29.5,93C 40.3599,93.9748 44.6932,89.1415 42.5,78.5C 42.5,77.8333 42.5,77.1667 42.5,76.5C 43.4725,74.8608 44.8058,73.5274 46.5,72.5C 49.4057,71.2488 52.4057,70.7488 55.5,71C 54.2695,72.4048 52.9361,73.5714 51.5,74.5 Z"/></g>
<g><path style="opacity:1" fill="#a24634" d="M 72.5,87.5 C 76.142,89.7477 80.142,91.0811 84.5,91.5C 83.3065,92.2719 82.3065,93.2719 81.5,94.5C 80.0762,96.5145 79.4095,98.8478 79.5,101.5C 79.1379,105.259 77.8046,108.593 75.5,111.5C 75.1667,111.5 74.8333,111.5 74.5,111.5C 74.848,109.287 75.6813,107.287 77,105.5C 78.6821,100.57 77.1821,97.2367 72.5,95.5C 72.7093,94.914 73.0426,94.414 73.5,94C 72.1667,93.6667 70.8333,93.3333 69.5,93C 69.0257,91.2714 68.0257,90.1047 66.5,89.5C 66.5,89.1667 66.5,88.8333 66.5,88.5C 68.5879,87.821 70.5879,87.4877 72.5,87.5 Z"/></g>
<g><path style="opacity:1" fill="#9d452c" d="M 66.5,89.5 C 68.0257,90.1047 69.0257,91.2714 69.5,93C 70.8333,93.3333 72.1667,93.6667 73.5,94C 73.0426,94.414 72.7093,94.914 72.5,95.5C 77.1821,97.2367 78.6821,100.57 77,105.5C 75.6813,107.287 74.848,109.287 74.5,111.5C 73.8333,111.5 73.1667,111.5 72.5,111.5C 75.0466,107.512 75.88,103.179 75,98.5C 73.6667,97.1667 72.3333,97.1667 71,98.5C 71.6813,108.985 66.8479,113.319 56.5,111.5C 60.8611,110.764 64.5278,109.764 67.5,108.5C 67.2606,106.533 67.5939,104.699 68.5,103C 67.9558,102.283 67.2891,101.783 66.5,101.5C 65.9111,99.6481 65.2444,97.8148 64.5,96C 65.6687,93.9935 66.3354,91.8268 66.5,89.5 Z"/></g>
<g><path style="opacity:1" fill="#582013" d="M 34.5,76.5 C 32.1667,79.1667 29.8333,81.8333 27.5,84.5C 23.5,88.1667 19.5,91.8333 15.5,95.5C 14.0413,95.5674 12.7079,95.2341 11.5,94.5C 12.9418,93.1805 13.6085,91.5138 13.5,89.5C 16.6067,88.1113 19.6067,86.4446 22.5,84.5C 24.8159,79.4827 28.8159,76.8161 34.5,76.5 Z"/></g>
<g><path style="opacity:0.984" fill="#59392d" d="M 13.5,89.5 C 13.6085,91.5138 12.9418,93.1805 11.5,94.5C 9.45141,95.8818 7.78475,97.5484 6.5,99.5C 5.5,100.167 4.5,100.833 3.5,101.5C 5.70937,96.6187 9.0427,92.6187 13.5,89.5 Z"/></g>
<g><path style="opacity:1" fill="#6b2915" d="M 101.5,75.5 C 101.833,75.5 102.167,75.5 102.5,75.5C 102.336,78.1873 102.503,80.854 103,83.5C 103.278,84.4158 103.778,85.0825 104.5,85.5C 102.568,89.756 99.9011,93.4227 96.5,96.5C 93.8333,96.5 91.1667,96.5 88.5,96.5C 90.2922,95.6909 92.2922,95.1909 94.5,95C 95.8333,94.3333 95.8333,93.6667 94.5,93C 90.0262,92.4253 85.6929,92.9253 81.5,94.5C 82.3065,93.2719 83.3065,92.2719 84.5,91.5C 87.8499,91.665 91.1832,91.4983 94.5,91C 95.756,90.5831 96.4226,89.7498 96.5,88.5C 100.655,85.1796 102.322,80.8462 101.5,75.5 Z"/></g>
<g><path style="opacity:1" fill="#95482b" d="M 66.5,88.5 C 66.5,88.8333 66.5,89.1667 66.5,89.5C 66.3354,91.8268 65.6687,93.9935 64.5,96C 65.2444,97.8148 65.9111,99.6481 66.5,101.5C 66.9193,105.58 65.086,107.58 61,107.5C 57.2415,107.907 55.7415,106.24 56.5,102.5C 58.2644,99.4728 60.5978,96.9728 63.5,95C 60.7395,94.2782 58.0728,94.4448 55.5,95.5C 55.5,94.8333 55.5,94.1667 55.5,93.5C 57.22,91.3419 58.0533,88.6752 58,85.5C 63.6046,79.4359 66.4379,80.4359 66.5,88.5 Z"/></g>
<g><path style="opacity:1" fill="#8c8632" d="M 62.5,82.5 C 64.8896,82.6848 65.8896,84.0182 65.5,86.5C 64.8012,89.9645 62.8012,91.9645 59.5,92.5C 58.8574,88.5669 59.8574,85.2336 62.5,82.5 Z"/></g>
<g><path style="opacity:1" fill="#652615" d="M 88.5,96.5 C 86.9731,96.427 85.9731,97.0937 85.5,98.5C 84.8333,100.5 84.1667,102.5 83.5,104.5C 83.8076,102.076 83.4742,99.7427 82.5,97.5C 81.1408,98.6243 80.1408,99.9577 79.5,101.5C 79.4095,98.8478 80.0762,96.5145 81.5,94.5C 85.6929,92.9253 90.0262,92.4253 94.5,93C 95.8333,93.6667 95.8333,94.3333 94.5,95C 92.2922,95.1909 90.2922,95.6909 88.5,96.5 Z"/></g>
<g><path style="opacity:1" fill="#d89960" d="M 107.5,77.5 C 106.833,81.1667 106.167,84.8333 105.5,88.5C 106.5,88.5 107.5,88.5 108.5,88.5C 105.167,92.1667 101.833,95.8333 98.5,99.5C 98.1667,99.5 97.8333,99.5 97.5,99.5C 97.7373,98.209 97.404,97.209 96.5,96.5C 99.9011,93.4227 102.568,89.756 104.5,85.5C 105.129,82.6027 106.129,79.936 107.5,77.5 Z"/></g>
<g><path style="opacity:1" fill="#5d1f11" d="M 42.5,78.5 C 44.6932,89.1415 40.3599,93.9748 29.5,93C 32.2784,94.3919 35.2784,94.8919 38.5,94.5C 35.2856,95.282 31.9523,96.1153 28.5,97C 27.5291,98.4813 26.1958,99.3146 24.5,99.5C 23.325,99.719 22.325,99.3857 21.5,98.5C 22.1272,97.5832 22.4606,96.5832 22.5,95.5C 23.1667,95.5 23.5,95.1667 23.5,94.5C 28.2511,92.2761 33.2511,90.7761 38.5,90C 39.7014,89.0975 40.5348,87.9308 41,86.5C 41.1829,83.6353 41.6829,80.9686 42.5,78.5 Z"/></g>
<g><path style="opacity:1" fill="#6a2918" d="M 111.5,86.5 C 111.662,88.5273 111.495,90.5273 111,92.5C 109.989,93.3366 108.822,93.67 107.5,93.5C 107.5,94.5 107.5,95.5 107.5,96.5C 106.778,97.5511 105.778,98.2178 104.5,98.5C 102.435,98.5172 100.435,98.8505 98.5,99.5C 101.833,95.8333 105.167,92.1667 108.5,88.5C 109.5,87.8333 110.5,87.1667 111.5,86.5 Z"/></g>
<g><path style="opacity:1" fill="#9b4329" d="M 51.5,74.5 C 52.1667,74.5 52.8333,74.5 53.5,74.5C 53.1667,75.1667 52.8333,75.8333 52.5,76.5C 50.8267,77.343 49.66,78.6763 49,80.5C 48.3914,85.8613 48.5581,91.1946 49.5,96.5C 46.6934,96.9513 45.6934,98.2847 46.5,100.5C 43.0336,98.9084 39.3669,98.2417 35.5,98.5C 39.2494,97.5608 43.0827,96.5608 47,95.5C 47.0621,91.8517 46.8954,88.185 46.5,84.5C 45.5403,79.8071 47.2069,76.4738 51.5,74.5 Z"/></g>
<g><path style="opacity:1" fill="#602315" d="M 11.5,94.5 C 12.7079,95.2341 14.0413,95.5674 15.5,95.5C 14.1667,97.1667 12.8333,98.8333 11.5,100.5C 9.58793,102.657 7.92126,104.991 6.5,107.5C 5.16667,104.833 5.16667,102.167 6.5,99.5C 7.78475,97.5484 9.45141,95.8818 11.5,94.5 Z"/></g>
<g><path style="opacity:1" fill="#d2925d" d="M 27.5,84.5 C 27.4606,85.5832 27.1272,86.5832 26.5,87.5C 24.1667,89.1667 22.1667,91.1667 20.5,93.5C 21.325,94.3857 22.325,94.719 23.5,94.5C 23.5,95.1667 23.1667,95.5 22.5,95.5C 19.4728,97.8605 16.8062,100.527 14.5,103.5C 14.5,102.5 14.5,101.5 14.5,100.5C 13.5,100.5 12.5,100.5 11.5,100.5C 12.8333,98.8333 14.1667,97.1667 15.5,95.5C 19.5,91.8333 23.5,88.1667 27.5,84.5 Z"/></g>
<g><path style="opacity:1" fill="#dc9b5d" d="M 88.5,96.5 C 91.1667,96.5 93.8333,96.5 96.5,96.5C 97.404,97.209 97.7373,98.209 97.5,99.5C 95.5,102.167 93.1667,104.5 90.5,106.5C 90.3398,104.801 90.5065,103.134 91,101.5C 91.3333,101.833 91.6667,102.167 92,102.5C 92.3095,101.234 92.8095,100.067 93.5,99C 90.7395,98.2782 88.0728,98.4448 85.5,99.5C 85.5,99.1667 85.5,98.8333 85.5,98.5C 85.9731,97.0937 86.9731,96.427 88.5,96.5 Z"/></g>
<g><path style="opacity:1" fill="#9f4030" d="M 46.5,84.5 C 46.8954,88.185 47.0621,91.8517 47,95.5C 43.0827,96.5608 39.2494,97.5608 35.5,98.5C 31.7887,98.6137 28.4554,99.6137 25.5,101.5C 25.1274,104.574 24.4608,107.574 23.5,110.5C 22.735,111.66 21.735,112.66 20.5,113.5C 19.5258,111.257 19.1924,108.924 19.5,106.5C 20.7787,103.888 22.4453,101.555 24.5,99.5C 26.1958,99.3146 27.5291,98.4813 28.5,97C 31.9523,96.1153 35.2856,95.282 38.5,94.5C 43.0913,92.5881 45.7579,89.2548 46.5,84.5 Z"/></g>
<g><path style="opacity:1" fill="#a03f2f" d="M 56.5,102.5 C 54.5154,102.859 53.8487,103.692 54.5,105C 53.6195,105.708 52.9528,106.542 52.5,107.5C 51.0772,105.455 49.0772,104.455 46.5,104.5C 46.5,103.167 46.5,101.833 46.5,100.5C 45.6934,98.2847 46.6934,96.9513 49.5,96.5C 50.9179,98.3079 52.9179,98.9746 55.5,98.5C 55.5,97.5 55.5,96.5 55.5,95.5C 58.0728,94.4448 60.7395,94.2782 63.5,95C 60.5978,96.9728 58.2644,99.4728 56.5,102.5 Z"/></g>
<g><path style="opacity:1" fill="#888331" d="M 60.5,99.5 C 61.8333,99.5 63.1667,99.5 64.5,99.5C 64.8328,103.002 63.3328,105.336 60,106.5C 58.5,106.333 57.6667,105.5 57.5,104C 58.3146,102.357 59.3146,100.857 60.5,99.5 Z"/></g>
<g><path style="opacity:1" fill="#d99552" d="M 90.5,106.5 C 89.1667,108.5 87.5,110.167 85.5,111.5C 83.0299,110.64 82.8632,109.306 85,107.5C 85.4974,104.854 85.6641,102.187 85.5,99.5C 88.0728,98.4448 90.7395,98.2782 93.5,99C 92.8095,100.067 92.3095,101.234 92,102.5C 91.6667,102.167 91.3333,101.833 91,101.5C 90.5065,103.134 90.3398,104.801 90.5,106.5 Z"/></g>
<g><path style="opacity:1" fill="#6c2515" d="M 22.5,95.5 C 22.4606,96.5832 22.1272,97.5832 21.5,98.5C 22.325,99.3857 23.325,99.719 24.5,99.5C 22.4453,101.555 20.7787,103.888 19.5,106.5C 18.8333,107.5 18.1667,108.5 17.5,109.5C 17.5323,107.381 16.5323,106.048 14.5,105.5C 14.5,104.833 14.5,104.167 14.5,103.5C 16.8062,100.527 19.4728,97.8605 22.5,95.5 Z"/></g>
<g><path style="opacity:1" fill="#a34b22" d="M 35.5,98.5 C 39.3669,98.2417 43.0336,98.9084 46.5,100.5C 46.5,101.833 46.5,103.167 46.5,104.5C 45.3646,106.213 43.698,106.88 41.5,106.5C 36.6329,105.589 32.6329,106.922 29.5,110.5C 30.4499,107.885 32.1165,105.885 34.5,104.5C 37.8663,104.788 41.1996,104.954 44.5,105C 45.3366,103.989 45.67,102.822 45.5,101.5C 42.7146,100.694 39.8813,100.028 37,99.5C 34.1979,99.3199 32.0313,100.32 30.5,102.5C 25.6047,105.299 23.6047,109.632 24.5,115.5C 23.5489,114.081 23.2155,112.415 23.5,110.5C 24.4608,107.574 25.1274,104.574 25.5,101.5C 28.4554,99.6137 31.7887,98.6137 35.5,98.5 Z"/></g>
<g><path style="opacity:1" fill="#f1be56" d="M 34.5,104.5 C 32.5168,104.843 31.1834,104.176 30.5,102.5C 32.0313,100.32 34.1979,99.3199 37,99.5C 39.8813,100.028 42.7146,100.694 45.5,101.5C 45.67,102.822 45.3366,103.989 44.5,105C 41.1996,104.954 37.8663,104.788 34.5,104.5 Z"/></g>
<g><path style="opacity:1" fill="#5f2418" d="M 104.5,98.5 C 101.899,102.771 98.5658,106.437 94.5,109.5C 93.5713,110.689 93.238,112.022 93.5,113.5C 91.4727,113.338 89.4727,113.505 87.5,114C 85.4234,115.705 83.09,116.872 80.5,117.5C 82.1667,115.5 83.8333,113.5 85.5,111.5C 87.5,110.167 89.1667,108.5 90.5,106.5C 93.1667,104.5 95.5,102.167 97.5,99.5C 97.8333,99.5 98.1667,99.5 98.5,99.5C 100.435,98.8505 102.435,98.5172 104.5,98.5 Z"/></g>
<g><path style="opacity:1" fill="#f0c05a" d="M 30.5,102.5 C 31.1834,104.176 32.5168,104.843 34.5,104.5C 32.1165,105.885 30.4499,107.885 29.5,110.5C 28.71,111.609 28.21,112.942 28,114.5C 27.7508,113.376 27.2508,112.376 26.5,111.5C 25.5258,113.743 25.1924,116.076 25.5,118.5C 24.596,117.791 24.2627,116.791 24.5,115.5C 23.6047,109.632 25.6047,105.299 30.5,102.5 Z"/></g>
<g><path style="opacity:1" fill="#ebb655" d="M 72.5,111.5 C 71.0552,113.063 69.3885,114.396 67.5,115.5C 64.2356,116.324 60.9023,116.658 57.5,116.5C 56.5655,115.432 56.2322,114.099 56.5,112.5C 56.5,112.167 56.5,111.833 56.5,111.5C 66.8479,113.319 71.6813,108.985 71,98.5C 72.3333,97.1667 73.6667,97.1667 75,98.5C 75.88,103.179 75.0466,107.512 72.5,111.5 Z"/></g>
<g><path style="opacity:1" fill="#551c11" d="M 83.5,104.5 C 83.4484,107.346 82.4484,109.68 80.5,111.5C 78.9563,111.711 77.2897,111.711 75.5,111.5C 77.8046,108.593 79.1379,105.259 79.5,101.5C 80.1408,99.9577 81.1408,98.6243 82.5,97.5C 83.4742,99.7427 83.8076,102.076 83.5,104.5 Z"/></g>
<g><path style="opacity:1" fill="#4c1d15" d="M 6.5,99.5 C 5.16667,102.167 5.16667,104.833 6.5,107.5C 6.16667,108.833 5.83333,110.167 5.5,111.5C 3.98747,113.879 2.98747,116.545 2.5,119.5C 4.47128,122.423 5.47128,125.757 5.5,129.5C 4.60895,128.89 3.60895,128.557 2.5,128.5C 1.89022,127.609 1.55688,126.609 1.5,125.5C -0.0443731,118.047 0.28896,110.714 2.5,103.5C 2.32842,102.508 2.66175,101.842 3.5,101.5C 4.5,100.833 5.5,100.167 6.5,99.5 Z"/></g>
<g><path style="opacity:0.522" fill="#593a32" d="M 107.5,96.5 C 108.5,96.5 109.5,96.5 110.5,96.5C 105.167,102.5 99.5,108.167 93.5,113.5C 93.238,112.022 93.5713,110.689 94.5,109.5C 98.5658,106.437 101.899,102.771 104.5,98.5C 105.778,98.2178 106.778,97.5511 107.5,96.5 Z"/></g>
<g><path style="opacity:1" fill="#a34831" d="M 46.5,104.5 C 49.0772,104.455 51.0772,105.455 52.5,107.5C 52.5246,110.179 53.858,111.512 56.5,111.5C 56.5,111.833 56.5,112.167 56.5,112.5C 54.549,112.227 53.049,112.893 52,114.5C 47.6516,111.442 46.1516,112.442 47.5,117.5C 45.5,117.5 44.5,116.5 44.5,114.5C 44.67,113.178 44.3366,112.011 43.5,111C 40.854,110.503 38.1873,110.336 35.5,110.5C 37.7701,109.455 39.7701,108.121 41.5,106.5C 43.698,106.88 45.3646,106.213 46.5,104.5 Z"/></g>
<g><path style="opacity:1" fill="#9a4331" d="M 66.5,101.5 C 67.2891,101.783 67.9558,102.283 68.5,103C 67.5939,104.699 67.2606,106.533 67.5,108.5C 64.5278,109.764 60.8611,110.764 56.5,111.5C 53.858,111.512 52.5246,110.179 52.5,107.5C 52.9528,106.542 53.6195,105.708 54.5,105C 53.8487,103.692 54.5154,102.859 56.5,102.5C 55.7415,106.24 57.2415,107.907 61,107.5C 65.086,107.58 66.9193,105.58 66.5,101.5 Z"/></g>
<g><path style="opacity:1" fill="#d29054" d="M 11.5,100.5 C 12.5,100.5 13.5,100.5 14.5,100.5C 14.5,101.5 14.5,102.5 14.5,103.5C 14.5,104.167 14.5,104.833 14.5,105.5C 13.3547,109.311 13.1881,113.311 14,117.5C 15.104,120.721 16.9374,123.388 19.5,125.5C 21.6037,127.372 22.937,129.705 23.5,132.5C 22.1733,131.2 20.84,129.867 19.5,128.5C 18.2638,129.246 16.9305,129.579 15.5,129.5C 16.1408,128.518 16.8075,127.518 17.5,126.5C 14.0885,122.344 11.7552,117.677 10.5,112.5C 9.5,112.5 8.5,112.5 7.5,112.5C 7.50454,116.534 7.83787,120.534 8.5,124.5C 8.16667,124.5 7.83333,124.5 7.5,124.5C 5.81656,120.364 5.14989,116.031 5.5,111.5C 5.83333,110.167 6.16667,108.833 6.5,107.5C 7.92126,104.991 9.58793,102.657 11.5,100.5 Z"/></g>
<g><path style="opacity:1" fill="#a6452a" d="M 41.5,106.5 C 39.7701,108.121 37.7701,109.455 35.5,110.5C 35.5,111.167 35.1667,111.5 34.5,111.5C 33.8333,111.5 33.5,111.833 33.5,112.5C 32.3054,112.866 31.6387,113.699 31.5,115C 32.6462,117.306 33.9795,119.473 35.5,121.5C 30.6716,119.519 28.6716,115.852 29.5,110.5C 32.6329,106.922 36.6329,105.589 41.5,106.5 Z"/></g>
<g><path style="opacity:1" fill="#ce8e56" d="M 85.5,98.5 C 85.5,98.8333 85.5,99.1667 85.5,99.5C 85.6641,102.187 85.4974,104.854 85,107.5C 82.8632,109.306 83.0299,110.64 85.5,111.5C 83.8333,113.5 82.1667,115.5 80.5,117.5C 79.2719,118.306 78.2719,119.306 77.5,120.5C 77.8432,118.517 77.1765,117.183 75.5,116.5C 77.4727,115.194 79.1394,113.527 80.5,111.5C 82.4484,109.68 83.4484,107.346 83.5,104.5C 84.1667,102.5 84.8333,100.5 85.5,98.5 Z"/></g>
<g><path style="opacity:1" fill="#958735" d="M 35.5,110.5 C 38.1873,110.336 40.854,110.503 43.5,111C 44.3366,112.011 44.67,113.178 44.5,114.5C 41.592,115.569 38.592,115.736 35.5,115C 34.6634,113.989 34.33,112.822 34.5,111.5C 35.1667,111.5 35.5,111.167 35.5,110.5 Z"/></g>
<g><path style="opacity:1" fill="#ab4932" d="M 56.5,112.5 C 56.2322,114.099 56.5655,115.432 57.5,116.5C 57.5,116.833 57.5,117.167 57.5,117.5C 56.8194,121.245 55.8194,124.911 54.5,128.5C 53.0413,128.567 51.7079,128.234 50.5,127.5C 50.7845,125.585 50.4511,123.919 49.5,122.5C 49.5,121.833 49.5,121.167 49.5,120.5C 49.573,118.973 48.9063,117.973 47.5,117.5C 46.1516,112.442 47.6516,111.442 52,114.5C 53.049,112.893 54.549,112.227 56.5,112.5 Z"/></g>
<g><path style="opacity:0.649" fill="#5b3e32" d="M 2.5,103.5 C 0.28896,110.714 -0.0443731,118.047 1.5,125.5C 0.833333,124.5 0.166667,123.5 -0.5,122.5C -0.5,117.5 -0.5,112.5 -0.5,107.5C 0.5,106.167 1.5,104.833 2.5,103.5 Z"/></g>
<g><path style="opacity:1" fill="#913d2c" d="M 19.5,106.5 C 19.1924,108.924 19.5258,111.257 20.5,113.5C 21.735,112.66 22.735,111.66 23.5,110.5C 23.2155,112.415 23.5489,114.081 24.5,115.5C 24.2627,116.791 24.596,117.791 25.5,118.5C 26.1098,119.391 26.4431,120.391 26.5,121.5C 26.5,122.833 26.5,124.167 26.5,125.5C 25.8333,125.167 25.1667,124.833 24.5,124.5C 19.9121,120.571 17.5788,115.571 17.5,109.5C 18.1667,108.5 18.8333,107.5 19.5,106.5 Z"/></g>
<g><path style="opacity:1" fill="#491b0f" d="M 80.5,111.5 C 79.1394,113.527 77.4727,115.194 75.5,116.5C 73.5648,117.15 71.5648,117.483 69.5,117.5C 67.0065,117.869 66.3398,117.203 67.5,115.5C 69.3885,114.396 71.0552,113.063 72.5,111.5C 73.1667,111.5 73.8333,111.5 74.5,111.5C 74.8333,111.5 75.1667,111.5 75.5,111.5C 77.2897,111.711 78.9563,111.711 80.5,111.5 Z"/></g>
<g><path style="opacity:1" fill="#984d2c" d="M 34.5,111.5 C 34.33,112.822 34.6634,113.989 35.5,115C 38.592,115.736 41.592,115.569 44.5,114.5C 44.5,116.5 45.5,117.5 47.5,117.5C 48.9063,117.973 49.573,118.973 49.5,120.5C 47.6208,119.659 45.6208,119.325 43.5,119.5C 43.2572,122.883 43.9239,126.049 45.5,129C 46.7839,129.684 47.9505,129.517 49,128.5C 49.4955,126.527 49.6621,124.527 49.5,122.5C 50.4511,123.919 50.7845,125.585 50.5,127.5C 50.5858,128.496 50.2524,129.329 49.5,130C 47.8333,130.667 46.1667,130.667 44.5,130C 43.1328,127.699 42.4661,125.199 42.5,122.5C 42.5,120.833 42.5,119.167 42.5,117.5C 39.5,117.5 36.5,117.5 33.5,117.5C 33.5,115.833 33.5,114.167 33.5,112.5C 33.5,111.833 33.8333,111.5 34.5,111.5 Z"/></g>
<g><path style="opacity:1" fill="#5d2316" d="M 5.5,111.5 C 5.14989,116.031 5.81656,120.364 7.5,124.5C 11.0758,130.413 15.4091,135.746 20.5,140.5C 18.1944,140.007 15.861,139.674 13.5,139.5C 10.1039,136.768 7.43724,133.435 5.5,129.5C 5.47128,125.757 4.47128,122.423 2.5,119.5C 2.98747,116.545 3.98747,113.879 5.5,111.5 Z"/></g>
<g><path style="opacity:1" fill="#d69149" d="M 15.5,129.5 C 12.3038,128.961 9.97047,127.294 8.5,124.5C 7.83787,120.534 7.50454,116.534 7.5,112.5C 8.5,112.5 9.5,112.5 10.5,112.5C 11.7552,117.677 14.0885,122.344 17.5,126.5C 16.8075,127.518 16.1408,128.518 15.5,129.5 Z"/></g>
<g><path style="opacity:1" fill="#511c12" d="M 14.5,105.5 C 16.5323,106.048 17.5323,107.381 17.5,109.5C 17.5788,115.571 19.9121,120.571 24.5,124.5C 24.6495,125.552 24.4828,126.552 24,127.5C 22.6703,126.418 21.1703,125.751 19.5,125.5C 16.9374,123.388 15.104,120.721 14,117.5C 13.1881,113.311 13.3547,109.311 14.5,105.5 Z"/></g>
<g><path style="opacity:1" fill="#ce8e52" d="M 75.5,116.5 C 77.1765,117.183 77.8432,118.517 77.5,120.5C 74.5,124.167 71.1667,127.5 67.5,130.5C 67.5858,129.504 67.2524,128.671 66.5,128C 68.8642,126.988 70.1976,125.655 70.5,124C 69.5,123 68.5,122 67.5,121C 68.1667,120.667 68.8333,120.333 69.5,120C 68.2068,119.51 66.8734,119.343 65.5,119.5C 66.8333,118.833 68.1667,118.167 69.5,117.5C 71.5648,117.483 73.5648,117.15 75.5,116.5 Z"/></g>
<g><path style="opacity:1" fill="#a1442e" d="M 33.5,112.5 C 33.5,114.167 33.5,115.833 33.5,117.5C 36.5,117.5 39.5,117.5 42.5,117.5C 42.5,119.167 42.5,120.833 42.5,122.5C 40.9112,125.092 39.2445,125.092 37.5,122.5C 36.7255,124.396 35.7255,126.063 34.5,127.5C 32.6203,127.229 31.287,127.896 30.5,129.5C 29.8333,129.167 29.1667,128.833 28.5,128.5C 27.5987,127.71 26.9321,126.71 26.5,125.5C 26.5,124.167 26.5,122.833 26.5,121.5C 27.9616,122.458 29.2949,123.624 30.5,125C 32.1341,125.494 33.8008,125.66 35.5,125.5C 35.5,124.167 35.5,122.833 35.5,121.5C 33.9795,119.473 32.6462,117.306 31.5,115C 31.6387,113.699 32.3054,112.866 33.5,112.5 Z"/></g>
<g><path style="opacity:1" fill="#e9b650" d="M 29.5,110.5 C 28.6716,115.852 30.6716,119.519 35.5,121.5C 35.5,122.833 35.5,124.167 35.5,125.5C 33.8008,125.66 32.1341,125.494 30.5,125C 29.2949,123.624 27.9616,122.458 26.5,121.5C 26.4431,120.391 26.1098,119.391 25.5,118.5C 25.1924,116.076 25.5258,113.743 26.5,111.5C 27.2508,112.376 27.7508,113.376 28,114.5C 28.21,112.942 28.71,111.609 29.5,110.5 Z"/></g>
<g><path style="opacity:1" fill="#8f8336" d="M 49.5,120.5 C 49.5,121.167 49.5,121.833 49.5,122.5C 49.6621,124.527 49.4955,126.527 49,128.5C 47.9505,129.517 46.7839,129.684 45.5,129C 43.9239,126.049 43.2572,122.883 43.5,119.5C 45.6208,119.325 47.6208,119.659 49.5,120.5 Z"/></g>
<g><path style="opacity:1" fill="#53251d" d="M 93.5,113.5 C 88.8333,118.833 83.8333,123.833 78.5,128.5C 77.5,128.5 76.5,128.5 75.5,128.5C 75.4457,125.033 76.9457,122.366 80,120.5C 80.4828,119.552 80.6495,118.552 80.5,117.5C 83.09,116.872 85.4234,115.705 87.5,114C 89.4727,113.505 91.4727,113.338 93.5,113.5 Z"/></g>
<g><path style="opacity:1" fill="#994231" d="M 42.5,122.5 C 42.4661,125.199 43.1328,127.699 44.5,130C 46.1667,130.667 47.8333,130.667 49.5,130C 50.2524,129.329 50.5858,128.496 50.5,127.5C 51.7079,128.234 53.0413,128.567 54.5,128.5C 53.5592,130.05 52.8925,131.716 52.5,133.5C 47.0747,137.198 41.0747,138.364 34.5,137C 33.9558,136.283 33.2891,135.783 32.5,135.5C 30.2947,133.637 28.9613,131.303 28.5,128.5C 29.1667,128.833 29.8333,129.167 30.5,129.5C 32.0519,131.035 33.3852,132.869 34.5,135C 38.5668,136.626 42.5668,136.626 46.5,135C 45.5838,134.626 44.7504,134.126 44,133.5C 43.0602,131.058 41.8935,128.725 40.5,126.5C 39.5224,126.977 38.6891,127.643 38,128.5C 36.9887,127.663 35.8221,127.33 34.5,127.5C 35.7255,126.063 36.7255,124.396 37.5,122.5C 39.2445,125.092 40.9112,125.092 42.5,122.5 Z"/></g>
<g><path style="opacity:1" fill="#682315" d="M 57.5,117.5 C 58.8699,117.856 59.8699,118.69 60.5,120C 59.561,124.198 58.561,128.365 57.5,132.5C 55.7085,132.366 54.0418,132.699 52.5,133.5C 52.8925,131.716 53.5592,130.05 54.5,128.5C 55.8194,124.911 56.8194,121.245 57.5,117.5 Z"/></g>
<g><path style="opacity:1" fill="#dd9c5a" d="M 65.5,119.5 C 66.8734,119.343 68.2068,119.51 69.5,120C 68.8333,120.333 68.1667,120.667 67.5,121C 68.5,122 69.5,123 70.5,124C 70.1976,125.655 68.8642,126.988 66.5,128C 67.2524,128.671 67.5858,129.504 67.5,130.5C 65.5328,130.261 63.6995,130.594 62,131.5C 61.5045,129.527 61.3379,127.527 61.5,125.5C 60.8911,122.122 62.2244,120.122 65.5,119.5 Z"/></g>
<g><path style="opacity:1" fill="#9d4232" d="M 30.5,129.5 C 31.287,127.896 32.6203,127.229 34.5,127.5C 35.8221,127.33 36.9887,127.663 38,128.5C 38.6891,127.643 39.5224,126.977 40.5,126.5C 41.8935,128.725 43.0602,131.058 44,133.5C 44.7504,134.126 45.5838,134.626 46.5,135C 42.5668,136.626 38.5668,136.626 34.5,135C 33.3852,132.869 32.0519,131.035 30.5,129.5 Z"/></g>
<g><path style="opacity:1" fill="#682e13" d="M 67.5,115.5 C 66.3398,117.203 67.0065,117.869 69.5,117.5C 68.1667,118.167 66.8333,118.833 65.5,119.5C 62.2244,120.122 60.8911,122.122 61.5,125.5C 59.7329,127.792 58.7329,130.458 58.5,133.5C 58.1667,133.5 57.8333,133.5 57.5,133.5C 57.5,133.167 57.5,132.833 57.5,132.5C 58.561,128.365 59.561,124.198 60.5,120C 59.8699,118.69 58.8699,117.856 57.5,117.5C 57.5,117.167 57.5,116.833 57.5,116.5C 60.9023,116.658 64.2356,116.324 67.5,115.5 Z"/></g>
<g><path style="opacity:1" fill="#672614" d="M 24.5,124.5 C 25.1667,124.833 25.8333,125.167 26.5,125.5C 26.9321,126.71 27.5987,127.71 28.5,128.5C 28.9613,131.303 30.2947,133.637 32.5,135.5C 30.629,135.141 29.129,134.141 28,132.5C 28.3554,133.959 28.1888,135.293 27.5,136.5C 25.8058,135.473 24.4725,134.139 23.5,132.5C 22.937,129.705 21.6037,127.372 19.5,125.5C 21.1703,125.751 22.6703,126.418 24,127.5C 24.4828,126.552 24.6495,125.552 24.5,124.5 Z"/></g>
<g><path style="opacity:1" fill="#d3965b" d="M 61.5,125.5 C 61.3379,127.527 61.5045,129.527 62,131.5C 63.6995,130.594 65.5328,130.261 67.5,130.5C 65.5,133.167 63.1667,135.5 60.5,137.5C 57.5189,137.206 56.8522,135.872 58.5,133.5C 58.7329,130.458 59.7329,127.792 61.5,125.5 Z"/></g>
<g><path style="opacity:0.831" fill="#523329" d="M 2.5,128.5 C 3.60895,128.557 4.60895,128.89 5.5,129.5C 7.43724,133.435 10.1039,136.768 13.5,139.5C 17.1905,142.192 20.1905,145.525 22.5,149.5C 14.478,143.811 7.81137,136.811 2.5,128.5 Z"/></g>
<g><path style="opacity:1" fill="#632417" d="M 80.5,117.5 C 80.6495,118.552 80.4828,119.552 80,120.5C 76.9457,122.366 75.4457,125.033 75.5,128.5C 72.8333,131.833 69.8333,134.833 66.5,137.5C 64.4352,137.517 62.4352,137.85 60.5,138.5C 60.5,138.167 60.5,137.833 60.5,137.5C 63.1667,135.5 65.5,133.167 67.5,130.5C 71.1667,127.5 74.5,124.167 77.5,120.5C 78.2719,119.306 79.2719,118.306 80.5,117.5 Z"/></g>
<g><path style="opacity:1" fill="#d89a5d" d="M 7.5,124.5 C 7.83333,124.5 8.16667,124.5 8.5,124.5C 9.97047,127.294 12.3038,128.961 15.5,129.5C 16.9305,129.579 18.2638,129.246 19.5,128.5C 20.84,129.867 22.1733,131.2 23.5,132.5C 24.4725,134.139 25.8058,135.473 27.5,136.5C 28.5,137.833 29.5,139.167 30.5,140.5C 28.9064,140.08 27.4064,139.414 26,138.5C 24.6583,139.313 23.4917,139.646 22.5,139.5C 24.6729,142.068 27.0062,144.401 29.5,146.5C 29.1667,146.5 28.8333,146.5 28.5,146.5C 25.5505,144.885 22.8838,142.885 20.5,140.5C 15.4091,135.746 11.0758,130.413 7.5,124.5 Z"/></g>
<g><path style="opacity:1" fill="#581f12" d="M 32.5,135.5 C 33.2891,135.783 33.9558,136.283 34.5,137C 41.0747,138.364 47.0747,137.198 52.5,133.5C 54.0418,132.699 55.7085,132.366 57.5,132.5C 57.5,132.833 57.5,133.167 57.5,133.5C 52.3927,140.546 45.3927,143.546 36.5,142.5C 34.5,141.833 32.5,141.167 30.5,140.5C 29.5,139.167 28.5,137.833 27.5,136.5C 28.1888,135.293 28.3554,133.959 28,132.5C 29.129,134.141 30.629,135.141 32.5,135.5 Z"/></g>
<g><path style="opacity:1" fill="#522e25" d="M 75.5,128.5 C 76.5,128.5 77.5,128.5 78.5,128.5C 71.7026,135.798 64.7026,142.965 57.5,150C 54.2333,152.13 50.9,153.963 47.5,155.5C 42.5,155.5 37.5,155.5 32.5,155.5C 29.976,154.26 27.3093,153.093 24.5,152C 23.6195,151.292 22.9528,150.458 22.5,149.5C 25.5525,149.572 28.2192,150.572 30.5,152.5C 38.9853,156.003 46.8186,155.003 54,149.5C 54.6172,148.551 54.4506,147.718 53.5,147C 54.8905,145.98 56.3905,145.147 58,144.5C 58.4828,143.552 58.6495,142.552 58.5,141.5C 62.2604,142.226 64.927,140.893 66.5,137.5C 69.8333,134.833 72.8333,131.833 75.5,128.5 Z"/></g>
<g><path style="opacity:1" fill="#c98851" d="M 57.5,133.5 C 57.8333,133.5 58.1667,133.5 58.5,133.5C 56.8522,135.872 57.5189,137.206 60.5,137.5C 60.5,137.833 60.5,138.167 60.5,138.5C 57.4552,141.547 54.1219,144.213 50.5,146.5C 49.6016,145.842 48.6016,145.176 47.5,144.5C 43.6875,143.833 40.0208,143.166 36.5,142.5C 45.3927,143.546 52.3927,140.546 57.5,133.5 Z"/></g>
<g><path style="opacity:1" fill="#d89756" d="M 30.5,140.5 C 32.5,141.167 34.5,141.833 36.5,142.5C 40.0208,143.166 43.6875,143.833 47.5,144.5C 48.6016,145.176 49.6016,145.842 50.5,146.5C 49.8333,146.5 49.5,146.833 49.5,147.5C 44.3477,149.43 39.0144,149.93 33.5,149C 31.9336,148.392 30.6002,147.558 29.5,146.5C 27.0062,144.401 24.6729,142.068 22.5,139.5C 23.4917,139.646 24.6583,139.313 26,138.5C 27.4064,139.414 28.9064,140.08 30.5,140.5 Z"/></g>
<g><path style="opacity:1" fill="#572016" d="M 13.5,139.5 C 15.861,139.674 18.1944,140.007 20.5,140.5C 22.8838,142.885 25.5505,144.885 28.5,146.5C 28.7822,147.778 29.4489,148.778 30.5,149.5C 30.5,150.5 30.5,151.5 30.5,152.5C 28.2192,150.572 25.5525,149.572 22.5,149.5C 20.1905,145.525 17.1905,142.192 13.5,139.5 Z"/></g>
<g><path style="opacity:1" fill="#682614" d="M 28.5,146.5 C 28.8333,146.5 29.1667,146.5 29.5,146.5C 30.6002,147.558 31.9336,148.392 33.5,149C 39.0144,149.93 44.3477,149.43 49.5,147.5C 47.0396,151.08 43.5396,152.747 39,152.5C 35.702,152.407 32.8686,151.407 30.5,149.5C 29.4489,148.778 28.7822,147.778 28.5,146.5 Z"/></g>
<g><path style="opacity:1" fill="#5c2217" d="M 66.5,137.5 C 64.927,140.893 62.2604,142.226 58.5,141.5C 58.6495,142.552 58.4828,143.552 58,144.5C 56.3905,145.147 54.8905,145.98 53.5,147C 54.4506,147.718 54.6172,148.551 54,149.5C 46.8186,155.003 38.9853,156.003 30.5,152.5C 30.5,151.5 30.5,150.5 30.5,149.5C 32.8686,151.407 35.702,152.407 39,152.5C 43.5396,152.747 47.0396,151.08 49.5,147.5C 49.5,146.833 49.8333,146.5 50.5,146.5C 54.1219,144.213 57.4552,141.547 60.5,138.5C 62.4352,137.85 64.4352,137.517 66.5,137.5 Z"/></g>
</svg>
